%TF.GenerationSoftware,Altium Limited,Altium Designer,25.4.2 (15)*%
G04 Layer_Physical_Order=2*
G04 Layer_Color=36540*
%FSLAX45Y45*%
%MOMM*%
%TF.SameCoordinates,9A986A7D-484F-4AC0-AE4B-942BB78B8B2C*%
%TF.FilePolarity,Positive*%
%TF.FileFunction,Copper,L2,Inr,Signal*%
%TF.Part,Single*%
G01*
G75*
%TA.AperFunction,ComponentPad*%
%ADD40C,1.20000*%
%ADD41C,2.00000*%
%ADD42C,0.80000*%
%ADD43O,1.15000X1.80000*%
%ADD44O,1.45000X2.00000*%
%ADD45C,3.10000*%
%ADD46C,1.05000*%
%TA.AperFunction,ViaPad*%
%ADD47C,0.50000*%
G36*
X13729083Y9063440D02*
X13760152Y9050571D01*
X13788110Y9031889D01*
X13800000Y9020000D01*
X13804755Y9015244D01*
X13812228Y9004060D01*
X13817377Y8991634D01*
X13820000Y8978441D01*
Y8971716D01*
Y5492426D01*
Y5482338D01*
X13816064Y5462550D01*
X13808344Y5443909D01*
X13797133Y5427133D01*
X13789999Y5420000D01*
X13780489Y5410489D01*
X13758121Y5395543D01*
X13733267Y5385248D01*
X13706882Y5380000D01*
X6813118D01*
X6786733Y5385248D01*
X6761879Y5395543D01*
X6739511Y5410489D01*
X6730000Y5420000D01*
X6722866Y5427133D01*
X6711657Y5443909D01*
X6703936Y5462550D01*
X6700000Y5482338D01*
Y5492426D01*
Y8990000D01*
Y8997133D01*
X6702783Y9011126D01*
X6708243Y9024307D01*
X6716169Y9036169D01*
X6721213Y9041213D01*
X6740000Y9060000D01*
X6740000Y9059999D01*
Y9060000D01*
X6756233Y9069095D01*
X6760779Y9070000D01*
X13696103D01*
X13729083Y9063440D01*
D02*
G37*
%LPC*%
G36*
X13713574Y8926500D02*
X13693826D01*
X13674751Y8921389D01*
X13657649Y8911515D01*
X13643684Y8897551D01*
X13633810Y8880449D01*
X13628700Y8861374D01*
Y8841626D01*
X13633810Y8822551D01*
X13643684Y8805449D01*
X13657649Y8791485D01*
X13674751Y8781611D01*
X13693826Y8776500D01*
X13713574D01*
X13732649Y8781611D01*
X13749751Y8791485D01*
X13763715Y8805449D01*
X13773589Y8822551D01*
X13778700Y8841626D01*
Y8861374D01*
X13773589Y8880449D01*
X13763715Y8897551D01*
X13749751Y8911515D01*
X13732649Y8921389D01*
X13713574Y8926500D01*
D02*
G37*
G36*
X13464841Y8966500D02*
X13434560D01*
X13405312Y8958663D01*
X13379088Y8943523D01*
X13357677Y8922112D01*
X13342537Y8895888D01*
X13334700Y8866640D01*
Y8836360D01*
X13342537Y8807112D01*
X13357677Y8780888D01*
X13379088Y8759477D01*
X13405312Y8744337D01*
X13434560Y8736500D01*
X13464841D01*
X13494089Y8744337D01*
X13520312Y8759477D01*
X13541724Y8780888D01*
X13556863Y8807112D01*
X13564700Y8836360D01*
Y8866640D01*
X13556863Y8895888D01*
X13541724Y8922112D01*
X13520312Y8943523D01*
X13494089Y8958663D01*
X13464841Y8966500D01*
D02*
G37*
G36*
X7088751Y9023500D02*
X7056249D01*
X7024371Y9017159D01*
X6994343Y9004721D01*
X6967319Y8986664D01*
X6944336Y8963681D01*
X6926279Y8936657D01*
X6913841Y8906629D01*
X6907500Y8874751D01*
Y8842249D01*
X6913841Y8810371D01*
X6926279Y8780343D01*
X6944336Y8753319D01*
X6967319Y8730336D01*
X6994343Y8712279D01*
X7024371Y8699841D01*
X7056249Y8693500D01*
X7088751D01*
X7120629Y8699841D01*
X7150657Y8712279D01*
X7177681Y8730336D01*
X7200664Y8753319D01*
X7218721Y8780343D01*
X7231159Y8810371D01*
X7237500Y8842249D01*
Y8874751D01*
X7231159Y8906629D01*
X7218721Y8936657D01*
X7200664Y8963681D01*
X7177681Y8986664D01*
X7150657Y9004721D01*
X7120629Y9017159D01*
X7088751Y9023500D01*
D02*
G37*
G36*
X8143228Y8722110D02*
X8125455D01*
X8108287Y8717510D01*
X8092895Y8708623D01*
X8080328Y8696056D01*
X8071441Y8680664D01*
X8066841Y8663496D01*
Y8645723D01*
X8071441Y8628556D01*
X8080328Y8613164D01*
X8092895Y8600596D01*
X8108287Y8591710D01*
X8125455Y8587110D01*
X8143228D01*
X8160395Y8591710D01*
X8175787Y8600596D01*
X8188354Y8613164D01*
X8197241Y8628556D01*
X8201841Y8645723D01*
Y8663496D01*
X8197241Y8680664D01*
X8188354Y8696056D01*
X8175787Y8708623D01*
X8160395Y8717510D01*
X8143228Y8722110D01*
D02*
G37*
G36*
X7983228D02*
X7965455D01*
X7948287Y8717510D01*
X7932895Y8708623D01*
X7920328Y8696056D01*
X7911441Y8680664D01*
X7906841Y8663496D01*
Y8645723D01*
X7911441Y8628556D01*
X7920328Y8613164D01*
X7932895Y8600596D01*
X7948287Y8591710D01*
X7965455Y8587110D01*
X7983228D01*
X8000395Y8591710D01*
X8015787Y8600596D01*
X8028355Y8613164D01*
X8037241Y8628556D01*
X8041841Y8645723D01*
Y8663496D01*
X8037241Y8680664D01*
X8028355Y8696056D01*
X8015787Y8708623D01*
X8000395Y8717510D01*
X7983228Y8722110D01*
D02*
G37*
G36*
X7823228D02*
X7805455D01*
X7788287Y8717510D01*
X7772895Y8708623D01*
X7760328Y8696056D01*
X7751441Y8680664D01*
X7746841Y8663496D01*
Y8645723D01*
X7751441Y8628556D01*
X7760328Y8613164D01*
X7772895Y8600596D01*
X7788287Y8591710D01*
X7805455Y8587110D01*
X7823228D01*
X7840395Y8591710D01*
X7855787Y8600596D01*
X7868355Y8613164D01*
X7877241Y8628556D01*
X7881841Y8645723D01*
Y8663496D01*
X7877241Y8680664D01*
X7868355Y8696056D01*
X7855787Y8708623D01*
X7840395Y8717510D01*
X7823228Y8722110D01*
D02*
G37*
G36*
X13713574Y8672500D02*
X13693826D01*
X13674751Y8667389D01*
X13657649Y8657515D01*
X13643684Y8643551D01*
X13633810Y8626449D01*
X13628700Y8607374D01*
Y8587626D01*
X13633810Y8568551D01*
X13643684Y8551449D01*
X13657649Y8537485D01*
X13674751Y8527611D01*
X13693826Y8522500D01*
X13713574D01*
X13732649Y8527611D01*
X13749751Y8537485D01*
X13763715Y8551449D01*
X13773589Y8568551D01*
X13778700Y8587626D01*
Y8607374D01*
X13773589Y8626449D01*
X13763715Y8643551D01*
X13749751Y8657515D01*
X13732649Y8667389D01*
X13713574Y8672500D01*
D02*
G37*
G36*
X13464841Y8712500D02*
X13434560D01*
X13405312Y8704663D01*
X13379088Y8689523D01*
X13357677Y8668112D01*
X13342537Y8641888D01*
X13334700Y8612640D01*
Y8582360D01*
X13342537Y8553112D01*
X13357677Y8526888D01*
X13379088Y8505477D01*
X13405312Y8490337D01*
X13434560Y8482500D01*
X13464841D01*
X13494089Y8490337D01*
X13520312Y8505477D01*
X13541724Y8526888D01*
X13556863Y8553112D01*
X13564700Y8582360D01*
Y8612640D01*
X13556863Y8641888D01*
X13541724Y8668112D01*
X13520312Y8689523D01*
X13494089Y8704663D01*
X13464841Y8712500D01*
D02*
G37*
G36*
X8747957Y8480000D02*
X8732043D01*
X8717342Y8473910D01*
X8706090Y8462658D01*
X8700000Y8447956D01*
Y8432043D01*
X8706090Y8417342D01*
X8717342Y8406090D01*
X8732043Y8400000D01*
X8747957D01*
X8762658Y8406090D01*
X8773910Y8417342D01*
X8780000Y8432043D01*
Y8447956D01*
X8773910Y8462658D01*
X8762658Y8473910D01*
X8747957Y8480000D01*
D02*
G37*
G36*
X8063228Y8532110D02*
X8045455D01*
X8028287Y8527510D01*
X8012895Y8518623D01*
X8000328Y8506056D01*
X7991441Y8490664D01*
X7986841Y8473496D01*
Y8455723D01*
X7991441Y8438556D01*
X8000328Y8423164D01*
X8012895Y8410596D01*
X8028287Y8401710D01*
X8045455Y8397110D01*
X8063228D01*
X8080395Y8401710D01*
X8095787Y8410596D01*
X8108355Y8423164D01*
X8117241Y8438556D01*
X8121841Y8455723D01*
Y8473496D01*
X8117241Y8490664D01*
X8108355Y8506056D01*
X8095787Y8518623D01*
X8080395Y8527510D01*
X8063228Y8532110D01*
D02*
G37*
G36*
X13713574Y8418500D02*
X13693826D01*
X13674751Y8413389D01*
X13657649Y8403515D01*
X13643684Y8389551D01*
X13633810Y8372449D01*
X13628700Y8353374D01*
Y8333626D01*
X13633810Y8314551D01*
X13643684Y8297449D01*
X13657649Y8283485D01*
X13674751Y8273611D01*
X13693826Y8268500D01*
X13713574D01*
X13732649Y8273611D01*
X13749751Y8283485D01*
X13763715Y8297449D01*
X13773589Y8314551D01*
X13778700Y8333626D01*
Y8353374D01*
X13773589Y8372449D01*
X13763715Y8389551D01*
X13749751Y8403515D01*
X13732649Y8413389D01*
X13713574Y8418500D01*
D02*
G37*
G36*
X7831214Y8310000D02*
X7815301D01*
X7800600Y8303910D01*
X7789347Y8292658D01*
X7783258Y8277957D01*
Y8262043D01*
X7789347Y8247342D01*
X7800600Y8236090D01*
X7815301Y8230000D01*
X7831214D01*
X7845916Y8236090D01*
X7857168Y8247342D01*
X7863258Y8262043D01*
Y8277957D01*
X7857168Y8292658D01*
X7845916Y8303910D01*
X7831214Y8310000D01*
D02*
G37*
G36*
X11977956Y8250000D02*
X11962043D01*
X11947342Y8243910D01*
X11936090Y8232658D01*
X11930000Y8217957D01*
Y8202044D01*
X11936090Y8187342D01*
X11947342Y8176090D01*
X11962043Y8170000D01*
X11977956D01*
X11992658Y8176090D01*
X12003910Y8187342D01*
X12010000Y8202044D01*
Y8217957D01*
X12003910Y8232658D01*
X11992658Y8243910D01*
X11977956Y8250000D01*
D02*
G37*
G36*
X8063697Y8185740D02*
X8047783D01*
X8033082Y8179650D01*
X8021830Y8168398D01*
X8015740Y8153697D01*
Y8137784D01*
X8021830Y8123082D01*
X8033082Y8111830D01*
X8047783Y8105740D01*
X8063697D01*
X8078398Y8111830D01*
X8089650Y8123082D01*
X8095740Y8137784D01*
Y8153697D01*
X8089650Y8168398D01*
X8078398Y8179650D01*
X8063697Y8185740D01*
D02*
G37*
G36*
X9007957Y8120000D02*
X8992043D01*
X8977342Y8113910D01*
X8966090Y8102658D01*
X8960000Y8087957D01*
Y8072044D01*
X8966090Y8057342D01*
X8977342Y8046090D01*
X8992043Y8040000D01*
X9007957D01*
X9022658Y8046090D01*
X9033910Y8057342D01*
X9040000Y8072044D01*
Y8087957D01*
X9033910Y8102658D01*
X9022658Y8113910D01*
X9007957Y8120000D01*
D02*
G37*
G36*
X8597957Y8060000D02*
X8582044D01*
X8567342Y8053910D01*
X8556090Y8042658D01*
X8550000Y8027957D01*
Y8012043D01*
X8556090Y7997342D01*
X8567342Y7986090D01*
X8582044Y7980000D01*
X8597957D01*
X8612658Y7986090D01*
X8623910Y7997342D01*
X8630000Y8012043D01*
Y8027957D01*
X8623910Y8042658D01*
X8612658Y8053910D01*
X8597957Y8060000D01*
D02*
G37*
G36*
X13713574Y8012500D02*
X13693826D01*
X13674751Y8007389D01*
X13657649Y7997515D01*
X13643684Y7983551D01*
X13633810Y7966449D01*
X13628700Y7947374D01*
Y7927626D01*
X13633810Y7908551D01*
X13643684Y7891449D01*
X13657649Y7877485D01*
X13674751Y7867611D01*
X13693826Y7862500D01*
X13713574D01*
X13732649Y7867611D01*
X13749751Y7877485D01*
X13763715Y7891449D01*
X13773589Y7908551D01*
X13778700Y7927626D01*
Y7947374D01*
X13773589Y7966449D01*
X13763715Y7983551D01*
X13749751Y7997515D01*
X13732649Y8007389D01*
X13713574Y8012500D01*
D02*
G37*
G36*
X7837957Y7840000D02*
X7822044D01*
X7807342Y7833910D01*
X7796090Y7822658D01*
X7790000Y7807956D01*
Y7792043D01*
X7796090Y7777342D01*
X7807342Y7766090D01*
X7822044Y7760000D01*
X7837957D01*
X7852658Y7766090D01*
X7863910Y7777342D01*
X7870000Y7792043D01*
Y7807956D01*
X7863910Y7822658D01*
X7852658Y7833910D01*
X7837957Y7840000D01*
D02*
G37*
G36*
X7817956Y7730000D02*
X7802043D01*
X7787342Y7723910D01*
X7776090Y7712658D01*
X7770000Y7697957D01*
Y7682044D01*
X7776090Y7667342D01*
X7787342Y7656090D01*
X7802043Y7650000D01*
X7817956D01*
X7832658Y7656090D01*
X7843910Y7667342D01*
X7850000Y7682044D01*
Y7697957D01*
X7843910Y7712658D01*
X7832658Y7723910D01*
X7817956Y7730000D01*
D02*
G37*
G36*
X13107957Y7815000D02*
X13092043D01*
X13077342Y7808910D01*
X13066090Y7797658D01*
X13060001Y7782956D01*
Y7767043D01*
X13066090Y7752342D01*
X13077342Y7741090D01*
X13086754Y7737191D01*
X13085001Y7732956D01*
Y7717043D01*
X13086754Y7712809D01*
X13077342Y7708910D01*
X13066090Y7697658D01*
X13060001Y7682956D01*
Y7667043D01*
X13066090Y7652342D01*
X13077342Y7641090D01*
X13092043Y7635000D01*
X13107957D01*
X13120728Y7640290D01*
X13124048Y7640592D01*
X13143484Y7633632D01*
X13146091Y7627342D01*
X13157343Y7616090D01*
X13172044Y7610000D01*
X13187956D01*
X13202658Y7616090D01*
X13213910Y7627342D01*
X13218611Y7638689D01*
X13223439Y7641079D01*
X13229828Y7642725D01*
X13239999Y7643431D01*
X13247342Y7636090D01*
X13262044Y7630000D01*
X13277956D01*
X13292657Y7636090D01*
X13303909Y7647342D01*
X13310001Y7662043D01*
Y7677956D01*
X13303909Y7692658D01*
X13292657Y7703910D01*
X13279951Y7709174D01*
X13277957Y7715971D01*
X13277957Y7730000D01*
X13279378Y7730589D01*
X13292657Y7736090D01*
X13303909Y7747342D01*
X13310001Y7762043D01*
Y7777957D01*
X13303909Y7792658D01*
X13292657Y7803910D01*
X13277956Y7810000D01*
X13262044D01*
X13247342Y7803910D01*
X13242786Y7799353D01*
X13230000Y7794818D01*
X13217215Y7799353D01*
X13212659Y7803910D01*
X13197957Y7810000D01*
X13182043D01*
X13167342Y7803910D01*
X13156090Y7792658D01*
X13135211Y7794516D01*
X13133910Y7797658D01*
X13122658Y7808910D01*
X13107957Y7815000D01*
D02*
G37*
G36*
X13713574Y7758500D02*
X13693826D01*
X13674751Y7753389D01*
X13657649Y7743515D01*
X13643684Y7729551D01*
X13633810Y7712449D01*
X13628700Y7693374D01*
Y7673626D01*
X13633810Y7654551D01*
X13643684Y7637449D01*
X13657649Y7623485D01*
X13674751Y7613611D01*
X13693826Y7608500D01*
X13713574D01*
X13732649Y7613611D01*
X13749751Y7623485D01*
X13763715Y7637449D01*
X13773589Y7654551D01*
X13778700Y7673626D01*
Y7693374D01*
X13773589Y7712449D01*
X13763715Y7729551D01*
X13749751Y7743515D01*
X13732649Y7753389D01*
X13713574Y7758500D01*
D02*
G37*
G36*
X13464841Y7798500D02*
X13434560D01*
X13405312Y7790663D01*
X13379088Y7775523D01*
X13357677Y7754112D01*
X13342537Y7727888D01*
X13334700Y7698640D01*
Y7668360D01*
X13342537Y7639112D01*
X13357677Y7612888D01*
X13379088Y7591477D01*
X13405312Y7576337D01*
X13434560Y7568500D01*
X13464841D01*
X13494089Y7576337D01*
X13520312Y7591477D01*
X13541724Y7612888D01*
X13556863Y7639112D01*
X13564700Y7668360D01*
Y7698640D01*
X13556863Y7727888D01*
X13541724Y7754112D01*
X13520312Y7775523D01*
X13494089Y7790663D01*
X13464841Y7798500D01*
D02*
G37*
G36*
X10507957Y7570000D02*
X10492044D01*
X10477342Y7563910D01*
X10470000Y7556568D01*
X10462658Y7563910D01*
X10447956Y7570000D01*
X10432043D01*
X10417342Y7563910D01*
X10405000Y7553571D01*
X10392658Y7563910D01*
X10377957Y7570000D01*
X10362044D01*
X10347342Y7563910D01*
X10335000Y7553571D01*
X10322658Y7563910D01*
X10307957Y7570000D01*
X10292043D01*
X10277342Y7563910D01*
X10266090Y7552658D01*
X10260000Y7537956D01*
Y7522043D01*
X10266090Y7507342D01*
X10276429Y7495000D01*
X10266089Y7482658D01*
X10260000Y7467956D01*
Y7452043D01*
X10266090Y7437342D01*
X10277342Y7426090D01*
X10292043Y7420000D01*
X10307957D01*
X10322658Y7426090D01*
X10335000Y7436429D01*
X10347342Y7426089D01*
X10362044Y7420000D01*
X10377957D01*
X10392658Y7426090D01*
X10405000Y7436429D01*
X10417342Y7426089D01*
X10432043Y7420000D01*
X10447956D01*
X10462658Y7426090D01*
X10470000Y7433431D01*
X10477342Y7426090D01*
X10492044Y7420000D01*
X10507957D01*
X10522658Y7426090D01*
X10533910Y7437342D01*
X10540000Y7452043D01*
Y7467956D01*
X10533910Y7482658D01*
X10523571Y7495000D01*
X10533911Y7507342D01*
X10540000Y7522043D01*
Y7537956D01*
X10533910Y7552658D01*
X10522658Y7563910D01*
X10507957Y7570000D01*
D02*
G37*
G36*
X13282956Y7517957D02*
X13267043D01*
X13252342Y7511867D01*
X13247784Y7507310D01*
X13235001Y7502775D01*
X13222215Y7507310D01*
X13217657Y7511867D01*
X13202957Y7517957D01*
X13187044D01*
X13172342Y7511867D01*
X13161090Y7500615D01*
X13157712Y7492459D01*
X13136523Y7491352D01*
X13133910Y7497658D01*
X13122658Y7508910D01*
X13107957Y7515000D01*
X13092043D01*
X13077342Y7508910D01*
X13066090Y7497658D01*
X13060001Y7482957D01*
Y7467043D01*
X13066090Y7452342D01*
X13077342Y7441090D01*
X13086754Y7437191D01*
X13085001Y7432956D01*
Y7417043D01*
X13086754Y7412809D01*
X13077342Y7408910D01*
X13066090Y7397658D01*
X13060001Y7382957D01*
Y7367043D01*
X13066090Y7352342D01*
X13077342Y7341090D01*
X13092043Y7335000D01*
X13107957D01*
X13122658Y7341090D01*
X13133910Y7352342D01*
X13137288Y7360497D01*
X13158476Y7361605D01*
X13161090Y7355298D01*
X13172342Y7344046D01*
X13187044Y7337957D01*
X13202957D01*
X13217657Y7344046D01*
X13222215Y7348603D01*
X13235001Y7353138D01*
X13247784Y7348603D01*
X13252342Y7344046D01*
X13267043Y7337957D01*
X13282956D01*
X13297658Y7344046D01*
X13308910Y7355298D01*
X13314999Y7370000D01*
Y7385913D01*
X13308910Y7400615D01*
X13297658Y7411867D01*
X13282957Y7417956D01*
X13282172Y7427955D01*
X13282957Y7437957D01*
X13297658Y7444046D01*
X13308910Y7455299D01*
X13314999Y7470000D01*
Y7485913D01*
X13308910Y7500615D01*
X13297658Y7511867D01*
X13282956Y7517957D01*
D02*
G37*
G36*
X12207957Y7500000D02*
X12192043D01*
X12177342Y7493910D01*
X12166090Y7482658D01*
X12160000Y7467957D01*
Y7452044D01*
X12166090Y7437342D01*
X12177342Y7426090D01*
X12192043Y7420000D01*
X12207957D01*
X12222658Y7426090D01*
X12233910Y7437342D01*
X12240000Y7452044D01*
Y7467957D01*
X12233910Y7482658D01*
X12222658Y7493910D01*
X12207957Y7500000D01*
D02*
G37*
G36*
X12471604Y7478877D02*
X12455691D01*
X12440990Y7472787D01*
X12429738Y7461535D01*
X12423648Y7446834D01*
Y7430921D01*
X12429738Y7416219D01*
X12440990Y7404967D01*
X12455691Y7398877D01*
X12471604D01*
X12486306Y7404967D01*
X12497558Y7416219D01*
X12503648Y7430921D01*
Y7446834D01*
X12497558Y7461535D01*
X12486306Y7472787D01*
X12471604Y7478877D01*
D02*
G37*
G36*
X13713574Y7504500D02*
X13693826D01*
X13674751Y7499389D01*
X13657649Y7489515D01*
X13643684Y7475551D01*
X13633810Y7458449D01*
X13628700Y7439374D01*
Y7419626D01*
X13633810Y7400551D01*
X13643684Y7383449D01*
X13657649Y7369485D01*
X13674751Y7359611D01*
X13693826Y7354500D01*
X13713574D01*
X13732649Y7359611D01*
X13749751Y7369485D01*
X13763715Y7383449D01*
X13773589Y7400551D01*
X13778700Y7419626D01*
Y7439374D01*
X13773589Y7458449D01*
X13763715Y7475551D01*
X13749751Y7489515D01*
X13732649Y7499389D01*
X13713574Y7504500D01*
D02*
G37*
G36*
X7807956Y7430000D02*
X7792043D01*
X7777342Y7423910D01*
X7766090Y7412658D01*
X7760000Y7397957D01*
Y7382043D01*
X7766090Y7367342D01*
X7777342Y7356090D01*
X7792043Y7350000D01*
X7807956D01*
X7822658Y7356090D01*
X7833910Y7367342D01*
X7840000Y7382043D01*
Y7397957D01*
X7833910Y7412658D01*
X7822658Y7423910D01*
X7807956Y7430000D01*
D02*
G37*
G36*
X8390000Y7410000D02*
X8374087D01*
X8359385Y7403910D01*
X8348133Y7392658D01*
X8342044Y7377957D01*
Y7362043D01*
X8348133Y7347342D01*
X8359385Y7336090D01*
X8374087Y7330000D01*
X8390000D01*
X8404702Y7336090D01*
X8415954Y7347342D01*
X8422043Y7362043D01*
Y7377957D01*
X8415954Y7392658D01*
X8404702Y7403910D01*
X8390000Y7410000D01*
D02*
G37*
G36*
X11727956Y7340000D02*
X11712043D01*
X11697342Y7333910D01*
X11685000Y7323571D01*
X11672658Y7333910D01*
X11657957Y7340000D01*
X11642044D01*
X11627342Y7333910D01*
X11620000Y7326568D01*
X11612658Y7333910D01*
X11597956Y7340000D01*
X11582043D01*
X11567342Y7333910D01*
X11556090Y7322658D01*
X11550000Y7307956D01*
Y7292043D01*
X11556090Y7277342D01*
X11566429Y7265000D01*
X11556089Y7252658D01*
X11550000Y7237957D01*
Y7222043D01*
X11556090Y7207342D01*
X11567342Y7196090D01*
X11582043Y7190000D01*
X11597956D01*
X11612658Y7196090D01*
X11625000Y7206429D01*
X11637342Y7196089D01*
X11652043Y7190000D01*
X11667957D01*
X11682658Y7196090D01*
X11690000Y7203432D01*
X11697342Y7196090D01*
X11712043Y7190000D01*
X11727956D01*
X11742658Y7196090D01*
X11753910Y7207342D01*
X11760000Y7222043D01*
Y7237957D01*
X11753910Y7252658D01*
X11743571Y7265000D01*
X11753910Y7277342D01*
X11760000Y7292043D01*
Y7307956D01*
X11753910Y7322658D01*
X11742658Y7333910D01*
X11727956Y7340000D01*
D02*
G37*
G36*
X13464841Y7544500D02*
X13434560D01*
X13405312Y7536663D01*
X13379088Y7521523D01*
X13357677Y7500112D01*
X13342537Y7473888D01*
X13334700Y7444640D01*
Y7414360D01*
X13342537Y7385112D01*
X13357677Y7358888D01*
X13379088Y7337477D01*
X13405312Y7322337D01*
X13434560Y7314500D01*
X13464841D01*
X13494089Y7322337D01*
X13520312Y7337477D01*
X13541724Y7358888D01*
X13556863Y7385112D01*
X13564700Y7414360D01*
Y7444640D01*
X13556863Y7473888D01*
X13541724Y7500112D01*
X13520312Y7521523D01*
X13494089Y7536663D01*
X13464841Y7544500D01*
D02*
G37*
G36*
X11994046Y7307342D02*
X11978133D01*
X11963432Y7301252D01*
X11952180Y7290000D01*
X11946090Y7275298D01*
Y7259385D01*
X11952180Y7244684D01*
X11963432Y7233432D01*
X11978133Y7227342D01*
X11994046D01*
X12008748Y7233432D01*
X12020000Y7244684D01*
X12026090Y7259385D01*
Y7275298D01*
X12020000Y7290000D01*
X12008748Y7301252D01*
X11994046Y7307342D01*
D02*
G37*
G36*
X7806595Y7305502D02*
X7790682D01*
X7775981Y7299412D01*
X7764728Y7288160D01*
X7758639Y7273459D01*
Y7257546D01*
X7764728Y7242844D01*
X7775981Y7231592D01*
X7790682Y7225502D01*
X7806595D01*
X7821297Y7231592D01*
X7832549Y7242844D01*
X7838639Y7257546D01*
Y7273459D01*
X7832549Y7288160D01*
X7821297Y7299412D01*
X7806595Y7305502D01*
D02*
G37*
G36*
X12707957Y7240000D02*
X12692043D01*
X12677342Y7233910D01*
X12666090Y7222658D01*
X12660000Y7207957D01*
Y7192044D01*
X12666090Y7177342D01*
X12677342Y7166090D01*
X12692043Y7160000D01*
X12707957D01*
X12722658Y7166090D01*
X12733910Y7177342D01*
X12740000Y7192044D01*
Y7207957D01*
X12733910Y7222658D01*
X12722658Y7233910D01*
X12707957Y7240000D01*
D02*
G37*
G36*
X12217957Y7230000D02*
X12202043D01*
X12187342Y7223910D01*
X12176090Y7212658D01*
X12170000Y7197957D01*
Y7182044D01*
X12176090Y7167342D01*
X12187342Y7156090D01*
X12202043Y7150000D01*
X12217957D01*
X12232658Y7156090D01*
X12243910Y7167342D01*
X12250000Y7182044D01*
Y7197957D01*
X12243910Y7212658D01*
X12232658Y7223910D01*
X12217957Y7230000D01*
D02*
G37*
G36*
X9811135Y7098150D02*
X9795222D01*
X9780521Y7092060D01*
X9769268Y7080808D01*
X9763179Y7066107D01*
Y7050193D01*
X9769268Y7035492D01*
X9780521Y7024240D01*
X9795222Y7018150D01*
X9811135D01*
X9825837Y7024240D01*
X9837089Y7035492D01*
X9843179Y7050193D01*
Y7066107D01*
X9837089Y7080808D01*
X9825837Y7092060D01*
X9811135Y7098150D01*
D02*
G37*
G36*
X9637957Y7080000D02*
X9622043D01*
X9607342Y7073910D01*
X9596090Y7062658D01*
X9590000Y7047956D01*
Y7032043D01*
X9596090Y7017342D01*
X9607342Y7006090D01*
X9622043Y7000000D01*
X9637957D01*
X9652658Y7006090D01*
X9663910Y7017342D01*
X9670000Y7032043D01*
Y7047956D01*
X9663910Y7062658D01*
X9652658Y7073910D01*
X9637957Y7080000D01*
D02*
G37*
G36*
X13713574Y7110800D02*
X13693826D01*
X13674751Y7105689D01*
X13657649Y7095815D01*
X13643684Y7081851D01*
X13633810Y7064749D01*
X13628700Y7045674D01*
Y7025926D01*
X13633810Y7006851D01*
X13643684Y6989749D01*
X13657649Y6975785D01*
X13674751Y6965911D01*
X13693826Y6960800D01*
X13713574D01*
X13732649Y6965911D01*
X13749751Y6975785D01*
X13763715Y6989749D01*
X13773589Y7006851D01*
X13778700Y7025926D01*
Y7045674D01*
X13773589Y7064749D01*
X13763715Y7081851D01*
X13749751Y7095815D01*
X13732649Y7105689D01*
X13713574Y7110800D01*
D02*
G37*
G36*
X12187957Y7030000D02*
X12172043D01*
X12157342Y7023910D01*
X12146090Y7012658D01*
X12140000Y6997957D01*
Y6982043D01*
X12146090Y6967342D01*
X12157342Y6956090D01*
X12172043Y6950000D01*
X12187957D01*
X12202658Y6956090D01*
X12213910Y6967342D01*
X12220000Y6982043D01*
Y6997957D01*
X12213910Y7012658D01*
X12202658Y7023910D01*
X12187957Y7030000D01*
D02*
G37*
G36*
X12287957Y7020000D02*
X12272044D01*
X12257342Y7013910D01*
X12246090Y7002658D01*
X12240000Y6987957D01*
Y6972043D01*
X12246090Y6957342D01*
X12257342Y6946090D01*
X12272044Y6940000D01*
X12287957D01*
X12302658Y6946090D01*
X12313910Y6957342D01*
X12320000Y6972043D01*
Y6987957D01*
X12313910Y7002658D01*
X12302658Y7013910D01*
X12287957Y7020000D01*
D02*
G37*
G36*
X8177956D02*
X8162043D01*
X8147342Y7013910D01*
X8136090Y7002658D01*
X8130000Y6987957D01*
Y6972043D01*
X8136090Y6957342D01*
X8147342Y6946090D01*
X8162043Y6940000D01*
X8177956D01*
X8192658Y6946090D01*
X8203910Y6957342D01*
X8210000Y6972043D01*
Y6987957D01*
X8203910Y7002658D01*
X8192658Y7013910D01*
X8177956Y7020000D01*
D02*
G37*
G36*
X12417957Y7010000D02*
X12402044D01*
X12387342Y7003910D01*
X12376090Y6992658D01*
X12370000Y6977957D01*
Y6962043D01*
X12376090Y6947342D01*
X12387342Y6936090D01*
X12402044Y6930000D01*
X12417957D01*
X12432658Y6936090D01*
X12443910Y6947342D01*
X12450000Y6962043D01*
Y6977957D01*
X12443910Y6992658D01*
X12432658Y7003910D01*
X12417957Y7010000D01*
D02*
G37*
G36*
X13464841Y7150800D02*
X13434560D01*
X13405312Y7142963D01*
X13379088Y7127823D01*
X13357677Y7106412D01*
X13342537Y7080188D01*
X13334700Y7050940D01*
Y7020660D01*
X13342537Y6991412D01*
X13357677Y6965188D01*
X13379088Y6943777D01*
X13405312Y6928637D01*
X13434560Y6920800D01*
X13464841D01*
X13494089Y6928637D01*
X13520312Y6943777D01*
X13541724Y6965188D01*
X13556863Y6991412D01*
X13564700Y7020660D01*
Y7050940D01*
X13556863Y7080188D01*
X13541724Y7106412D01*
X13520312Y7127823D01*
X13494089Y7142963D01*
X13464841Y7150800D01*
D02*
G37*
G36*
X11477956Y6940000D02*
X11462043D01*
X11447342Y6933910D01*
X11436090Y6922658D01*
X11430000Y6907956D01*
Y6892043D01*
X11436090Y6877342D01*
X11447342Y6866090D01*
X11462043Y6860000D01*
X11477956D01*
X11492658Y6866090D01*
X11503910Y6877342D01*
X11510000Y6892043D01*
Y6907956D01*
X11503910Y6922658D01*
X11492658Y6933910D01*
X11477956Y6940000D01*
D02*
G37*
G36*
X10964701Y6900549D02*
X10948788D01*
X10934086Y6894459D01*
X10922834Y6883207D01*
X10916744Y6868505D01*
Y6852592D01*
X10922834Y6837891D01*
X10934086Y6826638D01*
X10948788Y6820549D01*
X10964701D01*
X10979402Y6826638D01*
X10990655Y6837891D01*
X10996744Y6852592D01*
Y6868505D01*
X10990655Y6883207D01*
X10979402Y6894459D01*
X10964701Y6900549D01*
D02*
G37*
G36*
X12237956Y6900000D02*
X12222043D01*
X12207342Y6893910D01*
X12196090Y6882658D01*
X12190000Y6867957D01*
Y6852043D01*
X12196090Y6837342D01*
X12207342Y6826090D01*
X12222043Y6820000D01*
X12237956D01*
X12252658Y6826090D01*
X12263910Y6837342D01*
X12270000Y6852043D01*
Y6867957D01*
X12263910Y6882658D01*
X12252658Y6893910D01*
X12237956Y6900000D01*
D02*
G37*
G36*
X8935913Y6870000D02*
X8920000D01*
X8905298Y6863910D01*
X8894046Y6852658D01*
X8887957Y6837957D01*
Y6822044D01*
X8894046Y6807342D01*
X8905298Y6796090D01*
X8920000Y6790000D01*
X8935913D01*
X8950615Y6796090D01*
X8961867Y6807342D01*
X8967956Y6822044D01*
Y6837957D01*
X8961867Y6852658D01*
X8950615Y6863910D01*
X8935913Y6870000D01*
D02*
G37*
G36*
X11677957Y6820000D02*
X11662043D01*
X11647342Y6813910D01*
X11636090Y6802658D01*
X11630000Y6787956D01*
Y6772043D01*
X11636090Y6757342D01*
X11647342Y6746090D01*
X11662043Y6740000D01*
X11677957D01*
X11692658Y6746090D01*
X11703910Y6757342D01*
X11710000Y6772043D01*
Y6787956D01*
X11703910Y6802658D01*
X11692658Y6813910D01*
X11677957Y6820000D01*
D02*
G37*
G36*
X13713574Y6856800D02*
X13693826D01*
X13674751Y6851689D01*
X13657649Y6841815D01*
X13643684Y6827851D01*
X13633810Y6810749D01*
X13628700Y6791674D01*
Y6771926D01*
X13633810Y6752851D01*
X13643684Y6735749D01*
X13657649Y6721785D01*
X13674751Y6711911D01*
X13693826Y6706800D01*
X13713574D01*
X13732649Y6711911D01*
X13749751Y6721785D01*
X13763715Y6735749D01*
X13773589Y6752851D01*
X13778700Y6771926D01*
Y6791674D01*
X13773589Y6810749D01*
X13763715Y6827851D01*
X13749751Y6841815D01*
X13732649Y6851689D01*
X13713574Y6856800D01*
D02*
G37*
G36*
X8897957Y6760000D02*
X8882043D01*
X8867342Y6753910D01*
X8856090Y6742658D01*
X8850000Y6727957D01*
Y6712043D01*
X8856090Y6697342D01*
X8867342Y6686090D01*
X8882043Y6680000D01*
X8897957D01*
X8912658Y6686090D01*
X8923910Y6697342D01*
X8930000Y6712043D01*
Y6727957D01*
X8923910Y6742658D01*
X8912658Y6753910D01*
X8897957Y6760000D01*
D02*
G37*
G36*
X13464841Y6896800D02*
X13434560D01*
X13405312Y6888963D01*
X13379088Y6873823D01*
X13357677Y6852412D01*
X13342537Y6826188D01*
X13334700Y6796940D01*
Y6766660D01*
X13342537Y6737412D01*
X13357677Y6711188D01*
X13379088Y6689777D01*
X13405312Y6674637D01*
X13434560Y6666800D01*
X13464841D01*
X13494089Y6674637D01*
X13520312Y6689777D01*
X13541724Y6711188D01*
X13556863Y6737412D01*
X13564700Y6766660D01*
Y6796940D01*
X13556863Y6826188D01*
X13541724Y6852412D01*
X13520312Y6873823D01*
X13494089Y6888963D01*
X13464841Y6896800D01*
D02*
G37*
G36*
X12297957Y6740000D02*
X12282044D01*
X12267342Y6733910D01*
X12256090Y6722658D01*
X12250000Y6707957D01*
Y6692044D01*
X12256090Y6677342D01*
X12267342Y6666090D01*
X12282044Y6660000D01*
X12297957D01*
X12312658Y6666090D01*
X12323910Y6677342D01*
X12330000Y6692044D01*
Y6707957D01*
X12323910Y6722658D01*
X12312658Y6733910D01*
X12297957Y6740000D01*
D02*
G37*
G36*
X12437957Y6730000D02*
X12422043D01*
X12407342Y6723910D01*
X12396090Y6712658D01*
X12390000Y6697957D01*
Y6682044D01*
X12396090Y6667342D01*
X12407342Y6656090D01*
X12422043Y6650000D01*
X12437957D01*
X12452658Y6656090D01*
X12463910Y6667342D01*
X12470000Y6682044D01*
Y6697957D01*
X12463910Y6712658D01*
X12452658Y6723910D01*
X12437957Y6730000D01*
D02*
G37*
G36*
X12237956Y6590000D02*
X12222043D01*
X12207342Y6583910D01*
X12196090Y6572658D01*
X12190000Y6557957D01*
Y6542044D01*
X12196090Y6527342D01*
X12207342Y6516090D01*
X12222043Y6510000D01*
X12237956D01*
X12252658Y6516090D01*
X12263910Y6527342D01*
X12270000Y6542044D01*
Y6557957D01*
X12263910Y6572658D01*
X12252658Y6583910D01*
X12237956Y6590000D01*
D02*
G37*
G36*
X11947957Y6570000D02*
X11932043D01*
X11917342Y6563910D01*
X11906090Y6552658D01*
X11900000Y6537956D01*
Y6522043D01*
X11906090Y6507342D01*
X11917342Y6496090D01*
X11932043Y6490000D01*
X11947957D01*
X11962658Y6496090D01*
X11973910Y6507342D01*
X11980000Y6522043D01*
Y6537956D01*
X11973910Y6552658D01*
X11962658Y6563910D01*
X11947957Y6570000D01*
D02*
G37*
G36*
X13713574Y6602800D02*
X13693826D01*
X13674751Y6597689D01*
X13657649Y6587815D01*
X13643684Y6573851D01*
X13633810Y6556749D01*
X13628700Y6537674D01*
Y6517926D01*
X13633810Y6498851D01*
X13643684Y6481749D01*
X13657649Y6467785D01*
X13674751Y6457911D01*
X13693826Y6452800D01*
X13713574D01*
X13732649Y6457911D01*
X13749751Y6467785D01*
X13763715Y6481749D01*
X13773589Y6498851D01*
X13778700Y6517926D01*
Y6537674D01*
X13773589Y6556749D01*
X13763715Y6573851D01*
X13749751Y6587815D01*
X13732649Y6597689D01*
X13713574Y6602800D01*
D02*
G37*
G36*
X13464841Y6642800D02*
X13434560D01*
X13405312Y6634963D01*
X13379088Y6619823D01*
X13357677Y6598412D01*
X13342537Y6572188D01*
X13334700Y6542940D01*
Y6512660D01*
X13342537Y6483412D01*
X13357677Y6457188D01*
X13379088Y6435777D01*
X13405312Y6420637D01*
X13434560Y6412800D01*
X13464841D01*
X13494089Y6420637D01*
X13520312Y6435777D01*
X13541724Y6457188D01*
X13556863Y6483412D01*
X13564700Y6512660D01*
Y6542940D01*
X13556863Y6572188D01*
X13541724Y6598412D01*
X13520312Y6619823D01*
X13494089Y6634963D01*
X13464841Y6642800D01*
D02*
G37*
G36*
X12438196Y6456371D02*
X12422283D01*
X12407582Y6450281D01*
X12396330Y6439029D01*
X12390240Y6424328D01*
Y6408415D01*
X12396330Y6393713D01*
X12407582Y6382461D01*
X12422283Y6376371D01*
X12438196D01*
X12452898Y6382461D01*
X12464150Y6393713D01*
X12470240Y6408415D01*
Y6424328D01*
X12464150Y6439029D01*
X12452898Y6450281D01*
X12438196Y6456371D01*
D02*
G37*
G36*
X7247957Y6390000D02*
X7232043D01*
X7217342Y6383910D01*
X7206090Y6372658D01*
X7200000Y6357957D01*
Y6342043D01*
X7206090Y6327342D01*
X7217342Y6316090D01*
X7232043Y6310000D01*
X7247957D01*
X7262658Y6316090D01*
X7273910Y6327342D01*
X7280000Y6342043D01*
Y6357957D01*
X7273910Y6372658D01*
X7262658Y6383910D01*
X7247957Y6390000D01*
D02*
G37*
G36*
X11951867Y6357342D02*
X11935954D01*
X11921252Y6351252D01*
X11910000Y6340000D01*
X11903910Y6325298D01*
Y6309385D01*
X11910000Y6294684D01*
X11921252Y6283432D01*
X11935954Y6277342D01*
X11951867D01*
X11966568Y6283432D01*
X11977821Y6294684D01*
X11983910Y6309385D01*
Y6325298D01*
X11977821Y6340000D01*
X11966568Y6351252D01*
X11951867Y6357342D01*
D02*
G37*
G36*
X12350000Y6340000D02*
X12334087D01*
X12319385Y6333910D01*
X12308133Y6322658D01*
X12302043Y6307956D01*
Y6292043D01*
X12308133Y6277342D01*
X12319385Y6266090D01*
X12334087Y6260000D01*
X12350000D01*
X12364701Y6266090D01*
X12375954Y6277342D01*
X12382043Y6292043D01*
Y6307956D01*
X12375954Y6322658D01*
X12364701Y6333910D01*
X12350000Y6340000D01*
D02*
G37*
G36*
X11387957Y6280000D02*
X11372044D01*
X11357342Y6273910D01*
X11346090Y6262658D01*
X11340000Y6247957D01*
Y6232043D01*
X11346090Y6217342D01*
X11357342Y6206090D01*
X11372044Y6200000D01*
X11387957D01*
X11402658Y6206090D01*
X11413910Y6217342D01*
X11420000Y6232043D01*
Y6247957D01*
X11413910Y6262658D01*
X11402658Y6273910D01*
X11387957Y6280000D01*
D02*
G37*
G36*
X13713574Y6209100D02*
X13693826D01*
X13674751Y6203989D01*
X13657649Y6194115D01*
X13643684Y6180151D01*
X13633810Y6163049D01*
X13628700Y6143974D01*
Y6124226D01*
X13633810Y6105151D01*
X13643684Y6088049D01*
X13657649Y6074085D01*
X13674751Y6064211D01*
X13693826Y6059100D01*
X13713574D01*
X13732649Y6064211D01*
X13749751Y6074085D01*
X13763715Y6088049D01*
X13773589Y6105151D01*
X13778700Y6124226D01*
Y6143974D01*
X13773589Y6163049D01*
X13763715Y6180151D01*
X13749751Y6194115D01*
X13732649Y6203989D01*
X13713574Y6209100D01*
D02*
G37*
G36*
X12447173Y6130000D02*
X12431260D01*
X12416558Y6123910D01*
X12405306Y6112658D01*
X12399217Y6097957D01*
Y6082043D01*
X12405306Y6067342D01*
X12416558Y6056090D01*
X12431260Y6050000D01*
X12447173D01*
X12461874Y6056090D01*
X12473127Y6067342D01*
X12479216Y6082043D01*
Y6097957D01*
X12473127Y6112658D01*
X12461874Y6123910D01*
X12447173Y6130000D01*
D02*
G37*
G36*
X7367957Y6100000D02*
X7352043D01*
X7337342Y6093910D01*
X7326090Y6082658D01*
X7320000Y6067957D01*
Y6052044D01*
X7326090Y6037342D01*
X7337342Y6026090D01*
X7352043Y6020000D01*
X7367957D01*
X7382658Y6026090D01*
X7393910Y6037342D01*
X7400000Y6052044D01*
Y6067957D01*
X7393910Y6082658D01*
X7382658Y6093910D01*
X7367957Y6100000D01*
D02*
G37*
G36*
X13464841Y6249100D02*
X13434560D01*
X13405312Y6241263D01*
X13379088Y6226123D01*
X13357677Y6204712D01*
X13342537Y6178488D01*
X13334700Y6149240D01*
Y6118960D01*
X13342537Y6089712D01*
X13357677Y6063488D01*
X13379088Y6042077D01*
X13405312Y6026937D01*
X13434560Y6019100D01*
X13464841D01*
X13494089Y6026937D01*
X13520312Y6042077D01*
X13541724Y6063488D01*
X13556863Y6089712D01*
X13564700Y6118960D01*
Y6149240D01*
X13556863Y6178488D01*
X13541724Y6204712D01*
X13520312Y6226123D01*
X13494089Y6241263D01*
X13464841Y6249100D01*
D02*
G37*
G36*
X10746454Y6060498D02*
X10730541D01*
X10715839Y6054408D01*
X10704587Y6043156D01*
X10698497Y6028455D01*
Y6012541D01*
X10704587Y5997840D01*
X10715839Y5986588D01*
X10730541Y5980498D01*
X10746454D01*
X10761155Y5986588D01*
X10772407Y5997840D01*
X10778497Y6012541D01*
Y6028455D01*
X10772407Y6043156D01*
X10761155Y6054408D01*
X10746454Y6060498D01*
D02*
G37*
G36*
X7177956Y6005400D02*
X7162043D01*
X7147342Y5999310D01*
X7136090Y5988058D01*
X7130000Y5973356D01*
Y5957443D01*
X7136090Y5942742D01*
X7147342Y5931490D01*
X7162043Y5925400D01*
X7177956D01*
X7192658Y5931490D01*
X7203910Y5942742D01*
X7210000Y5957443D01*
Y5973356D01*
X7203910Y5988058D01*
X7192658Y5999310D01*
X7177956Y6005400D01*
D02*
G37*
G36*
X10322471Y6075744D02*
X10299629Y6072736D01*
X10278344Y6063920D01*
X10260066Y6049894D01*
X10246040Y6031616D01*
X10237223Y6010331D01*
X10234216Y5987488D01*
Y5932488D01*
X10235679Y5921377D01*
X10217357Y5907319D01*
X10210912Y5909988D01*
X10189031D01*
X10168817Y5901615D01*
X10153345Y5886143D01*
X10144972Y5865929D01*
Y5844049D01*
X10153345Y5823834D01*
X10168817Y5808362D01*
X10189031Y5799989D01*
X10210912D01*
X10231126Y5808362D01*
X10246598Y5823834D01*
X10254971Y5844049D01*
Y5848782D01*
X10274971Y5858645D01*
X10278344Y5856057D01*
X10299629Y5847240D01*
X10322471Y5844233D01*
X10345314Y5847240D01*
X10366599Y5856057D01*
X10384877Y5870082D01*
X10398902Y5888361D01*
X10407719Y5909646D01*
X10410726Y5932488D01*
Y5987488D01*
X10407719Y6010331D01*
X10398902Y6031616D01*
X10384877Y6049894D01*
X10366599Y6063920D01*
X10345314Y6072736D01*
X10322471Y6075744D01*
D02*
G37*
G36*
X7077957Y5970000D02*
X7062044D01*
X7047342Y5963910D01*
X7036090Y5952658D01*
X7030000Y5937957D01*
Y5922044D01*
X7036090Y5907342D01*
X7047342Y5896090D01*
X7062044Y5890000D01*
X7077957D01*
X7092658Y5896090D01*
X7103910Y5907342D01*
X7110000Y5922044D01*
Y5937957D01*
X7103910Y5952658D01*
X7092658Y5963910D01*
X7077957Y5970000D01*
D02*
G37*
G36*
X7807956Y5890000D02*
X7792043D01*
X7777342Y5883910D01*
X7766090Y5872658D01*
X7760000Y5857957D01*
Y5842043D01*
X7766090Y5827342D01*
X7777342Y5816090D01*
X7792043Y5810000D01*
X7807956D01*
X7822658Y5816090D01*
X7833910Y5827342D01*
X7840000Y5842043D01*
Y5857957D01*
X7833910Y5872658D01*
X7822658Y5883910D01*
X7807956Y5890000D01*
D02*
G37*
G36*
X13713574Y5955100D02*
X13693826D01*
X13674751Y5949989D01*
X13657649Y5940115D01*
X13643684Y5926151D01*
X13633810Y5909049D01*
X13628700Y5889974D01*
Y5870226D01*
X13633810Y5851151D01*
X13643684Y5834049D01*
X13657649Y5820085D01*
X13674751Y5810211D01*
X13693826Y5805100D01*
X13713574D01*
X13732649Y5810211D01*
X13749751Y5820085D01*
X13763715Y5834049D01*
X13773589Y5851151D01*
X13778700Y5870226D01*
Y5889974D01*
X13773589Y5909049D01*
X13763715Y5926151D01*
X13749751Y5940115D01*
X13732649Y5949989D01*
X13713574Y5955100D01*
D02*
G37*
G36*
X9577472Y6075744D02*
X9554629Y6072736D01*
X9533344Y6063920D01*
X9515066Y6049894D01*
X9501040Y6031616D01*
X9492224Y6010331D01*
X9489216Y5987488D01*
Y5932488D01*
X9492224Y5909646D01*
X9501040Y5888361D01*
X9515066Y5870082D01*
X9533344Y5856057D01*
X9554629Y5847240D01*
X9577472Y5844233D01*
X9600314Y5847240D01*
X9621599Y5856057D01*
X9624972Y5858645D01*
X9644972Y5848782D01*
Y5844049D01*
X9653345Y5823834D01*
X9668817Y5808362D01*
X9689031Y5799989D01*
X9710911D01*
X9731126Y5808362D01*
X9746598Y5823834D01*
X9754971Y5844049D01*
Y5865929D01*
X9746598Y5886143D01*
X9731126Y5901615D01*
X9710911Y5909988D01*
X9689031D01*
X9682586Y5907319D01*
X9664264Y5921377D01*
X9665727Y5932488D01*
Y5987488D01*
X9662720Y6010331D01*
X9653903Y6031616D01*
X9639877Y6049894D01*
X9621599Y6063920D01*
X9600314Y6072736D01*
X9577472Y6075744D01*
D02*
G37*
G36*
X6947957Y5860000D02*
X6932044D01*
X6917342Y5853910D01*
X6906090Y5842658D01*
X6900000Y5827957D01*
Y5812043D01*
X6906090Y5797342D01*
X6917342Y5786090D01*
X6932044Y5780000D01*
X6947957D01*
X6962658Y5786090D01*
X6973910Y5797342D01*
X6980000Y5812043D01*
Y5827957D01*
X6973910Y5842658D01*
X6962658Y5853910D01*
X6947957Y5860000D01*
D02*
G37*
G36*
X13464841Y5995100D02*
X13434560D01*
X13405312Y5987263D01*
X13379088Y5972123D01*
X13357677Y5950712D01*
X13342537Y5924488D01*
X13334700Y5895240D01*
Y5864960D01*
X13342537Y5835712D01*
X13357677Y5809488D01*
X13379088Y5788077D01*
X13405312Y5772937D01*
X13434560Y5765100D01*
X13464841D01*
X13494089Y5772937D01*
X13520312Y5788077D01*
X13541724Y5809488D01*
X13556863Y5835712D01*
X13564700Y5864960D01*
Y5895240D01*
X13556863Y5924488D01*
X13541724Y5950712D01*
X13520312Y5972123D01*
X13494089Y5987263D01*
X13464841Y5995100D01*
D02*
G37*
G36*
X11756840Y5872000D02*
X11726560D01*
X11697312Y5864164D01*
X11671088Y5849023D01*
X11649677Y5827612D01*
X11634537Y5801389D01*
X11626700Y5772140D01*
Y5741860D01*
X11634537Y5712612D01*
X11649677Y5686389D01*
X11671088Y5664977D01*
X11697312Y5649837D01*
X11726560Y5642000D01*
X11756840D01*
X11786088Y5649837D01*
X11812312Y5664977D01*
X11833723Y5686389D01*
X11848863Y5712612D01*
X11856700Y5741860D01*
Y5772140D01*
X11848863Y5801389D01*
X11833723Y5827612D01*
X11812312Y5849023D01*
X11786088Y5864164D01*
X11756840Y5872000D01*
D02*
G37*
G36*
X11502840D02*
X11472560D01*
X11443312Y5864164D01*
X11417088Y5849023D01*
X11395677Y5827612D01*
X11380537Y5801389D01*
X11372700Y5772140D01*
Y5741860D01*
X11380537Y5712612D01*
X11395677Y5686389D01*
X11417088Y5664977D01*
X11443312Y5649837D01*
X11472560Y5642000D01*
X11502840D01*
X11532088Y5649837D01*
X11558312Y5664977D01*
X11579723Y5686389D01*
X11594863Y5712612D01*
X11602700Y5741860D01*
Y5772140D01*
X11594863Y5801389D01*
X11579723Y5827612D01*
X11558312Y5849023D01*
X11532088Y5864164D01*
X11502840Y5872000D01*
D02*
G37*
G36*
X12658140Y5861300D02*
X12627860D01*
X12598612Y5853463D01*
X12572388Y5838323D01*
X12550977Y5816911D01*
X12535837Y5790688D01*
X12528000Y5761440D01*
Y5731160D01*
X12535837Y5701911D01*
X12550977Y5675688D01*
X12572388Y5654277D01*
X12598612Y5639137D01*
X12627860Y5631300D01*
X12658140D01*
X12687388Y5639137D01*
X12713612Y5654277D01*
X12735023Y5675688D01*
X12750163Y5701911D01*
X12758000Y5731160D01*
Y5761440D01*
X12750163Y5790688D01*
X12735023Y5816911D01*
X12713612Y5838323D01*
X12687388Y5853463D01*
X12658140Y5861300D01*
D02*
G37*
G36*
X12404140D02*
X12373860D01*
X12344612Y5853463D01*
X12318388Y5838323D01*
X12296977Y5816911D01*
X12281837Y5790688D01*
X12274000Y5761440D01*
Y5731160D01*
X12281837Y5701911D01*
X12296977Y5675688D01*
X12318388Y5654277D01*
X12344612Y5639137D01*
X12373860Y5631300D01*
X12404140D01*
X12433388Y5639137D01*
X12459612Y5654277D01*
X12481023Y5675688D01*
X12496163Y5701911D01*
X12504000Y5731160D01*
Y5761440D01*
X12496163Y5790688D01*
X12481023Y5816911D01*
X12459612Y5838323D01*
X12433388Y5853463D01*
X12404140Y5861300D01*
D02*
G37*
G36*
X10951551Y5923500D02*
X10919049D01*
X10887171Y5917159D01*
X10857143Y5904721D01*
X10830119Y5886664D01*
X10807136Y5863681D01*
X10789079Y5836657D01*
X10776641Y5806629D01*
X10770300Y5774751D01*
Y5742249D01*
X10776641Y5710371D01*
X10789079Y5680343D01*
X10807136Y5653319D01*
X10830119Y5630336D01*
X10857143Y5612279D01*
X10887171Y5599841D01*
X10919049Y5593500D01*
X10951551D01*
X10983429Y5599841D01*
X11013457Y5612279D01*
X11040481Y5630336D01*
X11063464Y5653319D01*
X11081521Y5680343D01*
X11093959Y5710371D01*
X11100300Y5742249D01*
Y5774751D01*
X11093959Y5806629D01*
X11081521Y5836657D01*
X11063464Y5863681D01*
X11040481Y5886664D01*
X11013457Y5904721D01*
X10983429Y5917159D01*
X10951551Y5923500D01*
D02*
G37*
G36*
X13713574Y5701100D02*
X13693826D01*
X13674751Y5695989D01*
X13657649Y5686115D01*
X13643684Y5672151D01*
X13633810Y5655049D01*
X13628700Y5635974D01*
Y5616226D01*
X13633810Y5597151D01*
X13643684Y5580049D01*
X13657649Y5566085D01*
X13674751Y5556211D01*
X13693826Y5551100D01*
X13713574D01*
X13732649Y5556211D01*
X13749751Y5566085D01*
X13763715Y5580049D01*
X13773589Y5597151D01*
X13778700Y5616226D01*
Y5635974D01*
X13773589Y5655049D01*
X13763715Y5672151D01*
X13749751Y5686115D01*
X13732649Y5695989D01*
X13713574Y5701100D01*
D02*
G37*
G36*
X10337472Y5685614D02*
X10318545Y5683122D01*
X10300909Y5675817D01*
X10285764Y5664196D01*
X10274143Y5649051D01*
X10266838Y5631414D01*
X10264346Y5612488D01*
Y5547489D01*
X10266838Y5528562D01*
X10274143Y5510926D01*
X10285764Y5495781D01*
X10300909Y5484160D01*
X10318545Y5476855D01*
X10337472Y5474363D01*
X10356398Y5476855D01*
X10374034Y5484160D01*
X10389179Y5495781D01*
X10400800Y5510926D01*
X10408105Y5528562D01*
X10410597Y5547489D01*
Y5612488D01*
X10408105Y5631414D01*
X10400800Y5649051D01*
X10389179Y5664196D01*
X10374034Y5675817D01*
X10356398Y5683122D01*
X10337472Y5685614D01*
D02*
G37*
G36*
X9562471D02*
X9543545Y5683122D01*
X9525909Y5675817D01*
X9510764Y5664196D01*
X9499143Y5649051D01*
X9491838Y5631414D01*
X9489346Y5612488D01*
Y5547489D01*
X9491838Y5528562D01*
X9499143Y5510926D01*
X9510764Y5495781D01*
X9525909Y5484160D01*
X9543545Y5476855D01*
X9562471Y5474363D01*
X9581398Y5476855D01*
X9599034Y5484160D01*
X9614179Y5495781D01*
X9625800Y5510926D01*
X9633105Y5528562D01*
X9635597Y5547489D01*
Y5612488D01*
X9633105Y5631414D01*
X9625800Y5649051D01*
X9614179Y5664196D01*
X9599034Y5675817D01*
X9581398Y5683122D01*
X9562471Y5685614D01*
D02*
G37*
G36*
X12005574Y5578000D02*
X11985826D01*
X11966751Y5572889D01*
X11949649Y5563015D01*
X11935685Y5549051D01*
X11925811Y5531949D01*
X11920700Y5512874D01*
Y5493126D01*
X11925811Y5474052D01*
X11935685Y5456949D01*
X11949649Y5442986D01*
X11966751Y5433112D01*
X11985826Y5428001D01*
X12005574D01*
X12024649Y5433112D01*
X12041751Y5442986D01*
X12055715Y5456949D01*
X12065589Y5474052D01*
X12070700Y5493126D01*
Y5512874D01*
X12065589Y5531949D01*
X12055715Y5549051D01*
X12041751Y5563015D01*
X12024649Y5572889D01*
X12005574Y5578000D01*
D02*
G37*
G36*
X11751574D02*
X11731826D01*
X11712751Y5572889D01*
X11695649Y5563015D01*
X11681685Y5549051D01*
X11671811Y5531949D01*
X11666700Y5512874D01*
Y5493126D01*
X11671811Y5474052D01*
X11681685Y5456949D01*
X11695649Y5442986D01*
X11712751Y5433112D01*
X11731826Y5428001D01*
X11751574D01*
X11770649Y5433112D01*
X11787751Y5442986D01*
X11801715Y5456949D01*
X11811589Y5474052D01*
X11816700Y5493126D01*
Y5512874D01*
X11811589Y5531949D01*
X11801715Y5549051D01*
X11787751Y5563015D01*
X11770649Y5572889D01*
X11751574Y5578000D01*
D02*
G37*
G36*
X11497574D02*
X11477826D01*
X11458751Y5572889D01*
X11441649Y5563015D01*
X11427685Y5549051D01*
X11417811Y5531949D01*
X11412700Y5512874D01*
Y5493126D01*
X11417811Y5474052D01*
X11427685Y5456949D01*
X11441649Y5442986D01*
X11458751Y5433112D01*
X11477826Y5428001D01*
X11497574D01*
X11516649Y5433112D01*
X11533751Y5442986D01*
X11547715Y5456949D01*
X11557589Y5474052D01*
X11562700Y5493126D01*
Y5512874D01*
X11557589Y5531949D01*
X11547715Y5549051D01*
X11533751Y5563015D01*
X11516649Y5572889D01*
X11497574Y5578000D01*
D02*
G37*
G36*
X7053751Y5748500D02*
X7021249D01*
X6989372Y5742159D01*
X6959343Y5729721D01*
X6932319Y5711664D01*
X6909336Y5688681D01*
X6891279Y5661657D01*
X6878841Y5631629D01*
X6872500Y5599751D01*
Y5567249D01*
X6878841Y5535371D01*
X6891279Y5505343D01*
X6909336Y5478318D01*
X6932319Y5455336D01*
X6959343Y5437279D01*
X6989372Y5424841D01*
X7021249Y5418500D01*
X7053751D01*
X7085629Y5424841D01*
X7115657Y5437279D01*
X7142682Y5455336D01*
X7165664Y5478318D01*
X7183721Y5505343D01*
X7196159Y5535371D01*
X7202500Y5567249D01*
Y5599751D01*
X7196159Y5631629D01*
X7183721Y5661657D01*
X7165664Y5688681D01*
X7142682Y5711664D01*
X7115657Y5729721D01*
X7085629Y5742159D01*
X7053751Y5748500D01*
D02*
G37*
G36*
X12906874Y5567300D02*
X12887126D01*
X12868051Y5562189D01*
X12850949Y5552315D01*
X12836984Y5538351D01*
X12827110Y5521249D01*
X12822000Y5502174D01*
Y5482426D01*
X12827110Y5463351D01*
X12836984Y5446249D01*
X12850949Y5432285D01*
X12868051Y5422411D01*
X12887126Y5417300D01*
X12906874D01*
X12925949Y5422411D01*
X12943051Y5432285D01*
X12957014Y5446249D01*
X12966888Y5463351D01*
X12972000Y5482426D01*
Y5502174D01*
X12966888Y5521249D01*
X12957014Y5538351D01*
X12943051Y5552315D01*
X12925949Y5562189D01*
X12906874Y5567300D01*
D02*
G37*
G36*
X12652874D02*
X12633126D01*
X12614051Y5562189D01*
X12596949Y5552315D01*
X12582985Y5538351D01*
X12573111Y5521249D01*
X12568000Y5502174D01*
Y5482426D01*
X12573111Y5463351D01*
X12582985Y5446249D01*
X12596949Y5432285D01*
X12614051Y5422411D01*
X12633126Y5417300D01*
X12652874D01*
X12671949Y5422411D01*
X12689051Y5432285D01*
X12703015Y5446249D01*
X12712889Y5463351D01*
X12718000Y5482426D01*
Y5502174D01*
X12712889Y5521249D01*
X12703015Y5538351D01*
X12689051Y5552315D01*
X12671949Y5562189D01*
X12652874Y5567300D01*
D02*
G37*
G36*
X12398874D02*
X12379126D01*
X12360051Y5562189D01*
X12342949Y5552315D01*
X12328985Y5538351D01*
X12319111Y5521249D01*
X12314000Y5502174D01*
Y5482426D01*
X12319111Y5463351D01*
X12328985Y5446249D01*
X12342949Y5432285D01*
X12360051Y5422411D01*
X12379126Y5417300D01*
X12398874D01*
X12417949Y5422411D01*
X12435051Y5432285D01*
X12449015Y5446249D01*
X12458889Y5463351D01*
X12464000Y5482426D01*
Y5502174D01*
X12458889Y5521249D01*
X12449015Y5538351D01*
X12435051Y5552315D01*
X12417949Y5562189D01*
X12398874Y5567300D01*
D02*
G37*
G36*
X8017957Y5490000D02*
X8002043D01*
X7987342Y5483910D01*
X7976090Y5472658D01*
X7970000Y5457957D01*
Y5442043D01*
X7976090Y5427342D01*
X7987342Y5416090D01*
X8002043Y5410000D01*
X8017957D01*
X8032658Y5416090D01*
X8043910Y5427342D01*
X8050000Y5442043D01*
Y5457957D01*
X8043910Y5472658D01*
X8032658Y5483910D01*
X8017957Y5490000D01*
D02*
G37*
%LPD*%
D40*
X13703700Y7937500D02*
D03*
Y7683500D02*
D03*
Y7429500D02*
D03*
X12389000Y5492300D02*
D03*
X12643000D02*
D03*
X12897000D02*
D03*
X13703700Y6527800D02*
D03*
Y6781800D02*
D03*
Y7035800D02*
D03*
Y5626100D02*
D03*
Y5880100D02*
D03*
Y6134100D02*
D03*
Y8343500D02*
D03*
Y8597500D02*
D03*
Y8851500D02*
D03*
X11487700Y5503000D02*
D03*
X11741700D02*
D03*
X11995700D02*
D03*
D41*
X13449699Y7937500D02*
D03*
Y7683500D02*
D03*
Y7429500D02*
D03*
X12389000Y5746300D02*
D03*
X12643000D02*
D03*
X12897000D02*
D03*
X13449699Y6527800D02*
D03*
Y6781800D02*
D03*
Y7035800D02*
D03*
Y5626100D02*
D03*
Y5880100D02*
D03*
Y6134100D02*
D03*
Y8343500D02*
D03*
Y8597500D02*
D03*
Y8851500D02*
D03*
X11487700Y5757000D02*
D03*
X11741700D02*
D03*
X11995700D02*
D03*
D42*
X10199971Y5854989D02*
D03*
X9699971D02*
D03*
D43*
X10337472Y5579988D02*
D03*
X9562471D02*
D03*
D44*
X10322471Y5959988D02*
D03*
X9577472D02*
D03*
D45*
X7554341Y8564610D02*
D03*
X8394341D02*
D03*
D46*
X7814341Y8654610D02*
D03*
X7894341Y8464610D02*
D03*
X7974341Y8654610D02*
D03*
X8054341Y8464610D02*
D03*
X8134341Y8654610D02*
D03*
D47*
X7823258Y8270000D02*
D03*
X8055740Y8145740D02*
D03*
X13100000Y7675000D02*
D03*
Y7775000D02*
D03*
X13125000Y7725000D02*
D03*
X13125000Y7425000D02*
D03*
X13100000Y7475000D02*
D03*
Y7375000D02*
D03*
X13275000Y7477957D02*
D03*
Y7377957D02*
D03*
X13195000D02*
D03*
X13235001Y7427956D02*
D03*
X13195000Y7477957D02*
D03*
X13220905Y7714969D02*
D03*
X13180000Y7650000D02*
D03*
X13270000Y7770000D02*
D03*
X13189999D02*
D03*
X13270000Y7670000D02*
D03*
X8010000Y5450000D02*
D03*
X9446744Y6438582D02*
D03*
X10086744Y6138582D02*
D03*
X12342043Y6300000D02*
D03*
X11970000Y7730000D02*
D03*
Y8210000D02*
D03*
X7798639Y7265502D02*
D03*
X7800000Y7390000D02*
D03*
X7810000Y7690000D02*
D03*
X7830000Y7800000D02*
D03*
X10956744Y6860549D02*
D03*
X11046855Y5562446D02*
D03*
X11126855D02*
D03*
X11200000Y5420000D02*
D03*
X10916855Y5562446D02*
D03*
X10766855D02*
D03*
X10846855D02*
D03*
X7600000Y5570000D02*
D03*
X6830000Y7080000D02*
D03*
Y6990000D02*
D03*
Y6900000D02*
D03*
Y6800000D02*
D03*
X6920000Y7080000D02*
D03*
Y6990000D02*
D03*
Y6900000D02*
D03*
Y6800000D02*
D03*
X7110000Y7080000D02*
D03*
Y6990000D02*
D03*
Y6900000D02*
D03*
Y6800000D02*
D03*
X7206334Y6799079D02*
D03*
Y6899079D02*
D03*
Y6989079D02*
D03*
Y7079079D02*
D03*
Y7359078D02*
D03*
Y7269078D02*
D03*
Y7169079D02*
D03*
X7110000Y7170000D02*
D03*
Y7270000D02*
D03*
X6920000Y7170000D02*
D03*
Y7270000D02*
D03*
Y7360000D02*
D03*
Y7450000D02*
D03*
X6830000Y7170000D02*
D03*
Y7270000D02*
D03*
Y7360000D02*
D03*
Y7450000D02*
D03*
X8363669Y6602858D02*
D03*
Y6452858D02*
D03*
Y6532858D02*
D03*
X8436115Y6536003D02*
D03*
Y6606003D02*
D03*
Y6456003D02*
D03*
X8383670Y6752858D02*
D03*
Y6832858D02*
D03*
X8456115Y6836003D02*
D03*
Y6756003D02*
D03*
X7232684Y5691635D02*
D03*
X7382684D02*
D03*
X7312684D02*
D03*
X7300000Y5490000D02*
D03*
Y5420000D02*
D03*
X7230000D02*
D03*
Y5490000D02*
D03*
X7300000Y5570000D02*
D03*
X7230000D02*
D03*
X7450000D02*
D03*
X7380000D02*
D03*
X7530000D02*
D03*
X7533145Y5497554D02*
D03*
Y5427554D02*
D03*
X7603145D02*
D03*
Y5497554D02*
D03*
X7383145D02*
D03*
Y5427554D02*
D03*
X7453145D02*
D03*
Y5497554D02*
D03*
X6969041Y8204803D02*
D03*
Y8134803D02*
D03*
X6899041D02*
D03*
Y8204803D02*
D03*
X7119041D02*
D03*
Y8134803D02*
D03*
X7049041D02*
D03*
Y8204803D02*
D03*
X7120000Y8580000D02*
D03*
Y8510000D02*
D03*
X7050000D02*
D03*
Y8580000D02*
D03*
X7120000Y8660000D02*
D03*
X7050000D02*
D03*
X7045896Y8427249D02*
D03*
X7115896D02*
D03*
X7045896Y8347249D02*
D03*
Y8277249D02*
D03*
X7115896D02*
D03*
Y8347249D02*
D03*
X6970000Y8580000D02*
D03*
Y8510000D02*
D03*
X6900000D02*
D03*
Y8580000D02*
D03*
X6970000Y8660000D02*
D03*
X6900000D02*
D03*
X6895896Y8427249D02*
D03*
X6965896D02*
D03*
X6895896Y8347249D02*
D03*
Y8277249D02*
D03*
X6965896D02*
D03*
Y8347249D02*
D03*
X6820000Y8430000D02*
D03*
Y8360000D02*
D03*
X6750000D02*
D03*
Y8430000D02*
D03*
X6820000Y8510000D02*
D03*
X6750000D02*
D03*
X6745896Y8277249D02*
D03*
X6815896D02*
D03*
X6745896Y8197249D02*
D03*
Y8127249D02*
D03*
X6815896D02*
D03*
Y8197249D02*
D03*
X6830000Y8900000D02*
D03*
Y8830000D02*
D03*
X6760000D02*
D03*
Y8900000D02*
D03*
X6830000Y8980000D02*
D03*
X6760000D02*
D03*
X6755896Y8747249D02*
D03*
X6825896D02*
D03*
X6755896Y8667249D02*
D03*
Y8597249D02*
D03*
X6825896D02*
D03*
Y8667249D02*
D03*
X7590000Y8820000D02*
D03*
X7520000D02*
D03*
Y8890000D02*
D03*
X7590000D02*
D03*
X7670000Y8820000D02*
D03*
Y8890000D02*
D03*
X7437249Y8894104D02*
D03*
Y8824104D02*
D03*
X7357249Y8894104D02*
D03*
X7287249D02*
D03*
Y8824104D02*
D03*
X7357249D02*
D03*
X7590000Y8950000D02*
D03*
X7520000D02*
D03*
Y9020000D02*
D03*
X7590000D02*
D03*
X7670000Y8950000D02*
D03*
Y9020000D02*
D03*
X7437249Y9024104D02*
D03*
Y8954104D02*
D03*
X7357249Y9024104D02*
D03*
X7287249D02*
D03*
Y8954104D02*
D03*
X7357249D02*
D03*
X8040000Y8810000D02*
D03*
X7970000D02*
D03*
Y8880000D02*
D03*
X8040000D02*
D03*
X8120000Y8810000D02*
D03*
Y8880000D02*
D03*
X7887249Y8884104D02*
D03*
Y8814104D02*
D03*
X7807249Y8884104D02*
D03*
X7737249D02*
D03*
Y8814104D02*
D03*
X7807249D02*
D03*
X8040000Y8950000D02*
D03*
X7970000D02*
D03*
Y9020000D02*
D03*
X8040000D02*
D03*
X8120000Y8950000D02*
D03*
Y9020000D02*
D03*
X7887249Y9024104D02*
D03*
Y8954104D02*
D03*
X7807249Y9024104D02*
D03*
X7737249D02*
D03*
Y8954104D02*
D03*
X7807249D02*
D03*
X8490000Y8950000D02*
D03*
X8420000D02*
D03*
Y9020000D02*
D03*
X8490000D02*
D03*
X8570000Y8950000D02*
D03*
Y9020000D02*
D03*
X8337249Y9024104D02*
D03*
Y8954104D02*
D03*
X8257249Y9024104D02*
D03*
X8187249D02*
D03*
Y8954104D02*
D03*
X8257249D02*
D03*
X8490000Y8810000D02*
D03*
X8420000D02*
D03*
Y8880000D02*
D03*
X8490000D02*
D03*
X8570000Y8810000D02*
D03*
Y8880000D02*
D03*
X8337249Y8884104D02*
D03*
Y8814104D02*
D03*
X8257249Y8884104D02*
D03*
X8187249D02*
D03*
Y8814104D02*
D03*
X8257249D02*
D03*
X13239999Y8360000D02*
D03*
X13150000D02*
D03*
X13060001D02*
D03*
X13239999Y8270000D02*
D03*
X13150000D02*
D03*
X13160001Y8010000D02*
D03*
Y8100000D02*
D03*
Y8190000D02*
D03*
X13330000Y8100000D02*
D03*
Y8190000D02*
D03*
X13239999Y7910000D02*
D03*
Y8010000D02*
D03*
Y8100000D02*
D03*
Y8190000D02*
D03*
X13230000Y5470000D02*
D03*
Y5570000D02*
D03*
Y5660000D02*
D03*
Y5750000D02*
D03*
X13139999Y5470000D02*
D03*
Y5570000D02*
D03*
Y5660000D02*
D03*
Y5750000D02*
D03*
X8740000Y6140000D02*
D03*
X8660000D02*
D03*
Y6230000D02*
D03*
X7070000Y5930000D02*
D03*
X8382043Y7370000D02*
D03*
X10370000Y7530000D02*
D03*
X10440000D02*
D03*
X10500000D02*
D03*
Y7460000D02*
D03*
X10440000D02*
D03*
X10300000D02*
D03*
X10370000D02*
D03*
X10300000Y7530000D02*
D03*
X12230000Y6860000D02*
D03*
X11943910Y6317342D02*
D03*
X8890000Y6720000D02*
D03*
X8927956Y6830000D02*
D03*
X9803179Y7058150D02*
D03*
X8940000Y7830000D02*
D03*
X8820000Y8440000D02*
D03*
X8680000Y8030000D02*
D03*
X7720000Y8230000D02*
D03*
X7670000Y7730000D02*
D03*
X7450000Y6050000D02*
D03*
X11380000Y6240000D02*
D03*
X11986090Y7267342D02*
D03*
X7360000Y6060000D02*
D03*
X7240000Y6350000D02*
D03*
X12200000Y7460000D02*
D03*
X10400000Y8250000D02*
D03*
X10330000D02*
D03*
Y8320000D02*
D03*
X10400000D02*
D03*
X10480000Y8250000D02*
D03*
Y8320000D02*
D03*
X10630000Y8250000D02*
D03*
X10560000D02*
D03*
Y8320000D02*
D03*
X10630000D02*
D03*
X10710000Y8250000D02*
D03*
Y8320000D02*
D03*
X11200000Y8230000D02*
D03*
X11130000D02*
D03*
Y8300000D02*
D03*
X11200000D02*
D03*
X11280000Y8230000D02*
D03*
Y8300000D02*
D03*
X11512751Y8295896D02*
D03*
Y8225896D02*
D03*
X11432752Y8295896D02*
D03*
X11362751D02*
D03*
Y8225896D02*
D03*
X11432752D02*
D03*
X9610000Y7940000D02*
D03*
X9450000Y8470000D02*
D03*
X9280000Y8390000D02*
D03*
X9141400Y7803231D02*
D03*
X9000000Y8080000D02*
D03*
X11470000Y7560000D02*
D03*
X11170000Y7380000D02*
D03*
X11377805Y6925571D02*
D03*
X10850000Y7060000D02*
D03*
X11660000Y7230000D02*
D03*
X11590000D02*
D03*
Y7300000D02*
D03*
X11650000D02*
D03*
X11720000Y7230000D02*
D03*
Y7300000D02*
D03*
X12320000Y8630000D02*
D03*
X12900000Y8470000D02*
D03*
Y8020000D02*
D03*
X12680000Y7930000D02*
D03*
X12379300Y7622700D02*
D03*
X12460000Y7530000D02*
D03*
X12290000Y7540000D02*
D03*
X12470000Y7700000D02*
D03*
X12290000D02*
D03*
X12220000Y7790000D02*
D03*
X13039999Y6290000D02*
D03*
X13030000Y6570000D02*
D03*
X13019701Y6849700D02*
D03*
X13050000Y7050000D02*
D03*
X12439216Y6090000D02*
D03*
X12180000Y6990000D02*
D03*
X12410000Y6970000D02*
D03*
X12430000Y6690000D02*
D03*
X12430240Y6416371D02*
D03*
X12290000Y6700000D02*
D03*
X11940000Y6530000D02*
D03*
X12060000Y6570000D02*
D03*
X12070000Y6110000D02*
D03*
X11850000Y6120000D02*
D03*
X11470000Y6130000D02*
D03*
X11100400Y6359600D02*
D03*
X10960000Y6170000D02*
D03*
X8730000Y8800000D02*
D03*
X9940900Y6430300D02*
D03*
X9630000Y7190000D02*
D03*
Y7040000D02*
D03*
X6810000Y7810000D02*
D03*
X6940000Y5820000D02*
D03*
X6800000Y5810000D02*
D03*
X7170000Y5965400D02*
D03*
X8740000Y8440000D02*
D03*
X8590000Y8020000D02*
D03*
X11470000Y6900000D02*
D03*
X12700000Y7200000D02*
D03*
X12463648Y7438877D02*
D03*
X12280000Y6980000D02*
D03*
X11670000Y6780000D02*
D03*
X12230000Y6550000D02*
D03*
X12210000Y7190000D02*
D03*
X7800000Y5850000D02*
D03*
X10738497Y6020498D02*
D03*
X8170000Y6980000D02*
D03*
%TF.MD5,677adea567db10da5f88de661727b3f5*%
M02*
