%TF.GenerationSoftware,Altium Limited,Altium Designer,25.4.2 (15)*%
G04 Layer_Color=8388736*
%FSLAX45Y45*%
%MOMM*%
%TF.SameCoordinates,9A986A7D-484F-4AC0-AE4B-942BB78B8B2C*%
%TF.FilePolarity,Negative*%
%TF.FileFunction,Soldermask,Top*%
%TF.Part,Single*%
G01*
G75*
%TA.AperFunction,ConnectorPad*%
G04:AMPARAMS|DCode=53|XSize=0.69mm|YSize=1.84mm|CornerRadius=0.17625mm|HoleSize=0mm|Usage=FLASHONLY|Rotation=0.000|XOffset=0mm|YOffset=0mm|HoleType=Round|Shape=RoundedRectangle|*
%AMROUNDEDRECTD53*
21,1,0.69000,1.48750,0,0,0.0*
21,1,0.33750,1.84000,0,0,0.0*
1,1,0.35250,0.16875,-0.74375*
1,1,0.35250,-0.16875,-0.74375*
1,1,0.35250,-0.16875,0.74375*
1,1,0.35250,0.16875,0.74375*
%
%ADD53ROUNDEDRECTD53*%
%TA.AperFunction,SMDPad,CuDef*%
G04:AMPARAMS|DCode=54|XSize=0.8032mm|YSize=0.9032mm|CornerRadius=0.1766mm|HoleSize=0mm|Usage=FLASHONLY|Rotation=90.000|XOffset=0mm|YOffset=0mm|HoleType=Round|Shape=RoundedRectangle|*
%AMROUNDEDRECTD54*
21,1,0.80320,0.55000,0,0,90.0*
21,1,0.45000,0.90320,0,0,90.0*
1,1,0.35320,0.27500,0.22500*
1,1,0.35320,0.27500,-0.22500*
1,1,0.35320,-0.27500,-0.22500*
1,1,0.35320,-0.27500,0.22500*
%
%ADD54ROUNDEDRECTD54*%
G04:AMPARAMS|DCode=55|XSize=1.1032mm|YSize=1.1032mm|CornerRadius=0.2141mm|HoleSize=0mm|Usage=FLASHONLY|Rotation=90.000|XOffset=0mm|YOffset=0mm|HoleType=Round|Shape=RoundedRectangle|*
%AMROUNDEDRECTD55*
21,1,1.10320,0.67500,0,0,90.0*
21,1,0.67500,1.10320,0,0,90.0*
1,1,0.42820,0.33750,0.33750*
1,1,0.42820,0.33750,-0.33750*
1,1,0.42820,-0.33750,-0.33750*
1,1,0.42820,-0.33750,0.33750*
%
%ADD55ROUNDEDRECTD55*%
%TA.AperFunction,ConnectorPad*%
G04:AMPARAMS|DCode=56|XSize=1.7032mm|YSize=1.1032mm|CornerRadius=0.3266mm|HoleSize=0mm|Usage=FLASHONLY|Rotation=90.000|XOffset=0mm|YOffset=0mm|HoleType=Round|Shape=RoundedRectangle|*
%AMROUNDEDRECTD56*
21,1,1.70320,0.45000,0,0,90.0*
21,1,1.05000,1.10320,0,0,90.0*
1,1,0.65320,0.22500,0.52500*
1,1,0.65320,0.22500,-0.52500*
1,1,0.65320,-0.22500,-0.52500*
1,1,0.65320,-0.22500,0.52500*
%
%ADD56ROUNDEDRECTD56*%
G04:AMPARAMS|DCode=57|XSize=1.7032mm|YSize=1.1032mm|CornerRadius=0.3266mm|HoleSize=0mm|Usage=FLASHONLY|Rotation=180.000|XOffset=0mm|YOffset=0mm|HoleType=Round|Shape=RoundedRectangle|*
%AMROUNDEDRECTD57*
21,1,1.70320,0.45000,0,0,180.0*
21,1,1.05000,1.10320,0,0,180.0*
1,1,0.65320,-0.52500,0.22500*
1,1,0.65320,0.52500,0.22500*
1,1,0.65320,0.52500,-0.22500*
1,1,0.65320,-0.52500,-0.22500*
%
%ADD57ROUNDEDRECTD57*%
G04:AMPARAMS|DCode=58|XSize=1.8032mm|YSize=3.7032mm|CornerRadius=0.3016mm|HoleSize=0mm|Usage=FLASHONLY|Rotation=0.000|XOffset=0mm|YOffset=0mm|HoleType=Round|Shape=RoundedRectangle|*
%AMROUNDEDRECTD58*
21,1,1.80320,3.10000,0,0,0.0*
21,1,1.20000,3.70320,0,0,0.0*
1,1,0.60320,0.60000,-1.55000*
1,1,0.60320,-0.60000,-1.55000*
1,1,0.60320,-0.60000,1.55000*
1,1,0.60320,0.60000,1.55000*
%
%ADD58ROUNDEDRECTD58*%
%TA.AperFunction,SMDPad,CuDef*%
G04:AMPARAMS|DCode=59|XSize=0.8032mm|YSize=1.6532mm|CornerRadius=0.1766mm|HoleSize=0mm|Usage=FLASHONLY|Rotation=90.000|XOffset=0mm|YOffset=0mm|HoleType=Round|Shape=RoundedRectangle|*
%AMROUNDEDRECTD59*
21,1,0.80320,1.30000,0,0,90.0*
21,1,0.45000,1.65320,0,0,90.0*
1,1,0.35320,0.65000,0.22500*
1,1,0.35320,0.65000,-0.22500*
1,1,0.35320,-0.65000,-0.22500*
1,1,0.35320,-0.65000,0.22500*
%
%ADD59ROUNDEDRECTD59*%
G04:AMPARAMS|DCode=60|XSize=1.0032mm|YSize=1.2032mm|CornerRadius=0.2016mm|HoleSize=0mm|Usage=FLASHONLY|Rotation=270.000|XOffset=0mm|YOffset=0mm|HoleType=Round|Shape=RoundedRectangle|*
%AMROUNDEDRECTD60*
21,1,1.00320,0.80000,0,0,270.0*
21,1,0.60000,1.20320,0,0,270.0*
1,1,0.40320,-0.40000,-0.30000*
1,1,0.40320,-0.40000,0.30000*
1,1,0.40320,0.40000,0.30000*
1,1,0.40320,0.40000,-0.30000*
%
%ADD60ROUNDEDRECTD60*%
G04:AMPARAMS|DCode=61|XSize=1.6032mm|YSize=1.9032mm|CornerRadius=0.2766mm|HoleSize=0mm|Usage=FLASHONLY|Rotation=270.000|XOffset=0mm|YOffset=0mm|HoleType=Round|Shape=RoundedRectangle|*
%AMROUNDEDRECTD61*
21,1,1.60320,1.35000,0,0,270.0*
21,1,1.05000,1.90320,0,0,270.0*
1,1,0.55320,-0.67500,-0.52500*
1,1,0.55320,-0.67500,0.52500*
1,1,0.55320,0.67500,0.52500*
1,1,0.55320,0.67500,-0.52500*
%
%ADD61ROUNDEDRECTD61*%
G04:AMPARAMS|DCode=62|XSize=1.6032mm|YSize=1.9032mm|CornerRadius=0.2766mm|HoleSize=0mm|Usage=FLASHONLY|Rotation=180.000|XOffset=0mm|YOffset=0mm|HoleType=Round|Shape=RoundedRectangle|*
%AMROUNDEDRECTD62*
21,1,1.60320,1.35000,0,0,180.0*
21,1,1.05000,1.90320,0,0,180.0*
1,1,0.55320,-0.52500,0.67500*
1,1,0.55320,0.52500,0.67500*
1,1,0.55320,0.52500,-0.67500*
1,1,0.55320,-0.52500,-0.67500*
%
%ADD62ROUNDEDRECTD62*%
G04:AMPARAMS|DCode=63|XSize=1.0032mm|YSize=1.2032mm|CornerRadius=0.2016mm|HoleSize=0mm|Usage=FLASHONLY|Rotation=0.000|XOffset=0mm|YOffset=0mm|HoleType=Round|Shape=RoundedRectangle|*
%AMROUNDEDRECTD63*
21,1,1.00320,0.80000,0,0,0.0*
21,1,0.60000,1.20320,0,0,0.0*
1,1,0.40320,0.30000,-0.40000*
1,1,0.40320,-0.30000,-0.40000*
1,1,0.40320,-0.30000,0.40000*
1,1,0.40320,0.30000,0.40000*
%
%ADD63ROUNDEDRECTD63*%
%ADD64R,1.30000X1.30000*%
G04:AMPARAMS|DCode=65|XSize=0.8032mm|YSize=0.9032mm|CornerRadius=0.1766mm|HoleSize=0mm|Usage=FLASHONLY|Rotation=0.000|XOffset=0mm|YOffset=0mm|HoleType=Round|Shape=RoundedRectangle|*
%AMROUNDEDRECTD65*
21,1,0.80320,0.55000,0,0,0.0*
21,1,0.45000,0.90320,0,0,0.0*
1,1,0.35320,0.22500,-0.27500*
1,1,0.35320,-0.22500,-0.27500*
1,1,0.35320,-0.22500,0.27500*
1,1,0.35320,0.22500,0.27500*
%
%ADD65ROUNDEDRECTD65*%
%ADD66R,0.62320X0.75320*%
%ADD67R,0.75320X0.62320*%
G04:AMPARAMS|DCode=68|XSize=0.8032mm|YSize=1.2532mm|CornerRadius=0.1766mm|HoleSize=0mm|Usage=FLASHONLY|Rotation=0.000|XOffset=0mm|YOffset=0mm|HoleType=Round|Shape=RoundedRectangle|*
%AMROUNDEDRECTD68*
21,1,0.80320,0.90000,0,0,0.0*
21,1,0.45000,1.25320,0,0,0.0*
1,1,0.35320,0.22500,-0.45000*
1,1,0.35320,-0.22500,-0.45000*
1,1,0.35320,-0.22500,0.45000*
1,1,0.35320,0.22500,0.45000*
%
%ADD68ROUNDEDRECTD68*%
G04:AMPARAMS|DCode=69|XSize=1.4732mm|YSize=2.3032mm|CornerRadius=0.26035mm|HoleSize=0mm|Usage=FLASHONLY|Rotation=90.000|XOffset=0mm|YOffset=0mm|HoleType=Round|Shape=RoundedRectangle|*
%AMROUNDEDRECTD69*
21,1,1.47320,1.78250,0,0,90.0*
21,1,0.95250,2.30320,0,0,90.0*
1,1,0.52070,0.89125,0.47625*
1,1,0.52070,0.89125,-0.47625*
1,1,0.52070,-0.89125,-0.47625*
1,1,0.52070,-0.89125,0.47625*
%
%ADD69ROUNDEDRECTD69*%
G04:AMPARAMS|DCode=70|XSize=0.9032mm|YSize=1.2032mm|CornerRadius=0.1891mm|HoleSize=0mm|Usage=FLASHONLY|Rotation=270.000|XOffset=0mm|YOffset=0mm|HoleType=Round|Shape=RoundedRectangle|*
%AMROUNDEDRECTD70*
21,1,0.90320,0.82500,0,0,270.0*
21,1,0.52500,1.20320,0,0,270.0*
1,1,0.37820,-0.41250,-0.26250*
1,1,0.37820,-0.41250,0.26250*
1,1,0.37820,0.41250,0.26250*
1,1,0.37820,0.41250,-0.26250*
%
%ADD70ROUNDEDRECTD70*%
G04:AMPARAMS|DCode=71|XSize=1.2032mm|YSize=1.9032mm|CornerRadius=0.2266mm|HoleSize=0mm|Usage=FLASHONLY|Rotation=180.000|XOffset=0mm|YOffset=0mm|HoleType=Round|Shape=RoundedRectangle|*
%AMROUNDEDRECTD71*
21,1,1.20320,1.45000,0,0,180.0*
21,1,0.75000,1.90320,0,0,180.0*
1,1,0.45320,-0.37500,0.72500*
1,1,0.45320,0.37500,0.72500*
1,1,0.45320,0.37500,-0.72500*
1,1,0.45320,-0.37500,-0.72500*
%
%ADD71ROUNDEDRECTD71*%
%ADD72R,3.50320X1.15320*%
%ADD73R,2.51320X2.66320*%
%ADD74R,0.65320X1.67820*%
G04:AMPARAMS|DCode=75|XSize=0.8032mm|YSize=1.4032mm|CornerRadius=0.1766mm|HoleSize=0mm|Usage=FLASHONLY|Rotation=0.000|XOffset=0mm|YOffset=0mm|HoleType=Round|Shape=RoundedRectangle|*
%AMROUNDEDRECTD75*
21,1,0.80320,1.05000,0,0,0.0*
21,1,0.45000,1.40320,0,0,0.0*
1,1,0.35320,0.22500,-0.52500*
1,1,0.35320,-0.22500,-0.52500*
1,1,0.35320,-0.22500,0.52500*
1,1,0.35320,0.22500,0.52500*
%
%ADD75ROUNDEDRECTD75*%
%TA.AperFunction,ComponentPad*%
%ADD76C,1.40320*%
%ADD77C,2.20320*%
%ADD78C,1.40000*%
%ADD79O,1.35320X2.00320*%
%ADD80O,1.75000X2.30000*%
%ADD81C,3.30320*%
%ADD82C,1.25320*%
%ADD83C,0.20320*%
D53*
X10079971Y5969988D02*
D03*
X10014972D02*
D03*
X9949971D02*
D03*
X9884971D02*
D03*
X9819971D02*
D03*
D54*
X11969972Y8129989D02*
D03*
Y8029989D02*
D03*
X12436620Y6266779D02*
D03*
Y6166779D02*
D03*
X9413500Y7074500D02*
D03*
Y7174500D02*
D03*
X12432300Y6494700D02*
D03*
Y6594700D02*
D03*
X12425900Y6759700D02*
D03*
Y6859700D02*
D03*
X12973599Y6294700D02*
D03*
Y6194700D02*
D03*
X12962201Y6569700D02*
D03*
Y6469700D02*
D03*
X12950800Y6844700D02*
D03*
Y6744700D02*
D03*
X11973079Y7900079D02*
D03*
Y7800079D02*
D03*
X12667500Y7125441D02*
D03*
Y7025441D02*
D03*
X11375800Y6303700D02*
D03*
Y6403700D02*
D03*
X11377100Y6503700D02*
D03*
Y6603700D02*
D03*
X11365300Y6703700D02*
D03*
Y6803700D02*
D03*
D55*
X7726000Y6909600D02*
D03*
Y6769600D02*
D03*
X7446000D02*
D03*
X7586000D02*
D03*
Y6909600D02*
D03*
X7446000D02*
D03*
Y7049600D02*
D03*
X7586000D02*
D03*
X7726000D02*
D03*
D56*
X7576500Y6184600D02*
D03*
X7449500D02*
D03*
X6941500D02*
D03*
X6814500D02*
D03*
X7068500D02*
D03*
X7322500D02*
D03*
X7195500D02*
D03*
X8465500D02*
D03*
X8338500D02*
D03*
X8211500D02*
D03*
X8084500D02*
D03*
X7957500D02*
D03*
X7830500D02*
D03*
X7703500D02*
D03*
X8465500Y7934600D02*
D03*
X8338500D02*
D03*
X8211500D02*
D03*
X8084500D02*
D03*
X7957500D02*
D03*
X7830500D02*
D03*
X7703500D02*
D03*
X7576500D02*
D03*
X7449500D02*
D03*
X7322500D02*
D03*
X7195500D02*
D03*
X7068500D02*
D03*
X6941500D02*
D03*
X6814500D02*
D03*
D57*
X8590500Y7377100D02*
D03*
Y6742100D02*
D03*
Y6996100D02*
D03*
Y6869100D02*
D03*
Y6361100D02*
D03*
Y6488100D02*
D03*
Y6615100D02*
D03*
Y7123100D02*
D03*
Y7250100D02*
D03*
Y7504100D02*
D03*
Y7631100D02*
D03*
Y7758100D02*
D03*
D58*
X10863500Y8272300D02*
D03*
Y8832300D02*
D03*
X11669100Y8812300D02*
D03*
Y8252300D02*
D03*
D59*
X11200100Y6354200D02*
D03*
Y6481200D02*
D03*
Y6608200D02*
D03*
Y6735200D02*
D03*
X10655100Y6354200D02*
D03*
Y6481200D02*
D03*
Y6608200D02*
D03*
Y6735200D02*
D03*
D60*
X9276880Y8151900D02*
D03*
Y8301900D02*
D03*
X9538600Y7186800D02*
D03*
Y7036800D02*
D03*
X9006000Y8709200D02*
D03*
Y8559200D02*
D03*
X8729800Y8710800D02*
D03*
Y8560800D02*
D03*
X8866400Y8558500D02*
D03*
Y8708500D02*
D03*
X12065799Y7061400D02*
D03*
Y6911400D02*
D03*
X11918400Y6636400D02*
D03*
Y6786400D02*
D03*
X12056800Y6798700D02*
D03*
Y6648700D02*
D03*
D61*
X10415880Y7879700D02*
D03*
Y7651100D02*
D03*
X10627480Y7879700D02*
D03*
Y7651100D02*
D03*
X10299964Y8485694D02*
D03*
Y8714294D02*
D03*
X11254600Y7648400D02*
D03*
Y7877000D02*
D03*
X11043000Y7648399D02*
D03*
Y7876999D02*
D03*
X10832200Y7648400D02*
D03*
Y7877000D02*
D03*
X11470601Y7223400D02*
D03*
Y7452000D02*
D03*
D62*
X10114306Y8474961D02*
D03*
X9885706D02*
D03*
X10114306Y8249962D02*
D03*
X9885706D02*
D03*
X12320800Y8497700D02*
D03*
X12549400D02*
D03*
X9731600Y7766920D02*
D03*
X9503000D02*
D03*
X9458400Y8334480D02*
D03*
X9687000D02*
D03*
D63*
X12371901Y8182200D02*
D03*
X12521901D02*
D03*
X12371900Y8318800D02*
D03*
X12521900D02*
D03*
X12073701Y6329800D02*
D03*
X12223700D02*
D03*
X12223700Y6191400D02*
D03*
X12073700D02*
D03*
X10938100Y7066400D02*
D03*
X11088100D02*
D03*
X9139200Y8026720D02*
D03*
X9289200D02*
D03*
X9001900Y8169520D02*
D03*
X9151900D02*
D03*
X9293101Y7885280D02*
D03*
X9143101D02*
D03*
X12552700Y7052900D02*
D03*
X12402700D02*
D03*
X12109400Y8169100D02*
D03*
X12259400D02*
D03*
X6796100Y5908900D02*
D03*
X6946100D02*
D03*
X9447640Y6353768D02*
D03*
X9597640D02*
D03*
X11378300Y7015100D02*
D03*
X11228300D02*
D03*
D64*
X9069300Y7088500D02*
D03*
Y7213500D02*
D03*
X9254300D02*
D03*
Y7088500D02*
D03*
D65*
X8853200Y7251900D02*
D03*
X8753200D02*
D03*
X8860500Y7115500D02*
D03*
X8760500D02*
D03*
X8860500Y6994100D02*
D03*
X8760500D02*
D03*
X12817999Y6742000D02*
D03*
X12718000D02*
D03*
X12830299Y6455600D02*
D03*
X12730300D02*
D03*
X12845300Y6169201D02*
D03*
X12745300D02*
D03*
X12739700Y6292200D02*
D03*
X12839700D02*
D03*
X12734727Y6576158D02*
D03*
X12834727D02*
D03*
X12724700Y6860001D02*
D03*
X12824699D02*
D03*
X12427700Y7166300D02*
D03*
X12527700D02*
D03*
X12177900Y7057400D02*
D03*
X12277900D02*
D03*
X6933400Y6035800D02*
D03*
X6833400D02*
D03*
X7171100Y6029100D02*
D03*
X7071100D02*
D03*
X9596786Y6223048D02*
D03*
X9496786D02*
D03*
X11153700Y6889800D02*
D03*
X11253700D02*
D03*
X10871700Y6898200D02*
D03*
X10771700D02*
D03*
X10778700Y6171500D02*
D03*
X10878700D02*
D03*
X11471300Y6191700D02*
D03*
X11571300D02*
D03*
X11853300Y6195900D02*
D03*
X11753300D02*
D03*
D66*
X11773800Y6780100D02*
D03*
Y6620100D02*
D03*
X12557200Y6305400D02*
D03*
Y6145400D02*
D03*
X12560800Y6610400D02*
D03*
Y6450400D02*
D03*
X12554400Y6875400D02*
D03*
Y6715400D02*
D03*
D67*
X12230100Y6478800D02*
D03*
X12070100D02*
D03*
D68*
X11270400Y7477400D02*
D03*
X11175400D02*
D03*
X11080400D02*
D03*
Y7212400D02*
D03*
X11270400D02*
D03*
D69*
X12897099Y8767000D02*
D03*
Y8370000D02*
D03*
X12903200Y7739000D02*
D03*
Y8136000D02*
D03*
Y7450200D02*
D03*
Y7053200D02*
D03*
D70*
X9477580Y8134600D02*
D03*
Y8039600D02*
D03*
Y7944600D02*
D03*
X9697580Y8134600D02*
D03*
Y8039600D02*
D03*
Y7944600D02*
D03*
D71*
X10060000Y8698720D02*
D03*
X9870000D02*
D03*
D72*
X10047300Y7949480D02*
D03*
Y7644480D02*
D03*
D73*
X12379300Y7622700D02*
D03*
D74*
X12151800Y7916500D02*
D03*
X12216800D02*
D03*
X12281800D02*
D03*
X12346800D02*
D03*
X12411800D02*
D03*
X12476800D02*
D03*
X12541800D02*
D03*
X12606800D02*
D03*
Y7328900D02*
D03*
X12541800D02*
D03*
X12476800D02*
D03*
X12411800D02*
D03*
X12346800D02*
D03*
X12281800D02*
D03*
X12216800D02*
D03*
X12151800D02*
D03*
D75*
X9845900Y6670300D02*
D03*
X9940900D02*
D03*
X10035900D02*
D03*
Y6430300D02*
D03*
X9940900D02*
D03*
X9845900D02*
D03*
D76*
X13703700Y7937500D02*
D03*
Y7683500D02*
D03*
Y7429500D02*
D03*
X12389000Y5492300D02*
D03*
X12643000D02*
D03*
X12897000D02*
D03*
X13703700Y6527800D02*
D03*
Y6781800D02*
D03*
Y7035800D02*
D03*
Y5626100D02*
D03*
Y5880100D02*
D03*
Y6134100D02*
D03*
Y8343500D02*
D03*
Y8597500D02*
D03*
Y8851500D02*
D03*
X11487700Y5503000D02*
D03*
X11741700D02*
D03*
X11995700D02*
D03*
D77*
X13449699Y7937500D02*
D03*
Y7683500D02*
D03*
Y7429500D02*
D03*
X12389000Y5746300D02*
D03*
X12643000D02*
D03*
X12897000D02*
D03*
X13449699Y6527800D02*
D03*
Y6781800D02*
D03*
Y7035800D02*
D03*
Y5626100D02*
D03*
Y5880100D02*
D03*
Y6134100D02*
D03*
Y8343500D02*
D03*
Y8597500D02*
D03*
Y8851500D02*
D03*
X11487700Y5757000D02*
D03*
X11741700D02*
D03*
X11995700D02*
D03*
D78*
X10199971Y5854989D02*
D03*
X9699971D02*
D03*
D79*
X10337472Y5579988D02*
D03*
X9562471D02*
D03*
D80*
X10322471Y5959988D02*
D03*
X9577472D02*
D03*
D81*
X7554341Y8564610D02*
D03*
X8394341D02*
D03*
D82*
X7814341Y8654610D02*
D03*
X7894341Y8464610D02*
D03*
X7974341Y8654610D02*
D03*
X8054341Y8464610D02*
D03*
X8134341Y8654610D02*
D03*
D83*
X7072500Y8858500D02*
D03*
X7037500Y5583500D02*
D03*
X10935300Y5758500D02*
D03*
%TF.MD5,d834811765fdce020dacb248946e888d*%
M02*
