%TF.GenerationSoftware,Altium Limited,Altium Designer,25.4.2 (15)*%
G04 Layer_Color=16711935*
%FSLAX45Y45*%
%MOMM*%
%TF.SameCoordinates,9A986A7D-484F-4AC0-AE4B-942BB78B8B2C*%
%TF.FilePolarity,Negative*%
%TF.FileFunction,Soldermask,Bot*%
%TF.Part,Single*%
G01*
G75*
%TA.AperFunction,ComponentPad*%
%ADD76C,1.40320*%
%ADD77C,2.20320*%
%ADD78C,1.40000*%
%ADD79O,1.35320X2.00320*%
%ADD80O,1.75000X2.30000*%
%ADD81C,3.30320*%
%ADD82C,1.25320*%
%ADD83C,0.20320*%
D76*
X13703700Y7937500D02*
D03*
Y7683500D02*
D03*
Y7429500D02*
D03*
X12389000Y5492300D02*
D03*
X12643000D02*
D03*
X12897000D02*
D03*
X13703700Y6527800D02*
D03*
Y6781800D02*
D03*
Y7035800D02*
D03*
Y5626100D02*
D03*
Y5880100D02*
D03*
Y6134100D02*
D03*
Y8343500D02*
D03*
Y8597500D02*
D03*
Y8851500D02*
D03*
X11487700Y5503000D02*
D03*
X11741700D02*
D03*
X11995700D02*
D03*
D77*
X13449699Y7937500D02*
D03*
Y7683500D02*
D03*
Y7429500D02*
D03*
X12389000Y5746300D02*
D03*
X12643000D02*
D03*
X12897000D02*
D03*
X13449699Y6527800D02*
D03*
Y6781800D02*
D03*
Y7035800D02*
D03*
Y5626100D02*
D03*
Y5880100D02*
D03*
Y6134100D02*
D03*
Y8343500D02*
D03*
Y8597500D02*
D03*
Y8851500D02*
D03*
X11487700Y5757000D02*
D03*
X11741700D02*
D03*
X11995700D02*
D03*
D78*
X10199971Y5854989D02*
D03*
X9699971D02*
D03*
D79*
X10337472Y5579988D02*
D03*
X9562471D02*
D03*
D80*
X10322471Y5959988D02*
D03*
X9577472D02*
D03*
D81*
X7554341Y8564610D02*
D03*
X8394341D02*
D03*
D82*
X7814341Y8654610D02*
D03*
X7894341Y8464610D02*
D03*
X7974341Y8654610D02*
D03*
X8054341Y8464610D02*
D03*
X8134341Y8654610D02*
D03*
D83*
X7072500Y8858500D02*
D03*
X7037500Y5583500D02*
D03*
X10935300Y5758500D02*
D03*
%TF.MD5,4a9de82ba0c07bbbbd7fed62aeb7fc25*%
M02*
