%TF.GenerationSoftware,Altium Limited,Altium Designer,25.4.2 (15)*%
G04 Layer_Color=65535*
%FSLAX45Y45*%
%MOMM*%
%TF.SameCoordinates,9A986A7D-484F-4AC0-AE4B-942BB78B8B2C*%
%TF.FilePolarity,Positive*%
%TF.FileFunction,Legend,Top*%
%TF.Part,Single*%
G01*
G75*
%TA.AperFunction,NonConductor*%
%ADD48C,0.30000*%
%ADD49C,0.35000*%
%ADD50C,0.25000*%
%ADD51C,0.25400*%
%ADD52C,0.20000*%
D48*
X9737471Y6094988D02*
G03*
X9737471Y6094988I-12500J0D01*
G01*
X13117654Y8108500D02*
X13724699D01*
X13117654Y7258500D02*
Y8108500D01*
Y7258500D02*
X13724699D01*
X9524971Y5709988D02*
Y5819988D01*
X10374971Y5714988D02*
Y5824988D01*
X9689971Y6019988D02*
X9749971D01*
X10149971D02*
X10209971D01*
X12218000Y5471300D02*
Y6078345D01*
X13067999D01*
Y5471300D02*
Y6078345D01*
X13117654Y6356800D02*
X13724699D01*
X13117654D02*
Y7206800D01*
X13724699D01*
X13117654Y5455100D02*
X13724699D01*
X13117654D02*
Y6305100D01*
X13724699D01*
X13117654Y8172500D02*
X13724699D01*
X13117654D02*
Y9022500D01*
X13724699D01*
X9765904Y6387524D02*
Y6474165D01*
X11316700Y5482000D02*
Y6089045D01*
X12166700D01*
Y5482000D02*
Y6089045D01*
D49*
X6765000Y6040000D02*
G03*
X6765000Y6040000I-15000J0D01*
G01*
D50*
X10667600Y6820200D02*
G03*
X10667600Y6820200I-12500J0D01*
G01*
X11367900Y7477400D02*
G03*
X11367900Y7477400I-12500J0D01*
G01*
X9735080Y7859600D02*
G03*
X9735080Y7859600I-12500J0D01*
G01*
D51*
X8156130Y8817710D02*
G03*
X8156130Y8817710I-9289J0D01*
G01*
X7589341Y8754610D02*
X8359341D01*
X7589341Y8364610D02*
X8359341D01*
D52*
X8552500Y6139600D02*
X8638895D01*
Y6269600D01*
X8552500Y7984600D02*
X8638895D01*
Y7854600D02*
Y7984600D01*
X6827500Y6359600D02*
X8427500D01*
Y7759600D01*
X6827500D02*
X8427500D01*
X6827500Y6359600D02*
Y7759600D01*
X6902500Y7509600D02*
X7002500D01*
X6902500D02*
X6952500Y7459600D01*
X6902500Y7509600D02*
X6952500Y7559600D01*
X6902500Y6609600D02*
X7002500D01*
X6902500D02*
X6952500Y6559600D01*
X6902500Y6609600D02*
X6952500Y6659600D01*
X10588500Y8302300D02*
Y8704800D01*
Y8302300D02*
X10753500D01*
X10973500D02*
X11138500D01*
Y8704800D01*
X10686000Y8802300D02*
X10753500D01*
X10588500Y8704800D02*
X10686000Y8802300D01*
X11041000D02*
X11138500Y8704800D01*
X10973500Y8802300D02*
X11041000D01*
X10767600Y6314700D02*
Y6724700D01*
X10817600Y6774700D01*
X11087600D01*
X10767600Y6314700D02*
X11087600D01*
Y6774700D01*
X11813800Y6640100D02*
Y6807600D01*
X11733800Y6640100D02*
Y6760100D01*
X12090100Y6438800D02*
X12257600D01*
X12090100Y6518800D02*
X12210100D01*
X12597200Y6165400D02*
Y6332900D01*
X12517200Y6165400D02*
Y6285400D01*
X12600800Y6470400D02*
Y6637900D01*
X12520800Y6470400D02*
Y6590400D01*
X12594400Y6735400D02*
Y6902900D01*
X12514400Y6735400D02*
Y6855400D01*
X13043600Y6124700D02*
Y6244700D01*
X12903600Y6124700D02*
X13043600D01*
X12903600D02*
Y6244700D01*
X13032201Y6399700D02*
Y6519700D01*
X12892201Y6399700D02*
X13032201D01*
X12892201D02*
Y6519700D01*
X13020799Y6674700D02*
Y6794700D01*
X12880800Y6674700D02*
X13020799D01*
X12880800D02*
Y6794700D01*
X11320400Y7304900D02*
Y7384900D01*
X11030400Y7304900D02*
Y7384900D01*
X11320400D01*
X11030400Y7304900D02*
X11320400D01*
X11779100Y8782300D02*
X11846600D01*
X11944100Y8684800D01*
X11394100D02*
X11491600Y8782300D01*
X11559100D01*
X11944100Y8282300D02*
Y8684800D01*
X11779100Y8282300D02*
X11944100D01*
X11394100D02*
X11559100D01*
X11394100D02*
Y8684800D01*
X12897099Y8488500D02*
Y8648500D01*
Y8648500D02*
Y8648500D01*
X12837100Y8588500D02*
X12897099Y8648500D01*
X12897099D02*
X12957100Y8588500D01*
X12747100Y8268500D02*
Y8868500D01*
X13047099D01*
Y8268500D02*
Y8868500D01*
X12747100Y8268500D02*
X13047099D01*
X9587580Y7909600D02*
Y8169600D01*
X9897300Y7746980D02*
Y7846980D01*
Y7746980D02*
X10197300D01*
Y7846980D01*
X9897300D02*
X10197300D01*
X12094300Y7255200D02*
Y7402700D01*
X12903200Y7857500D02*
Y8017500D01*
Y7857500D02*
Y7857500D01*
X12963200Y7917500D01*
X12843201D02*
X12903200Y7857500D01*
X13053200Y7637500D02*
Y8237500D01*
X12753200Y7637500D02*
X13053200D01*
X12753200D02*
Y8237500D01*
X13053200D01*
X12903200Y7171700D02*
Y7331700D01*
Y7331700D02*
Y7331700D01*
X12843201Y7271700D02*
X12903200Y7331700D01*
X12903200D02*
X12963200Y7271700D01*
X12753200Y6951700D02*
Y7551700D01*
X13053200D01*
Y6951700D02*
Y7551700D01*
X12753200Y6951700D02*
X13053200D01*
X11521300Y6261700D02*
X11641300D01*
Y6121700D02*
Y6261700D01*
X11521300Y6121700D02*
X11641300D01*
X11683300Y6125900D02*
X11803300D01*
X11683300D02*
Y6265900D01*
X11803300D01*
X7002484Y6726375D02*
X6935839D01*
X6902516Y6759697D01*
X6935839Y6793020D01*
X7002484D01*
X6952500D01*
Y6726375D01*
X7002484Y6826342D02*
X6902516D01*
X7002484Y6892987D01*
X6902516D01*
Y6926310D02*
Y6992955D01*
Y6959633D01*
X7002484D01*
X6902516Y7092923D02*
Y7026278D01*
X7002484D01*
Y7092923D01*
X6952500Y7026278D02*
Y7059601D01*
X7002484Y7126246D02*
X6902516D01*
X7002484Y7192891D01*
X6902516D01*
X7002484Y7226214D02*
X6902516D01*
X7002484Y7292859D01*
X6902516D01*
X7002484Y7326181D02*
X6935839D01*
X6902516Y7359504D01*
X6935839Y7392826D01*
X7002484D01*
X6952500D01*
Y7326181D01*
X9375123Y7001000D02*
X9308478D01*
X9341800Y6967678D02*
Y7034323D01*
%TF.MD5,f3c4e5f7dcb812b37d8fdc49f8a3bce3*%
M02*
