%TF.GenerationSoftware,Altium Limited,Altium Designer,25.4.2 (15)*%
G04 Layer_Color=255*
%FSLAX45Y45*%
%MOMM*%
%TF.SameCoordinates,9A986A7D-484F-4AC0-AE4B-942BB78B8B2C*%
%TF.FilePolarity,Positive*%
%TF.FileFunction,Pads,Bot*%
%TF.Part,Single*%
G01*
G75*
%TA.AperFunction,ComponentPad*%
%ADD40C,1.20000*%
%ADD41C,2.00000*%
%ADD42C,0.80000*%
%ADD43O,1.15000X1.80000*%
%ADD44O,1.45000X2.00000*%
%ADD45C,3.10000*%
%ADD46C,1.05000*%
D40*
X13703700Y7937500D02*
D03*
Y7683500D02*
D03*
Y7429500D02*
D03*
X12389000Y5492300D02*
D03*
X12643000D02*
D03*
X12897000D02*
D03*
X13703700Y6527800D02*
D03*
Y6781800D02*
D03*
Y7035800D02*
D03*
Y5626100D02*
D03*
Y5880100D02*
D03*
Y6134100D02*
D03*
Y8343500D02*
D03*
Y8597500D02*
D03*
Y8851500D02*
D03*
X11487700Y5503000D02*
D03*
X11741700D02*
D03*
X11995700D02*
D03*
D41*
X13449699Y7937500D02*
D03*
Y7683500D02*
D03*
Y7429500D02*
D03*
X12389000Y5746300D02*
D03*
X12643000D02*
D03*
X12897000D02*
D03*
X13449699Y6527800D02*
D03*
Y6781800D02*
D03*
Y7035800D02*
D03*
Y5626100D02*
D03*
Y5880100D02*
D03*
Y6134100D02*
D03*
Y8343500D02*
D03*
Y8597500D02*
D03*
Y8851500D02*
D03*
X11487700Y5757000D02*
D03*
X11741700D02*
D03*
X11995700D02*
D03*
D42*
X10199971Y5854989D02*
D03*
X9699971D02*
D03*
D43*
X10337472Y5579988D02*
D03*
X9562471D02*
D03*
D44*
X10322471Y5959988D02*
D03*
X9577472D02*
D03*
D45*
X7554341Y8564610D02*
D03*
X8394341D02*
D03*
D46*
X7814341Y8654610D02*
D03*
X7894341Y8464610D02*
D03*
X7974341Y8654610D02*
D03*
X8054341Y8464610D02*
D03*
X8134341Y8654610D02*
D03*
%TF.MD5,6eed3fddbfb0a5e9ae427389964d449b*%
M02*
