%TF.GenerationSoftware,Altium Limited,Altium Designer,25.4.2 (15)*%
G04 Layer_Color=128*
%FSLAX45Y45*%
%MOMM*%
%TF.SameCoordinates,9A986A7D-484F-4AC0-AE4B-942BB78B8B2C*%
%TF.FilePolarity,Positive*%
%TF.FileFunction,Drillmap*%
%TF.Part,Single*%
G01*
G75*
%TA.AperFunction,NonConductor*%
%ADD100C,0.12700*%
D100*
X13643700Y7937500D02*
X13763699D01*
X13703700Y7877500D02*
Y7997500D01*
X13643700Y7683500D02*
X13763699D01*
X13703700Y7623500D02*
Y7743500D01*
X13643700Y7429500D02*
X13763699D01*
X13703700Y7369500D02*
Y7489500D01*
X13389700Y7937500D02*
X13509700D01*
X13449699Y7877500D02*
Y7997500D01*
X13389700Y7683500D02*
X13509700D01*
X13449699Y7623500D02*
Y7743500D01*
X13389700Y7429500D02*
X13509700D01*
X13449699Y7369500D02*
Y7489500D01*
X10159972Y5854989D02*
X10239971D01*
X10199971Y5814989D02*
Y5894988D01*
X9659972Y5854989D02*
X9739971D01*
X9699971Y5814989D02*
Y5894988D01*
X10309972Y5579988D02*
X10364971D01*
X10337472Y5552489D02*
Y5607488D01*
X9534972Y5579988D02*
X9589971D01*
X9562471Y5552489D02*
Y5607488D01*
X10279971Y5959988D02*
X10364971D01*
X10322471Y5917488D02*
Y6002488D01*
X9534972Y5959988D02*
X9619972D01*
X9577472Y5917488D02*
Y6002488D01*
X7454341Y8564610D02*
X7654341D01*
X7554341Y8464610D02*
Y8664610D01*
X8294341Y8564610D02*
X8494341D01*
X8394341Y8464610D02*
Y8664610D01*
X7784341Y8654610D02*
X7844341D01*
X7814341Y8624610D02*
Y8684610D01*
X7864341Y8464610D02*
X7924341D01*
X7894341Y8434610D02*
Y8494610D01*
X7944341Y8654610D02*
X8004341D01*
X7974341Y8624610D02*
Y8684610D01*
X8024341Y8464610D02*
X8084341D01*
X8054341Y8434610D02*
Y8494610D01*
X8104341Y8654610D02*
X8164341D01*
X8134341Y8624610D02*
Y8684610D01*
X6922500Y8858500D02*
X7222500D01*
X7072500Y8708500D02*
Y9008500D01*
X12329000Y5746300D02*
X12449000D01*
X12389000Y5686300D02*
Y5806300D01*
X12583000Y5746300D02*
X12703000D01*
X12643000Y5686300D02*
Y5806300D01*
X12837000Y5746300D02*
X12957001D01*
X12897000Y5686300D02*
Y5806300D01*
X12329000Y5492300D02*
X12449000D01*
X12389000Y5432300D02*
Y5552300D01*
X12583000Y5492300D02*
X12703000D01*
X12643000Y5432300D02*
Y5552300D01*
X12837000Y5492300D02*
X12957001D01*
X12897000Y5432300D02*
Y5552300D01*
X13389700Y6527800D02*
X13509700D01*
X13449699Y6467800D02*
Y6587800D01*
X13389700Y6781800D02*
X13509700D01*
X13449699Y6721800D02*
Y6841800D01*
X13389700Y7035800D02*
X13509700D01*
X13449699Y6975800D02*
Y7095800D01*
X13643700Y6527800D02*
X13763699D01*
X13703700Y6467800D02*
Y6587800D01*
X13643700Y6781800D02*
X13763699D01*
X13703700Y6721800D02*
Y6841800D01*
X13643700Y7035800D02*
X13763699D01*
X13703700Y6975800D02*
Y7095800D01*
X13389700Y5626100D02*
X13509700D01*
X13449699Y5566100D02*
Y5686100D01*
X13389700Y5880100D02*
X13509700D01*
X13449699Y5820100D02*
Y5940100D01*
X13389700Y6134100D02*
X13509700D01*
X13449699Y6074100D02*
Y6194100D01*
X13643700Y5626100D02*
X13763699D01*
X13703700Y5566100D02*
Y5686100D01*
X13643700Y5880100D02*
X13763699D01*
X13703700Y5820100D02*
Y5940100D01*
X13643700Y6134100D02*
X13763699D01*
X13703700Y6074100D02*
Y6194100D01*
X13389700Y8343500D02*
X13509700D01*
X13449699Y8283500D02*
Y8403500D01*
X13389700Y8597500D02*
X13509700D01*
X13449699Y8537500D02*
Y8657500D01*
X13389700Y8851500D02*
X13509700D01*
X13449699Y8791500D02*
Y8911500D01*
X13643700Y8343500D02*
X13763699D01*
X13703700Y8283500D02*
Y8403500D01*
X13643700Y8597500D02*
X13763699D01*
X13703700Y8537500D02*
Y8657500D01*
X13643700Y8851500D02*
X13763699D01*
X13703700Y8791500D02*
Y8911500D01*
X6887500Y5583500D02*
X7187500D01*
X7037500Y5433500D02*
Y5733500D01*
X10785300Y5758500D02*
X11085300D01*
X10935300Y5608500D02*
Y5908500D01*
X11427700Y5757000D02*
X11547700D01*
X11487700Y5697001D02*
Y5817000D01*
X11681700Y5757000D02*
X11801700D01*
X11741700Y5697001D02*
Y5817000D01*
X11935700Y5757000D02*
X12055700D01*
X11995700Y5697001D02*
Y5817000D01*
X11427700Y5503000D02*
X11547700D01*
X11487700Y5443001D02*
Y5563000D01*
X11681700Y5503000D02*
X11801700D01*
X11741700Y5443001D02*
Y5563000D01*
X11935700Y5503000D02*
X12055700D01*
X11995700Y5443001D02*
Y5563000D01*
X7808258Y8270000D02*
X7838258D01*
X7823258Y8255000D02*
Y8285000D01*
X8040740Y8145740D02*
X8070740D01*
X8055740Y8130740D02*
Y8160740D01*
X13085001Y7675000D02*
X13114999D01*
X13100000Y7660000D02*
Y7690000D01*
X13085001Y7775000D02*
X13114999D01*
X13100000Y7760000D02*
Y7790000D01*
X13110001Y7725000D02*
X13139999D01*
X13125000Y7710000D02*
Y7740000D01*
X13110001Y7425000D02*
X13139999D01*
X13125000Y7410000D02*
Y7440000D01*
X13085001Y7475000D02*
X13114999D01*
X13100000Y7460000D02*
Y7490000D01*
X13085001Y7375000D02*
X13114999D01*
X13100000Y7360000D02*
Y7390000D01*
X13260001Y7477957D02*
X13289999D01*
X13275000Y7462957D02*
Y7492957D01*
X13260001Y7377957D02*
X13289999D01*
X13275000Y7362957D02*
Y7392957D01*
X13180000Y7377957D02*
X13210001D01*
X13195000Y7362957D02*
Y7392957D01*
X13220000Y7427956D02*
X13250000D01*
X13235001Y7412956D02*
Y7442956D01*
X13180000Y7477957D02*
X13210001D01*
X13195000Y7462957D02*
Y7492957D01*
X13205905Y7714969D02*
X13235905D01*
X13220905Y7699969D02*
Y7729969D01*
X13164999Y7650000D02*
X13195000D01*
X13180000Y7635000D02*
Y7665000D01*
X13255000Y7770000D02*
X13285001D01*
X13270000Y7755000D02*
Y7785000D01*
X13175000Y7770000D02*
X13205000D01*
X13189999Y7755000D02*
Y7785000D01*
X13255000Y7670000D02*
X13285001D01*
X13270000Y7655000D02*
Y7685000D01*
X7995000Y5450000D02*
X8025000D01*
X8010000Y5435000D02*
Y5465000D01*
X9431744Y6438582D02*
X9461744D01*
X9446744Y6423582D02*
Y6453582D01*
X10071744Y6138582D02*
X10101744D01*
X10086744Y6123582D02*
Y6153582D01*
X12327043Y6300000D02*
X12357043D01*
X12342043Y6285000D02*
Y6315000D01*
X11955000Y7730000D02*
X11985000D01*
X11970000Y7715000D02*
Y7745000D01*
X11955000Y8210000D02*
X11985000D01*
X11970000Y8195000D02*
Y8225000D01*
X7783639Y7265502D02*
X7813639D01*
X7798639Y7250502D02*
Y7280502D01*
X7785000Y7390000D02*
X7815000D01*
X7800000Y7375000D02*
Y7405000D01*
X7795000Y7690000D02*
X7825000D01*
X7810000Y7675000D02*
Y7705000D01*
X7815000Y7800000D02*
X7845000D01*
X7830000Y7785000D02*
Y7815000D01*
X10941744Y6860549D02*
X10971744D01*
X10956744Y6845549D02*
Y6875549D01*
X11031855Y5562446D02*
X11061855D01*
X11046855Y5547446D02*
Y5577446D01*
X11111855Y5562446D02*
X11141855D01*
X11126855Y5547446D02*
Y5577446D01*
X11185000Y5420000D02*
X11215000D01*
X11200000Y5405000D02*
Y5435000D01*
X10901855Y5562446D02*
X10931855D01*
X10916855Y5547446D02*
Y5577446D01*
X10751855Y5562446D02*
X10781855D01*
X10766855Y5547446D02*
Y5577446D01*
X10831855Y5562446D02*
X10861855D01*
X10846855Y5547446D02*
Y5577446D01*
X7585000Y5570000D02*
X7615000D01*
X7600000Y5555000D02*
Y5585000D01*
X6815000Y7080000D02*
X6845000D01*
X6830000Y7065000D02*
Y7095000D01*
X6815000Y6990000D02*
X6845000D01*
X6830000Y6975000D02*
Y7005000D01*
X6815000Y6900000D02*
X6845000D01*
X6830000Y6885000D02*
Y6915000D01*
X6815000Y6800000D02*
X6845000D01*
X6830000Y6785000D02*
Y6815000D01*
X6905000Y7080000D02*
X6935000D01*
X6920000Y7065000D02*
Y7095000D01*
X6905000Y6990000D02*
X6935000D01*
X6920000Y6975000D02*
Y7005000D01*
X6905000Y6900000D02*
X6935000D01*
X6920000Y6885000D02*
Y6915000D01*
X6905000Y6800000D02*
X6935000D01*
X6920000Y6785000D02*
Y6815000D01*
X7095000Y7080000D02*
X7125000D01*
X7110000Y7065000D02*
Y7095000D01*
X7095000Y6990000D02*
X7125000D01*
X7110000Y6975000D02*
Y7005000D01*
X7095000Y6900000D02*
X7125000D01*
X7110000Y6885000D02*
Y6915000D01*
X7095000Y6800000D02*
X7125000D01*
X7110000Y6785000D02*
Y6815000D01*
X7191334Y6799079D02*
X7221334D01*
X7206334Y6784079D02*
Y6814079D01*
X7191334Y6899079D02*
X7221334D01*
X7206334Y6884079D02*
Y6914079D01*
X7191334Y6989079D02*
X7221334D01*
X7206334Y6974079D02*
Y7004079D01*
X7191334Y7079079D02*
X7221334D01*
X7206334Y7064079D02*
Y7094079D01*
X7191334Y7359078D02*
X7221334D01*
X7206334Y7344079D02*
Y7374078D01*
X7191334Y7269078D02*
X7221334D01*
X7206334Y7254078D02*
Y7284078D01*
X7191334Y7169079D02*
X7221334D01*
X7206334Y7154079D02*
Y7184079D01*
X7095000Y7170000D02*
X7125000D01*
X7110000Y7155000D02*
Y7185000D01*
X7095000Y7270000D02*
X7125000D01*
X7110000Y7255000D02*
Y7285000D01*
X6905000Y7170000D02*
X6935000D01*
X6920000Y7155000D02*
Y7185000D01*
X6905000Y7270000D02*
X6935000D01*
X6920000Y7255000D02*
Y7285000D01*
X6905000Y7360000D02*
X6935000D01*
X6920000Y7345000D02*
Y7375000D01*
X6905000Y7450000D02*
X6935000D01*
X6920000Y7435000D02*
Y7465000D01*
X6815000Y7170000D02*
X6845000D01*
X6830000Y7155000D02*
Y7185000D01*
X6815000Y7270000D02*
X6845000D01*
X6830000Y7255000D02*
Y7285000D01*
X6815000Y7360000D02*
X6845000D01*
X6830000Y7345000D02*
Y7375000D01*
X6815000Y7450000D02*
X6845000D01*
X6830000Y7435000D02*
Y7465000D01*
X8348669Y6602858D02*
X8378669D01*
X8363669Y6587858D02*
Y6617858D01*
X8348669Y6452858D02*
X8378669D01*
X8363669Y6437858D02*
Y6467858D01*
X8348669Y6532858D02*
X8378669D01*
X8363669Y6517858D02*
Y6547858D01*
X8421115Y6536003D02*
X8451115D01*
X8436115Y6521003D02*
Y6551003D01*
X8421115Y6606003D02*
X8451115D01*
X8436115Y6591003D02*
Y6621003D01*
X8421115Y6456003D02*
X8451115D01*
X8436115Y6441003D02*
Y6471003D01*
X8368670Y6752858D02*
X8398670D01*
X8383670Y6737858D02*
Y6767858D01*
X8368670Y6832858D02*
X8398670D01*
X8383670Y6817858D02*
Y6847858D01*
X8441115Y6836003D02*
X8471115D01*
X8456115Y6821003D02*
Y6851003D01*
X8441115Y6756003D02*
X8471115D01*
X8456115Y6741003D02*
Y6771003D01*
X7217684Y5691635D02*
X7247684D01*
X7232684Y5676635D02*
Y5706635D01*
X7367684Y5691635D02*
X7397684D01*
X7382684Y5676635D02*
Y5706635D01*
X7297684Y5691635D02*
X7327684D01*
X7312684Y5676635D02*
Y5706635D01*
X7285000Y5490000D02*
X7315000D01*
X7300000Y5475000D02*
Y5505000D01*
X7285000Y5420000D02*
X7315000D01*
X7300000Y5405000D02*
Y5435000D01*
X7215000Y5420000D02*
X7245000D01*
X7230000Y5405000D02*
Y5435000D01*
X7215000Y5490000D02*
X7245000D01*
X7230000Y5475000D02*
Y5505000D01*
X7285000Y5570000D02*
X7315000D01*
X7300000Y5555000D02*
Y5585000D01*
X7215000Y5570000D02*
X7245000D01*
X7230000Y5555000D02*
Y5585000D01*
X7435000Y5570000D02*
X7465000D01*
X7450000Y5555000D02*
Y5585000D01*
X7365000Y5570000D02*
X7395000D01*
X7380000Y5555000D02*
Y5585000D01*
X7515000Y5570000D02*
X7545000D01*
X7530000Y5555000D02*
Y5585000D01*
X7518145Y5497554D02*
X7548145D01*
X7533145Y5482554D02*
Y5512554D01*
X7518145Y5427554D02*
X7548145D01*
X7533145Y5412554D02*
Y5442554D01*
X7588145Y5427554D02*
X7618145D01*
X7603145Y5412554D02*
Y5442554D01*
X7588145Y5497554D02*
X7618145D01*
X7603145Y5482554D02*
Y5512554D01*
X7368145Y5497554D02*
X7398145D01*
X7383145Y5482554D02*
Y5512554D01*
X7368145Y5427554D02*
X7398145D01*
X7383145Y5412554D02*
Y5442554D01*
X7438145Y5427554D02*
X7468145D01*
X7453145Y5412554D02*
Y5442554D01*
X7438145Y5497554D02*
X7468145D01*
X7453145Y5482554D02*
Y5512554D01*
X6954041Y8204803D02*
X6984041D01*
X6969041Y8189803D02*
Y8219803D01*
X6954041Y8134803D02*
X6984041D01*
X6969041Y8119803D02*
Y8149803D01*
X6884041Y8134803D02*
X6914041D01*
X6899041Y8119803D02*
Y8149803D01*
X6884041Y8204803D02*
X6914041D01*
X6899041Y8189803D02*
Y8219803D01*
X7104041Y8204803D02*
X7134041D01*
X7119041Y8189803D02*
Y8219803D01*
X7104041Y8134803D02*
X7134041D01*
X7119041Y8119803D02*
Y8149803D01*
X7034041Y8134803D02*
X7064041D01*
X7049041Y8119803D02*
Y8149803D01*
X7034041Y8204803D02*
X7064041D01*
X7049041Y8189803D02*
Y8219803D01*
X7105000Y8580000D02*
X7135000D01*
X7120000Y8565000D02*
Y8595000D01*
X7105000Y8510000D02*
X7135000D01*
X7120000Y8495000D02*
Y8525000D01*
X7035000Y8510000D02*
X7065000D01*
X7050000Y8495000D02*
Y8525000D01*
X7035000Y8580000D02*
X7065000D01*
X7050000Y8565000D02*
Y8595000D01*
X7105000Y8660000D02*
X7135000D01*
X7120000Y8645000D02*
Y8675000D01*
X7035000Y8660000D02*
X7065000D01*
X7050000Y8645000D02*
Y8675000D01*
X7030896Y8427249D02*
X7060896D01*
X7045896Y8412249D02*
Y8442249D01*
X7100896Y8427249D02*
X7130896D01*
X7115896Y8412249D02*
Y8442249D01*
X7030896Y8347249D02*
X7060896D01*
X7045896Y8332249D02*
Y8362249D01*
X7030896Y8277249D02*
X7060896D01*
X7045896Y8262249D02*
Y8292249D01*
X7100896Y8277249D02*
X7130896D01*
X7115896Y8262249D02*
Y8292249D01*
X7100896Y8347249D02*
X7130896D01*
X7115896Y8332249D02*
Y8362249D01*
X6955000Y8580000D02*
X6985000D01*
X6970000Y8565000D02*
Y8595000D01*
X6955000Y8510000D02*
X6985000D01*
X6970000Y8495000D02*
Y8525000D01*
X6885000Y8510000D02*
X6915000D01*
X6900000Y8495000D02*
Y8525000D01*
X6885000Y8580000D02*
X6915000D01*
X6900000Y8565000D02*
Y8595000D01*
X6955000Y8660000D02*
X6985000D01*
X6970000Y8645000D02*
Y8675000D01*
X6885000Y8660000D02*
X6915000D01*
X6900000Y8645000D02*
Y8675000D01*
X6880896Y8427249D02*
X6910896D01*
X6895896Y8412249D02*
Y8442249D01*
X6950896Y8427249D02*
X6980896D01*
X6965896Y8412249D02*
Y8442249D01*
X6880896Y8347249D02*
X6910896D01*
X6895896Y8332249D02*
Y8362249D01*
X6880896Y8277249D02*
X6910896D01*
X6895896Y8262249D02*
Y8292249D01*
X6950896Y8277249D02*
X6980896D01*
X6965896Y8262249D02*
Y8292249D01*
X6950896Y8347249D02*
X6980896D01*
X6965896Y8332249D02*
Y8362249D01*
X6805000Y8430000D02*
X6835000D01*
X6820000Y8415000D02*
Y8445000D01*
X6805000Y8360000D02*
X6835000D01*
X6820000Y8345000D02*
Y8375000D01*
X6735000Y8360000D02*
X6765000D01*
X6750000Y8345000D02*
Y8375000D01*
X6735000Y8430000D02*
X6765000D01*
X6750000Y8415000D02*
Y8445000D01*
X6805000Y8510000D02*
X6835000D01*
X6820000Y8495000D02*
Y8525000D01*
X6735000Y8510000D02*
X6765000D01*
X6750000Y8495000D02*
Y8525000D01*
X6730896Y8277249D02*
X6760896D01*
X6745896Y8262249D02*
Y8292249D01*
X6800896Y8277249D02*
X6830896D01*
X6815896Y8262249D02*
Y8292249D01*
X6730896Y8197249D02*
X6760896D01*
X6745896Y8182249D02*
Y8212249D01*
X6730896Y8127249D02*
X6760896D01*
X6745896Y8112249D02*
Y8142249D01*
X6800896Y8127249D02*
X6830896D01*
X6815896Y8112249D02*
Y8142249D01*
X6800896Y8197249D02*
X6830896D01*
X6815896Y8182249D02*
Y8212249D01*
X6815000Y8900000D02*
X6845000D01*
X6830000Y8885000D02*
Y8915000D01*
X6815000Y8830000D02*
X6845000D01*
X6830000Y8815000D02*
Y8845000D01*
X6745000Y8830000D02*
X6775000D01*
X6760000Y8815000D02*
Y8845000D01*
X6745000Y8900000D02*
X6775000D01*
X6760000Y8885000D02*
Y8915000D01*
X6815000Y8980000D02*
X6845000D01*
X6830000Y8965000D02*
Y8995000D01*
X6745000Y8980000D02*
X6775000D01*
X6760000Y8965000D02*
Y8995000D01*
X6740896Y8747249D02*
X6770896D01*
X6755896Y8732249D02*
Y8762249D01*
X6810896Y8747249D02*
X6840896D01*
X6825896Y8732249D02*
Y8762249D01*
X6740896Y8667249D02*
X6770896D01*
X6755896Y8652249D02*
Y8682249D01*
X6740896Y8597249D02*
X6770896D01*
X6755896Y8582249D02*
Y8612249D01*
X6810896Y8597249D02*
X6840896D01*
X6825896Y8582249D02*
Y8612249D01*
X6810896Y8667249D02*
X6840896D01*
X6825896Y8652249D02*
Y8682249D01*
X7575000Y8820000D02*
X7605000D01*
X7590000Y8805000D02*
Y8835000D01*
X7505000Y8820000D02*
X7535000D01*
X7520000Y8805000D02*
Y8835000D01*
X7505000Y8890000D02*
X7535000D01*
X7520000Y8875000D02*
Y8905000D01*
X7575000Y8890000D02*
X7605000D01*
X7590000Y8875000D02*
Y8905000D01*
X7655000Y8820000D02*
X7685000D01*
X7670000Y8805000D02*
Y8835000D01*
X7655000Y8890000D02*
X7685000D01*
X7670000Y8875000D02*
Y8905000D01*
X7422249Y8894104D02*
X7452248D01*
X7437249Y8879104D02*
Y8909104D01*
X7422249Y8824104D02*
X7452248D01*
X7437249Y8809104D02*
Y8839104D01*
X7342249Y8894104D02*
X7372249D01*
X7357249Y8879104D02*
Y8909104D01*
X7272249Y8894104D02*
X7302249D01*
X7287249Y8879104D02*
Y8909104D01*
X7272249Y8824104D02*
X7302249D01*
X7287249Y8809104D02*
Y8839104D01*
X7342249Y8824104D02*
X7372249D01*
X7357249Y8809104D02*
Y8839104D01*
X7575000Y8950000D02*
X7605000D01*
X7590000Y8935000D02*
Y8965000D01*
X7505000Y8950000D02*
X7535000D01*
X7520000Y8935000D02*
Y8965000D01*
X7505000Y9020000D02*
X7535000D01*
X7520000Y9005000D02*
Y9035000D01*
X7575000Y9020000D02*
X7605000D01*
X7590000Y9005000D02*
Y9035000D01*
X7655000Y8950000D02*
X7685000D01*
X7670000Y8935000D02*
Y8965000D01*
X7655000Y9020000D02*
X7685000D01*
X7670000Y9005000D02*
Y9035000D01*
X7422249Y9024104D02*
X7452248D01*
X7437249Y9009104D02*
Y9039104D01*
X7422249Y8954104D02*
X7452248D01*
X7437249Y8939104D02*
Y8969104D01*
X7342249Y9024104D02*
X7372249D01*
X7357249Y9009104D02*
Y9039104D01*
X7272249Y9024104D02*
X7302249D01*
X7287249Y9009104D02*
Y9039104D01*
X7272249Y8954104D02*
X7302249D01*
X7287249Y8939104D02*
Y8969104D01*
X7342249Y8954104D02*
X7372249D01*
X7357249Y8939104D02*
Y8969104D01*
X8025000Y8810000D02*
X8055000D01*
X8040000Y8795000D02*
Y8825000D01*
X7955000Y8810000D02*
X7985000D01*
X7970000Y8795000D02*
Y8825000D01*
X7955000Y8880000D02*
X7985000D01*
X7970000Y8865000D02*
Y8895000D01*
X8025000Y8880000D02*
X8055000D01*
X8040000Y8865000D02*
Y8895000D01*
X8105000Y8810000D02*
X8135000D01*
X8120000Y8795000D02*
Y8825000D01*
X8105000Y8880000D02*
X8135000D01*
X8120000Y8865000D02*
Y8895000D01*
X7872249Y8884104D02*
X7902249D01*
X7887249Y8869104D02*
Y8899104D01*
X7872249Y8814104D02*
X7902249D01*
X7887249Y8799104D02*
Y8829104D01*
X7792249Y8884104D02*
X7822249D01*
X7807249Y8869104D02*
Y8899104D01*
X7722249Y8884104D02*
X7752249D01*
X7737249Y8869104D02*
Y8899104D01*
X7722249Y8814104D02*
X7752249D01*
X7737249Y8799104D02*
Y8829104D01*
X7792249Y8814104D02*
X7822249D01*
X7807249Y8799104D02*
Y8829104D01*
X8025000Y8950000D02*
X8055000D01*
X8040000Y8935000D02*
Y8965000D01*
X7955000Y8950000D02*
X7985000D01*
X7970000Y8935000D02*
Y8965000D01*
X7955000Y9020000D02*
X7985000D01*
X7970000Y9005000D02*
Y9035000D01*
X8025000Y9020000D02*
X8055000D01*
X8040000Y9005000D02*
Y9035000D01*
X8105000Y8950000D02*
X8135000D01*
X8120000Y8935000D02*
Y8965000D01*
X8105000Y9020000D02*
X8135000D01*
X8120000Y9005000D02*
Y9035000D01*
X7872249Y9024104D02*
X7902249D01*
X7887249Y9009104D02*
Y9039104D01*
X7872249Y8954104D02*
X7902249D01*
X7887249Y8939104D02*
Y8969104D01*
X7792249Y9024104D02*
X7822249D01*
X7807249Y9009104D02*
Y9039104D01*
X7722249Y9024104D02*
X7752249D01*
X7737249Y9009104D02*
Y9039104D01*
X7722249Y8954104D02*
X7752249D01*
X7737249Y8939104D02*
Y8969104D01*
X7792249Y8954104D02*
X7822249D01*
X7807249Y8939104D02*
Y8969104D01*
X8475000Y8950000D02*
X8505000D01*
X8490000Y8935000D02*
Y8965000D01*
X8405000Y8950000D02*
X8435000D01*
X8420000Y8935000D02*
Y8965000D01*
X8405000Y9020000D02*
X8435000D01*
X8420000Y9005000D02*
Y9035000D01*
X8475000Y9020000D02*
X8505000D01*
X8490000Y9005000D02*
Y9035000D01*
X8555000Y8950000D02*
X8585000D01*
X8570000Y8935000D02*
Y8965000D01*
X8555000Y9020000D02*
X8585000D01*
X8570000Y9005000D02*
Y9035000D01*
X8322249Y9024104D02*
X8352248D01*
X8337249Y9009104D02*
Y9039104D01*
X8322249Y8954104D02*
X8352248D01*
X8337249Y8939104D02*
Y8969104D01*
X8242249Y9024104D02*
X8272249D01*
X8257249Y9009104D02*
Y9039104D01*
X8172249Y9024104D02*
X8202249D01*
X8187249Y9009104D02*
Y9039104D01*
X8172249Y8954104D02*
X8202249D01*
X8187249Y8939104D02*
Y8969104D01*
X8242249Y8954104D02*
X8272249D01*
X8257249Y8939104D02*
Y8969104D01*
X8475000Y8810000D02*
X8505000D01*
X8490000Y8795000D02*
Y8825000D01*
X8405000Y8810000D02*
X8435000D01*
X8420000Y8795000D02*
Y8825000D01*
X8405000Y8880000D02*
X8435000D01*
X8420000Y8865000D02*
Y8895000D01*
X8475000Y8880000D02*
X8505000D01*
X8490000Y8865000D02*
Y8895000D01*
X8555000Y8810000D02*
X8585000D01*
X8570000Y8795000D02*
Y8825000D01*
X8555000Y8880000D02*
X8585000D01*
X8570000Y8865000D02*
Y8895000D01*
X8322249Y8884104D02*
X8352248D01*
X8337249Y8869104D02*
Y8899104D01*
X8322249Y8814104D02*
X8352248D01*
X8337249Y8799104D02*
Y8829104D01*
X8242249Y8884104D02*
X8272249D01*
X8257249Y8869104D02*
Y8899104D01*
X8172249Y8884104D02*
X8202249D01*
X8187249Y8869104D02*
Y8899104D01*
X8172249Y8814104D02*
X8202249D01*
X8187249Y8799104D02*
Y8829104D01*
X8242249Y8814104D02*
X8272249D01*
X8257249Y8799104D02*
Y8829104D01*
X13225000Y8360000D02*
X13255000D01*
X13239999Y8345000D02*
Y8375000D01*
X13135001Y8360000D02*
X13164999D01*
X13150000Y8345000D02*
Y8375000D01*
X13045000Y8360000D02*
X13075000D01*
X13060001Y8345000D02*
Y8375000D01*
X13225000Y8270000D02*
X13255000D01*
X13239999Y8255000D02*
Y8285000D01*
X13135001Y8270000D02*
X13164999D01*
X13150000Y8255000D02*
Y8285000D01*
X13145000Y8010000D02*
X13175000D01*
X13160001Y7995000D02*
Y8025000D01*
X13145000Y8100000D02*
X13175000D01*
X13160001Y8085000D02*
Y8115000D01*
X13145000Y8190000D02*
X13175000D01*
X13160001Y8175000D02*
Y8205000D01*
X13314999Y8100000D02*
X13345000D01*
X13330000Y8085000D02*
Y8115000D01*
X13314999Y8190000D02*
X13345000D01*
X13330000Y8175000D02*
Y8205000D01*
X13225000Y7910000D02*
X13255000D01*
X13239999Y7895000D02*
Y7925000D01*
X13225000Y8010000D02*
X13255000D01*
X13239999Y7995000D02*
Y8025000D01*
X13225000Y8100000D02*
X13255000D01*
X13239999Y8085000D02*
Y8115000D01*
X13225000Y8190000D02*
X13255000D01*
X13239999Y8175000D02*
Y8205000D01*
X13214999Y5470000D02*
X13245000D01*
X13230000Y5455000D02*
Y5485000D01*
X13214999Y5570000D02*
X13245000D01*
X13230000Y5555000D02*
Y5585000D01*
X13214999Y5660000D02*
X13245000D01*
X13230000Y5645000D02*
Y5675000D01*
X13214999Y5750000D02*
X13245000D01*
X13230000Y5735000D02*
Y5765000D01*
X13125000Y5470000D02*
X13155000D01*
X13139999Y5455000D02*
Y5485000D01*
X13125000Y5570000D02*
X13155000D01*
X13139999Y5555000D02*
Y5585000D01*
X13125000Y5660000D02*
X13155000D01*
X13139999Y5645000D02*
Y5675000D01*
X13125000Y5750000D02*
X13155000D01*
X13139999Y5735000D02*
Y5765000D01*
X8725000Y6140000D02*
X8755000D01*
X8740000Y6125000D02*
Y6155000D01*
X8645000Y6140000D02*
X8675000D01*
X8660000Y6125000D02*
Y6155000D01*
X8645000Y6230000D02*
X8675000D01*
X8660000Y6215000D02*
Y6245000D01*
X7055000Y5930000D02*
X7085000D01*
X7070000Y5915000D02*
Y5945000D01*
X8367043Y7370000D02*
X8397043D01*
X8382043Y7355000D02*
Y7385000D01*
X10355000Y7530000D02*
X10385000D01*
X10370000Y7515000D02*
Y7545000D01*
X10425000Y7530000D02*
X10455000D01*
X10440000Y7515000D02*
Y7545000D01*
X10485000Y7530000D02*
X10515000D01*
X10500000Y7515000D02*
Y7545000D01*
X10485000Y7460000D02*
X10515000D01*
X10500000Y7445000D02*
Y7475000D01*
X10425000Y7460000D02*
X10455000D01*
X10440000Y7445000D02*
Y7475000D01*
X10285000Y7460000D02*
X10315000D01*
X10300000Y7445000D02*
Y7475000D01*
X10355000Y7460000D02*
X10385000D01*
X10370000Y7445000D02*
Y7475000D01*
X10285000Y7530000D02*
X10315000D01*
X10300000Y7515000D02*
Y7545000D01*
X12215000Y6860000D02*
X12245000D01*
X12230000Y6845000D02*
Y6875000D01*
X11928910Y6317342D02*
X11958910D01*
X11943910Y6302342D02*
Y6332342D01*
X8875000Y6720000D02*
X8905000D01*
X8890000Y6705000D02*
Y6735000D01*
X8912957Y6830000D02*
X8942956D01*
X8927956Y6815000D02*
Y6845000D01*
X9788179Y7058150D02*
X9818179D01*
X9803179Y7043150D02*
Y7073150D01*
X8925000Y7830000D02*
X8955000D01*
X8940000Y7815000D02*
Y7845000D01*
X8805000Y8440000D02*
X8835000D01*
X8820000Y8425000D02*
Y8455000D01*
X8665000Y8030000D02*
X8695000D01*
X8680000Y8015000D02*
Y8045000D01*
X7705000Y8230000D02*
X7735000D01*
X7720000Y8215000D02*
Y8245000D01*
X7655000Y7730000D02*
X7685000D01*
X7670000Y7715000D02*
Y7745000D01*
X7435000Y6050000D02*
X7465000D01*
X7450000Y6035000D02*
Y6065000D01*
X11365000Y6240000D02*
X11395000D01*
X11380000Y6225000D02*
Y6255000D01*
X11971090Y7267342D02*
X12001090D01*
X11986090Y7252342D02*
Y7282342D01*
X7345000Y6060000D02*
X7375000D01*
X7360000Y6045000D02*
Y6075000D01*
X7225000Y6350000D02*
X7255000D01*
X7240000Y6335000D02*
Y6365000D01*
X12185000Y7460000D02*
X12215000D01*
X12200000Y7445000D02*
Y7475000D01*
X10385000Y8250000D02*
X10415000D01*
X10400000Y8235000D02*
Y8265000D01*
X10315000Y8250000D02*
X10345000D01*
X10330000Y8235000D02*
Y8265000D01*
X10315000Y8320000D02*
X10345000D01*
X10330000Y8305000D02*
Y8335000D01*
X10385000Y8320000D02*
X10415000D01*
X10400000Y8305000D02*
Y8335000D01*
X10465000Y8250000D02*
X10495000D01*
X10480000Y8235000D02*
Y8265000D01*
X10465000Y8320000D02*
X10495000D01*
X10480000Y8305000D02*
Y8335000D01*
X10615000Y8250000D02*
X10645000D01*
X10630000Y8235000D02*
Y8265000D01*
X10545000Y8250000D02*
X10575000D01*
X10560000Y8235000D02*
Y8265000D01*
X10545000Y8320000D02*
X10575000D01*
X10560000Y8305000D02*
Y8335000D01*
X10615000Y8320000D02*
X10645000D01*
X10630000Y8305000D02*
Y8335000D01*
X10695000Y8250000D02*
X10725000D01*
X10710000Y8235000D02*
Y8265000D01*
X10695000Y8320000D02*
X10725000D01*
X10710000Y8305000D02*
Y8335000D01*
X11185000Y8230000D02*
X11215000D01*
X11200000Y8215000D02*
Y8245000D01*
X11115000Y8230000D02*
X11145000D01*
X11130000Y8215000D02*
Y8245000D01*
X11115000Y8300000D02*
X11145000D01*
X11130000Y8285000D02*
Y8315000D01*
X11185000Y8300000D02*
X11215000D01*
X11200000Y8285000D02*
Y8315000D01*
X11265000Y8230000D02*
X11295000D01*
X11280000Y8215000D02*
Y8245000D01*
X11265000Y8300000D02*
X11295000D01*
X11280000Y8285000D02*
Y8315000D01*
X11497751Y8295896D02*
X11527751D01*
X11512751Y8280896D02*
Y8310895D01*
X11497751Y8225896D02*
X11527751D01*
X11512751Y8210896D02*
Y8240896D01*
X11417752Y8295896D02*
X11447752D01*
X11432752Y8280896D02*
Y8310895D01*
X11347751Y8295896D02*
X11377751D01*
X11362751Y8280896D02*
Y8310895D01*
X11347751Y8225896D02*
X11377751D01*
X11362751Y8210896D02*
Y8240896D01*
X11417752Y8225896D02*
X11447752D01*
X11432752Y8210896D02*
Y8240896D01*
X9595000Y7940000D02*
X9625000D01*
X9610000Y7925000D02*
Y7955000D01*
X9435000Y8470000D02*
X9465000D01*
X9450000Y8455000D02*
Y8485000D01*
X9265000Y8390000D02*
X9295000D01*
X9280000Y8375000D02*
Y8405000D01*
X9126400Y7803231D02*
X9156400D01*
X9141400Y7788231D02*
Y7818230D01*
X8985000Y8080000D02*
X9015000D01*
X9000000Y8065000D02*
Y8095000D01*
X11455000Y7560000D02*
X11485000D01*
X11470000Y7545000D02*
Y7575000D01*
X11155000Y7380000D02*
X11185000D01*
X11170000Y7365000D02*
Y7395000D01*
X11362805Y6925571D02*
X11392805D01*
X11377805Y6910571D02*
Y6940571D01*
X10835000Y7060000D02*
X10865000D01*
X10850000Y7045000D02*
Y7075000D01*
X11645000Y7230000D02*
X11675000D01*
X11660000Y7215000D02*
Y7245000D01*
X11575000Y7230000D02*
X11605000D01*
X11590000Y7215000D02*
Y7245000D01*
X11575000Y7300000D02*
X11605000D01*
X11590000Y7285000D02*
Y7315000D01*
X11635000Y7300000D02*
X11665000D01*
X11650000Y7285000D02*
Y7315000D01*
X11705000Y7230000D02*
X11735000D01*
X11720000Y7215000D02*
Y7245000D01*
X11705000Y7300000D02*
X11735000D01*
X11720000Y7285000D02*
Y7315000D01*
X12305000Y8630000D02*
X12335000D01*
X12320000Y8615000D02*
Y8645000D01*
X12885001Y8470000D02*
X12914999D01*
X12900000Y8455000D02*
Y8485000D01*
X12885001Y8020000D02*
X12914999D01*
X12900000Y8005000D02*
Y8035000D01*
X12665000Y7930000D02*
X12695000D01*
X12680000Y7915000D02*
Y7945000D01*
X12364300Y7622700D02*
X12394300D01*
X12379300Y7607700D02*
Y7637700D01*
X12445000Y7530000D02*
X12475000D01*
X12460000Y7515000D02*
Y7545000D01*
X12275000Y7540000D02*
X12305000D01*
X12290000Y7525000D02*
Y7555000D01*
X12455000Y7700000D02*
X12485000D01*
X12470000Y7685000D02*
Y7715000D01*
X12275000Y7700000D02*
X12305000D01*
X12290000Y7685000D02*
Y7715000D01*
X12205000Y7790000D02*
X12235000D01*
X12220000Y7775000D02*
Y7805000D01*
X13025000Y6290000D02*
X13055000D01*
X13039999Y6275000D02*
Y6305000D01*
X13014999Y6570000D02*
X13045000D01*
X13030000Y6555000D02*
Y6585000D01*
X13004700Y6849700D02*
X13034700D01*
X13019701Y6834700D02*
Y6864700D01*
X13035001Y7050000D02*
X13064999D01*
X13050000Y7035000D02*
Y7065000D01*
X12424216Y6090000D02*
X12454216D01*
X12439216Y6075000D02*
Y6105000D01*
X12165000Y6990000D02*
X12195000D01*
X12180000Y6975000D02*
Y7005000D01*
X12395000Y6970000D02*
X12425000D01*
X12410000Y6955000D02*
Y6985000D01*
X12415000Y6690000D02*
X12445000D01*
X12430000Y6675000D02*
Y6705000D01*
X12415240Y6416371D02*
X12445240D01*
X12430240Y6401371D02*
Y6431371D01*
X12275000Y6700000D02*
X12305000D01*
X12290000Y6685000D02*
Y6715000D01*
X11925000Y6530000D02*
X11955000D01*
X11940000Y6515000D02*
Y6545000D01*
X12045000Y6570000D02*
X12075000D01*
X12060000Y6555000D02*
Y6585000D01*
X12055000Y6110000D02*
X12085000D01*
X12070000Y6095000D02*
Y6125000D01*
X11835000Y6120000D02*
X11865000D01*
X11850000Y6105000D02*
Y6135000D01*
X11455000Y6130000D02*
X11485000D01*
X11470000Y6115000D02*
Y6145000D01*
X11085400Y6359600D02*
X11115400D01*
X11100400Y6344600D02*
Y6374600D01*
X10945000Y6170000D02*
X10975000D01*
X10960000Y6155000D02*
Y6185000D01*
X8715000Y8800000D02*
X8745000D01*
X8730000Y8785000D02*
Y8815000D01*
X9925900Y6430300D02*
X9955900D01*
X9940900Y6415300D02*
Y6445300D01*
X9615000Y7190000D02*
X9645000D01*
X9630000Y7175000D02*
Y7205000D01*
X9615000Y7040000D02*
X9645000D01*
X9630000Y7025000D02*
Y7055000D01*
X6795000Y7810000D02*
X6825000D01*
X6810000Y7795000D02*
Y7825000D01*
X6925000Y5820000D02*
X6955000D01*
X6940000Y5805000D02*
Y5835000D01*
X6785000Y5810000D02*
X6815000D01*
X6800000Y5795000D02*
Y5825000D01*
X7155000Y5965400D02*
X7185000D01*
X7170000Y5950400D02*
Y5980400D01*
X8725000Y8440000D02*
X8755000D01*
X8740000Y8425000D02*
Y8455000D01*
X8575000Y8020000D02*
X8605000D01*
X8590000Y8005000D02*
Y8035000D01*
X11455000Y6900000D02*
X11485000D01*
X11470000Y6885000D02*
Y6915000D01*
X12685000Y7200000D02*
X12715000D01*
X12700000Y7185000D02*
Y7215000D01*
X12448648Y7438877D02*
X12478648D01*
X12463648Y7423877D02*
Y7453877D01*
X12265000Y6980000D02*
X12295000D01*
X12280000Y6965000D02*
Y6995000D01*
X11655000Y6780000D02*
X11685000D01*
X11670000Y6765000D02*
Y6795000D01*
X12215000Y6550000D02*
X12245000D01*
X12230000Y6535000D02*
Y6565000D01*
X12195000Y7190000D02*
X12225000D01*
X12210000Y7175000D02*
Y7205000D01*
X7785000Y5850000D02*
X7815000D01*
X7800000Y5835000D02*
Y5865000D01*
X10723497Y6020498D02*
X10753497D01*
X10738497Y6005498D02*
Y6035498D01*
X8155000Y6980000D02*
X8185000D01*
X8170000Y6965000D02*
Y6995000D01*
%TF.MD5,4df4cfd42ec30edc3795716f30cd2b4b*%
M02*
