%TF.GenerationSoftware,Altium Limited,Altium Designer,25.4.2 (15)*%
G04 Layer_Color=32896*
%FSLAX45Y45*%
%MOMM*%
%TF.SameCoordinates,9A986A7D-484F-4AC0-AE4B-942BB78B8B2C*%
%TF.FilePolarity,Positive*%
%TF.FileFunction,Legend,Bot*%
%TF.Part,Single*%
G01*
G75*
G36*
X11800467Y5897929D02*
X11699533D01*
Y6242071D01*
X11800467D01*
Y5897929D01*
D02*
G37*
G36*
X8580002Y8789535D02*
X8235861D01*
Y8890469D01*
X8580002D01*
Y8789535D01*
D02*
G37*
G36*
X13062674Y6570326D02*
X13061404Y6570185D01*
X13059856Y6570044D01*
X13058304Y6569903D01*
X13056471Y6569480D01*
X13052666Y6568635D01*
X13048436Y6567366D01*
X13046323Y6566520D01*
X13044348Y6565533D01*
X13042374Y6564264D01*
X13040401Y6562996D01*
X13040260Y6562855D01*
X13039978Y6562714D01*
X13039413Y6562291D01*
X13038708Y6561586D01*
X13038004Y6560881D01*
X13037018Y6559894D01*
X13036031Y6558767D01*
X13034903Y6557639D01*
X13033775Y6556229D01*
X13032648Y6554538D01*
X13031380Y6552846D01*
X13030251Y6551013D01*
X13029263Y6548899D01*
X13028137Y6546784D01*
X13027290Y6544529D01*
X13026445Y6541991D01*
X13039133Y6539031D01*
Y6539172D01*
X13039273Y6539454D01*
X13039555Y6540018D01*
X13039838Y6540723D01*
X13040118Y6541568D01*
X13040543Y6542696D01*
X13041670Y6544952D01*
X13043079Y6547489D01*
X13044771Y6550027D01*
X13046886Y6552423D01*
X13049141Y6554538D01*
X13049423Y6554820D01*
X13050269Y6555383D01*
X13051678Y6556088D01*
X13053511Y6557075D01*
X13055908Y6557921D01*
X13058586Y6558767D01*
X13061829Y6559331D01*
X13065353Y6559472D01*
X13066479D01*
X13067184Y6559331D01*
X13068172D01*
X13069299Y6559190D01*
X13071979Y6558767D01*
X13074939Y6558203D01*
X13078040Y6557216D01*
X13081282Y6555806D01*
X13084242Y6553974D01*
X13084384D01*
X13084525Y6553692D01*
X13085510Y6552987D01*
X13086780Y6551859D01*
X13088332Y6550167D01*
X13090163Y6548053D01*
X13091855Y6545656D01*
X13093407Y6542696D01*
X13094815Y6539454D01*
Y6539313D01*
X13094955Y6539031D01*
X13095097Y6538608D01*
X13095238Y6537903D01*
X13095520Y6537057D01*
X13095802Y6536070D01*
X13096225Y6533674D01*
X13096790Y6530855D01*
X13097353Y6527753D01*
X13097635Y6524370D01*
X13097775Y6520705D01*
Y6520564D01*
Y6520141D01*
Y6519436D01*
Y6518590D01*
X13097635Y6517603D01*
Y6516335D01*
X13097495Y6514925D01*
X13097353Y6513374D01*
X13096930Y6509991D01*
X13096225Y6506326D01*
X13095380Y6502661D01*
X13094250Y6498995D01*
Y6498854D01*
X13094110Y6498572D01*
X13093829Y6498150D01*
X13093547Y6497445D01*
X13092702Y6495753D01*
X13091432Y6493779D01*
X13089880Y6491524D01*
X13087907Y6489127D01*
X13085652Y6487013D01*
X13082974Y6485039D01*
X13082832D01*
X13082552Y6484898D01*
X13082127Y6484616D01*
X13081564Y6484335D01*
X13080859Y6484053D01*
X13080013Y6483630D01*
X13078040Y6482784D01*
X13075502Y6481938D01*
X13072684Y6481233D01*
X13069582Y6480669D01*
X13066339Y6480528D01*
X13065353D01*
X13064507Y6480669D01*
X13063519D01*
X13062534Y6480810D01*
X13059996Y6481374D01*
X13057034Y6482079D01*
X13054076Y6483207D01*
X13050974Y6484757D01*
X13049423Y6485603D01*
X13048013Y6486731D01*
X13047871Y6486872D01*
X13047731Y6487013D01*
X13047308Y6487436D01*
X13046745Y6487859D01*
X13046181Y6488564D01*
X13045476Y6489409D01*
X13044630Y6490255D01*
X13043925Y6491383D01*
X13043079Y6492652D01*
X13042093Y6494061D01*
X13041248Y6495471D01*
X13040401Y6497163D01*
X13039696Y6498995D01*
X13038991Y6500969D01*
X13038286Y6503084D01*
X13037721Y6505339D01*
X13024753Y6502097D01*
Y6501956D01*
X13024895Y6501392D01*
X13025175Y6500546D01*
X13025600Y6499418D01*
X13026022Y6498150D01*
X13026585Y6496599D01*
X13027290Y6494907D01*
X13028137Y6493075D01*
X13030110Y6489127D01*
X13032648Y6485180D01*
X13034198Y6483207D01*
X13035748Y6481233D01*
X13037440Y6479542D01*
X13039413Y6477850D01*
X13039555Y6477709D01*
X13039838Y6477427D01*
X13040543Y6477145D01*
X13041248Y6476581D01*
X13042374Y6475876D01*
X13043501Y6475171D01*
X13045053Y6474467D01*
X13046603Y6473762D01*
X13048436Y6472916D01*
X13050410Y6472211D01*
X13052524Y6471506D01*
X13054781Y6470801D01*
X13057176Y6470238D01*
X13059714Y6469956D01*
X13062392Y6469674D01*
X13065211Y6469533D01*
X12870000D01*
Y6570467D01*
X13063661D01*
X13062674Y6570326D01*
D02*
G37*
G36*
X13324142Y6469533D02*
X13066762D01*
X13067889Y6469674D01*
X13069159D01*
X13070709Y6469815D01*
X13072401Y6470097D01*
X13074374Y6470378D01*
X13078464Y6471083D01*
X13082692Y6472211D01*
X13086922Y6473762D01*
X13088895Y6474749D01*
X13090868Y6475876D01*
X13091010Y6476017D01*
X13091290Y6476158D01*
X13091855Y6476581D01*
X13092419Y6477145D01*
X13093265Y6477709D01*
X13094250Y6478555D01*
X13095380Y6479542D01*
X13096507Y6480669D01*
X13097635Y6481938D01*
X13098903Y6483207D01*
X13101440Y6486449D01*
X13103838Y6490255D01*
X13105952Y6494484D01*
Y6494625D01*
X13106235Y6495048D01*
X13106375Y6495753D01*
X13106798Y6496599D01*
X13107080Y6497727D01*
X13107503Y6499136D01*
X13108066Y6500687D01*
X13108488Y6502379D01*
X13108913Y6504211D01*
X13109476Y6506326D01*
X13110181Y6510696D01*
X13110745Y6515630D01*
X13111028Y6520705D01*
Y6522255D01*
X13110886Y6523242D01*
Y6524652D01*
X13110745Y6526062D01*
X13110603Y6527894D01*
X13110323Y6529727D01*
X13109618Y6533815D01*
X13108630Y6538326D01*
X13107220Y6542837D01*
X13105247Y6547207D01*
X13105106Y6547348D01*
X13104965Y6547771D01*
X13104683Y6548335D01*
X13104118Y6549040D01*
X13103555Y6550027D01*
X13102850Y6551154D01*
X13101018Y6553692D01*
X13098622Y6556511D01*
X13095802Y6559331D01*
X13092560Y6562150D01*
X13088754Y6564546D01*
X13088612Y6564687D01*
X13088190Y6564828D01*
X13087627Y6565110D01*
X13086922Y6565533D01*
X13085793Y6565956D01*
X13084665Y6566379D01*
X13083257Y6566943D01*
X13081705Y6567507D01*
X13080013Y6568071D01*
X13078181Y6568635D01*
X13074234Y6569480D01*
X13069724Y6570185D01*
X13065071Y6570467D01*
X13324142D01*
Y6469533D01*
D02*
G37*
G36*
X13244829Y7990326D02*
X13243701D01*
X13241023Y7990044D01*
X13238063Y7989622D01*
X13234961Y7988917D01*
X13231578Y7988071D01*
X13228336Y7986943D01*
X13228195D01*
X13227913Y7986802D01*
X13227490Y7986661D01*
X13226926Y7986379D01*
X13225375Y7985533D01*
X13223402Y7984547D01*
X13221288Y7983137D01*
X13219032Y7981445D01*
X13216917Y7979613D01*
X13214944Y7977357D01*
X13214662Y7977075D01*
X13214098Y7976229D01*
X13213252Y7974961D01*
X13212125Y7973128D01*
X13210995Y7970873D01*
X13209727Y7968053D01*
X13208459Y7964952D01*
X13207472Y7961428D01*
X13219173Y7958326D01*
Y7958467D01*
X13219315Y7958608D01*
X13219455Y7959031D01*
X13219595Y7959595D01*
X13220020Y7960864D01*
X13220583Y7962555D01*
X13221428Y7964529D01*
X13222415Y7966362D01*
X13223402Y7968335D01*
X13224670Y7970027D01*
X13224811Y7970168D01*
X13225233Y7970732D01*
X13226080Y7971436D01*
X13227068Y7972423D01*
X13228336Y7973551D01*
X13230026Y7974679D01*
X13231860Y7975807D01*
X13233975Y7976793D01*
X13234256Y7976934D01*
X13234961Y7977216D01*
X13236230Y7977639D01*
X13237923Y7978203D01*
X13239896Y7978626D01*
X13242151Y7979049D01*
X13244688Y7979331D01*
X13247366Y7979472D01*
X13248917D01*
X13249622Y7979331D01*
X13250468D01*
X13252583Y7979190D01*
X13254979Y7978767D01*
X13257658Y7978344D01*
X13260194Y7977639D01*
X13262732Y7976652D01*
X13263014Y7976511D01*
X13263860Y7976229D01*
X13264989Y7975525D01*
X13266399Y7974820D01*
X13268089Y7973692D01*
X13269922Y7972564D01*
X13271614Y7971154D01*
X13273164Y7969604D01*
X13273305Y7969463D01*
X13273869Y7968899D01*
X13274574Y7967912D01*
X13275420Y7966784D01*
X13276407Y7965375D01*
X13277393Y7963683D01*
X13278380Y7961850D01*
X13279367Y7959877D01*
Y7959736D01*
X13279507Y7959454D01*
X13279649Y7959031D01*
X13279932Y7958326D01*
X13280212Y7957480D01*
X13280495Y7956494D01*
X13280917Y7955366D01*
X13281200Y7954097D01*
X13281905Y7951137D01*
X13282468Y7947753D01*
X13282890Y7944229D01*
X13283032Y7940282D01*
Y7940141D01*
Y7939718D01*
Y7939013D01*
X13282890Y7938168D01*
Y7937040D01*
X13282750Y7935630D01*
X13282610Y7934220D01*
X13282468Y7932670D01*
X13281905Y7929145D01*
X13281200Y7925480D01*
X13280072Y7921815D01*
X13278662Y7918291D01*
Y7918150D01*
X13278380Y7917868D01*
X13278239Y7917445D01*
X13277815Y7916881D01*
X13276830Y7915330D01*
X13275279Y7913357D01*
X13273447Y7911242D01*
X13271191Y7909128D01*
X13268512Y7907154D01*
X13265552Y7905322D01*
X13265411D01*
X13265129Y7905181D01*
X13264706Y7904899D01*
X13264001Y7904617D01*
X13263297Y7904335D01*
X13262309Y7904053D01*
X13260054Y7903207D01*
X13257236Y7902502D01*
X13254134Y7901797D01*
X13250751Y7901233D01*
X13247226Y7901092D01*
X13245816D01*
X13244971Y7901233D01*
X13244124D01*
X13242010Y7901515D01*
X13239471Y7901797D01*
X13236794Y7902361D01*
X13233833Y7903207D01*
X13230873Y7904194D01*
X13230733D01*
X13230450Y7904335D01*
X13230168Y7904476D01*
X13229604Y7904758D01*
X13228053Y7905462D01*
X13226363Y7906308D01*
X13224390Y7907295D01*
X13222273Y7908423D01*
X13220300Y7909692D01*
X13218610Y7911101D01*
Y7929427D01*
X13247366D01*
Y7940987D01*
X13205922D01*
Y7904758D01*
X13206062Y7904617D01*
X13206345Y7904476D01*
X13206908Y7904053D01*
X13207613Y7903489D01*
X13208459Y7902925D01*
X13209447Y7902220D01*
X13210715Y7901374D01*
X13211983Y7900529D01*
X13214944Y7898696D01*
X13218327Y7896722D01*
X13221851Y7894890D01*
X13225658Y7893339D01*
X13225798D01*
X13226080Y7893198D01*
X13226643Y7893057D01*
X13227348Y7892775D01*
X13228336Y7892493D01*
X13229465Y7892070D01*
X13230733Y7891788D01*
X13232001Y7891506D01*
X13235101Y7890802D01*
X13238628Y7890097D01*
X13242433Y7889674D01*
X13246381Y7889533D01*
X12980000D01*
Y7990467D01*
X13245676D01*
X13244829Y7990326D01*
D02*
G37*
G36*
X13324142Y7889533D02*
X13247791D01*
X13248776Y7889674D01*
X13250044D01*
X13251596Y7889815D01*
X13253287Y7890097D01*
X13255119Y7890238D01*
X13259209Y7891084D01*
X13263577Y7892070D01*
X13268089Y7893621D01*
X13270345Y7894467D01*
X13272600Y7895595D01*
X13272742Y7895736D01*
X13273164Y7895877D01*
X13273727Y7896299D01*
X13274574Y7896722D01*
X13275562Y7897427D01*
X13276547Y7898132D01*
X13279227Y7900106D01*
X13282045Y7902643D01*
X13285007Y7905744D01*
X13287825Y7909269D01*
X13290363Y7913357D01*
Y7913498D01*
X13290643Y7913921D01*
X13290926Y7914485D01*
X13291348Y7915471D01*
X13291772Y7916458D01*
X13292195Y7917868D01*
X13292760Y7919278D01*
X13293323Y7920969D01*
X13293887Y7922802D01*
X13294450Y7924916D01*
X13294875Y7927031D01*
X13295296Y7929286D01*
X13296001Y7934220D01*
X13296283Y7939436D01*
Y7940846D01*
X13296143Y7941833D01*
Y7943101D01*
X13296001Y7944652D01*
X13295718Y7946203D01*
X13295578Y7948035D01*
X13295155Y7950009D01*
X13294875Y7952124D01*
X13293745Y7956635D01*
X13292336Y7961287D01*
X13290363Y7965939D01*
X13290222Y7966080D01*
X13290080Y7966502D01*
X13289799Y7967066D01*
X13289235Y7967912D01*
X13288670Y7969040D01*
X13287965Y7970168D01*
X13285992Y7972846D01*
X13283595Y7975947D01*
X13280637Y7978908D01*
X13277252Y7981868D01*
X13275279Y7983137D01*
X13273305Y7984406D01*
X13273164Y7984547D01*
X13272742Y7984688D01*
X13272177Y7984970D01*
X13271332Y7985392D01*
X13270204Y7985815D01*
X13268935Y7986379D01*
X13267525Y7986943D01*
X13265834Y7987507D01*
X13264001Y7988071D01*
X13262029Y7988494D01*
X13259914Y7989058D01*
X13257658Y7989481D01*
X13252724Y7990185D01*
X13250186Y7990467D01*
X13324142D01*
Y7889533D01*
D02*
G37*
G36*
X13057326Y6180326D02*
X13056058Y6180185D01*
X13054507Y6180044D01*
X13052956Y6179903D01*
X13051125Y6179480D01*
X13047318Y6178635D01*
X13043088Y6177366D01*
X13040974Y6176520D01*
X13039000Y6175533D01*
X13037027Y6174265D01*
X13035052Y6172996D01*
X13034912Y6172855D01*
X13034630Y6172714D01*
X13034065Y6172291D01*
X13033360Y6171586D01*
X13032655Y6170881D01*
X13031670Y6169894D01*
X13030682Y6168767D01*
X13029555Y6167639D01*
X13028427Y6166229D01*
X13027299Y6164538D01*
X13026031Y6162846D01*
X13024902Y6161013D01*
X13023917Y6158899D01*
X13022789Y6156784D01*
X13021944Y6154529D01*
X13021097Y6151991D01*
X13033784Y6149031D01*
Y6149172D01*
X13033925Y6149454D01*
X13034207Y6150018D01*
X13034489Y6150723D01*
X13034772Y6151568D01*
X13035194Y6152696D01*
X13036322Y6154952D01*
X13037730Y6157489D01*
X13039423Y6160027D01*
X13041537Y6162423D01*
X13043793Y6164538D01*
X13044075Y6164820D01*
X13044920Y6165383D01*
X13046330Y6166088D01*
X13048163Y6167075D01*
X13050560Y6167921D01*
X13053238Y6168767D01*
X13056480Y6169331D01*
X13060005Y6169472D01*
X13061131D01*
X13061836Y6169331D01*
X13062823D01*
X13063953Y6169190D01*
X13066631Y6168767D01*
X13069591Y6168203D01*
X13072691Y6167216D01*
X13075934Y6165806D01*
X13078896Y6163974D01*
X13079036D01*
X13079176Y6163692D01*
X13080164Y6162987D01*
X13081432Y6161859D01*
X13082983Y6160168D01*
X13084814Y6158053D01*
X13086507Y6155656D01*
X13088058Y6152696D01*
X13089467Y6149454D01*
Y6149313D01*
X13089607Y6149031D01*
X13089749Y6148608D01*
X13089890Y6147903D01*
X13090172Y6147057D01*
X13090454Y6146071D01*
X13090877Y6143674D01*
X13091441Y6140855D01*
X13092004Y6137753D01*
X13092287Y6134370D01*
X13092429Y6130705D01*
Y6130564D01*
Y6130141D01*
Y6129436D01*
Y6128590D01*
X13092287Y6127603D01*
Y6126335D01*
X13092146Y6124925D01*
X13092004Y6123374D01*
X13091582Y6119991D01*
X13090877Y6116326D01*
X13090031Y6112661D01*
X13088902Y6108995D01*
Y6108854D01*
X13088762Y6108572D01*
X13088481Y6108150D01*
X13088199Y6107445D01*
X13087354Y6105753D01*
X13086084Y6103780D01*
X13084534Y6101524D01*
X13082561Y6099128D01*
X13080304Y6097013D01*
X13077626Y6095039D01*
X13077486D01*
X13077203Y6094898D01*
X13076781Y6094616D01*
X13076216Y6094335D01*
X13075511Y6094053D01*
X13074664Y6093630D01*
X13072691Y6092784D01*
X13070154Y6091938D01*
X13067336Y6091233D01*
X13064233Y6090669D01*
X13060991Y6090528D01*
X13060005D01*
X13059158Y6090669D01*
X13058173D01*
X13057185Y6090810D01*
X13054648Y6091374D01*
X13051688Y6092079D01*
X13048727Y6093207D01*
X13045625Y6094757D01*
X13044075Y6095603D01*
X13042665Y6096731D01*
X13042525Y6096872D01*
X13042383Y6097013D01*
X13041960Y6097436D01*
X13041397Y6097859D01*
X13040833Y6098564D01*
X13040128Y6099409D01*
X13039282Y6100255D01*
X13038577Y6101383D01*
X13037730Y6102652D01*
X13036745Y6104061D01*
X13035899Y6105471D01*
X13035052Y6107163D01*
X13034348Y6108995D01*
X13033643Y6110969D01*
X13032938Y6113084D01*
X13032375Y6115339D01*
X13019405Y6112097D01*
Y6111956D01*
X13019547Y6111392D01*
X13019827Y6110546D01*
X13020251Y6109418D01*
X13020674Y6108150D01*
X13021239Y6106599D01*
X13021944Y6104907D01*
X13022789Y6103075D01*
X13024762Y6099128D01*
X13027299Y6095180D01*
X13028850Y6093207D01*
X13030402Y6091233D01*
X13032092Y6089542D01*
X13034065Y6087850D01*
X13034207Y6087709D01*
X13034489Y6087427D01*
X13035194Y6087145D01*
X13035899Y6086581D01*
X13037027Y6085876D01*
X13038155Y6085171D01*
X13039705Y6084467D01*
X13041257Y6083762D01*
X13043088Y6082916D01*
X13045062Y6082211D01*
X13047176Y6081506D01*
X13049432Y6080801D01*
X13051828Y6080238D01*
X13054366Y6079956D01*
X13057043Y6079674D01*
X13059863Y6079533D01*
X12925096D01*
X12926224Y6079674D01*
X12927493D01*
X12929044Y6079815D01*
X12930734Y6080097D01*
X12932709Y6080378D01*
X12936797Y6081083D01*
X12941026Y6082211D01*
X12945255Y6083762D01*
X12947229Y6084749D01*
X12949202Y6085876D01*
X12949342Y6086017D01*
X12949625Y6086158D01*
X12950189Y6086581D01*
X12950752Y6087145D01*
X12951599Y6087709D01*
X12952585Y6088555D01*
X12953712Y6089542D01*
X12954842Y6090669D01*
X12955969Y6091938D01*
X12957237Y6093207D01*
X12959775Y6096449D01*
X12962170Y6100255D01*
X12964285Y6104484D01*
Y6104625D01*
X12964568Y6105048D01*
X12964709Y6105753D01*
X12965132Y6106599D01*
X12965414Y6107727D01*
X12965837Y6109136D01*
X12966402Y6110687D01*
X12966823Y6112379D01*
X12967245Y6114211D01*
X12967810Y6116326D01*
X12968515Y6120696D01*
X12969080Y6125630D01*
X12969360Y6130705D01*
Y6132255D01*
X12969220Y6133242D01*
Y6134652D01*
X12969080Y6136062D01*
X12968938Y6137894D01*
X12968655Y6139727D01*
X12967950Y6143815D01*
X12966965Y6148326D01*
X12965555Y6152837D01*
X12963580Y6157207D01*
X12963440Y6157348D01*
X12963300Y6157771D01*
X12963017Y6158335D01*
X12962453Y6159040D01*
X12961890Y6160027D01*
X12961185Y6161154D01*
X12959352Y6163692D01*
X12956956Y6166511D01*
X12954137Y6169331D01*
X12950894Y6172150D01*
X12947089Y6174546D01*
X12946947Y6174687D01*
X12946524Y6174828D01*
X12945959Y6175110D01*
X12945255Y6175533D01*
X12944127Y6175956D01*
X12942999Y6176379D01*
X12941589Y6176943D01*
X12940039Y6177507D01*
X12938348Y6178071D01*
X12936514Y6178635D01*
X12932568Y6179480D01*
X12928056Y6180185D01*
X12923405Y6180467D01*
X13058313D01*
X13057326Y6180326D01*
D02*
G37*
G36*
X12921008D02*
X12919739Y6180185D01*
X12918188Y6180044D01*
X12916638Y6179903D01*
X12914806Y6179480D01*
X12910999Y6178635D01*
X12906770Y6177366D01*
X12904655Y6176520D01*
X12902682Y6175533D01*
X12900710Y6174265D01*
X12898735Y6172996D01*
X12898595Y6172855D01*
X12898312Y6172714D01*
X12897748Y6172291D01*
X12897043Y6171586D01*
X12896338Y6170881D01*
X12895352Y6169894D01*
X12894365Y6168767D01*
X12893237Y6167639D01*
X12892110Y6166229D01*
X12890982Y6164538D01*
X12889713Y6162846D01*
X12888585Y6161013D01*
X12887598Y6158899D01*
X12886472Y6156784D01*
X12885625Y6154529D01*
X12884779Y6151991D01*
X12897466Y6149031D01*
Y6149172D01*
X12897607Y6149454D01*
X12897890Y6150018D01*
X12898170Y6150723D01*
X12898453Y6151568D01*
X12898875Y6152696D01*
X12900005Y6154952D01*
X12901413Y6157489D01*
X12903105Y6160027D01*
X12905220Y6162423D01*
X12907475Y6164538D01*
X12907758Y6164820D01*
X12908603Y6165383D01*
X12910013Y6166088D01*
X12911845Y6167075D01*
X12914243Y6167921D01*
X12916920Y6168767D01*
X12920161Y6169331D01*
X12923688Y6169472D01*
X12924814D01*
X12925519Y6169331D01*
X12926506D01*
X12927634Y6169190D01*
X12930312Y6168767D01*
X12933273Y6168203D01*
X12936374Y6167216D01*
X12939616Y6165806D01*
X12942577Y6163974D01*
X12942719D01*
X12942859Y6163692D01*
X12943845Y6162987D01*
X12945114Y6161859D01*
X12946664Y6160168D01*
X12948497Y6158053D01*
X12950189Y6155656D01*
X12951740Y6152696D01*
X12953149Y6149454D01*
Y6149313D01*
X12953290Y6149031D01*
X12953432Y6148608D01*
X12953572Y6147903D01*
X12953854Y6147057D01*
X12954137Y6146071D01*
X12954559Y6143674D01*
X12955122Y6140855D01*
X12955687Y6137753D01*
X12955969Y6134370D01*
X12956110Y6130705D01*
Y6130564D01*
Y6130141D01*
Y6129436D01*
Y6128590D01*
X12955969Y6127603D01*
Y6126335D01*
X12955827Y6124925D01*
X12955687Y6123374D01*
X12955264Y6119991D01*
X12954559Y6116326D01*
X12953712Y6112661D01*
X12952585Y6108995D01*
Y6108854D01*
X12952444Y6108572D01*
X12952164Y6108150D01*
X12951881Y6107445D01*
X12951035Y6105753D01*
X12949767Y6103780D01*
X12948215Y6101524D01*
X12946242Y6099128D01*
X12943987Y6097013D01*
X12941309Y6095039D01*
X12941167D01*
X12940884Y6094898D01*
X12940462Y6094616D01*
X12939899Y6094335D01*
X12939194Y6094053D01*
X12938348Y6093630D01*
X12936374Y6092784D01*
X12933836Y6091938D01*
X12931017Y6091233D01*
X12927916Y6090669D01*
X12924673Y6090528D01*
X12923688D01*
X12922841Y6090669D01*
X12921854D01*
X12920866Y6090810D01*
X12918330Y6091374D01*
X12915369Y6092079D01*
X12912408Y6093207D01*
X12909308Y6094757D01*
X12907758Y6095603D01*
X12906348Y6096731D01*
X12906206Y6096872D01*
X12906065Y6097013D01*
X12905643Y6097436D01*
X12905080Y6097859D01*
X12904515Y6098564D01*
X12903810Y6099409D01*
X12902963Y6100255D01*
X12902258Y6101383D01*
X12901413Y6102652D01*
X12900427Y6104061D01*
X12899580Y6105471D01*
X12898735Y6107163D01*
X12898030Y6108995D01*
X12897325Y6110969D01*
X12896620Y6113084D01*
X12896057Y6115339D01*
X12883087Y6112097D01*
Y6111956D01*
X12883228Y6111392D01*
X12883510Y6110546D01*
X12883932Y6109418D01*
X12884357Y6108150D01*
X12884920Y6106599D01*
X12885625Y6104907D01*
X12886472Y6103075D01*
X12888445Y6099128D01*
X12890982Y6095180D01*
X12892532Y6093207D01*
X12894083Y6091233D01*
X12895775Y6089542D01*
X12897748Y6087850D01*
X12897890Y6087709D01*
X12898170Y6087427D01*
X12898875Y6087145D01*
X12899580Y6086581D01*
X12900710Y6085876D01*
X12901836Y6085171D01*
X12903387Y6084467D01*
X12904938Y6083762D01*
X12906770Y6082916D01*
X12908743Y6082211D01*
X12910858Y6081506D01*
X12913113Y6080801D01*
X12915511Y6080238D01*
X12918048Y6079956D01*
X12920726Y6079674D01*
X12923546Y6079533D01*
X12860001D01*
Y6180467D01*
X12921996D01*
X12921008Y6180326D01*
D02*
G37*
G36*
X13314142Y6079533D02*
X13061414D01*
X13062543Y6079674D01*
X13063811D01*
X13065361Y6079815D01*
X13067053Y6080097D01*
X13069028Y6080378D01*
X13073116Y6081083D01*
X13077344Y6082211D01*
X13081573Y6083762D01*
X13083546Y6084749D01*
X13085519Y6085876D01*
X13085661Y6086017D01*
X13085944Y6086158D01*
X13086507Y6086581D01*
X13087071Y6087145D01*
X13087917Y6087709D01*
X13088902Y6088555D01*
X13090031Y6089542D01*
X13091159Y6090669D01*
X13092287Y6091938D01*
X13093555Y6093207D01*
X13096094Y6096449D01*
X13098489Y6100255D01*
X13100604Y6104484D01*
Y6104625D01*
X13100887Y6105048D01*
X13101027Y6105753D01*
X13101450Y6106599D01*
X13101732Y6107727D01*
X13102155Y6109136D01*
X13102719Y6110687D01*
X13103140Y6112379D01*
X13103564Y6114211D01*
X13104128Y6116326D01*
X13104832Y6120696D01*
X13105397Y6125630D01*
X13105679Y6130705D01*
Y6132255D01*
X13105537Y6133242D01*
Y6134652D01*
X13105397Y6136062D01*
X13105257Y6137894D01*
X13104974Y6139727D01*
X13104269Y6143815D01*
X13103282Y6148326D01*
X13101872Y6152837D01*
X13099899Y6157207D01*
X13099757Y6157348D01*
X13099617Y6157771D01*
X13099335Y6158335D01*
X13098772Y6159040D01*
X13098207Y6160027D01*
X13097504Y6161154D01*
X13095670Y6163692D01*
X13093274Y6166511D01*
X13090454Y6169331D01*
X13087212Y6172150D01*
X13083406Y6174546D01*
X13083266Y6174687D01*
X13082841Y6174828D01*
X13082278Y6175110D01*
X13081573Y6175533D01*
X13080444Y6175956D01*
X13079318Y6176379D01*
X13077908Y6176943D01*
X13076357Y6177507D01*
X13074664Y6178071D01*
X13072833Y6178635D01*
X13068886Y6179480D01*
X13064375Y6180185D01*
X13059723Y6180467D01*
X13314142D01*
Y6079533D01*
D02*
G37*
G36*
X13244829Y8390326D02*
X13243701D01*
X13241023Y8390044D01*
X13238063Y8389622D01*
X13234961Y8388917D01*
X13231578Y8388071D01*
X13228336Y8386943D01*
X13228195D01*
X13227913Y8386802D01*
X13227490Y8386661D01*
X13226926Y8386379D01*
X13225375Y8385533D01*
X13223402Y8384547D01*
X13221288Y8383137D01*
X13219032Y8381445D01*
X13216917Y8379613D01*
X13214944Y8377357D01*
X13214662Y8377075D01*
X13214098Y8376229D01*
X13213252Y8374961D01*
X13212125Y8373128D01*
X13210995Y8370873D01*
X13209727Y8368053D01*
X13208459Y8364952D01*
X13207472Y8361428D01*
X13219173Y8358326D01*
Y8358467D01*
X13219315Y8358608D01*
X13219455Y8359031D01*
X13219595Y8359595D01*
X13220020Y8360864D01*
X13220583Y8362555D01*
X13221428Y8364529D01*
X13222415Y8366361D01*
X13223402Y8368335D01*
X13224670Y8370027D01*
X13224811Y8370168D01*
X13225233Y8370732D01*
X13226080Y8371436D01*
X13227068Y8372423D01*
X13228336Y8373551D01*
X13230026Y8374679D01*
X13231860Y8375806D01*
X13233975Y8376793D01*
X13234256Y8376934D01*
X13234961Y8377216D01*
X13236230Y8377639D01*
X13237923Y8378203D01*
X13239896Y8378626D01*
X13242151Y8379049D01*
X13244688Y8379331D01*
X13247366Y8379472D01*
X13248917D01*
X13249622Y8379331D01*
X13250468D01*
X13252583Y8379190D01*
X13254979Y8378767D01*
X13257658Y8378344D01*
X13260194Y8377639D01*
X13262732Y8376652D01*
X13263014Y8376511D01*
X13263860Y8376229D01*
X13264989Y8375525D01*
X13266399Y8374820D01*
X13268089Y8373692D01*
X13269922Y8372564D01*
X13271614Y8371154D01*
X13273164Y8369604D01*
X13273305Y8369463D01*
X13273869Y8368899D01*
X13274574Y8367912D01*
X13275420Y8366784D01*
X13276407Y8365375D01*
X13277393Y8363683D01*
X13278380Y8361850D01*
X13279367Y8359877D01*
Y8359736D01*
X13279507Y8359454D01*
X13279649Y8359031D01*
X13279932Y8358326D01*
X13280212Y8357480D01*
X13280495Y8356494D01*
X13280917Y8355366D01*
X13281200Y8354097D01*
X13281905Y8351137D01*
X13282468Y8347753D01*
X13282890Y8344229D01*
X13283032Y8340282D01*
Y8340141D01*
Y8339718D01*
Y8339013D01*
X13282890Y8338167D01*
Y8337040D01*
X13282750Y8335630D01*
X13282610Y8334220D01*
X13282468Y8332670D01*
X13281905Y8329145D01*
X13281200Y8325480D01*
X13280072Y8321815D01*
X13278662Y8318291D01*
Y8318150D01*
X13278380Y8317868D01*
X13278239Y8317445D01*
X13277815Y8316881D01*
X13276830Y8315330D01*
X13275279Y8313357D01*
X13273447Y8311242D01*
X13271191Y8309128D01*
X13268512Y8307154D01*
X13265552Y8305321D01*
X13265411D01*
X13265129Y8305180D01*
X13264706Y8304899D01*
X13264001Y8304617D01*
X13263297Y8304335D01*
X13262309Y8304053D01*
X13260054Y8303207D01*
X13257236Y8302502D01*
X13254134Y8301797D01*
X13250751Y8301233D01*
X13247226Y8301092D01*
X13245816D01*
X13244971Y8301233D01*
X13244124D01*
X13242010Y8301515D01*
X13239471Y8301797D01*
X13236794Y8302361D01*
X13233833Y8303207D01*
X13230873Y8304194D01*
X13230733D01*
X13230450Y8304335D01*
X13230168Y8304476D01*
X13229604Y8304758D01*
X13228053Y8305462D01*
X13226363Y8306308D01*
X13224390Y8307295D01*
X13222273Y8308423D01*
X13220300Y8309692D01*
X13218610Y8311101D01*
Y8329427D01*
X13247366D01*
Y8340987D01*
X13205922D01*
Y8304758D01*
X13206062Y8304617D01*
X13206345Y8304476D01*
X13206908Y8304053D01*
X13207613Y8303489D01*
X13208459Y8302925D01*
X13209447Y8302220D01*
X13210715Y8301374D01*
X13211983Y8300528D01*
X13214944Y8298696D01*
X13218327Y8296722D01*
X13221851Y8294890D01*
X13225658Y8293339D01*
X13225798D01*
X13226080Y8293198D01*
X13226643Y8293057D01*
X13227348Y8292775D01*
X13228336Y8292493D01*
X13229465Y8292070D01*
X13230733Y8291788D01*
X13232001Y8291506D01*
X13235101Y8290802D01*
X13238628Y8290097D01*
X13242433Y8289674D01*
X13246381Y8289533D01*
X12980000D01*
Y8390467D01*
X13245676D01*
X13244829Y8390326D01*
D02*
G37*
G36*
X13324142Y8289533D02*
X13247791D01*
X13248776Y8289674D01*
X13250044D01*
X13251596Y8289815D01*
X13253287Y8290097D01*
X13255119Y8290238D01*
X13259209Y8291083D01*
X13263577Y8292070D01*
X13268089Y8293621D01*
X13270345Y8294467D01*
X13272600Y8295595D01*
X13272742Y8295736D01*
X13273164Y8295876D01*
X13273727Y8296299D01*
X13274574Y8296722D01*
X13275562Y8297427D01*
X13276547Y8298132D01*
X13279227Y8300106D01*
X13282045Y8302643D01*
X13285007Y8305744D01*
X13287825Y8309269D01*
X13290363Y8313357D01*
Y8313498D01*
X13290643Y8313921D01*
X13290926Y8314485D01*
X13291348Y8315471D01*
X13291772Y8316458D01*
X13292195Y8317868D01*
X13292760Y8319277D01*
X13293323Y8320969D01*
X13293887Y8322802D01*
X13294450Y8324916D01*
X13294875Y8327031D01*
X13295296Y8329286D01*
X13296001Y8334220D01*
X13296283Y8339436D01*
Y8340846D01*
X13296143Y8341833D01*
Y8343101D01*
X13296001Y8344652D01*
X13295718Y8346203D01*
X13295578Y8348035D01*
X13295155Y8350009D01*
X13294875Y8352124D01*
X13293745Y8356635D01*
X13292336Y8361287D01*
X13290363Y8365939D01*
X13290222Y8366080D01*
X13290080Y8366502D01*
X13289799Y8367066D01*
X13289235Y8367912D01*
X13288670Y8369040D01*
X13287965Y8370168D01*
X13285992Y8372846D01*
X13283595Y8375947D01*
X13280637Y8378908D01*
X13277252Y8381868D01*
X13275279Y8383137D01*
X13273305Y8384406D01*
X13273164Y8384547D01*
X13272742Y8384688D01*
X13272177Y8384970D01*
X13271332Y8385392D01*
X13270204Y8385815D01*
X13268935Y8386379D01*
X13267525Y8386943D01*
X13265834Y8387507D01*
X13264001Y8388071D01*
X13262029Y8388494D01*
X13259914Y8389058D01*
X13257658Y8389481D01*
X13252724Y8390185D01*
X13250186Y8390467D01*
X13324142D01*
Y8289533D01*
D02*
G37*
G36*
X13324841Y7355000D02*
X12215158D01*
Y7505000D01*
X13324841D01*
Y7355000D01*
D02*
G37*
G36*
X7651519Y8888776D02*
Y8890467D01*
D01*
Y8888776D01*
D02*
G37*
G36*
Y8843524D02*
X7651378Y8845075D01*
Y8846767D01*
X7651237Y8848599D01*
X7651096Y8850573D01*
X7650673Y8855084D01*
X7649968Y8859736D01*
X7649122Y8864247D01*
X7648558Y8866361D01*
X7647854Y8868476D01*
Y8868617D01*
X7647713Y8868899D01*
X7647431Y8869463D01*
X7647149Y8870168D01*
X7646867Y8871154D01*
X7646303Y8872141D01*
X7645175Y8874538D01*
X7643766Y8877075D01*
X7641933Y8879895D01*
X7639818Y8882432D01*
X7637281Y8884829D01*
X7637140D01*
X7636999Y8885110D01*
X7636576Y8885392D01*
X7636012Y8885674D01*
X7635307Y8886097D01*
X7634602Y8886661D01*
X7632488Y8887648D01*
X7629950Y8888635D01*
X7626990Y8889622D01*
X7623466Y8890185D01*
X7619660Y8890467D01*
X7651519D01*
Y8843524D01*
D02*
G37*
G36*
X7576100Y8841692D02*
X7575959Y8842820D01*
Y8844088D01*
X7575818Y8845639D01*
X7575536Y8847331D01*
X7575395Y8849163D01*
X7574690Y8853251D01*
X7573562Y8857762D01*
X7572012Y8862273D01*
X7571166Y8864529D01*
X7570038Y8866784D01*
Y8866925D01*
X7569756Y8867348D01*
X7569474Y8867912D01*
X7568910Y8868758D01*
X7568347Y8869745D01*
X7567642Y8870732D01*
X7565668Y8873410D01*
X7563272Y8876229D01*
X7560452Y8879190D01*
X7557069Y8882009D01*
X7553122Y8884547D01*
X7552981D01*
X7552699Y8884829D01*
X7551994Y8885110D01*
X7551148Y8885533D01*
X7550161Y8885956D01*
X7549034Y8886379D01*
X7547624Y8886943D01*
X7546073Y8887507D01*
X7544382Y8888071D01*
X7542549Y8888635D01*
X7538461Y8889481D01*
X7534091Y8890185D01*
X7529439Y8890467D01*
X7576100D01*
Y8841692D01*
D02*
G37*
G36*
X7621069Y8880458D02*
X7622479Y8880177D01*
X7624453Y8879613D01*
X7626567Y8878626D01*
X7628964Y8877216D01*
X7630091Y8876370D01*
X7631219Y8875243D01*
X7632347Y8874115D01*
X7633475Y8872705D01*
Y8872564D01*
X7633757Y8872282D01*
X7634039Y8871859D01*
X7634321Y8871154D01*
X7634884Y8870168D01*
X7635307Y8868899D01*
X7635871Y8867489D01*
X7636435Y8865798D01*
X7636858Y8863683D01*
X7637422Y8861428D01*
X7637986Y8858749D01*
X7638409Y8855930D01*
X7638691Y8852546D01*
X7638973Y8849022D01*
X7639254Y8845075D01*
Y8840705D01*
Y8840564D01*
Y8840423D01*
Y8839718D01*
Y8838449D01*
X7639113Y8836758D01*
Y8834925D01*
X7638973Y8832670D01*
X7638832Y8830273D01*
X7638550Y8827595D01*
X7637845Y8822238D01*
X7637422Y8819559D01*
X7636858Y8817022D01*
X7636294Y8814625D01*
X7635448Y8812370D01*
X7634602Y8810396D01*
X7633616Y8808705D01*
Y8808564D01*
X7633334Y8808423D01*
X7633052Y8808000D01*
X7632629Y8807436D01*
X7631360Y8806167D01*
X7629809Y8804617D01*
X7627695Y8803207D01*
X7625298Y8801938D01*
X7624030Y8801374D01*
X7622620Y8800951D01*
X7621069Y8800810D01*
X7619519Y8800669D01*
X7618673D01*
X7618109Y8800810D01*
X7616558Y8801092D01*
X7614726Y8801515D01*
X7612611Y8802361D01*
X7610356Y8803630D01*
X7609228Y8804476D01*
X7608100Y8805321D01*
X7607113Y8806449D01*
X7606127Y8807718D01*
Y8807859D01*
X7605845Y8808141D01*
X7605563Y8808705D01*
X7605140Y8809410D01*
X7604717Y8810537D01*
X7604153Y8811806D01*
X7603730Y8813357D01*
X7603166Y8815189D01*
X7602602Y8817304D01*
X7602038Y8819700D01*
X7601475Y8822379D01*
X7601052Y8825339D01*
X7600629Y8828723D01*
X7600347Y8832388D01*
X7600206Y8836335D01*
X7600065Y8840705D01*
Y8840987D01*
Y8841692D01*
Y8842960D01*
X7600206Y8844652D01*
Y8846485D01*
X7600347Y8848740D01*
X7600488Y8851137D01*
X7600770Y8853674D01*
X7601475Y8859172D01*
X7601897Y8861850D01*
X7602461Y8864388D01*
X7603025Y8866784D01*
X7603871Y8869040D01*
X7604717Y8871013D01*
X7605704Y8872705D01*
Y8872846D01*
X7605986Y8872987D01*
X7606690Y8873974D01*
X7607959Y8875243D01*
X7609510Y8876652D01*
X7611624Y8878062D01*
X7614021Y8879331D01*
X7616699Y8880318D01*
X7618109Y8880458D01*
X7619660Y8880599D01*
X7620505D01*
X7621069Y8880458D01*
D02*
G37*
G36*
X7530708Y8879331D02*
X7531694D01*
X7532963Y8879190D01*
X7534373Y8878908D01*
X7536064Y8878626D01*
X7537756Y8878203D01*
X7539730Y8877639D01*
X7541562Y8876934D01*
X7543677Y8876229D01*
X7545650Y8875243D01*
X7547624Y8873974D01*
X7549598Y8872705D01*
X7551571Y8871154D01*
X7553404Y8869322D01*
X7553545Y8869181D01*
X7553827Y8868899D01*
X7554250Y8868194D01*
X7554954Y8867348D01*
X7555659Y8866361D01*
X7556364Y8865093D01*
X7557210Y8863542D01*
X7558197Y8861850D01*
X7559043Y8859877D01*
X7559888Y8857621D01*
X7560593Y8855225D01*
X7561439Y8852687D01*
X7562003Y8849868D01*
X7562426Y8846767D01*
X7562708Y8843524D01*
X7562849Y8840141D01*
Y8840000D01*
Y8839577D01*
Y8839013D01*
Y8838167D01*
X7562708Y8837181D01*
Y8835912D01*
X7562567Y8834643D01*
X7562285Y8833093D01*
X7561862Y8829850D01*
X7561157Y8826467D01*
X7560170Y8822802D01*
X7558761Y8819418D01*
Y8819278D01*
X7558620Y8818996D01*
X7558338Y8818573D01*
X7558056Y8818009D01*
X7557069Y8816317D01*
X7555800Y8814344D01*
X7554109Y8812088D01*
X7551994Y8809833D01*
X7549598Y8807577D01*
X7546919Y8805603D01*
X7546778D01*
X7546637Y8805321D01*
X7546214Y8805181D01*
X7545509Y8804758D01*
X7544805Y8804476D01*
X7543959Y8804053D01*
X7541844Y8803066D01*
X7539307Y8802220D01*
X7536346Y8801374D01*
X7532963Y8800810D01*
X7529439Y8800669D01*
X7528170D01*
X7527183Y8800810D01*
X7525915Y8800951D01*
X7524646Y8801233D01*
X7523095Y8801515D01*
X7521404Y8801797D01*
X7517738Y8802925D01*
X7515765Y8803771D01*
X7513791Y8804617D01*
X7511677Y8805744D01*
X7509703Y8807013D01*
X7507729Y8808423D01*
X7505897Y8810114D01*
X7505756Y8810255D01*
X7505474Y8810537D01*
X7505051Y8811101D01*
X7504346Y8811947D01*
X7503641Y8812934D01*
X7502796Y8814203D01*
X7501950Y8815753D01*
X7500963Y8817586D01*
X7500117Y8819559D01*
X7499130Y8821956D01*
X7498284Y8824493D01*
X7497580Y8827313D01*
X7496875Y8830414D01*
X7496452Y8833938D01*
X7496170Y8837604D01*
X7496029Y8841551D01*
Y8841692D01*
Y8842256D01*
Y8843242D01*
X7496170Y8844511D01*
X7496311Y8845921D01*
X7496593Y8847612D01*
X7496875Y8849586D01*
X7497157Y8851560D01*
X7498284Y8856071D01*
X7499130Y8858326D01*
X7499976Y8860723D01*
X7501104Y8862978D01*
X7502373Y8865234D01*
X7503782Y8867348D01*
X7505474Y8869322D01*
X7505615Y8869463D01*
X7505897Y8869745D01*
X7506461Y8870309D01*
X7507166Y8870873D01*
X7508152Y8871718D01*
X7509280Y8872564D01*
X7510549Y8873410D01*
X7511959Y8874397D01*
X7513650Y8875384D01*
X7515483Y8876229D01*
X7517456Y8877075D01*
X7519571Y8877921D01*
X7521826Y8878485D01*
X7524082Y8879049D01*
X7526619Y8879331D01*
X7529298Y8879472D01*
X7530003D01*
X7530708Y8879331D01*
D02*
G37*
G36*
X7617263Y8890326D02*
X7616135Y8890185D01*
X7614726Y8889903D01*
X7613175Y8889622D01*
X7611483Y8889199D01*
X7609792Y8888635D01*
X7607959Y8888071D01*
X7606127Y8887225D01*
X7604294Y8886238D01*
X7602461Y8885110D01*
X7600629Y8883701D01*
X7598937Y8882150D01*
X7597386Y8880458D01*
X7597245Y8880318D01*
X7596963Y8879895D01*
X7596541Y8879190D01*
X7595836Y8878062D01*
X7595131Y8876793D01*
X7594426Y8875102D01*
X7593439Y8873128D01*
X7592593Y8870873D01*
X7591748Y8868335D01*
X7590902Y8865375D01*
X7590056Y8862132D01*
X7589351Y8858467D01*
X7588646Y8854520D01*
X7588223Y8850291D01*
X7587941Y8845639D01*
X7587800Y8840705D01*
Y8878062D01*
Y8837886D01*
X7587941Y8836335D01*
Y8834643D01*
X7588082Y8832811D01*
X7588223Y8830696D01*
X7588646Y8826326D01*
X7589351Y8821674D01*
X7590197Y8817022D01*
X7590761Y8814907D01*
X7591325Y8812793D01*
Y8812652D01*
X7591466Y8812370D01*
X7591748Y8811806D01*
X7592030Y8811101D01*
X7592311Y8810114D01*
X7592875Y8809128D01*
X7594003Y8806731D01*
X7595413Y8804194D01*
X7597245Y8801515D01*
X7599360Y8798837D01*
X7601897Y8796581D01*
X7602038D01*
X7602179Y8796299D01*
X7602602Y8796017D01*
X7603166Y8795736D01*
X7603871Y8795172D01*
X7604717Y8794749D01*
X7606831Y8793621D01*
X7609369Y8792634D01*
X7612329Y8791647D01*
X7615853Y8791084D01*
X7619660Y8790802D01*
X7623868D01*
X7620928D01*
X7622479Y8790943D01*
X7624312Y8791224D01*
X7626426Y8791647D01*
X7628682Y8792211D01*
X7631078Y8792916D01*
X7633334Y8794044D01*
X7633475D01*
X7633616Y8794185D01*
X7634321Y8794608D01*
X7635448Y8795313D01*
X7636858Y8796299D01*
X7638409Y8797709D01*
X7640100Y8799260D01*
X7641651Y8801092D01*
X7643202Y8803207D01*
X7643343Y8803489D01*
X7643906Y8804194D01*
X7644470Y8805462D01*
X7645457Y8807295D01*
X7646303Y8809410D01*
X7647431Y8811806D01*
X7648418Y8814625D01*
X7649263Y8817727D01*
Y8817868D01*
X7649404Y8818150D01*
X7649545Y8818573D01*
X7649686Y8819278D01*
X7649827Y8820123D01*
X7649968Y8821110D01*
X7650250Y8822379D01*
X7650391Y8823789D01*
X7650673Y8825339D01*
X7650814Y8827031D01*
X7650955Y8829004D01*
X7651237Y8830978D01*
X7651378Y8833234D01*
Y8835489D01*
X7651519Y8838027D01*
Y8790802D01*
D01*
Y8789533D01*
X7248486D01*
Y8888776D01*
Y8843242D01*
Y8890467D01*
X7296979D01*
X7295993Y8890326D01*
X7294724D01*
X7293173Y8890185D01*
X7291481Y8889903D01*
X7289649Y8889763D01*
X7285561Y8888917D01*
X7281191Y8887930D01*
X7276680Y8886379D01*
X7274424Y8885533D01*
X7272169Y8884406D01*
X7272028Y8884265D01*
X7271605Y8884124D01*
X7271041Y8883701D01*
X7270195Y8883278D01*
X7269208Y8882573D01*
X7268221Y8881868D01*
X7265543Y8879895D01*
X7262724Y8877357D01*
X7259763Y8874256D01*
X7256944Y8870732D01*
X7254406Y8866643D01*
Y8866502D01*
X7254124Y8866080D01*
X7253842Y8865516D01*
X7253420Y8864529D01*
X7252997Y8863542D01*
X7252574Y8862132D01*
X7252010Y8860723D01*
X7251446Y8859031D01*
X7250882Y8857198D01*
X7250318Y8855084D01*
X7249895Y8852969D01*
X7249472Y8850714D01*
X7248768Y8845780D01*
X7248486Y8840564D01*
Y8789533D01*
Y8839154D01*
X7248627Y8838167D01*
Y8836899D01*
X7248768Y8835348D01*
X7249050Y8833797D01*
X7249190Y8831965D01*
X7249613Y8829991D01*
X7249895Y8827877D01*
X7251023Y8823366D01*
X7252433Y8818714D01*
X7254406Y8814062D01*
X7254547Y8813921D01*
X7254688Y8813498D01*
X7254970Y8812934D01*
X7255534Y8812088D01*
X7256098Y8810960D01*
X7256803Y8809833D01*
X7258776Y8807154D01*
X7261173Y8804053D01*
X7264133Y8801092D01*
X7267517Y8798132D01*
X7269490Y8796863D01*
X7271464Y8795595D01*
X7271605Y8795454D01*
X7272028Y8795313D01*
X7272592Y8795031D01*
X7273437Y8794608D01*
X7274565Y8794185D01*
X7275834Y8793621D01*
X7277244Y8793057D01*
X7278935Y8792493D01*
X7280768Y8791929D01*
X7282741Y8791506D01*
X7284856Y8790943D01*
X7287111Y8790520D01*
X7292045Y8789815D01*
X7294583Y8789533D01*
X7299094D01*
X7299940Y8789674D01*
X7301067D01*
X7303746Y8789956D01*
X7306706Y8790379D01*
X7309808Y8791084D01*
X7313191Y8791929D01*
X7316433Y8793057D01*
X7316574D01*
X7316856Y8793198D01*
X7317279Y8793339D01*
X7317843Y8793621D01*
X7319394Y8794467D01*
X7321367Y8795454D01*
X7323482Y8796863D01*
X7325737Y8798555D01*
X7327852Y8800388D01*
X7329825Y8802643D01*
X7330107Y8802925D01*
X7330671Y8803771D01*
X7331517Y8805040D01*
X7332645Y8806872D01*
X7333772Y8809128D01*
X7335041Y8811947D01*
X7336310Y8815048D01*
X7337297Y8818573D01*
X7325596Y8821674D01*
Y8821533D01*
X7325455Y8821392D01*
X7325314Y8820969D01*
X7325173Y8820405D01*
X7324750Y8819137D01*
X7324187Y8817445D01*
X7323341Y8815471D01*
X7322354Y8813639D01*
X7321367Y8811665D01*
X7320098Y8809973D01*
X7319957Y8809833D01*
X7319535Y8809269D01*
X7318689Y8808564D01*
X7317702Y8807577D01*
X7316433Y8806449D01*
X7314742Y8805321D01*
X7312909Y8804194D01*
X7310794Y8803207D01*
X7310512Y8803066D01*
X7309808Y8802784D01*
X7308539Y8802361D01*
X7306847Y8801797D01*
X7304874Y8801374D01*
X7302618Y8800951D01*
X7300081Y8800669D01*
X7297402Y8800529D01*
X7295852D01*
X7295147Y8800669D01*
X7294301D01*
X7292186Y8800810D01*
X7289790Y8801233D01*
X7287111Y8801656D01*
X7284574Y8802361D01*
X7282036Y8803348D01*
X7281755Y8803489D01*
X7280909Y8803771D01*
X7279781Y8804476D01*
X7278371Y8805181D01*
X7276680Y8806308D01*
X7274847Y8807436D01*
X7273155Y8808846D01*
X7271605Y8810396D01*
X7271464Y8810537D01*
X7270900Y8811101D01*
X7270195Y8812088D01*
X7269349Y8813216D01*
X7268362Y8814625D01*
X7267376Y8816317D01*
X7266389Y8818150D01*
X7265402Y8820123D01*
Y8820264D01*
X7265261Y8820546D01*
X7265120Y8820969D01*
X7264838Y8821674D01*
X7264556Y8822520D01*
X7264274Y8823507D01*
X7263851Y8824634D01*
X7263569Y8825903D01*
X7262865Y8828863D01*
X7262301Y8832247D01*
X7261878Y8835771D01*
X7261737Y8839718D01*
Y8839859D01*
Y8840282D01*
Y8840987D01*
X7261878Y8841833D01*
Y8842960D01*
X7262019Y8844370D01*
X7262160Y8845780D01*
X7262301Y8847331D01*
X7262865Y8850855D01*
X7263569Y8854520D01*
X7264697Y8858185D01*
X7266107Y8861709D01*
Y8861850D01*
X7266389Y8862132D01*
X7266530Y8862555D01*
X7266953Y8863119D01*
X7267939Y8864670D01*
X7269490Y8866643D01*
X7271323Y8868758D01*
X7273578Y8870873D01*
X7276257Y8872846D01*
X7279217Y8874679D01*
X7279358D01*
X7279640Y8874820D01*
X7280063Y8875102D01*
X7280768Y8875384D01*
X7281473Y8875666D01*
X7282459Y8875947D01*
X7284715Y8876793D01*
X7287534Y8877498D01*
X7290636Y8878203D01*
X7294019Y8878767D01*
X7297543Y8878908D01*
X7298953D01*
X7299799Y8878767D01*
X7300645D01*
X7302759Y8878485D01*
X7305297Y8878203D01*
X7307975Y8877639D01*
X7310935Y8876793D01*
X7313896Y8875806D01*
X7314037D01*
X7314319Y8875666D01*
X7314601Y8875525D01*
X7315164Y8875243D01*
X7316715Y8874538D01*
X7318407Y8873692D01*
X7320380Y8872705D01*
X7322495Y8871577D01*
X7324468Y8870309D01*
X7326160Y8868899D01*
Y8850573D01*
X7297402D01*
Y8839013D01*
X7338847D01*
Y8795313D01*
Y8875243D01*
D01*
X7338706Y8875384D01*
X7338424Y8875525D01*
X7337861Y8875947D01*
X7337156Y8876511D01*
X7336310Y8877075D01*
X7335323Y8877780D01*
X7334054Y8878626D01*
X7332786Y8879472D01*
X7329825Y8881304D01*
X7326442Y8883278D01*
X7322918Y8885110D01*
X7319112Y8886661D01*
X7318971D01*
X7318689Y8886802D01*
X7318125Y8886943D01*
X7317420Y8887225D01*
X7316433Y8887507D01*
X7315305Y8887930D01*
X7314037Y8888212D01*
X7312768Y8888494D01*
X7309667Y8889199D01*
X7306142Y8889903D01*
X7302336Y8890326D01*
X7298389Y8890467D01*
X7338847D01*
Y8885392D01*
Y8890467D01*
X7482778D01*
D01*
X7528029D01*
X7527183Y8890326D01*
X7525915D01*
X7524505Y8890044D01*
X7522954Y8889903D01*
X7521122Y8889622D01*
X7517315Y8888776D01*
X7513227Y8887648D01*
X7508998Y8885956D01*
X7506884Y8884970D01*
X7504769Y8883842D01*
X7504628Y8883701D01*
X7504346Y8883560D01*
X7503782Y8883137D01*
X7502936Y8882573D01*
X7502091Y8882009D01*
X7501104Y8881163D01*
X7498707Y8879049D01*
X7496029Y8876511D01*
X7493210Y8873410D01*
X7490672Y8869886D01*
X7488276Y8865798D01*
Y8865657D01*
X7487994Y8865234D01*
X7487712Y8864670D01*
X7487430Y8863824D01*
X7487007Y8862696D01*
X7486584Y8861428D01*
X7486020Y8860018D01*
X7485597Y8858467D01*
X7485033Y8856635D01*
X7484469Y8854802D01*
X7483624Y8850573D01*
X7483060Y8846203D01*
X7482778Y8841410D01*
Y8840282D01*
X7482919Y8839013D01*
Y8837322D01*
X7483201Y8835348D01*
X7483483Y8832952D01*
X7483906Y8830273D01*
X7484469Y8827454D01*
X7485033Y8824493D01*
X7485879Y8821392D01*
X7487007Y8818291D01*
X7488276Y8815048D01*
X7489685Y8811947D01*
X7491518Y8808846D01*
X7493491Y8806026D01*
X7495747Y8803348D01*
X7495888Y8803207D01*
X7496311Y8802784D01*
X7497157Y8802079D01*
X7498144Y8801233D01*
X7499412Y8800106D01*
X7500963Y8798978D01*
X7502796Y8797709D01*
X7504910Y8796440D01*
X7507166Y8795172D01*
X7509703Y8793903D01*
X7512522Y8792775D01*
X7515483Y8791647D01*
X7518725Y8790802D01*
X7522108Y8790097D01*
X7525633Y8789674D01*
X7529439Y8789533D01*
X7482778D01*
X7576100D01*
D01*
X7530708D01*
X7531694Y8789674D01*
X7532963D01*
X7534232Y8789815D01*
X7535923Y8790097D01*
X7537615Y8790379D01*
X7541280Y8791084D01*
X7545509Y8792211D01*
X7549598Y8793903D01*
X7551712Y8794890D01*
X7553827Y8796017D01*
X7553968Y8796158D01*
X7554250Y8796299D01*
X7554813Y8796722D01*
X7555659Y8797145D01*
X7556505Y8797850D01*
X7557633Y8798696D01*
X7560029Y8800669D01*
X7562567Y8803207D01*
X7565386Y8806308D01*
X7568065Y8809973D01*
X7570320Y8814062D01*
Y8814203D01*
X7570602Y8814625D01*
X7570884Y8815189D01*
X7571166Y8816035D01*
X7571730Y8817163D01*
X7572153Y8818432D01*
X7572717Y8819982D01*
X7573281Y8821674D01*
X7573703Y8823507D01*
X7574267Y8825480D01*
X7574831Y8827736D01*
X7575254Y8829991D01*
X7575818Y8834925D01*
X7576100Y8840282D01*
Y8890467D01*
X7587800D01*
D01*
X7618250D01*
X7617263Y8890326D01*
D02*
G37*
G36*
X13242758Y5670326D02*
X13241631D01*
X13238953Y5670044D01*
X13235992Y5669621D01*
X13232890Y5668917D01*
X13229507Y5668071D01*
X13226265Y5666943D01*
X13226125D01*
X13225842Y5666802D01*
X13225420Y5666661D01*
X13224855Y5666379D01*
X13223305Y5665533D01*
X13221330Y5664546D01*
X13219215Y5663137D01*
X13216962Y5661445D01*
X13214845Y5659613D01*
X13212872Y5657357D01*
X13212592Y5657075D01*
X13212027Y5656229D01*
X13211182Y5654960D01*
X13210052Y5653128D01*
X13208926Y5650872D01*
X13207657Y5648053D01*
X13206387Y5644952D01*
X13205402Y5641427D01*
X13217102Y5638326D01*
Y5638467D01*
X13217242Y5638608D01*
X13217384Y5639031D01*
X13217525Y5639595D01*
X13217947Y5640863D01*
X13218512Y5642555D01*
X13219357Y5644529D01*
X13220345Y5646361D01*
X13221330Y5648335D01*
X13222600Y5650027D01*
X13222742Y5650168D01*
X13223164Y5650731D01*
X13224010Y5651436D01*
X13224995Y5652423D01*
X13226265Y5653551D01*
X13227957Y5654679D01*
X13229790Y5655806D01*
X13231905Y5656793D01*
X13232185Y5656934D01*
X13232890Y5657216D01*
X13234158Y5657639D01*
X13235851Y5658203D01*
X13237823Y5658626D01*
X13240080Y5659049D01*
X13242616Y5659331D01*
X13245296Y5659472D01*
X13246848D01*
X13247551Y5659331D01*
X13248396D01*
X13250513Y5659190D01*
X13252908Y5658767D01*
X13255586Y5658344D01*
X13258124Y5657639D01*
X13260661Y5656652D01*
X13260944Y5656511D01*
X13261789Y5656229D01*
X13262917Y5655524D01*
X13264326Y5654820D01*
X13266019Y5653692D01*
X13267851Y5652564D01*
X13269543Y5651154D01*
X13271094Y5649604D01*
X13271234Y5649463D01*
X13271799Y5648899D01*
X13272504Y5647912D01*
X13273349Y5646784D01*
X13274336Y5645375D01*
X13275322Y5643683D01*
X13276309Y5641850D01*
X13277296Y5639877D01*
Y5639736D01*
X13277437Y5639454D01*
X13277579Y5639031D01*
X13277859Y5638326D01*
X13278142Y5637480D01*
X13278424Y5636493D01*
X13278847Y5635366D01*
X13279129Y5634097D01*
X13279832Y5631137D01*
X13280397Y5627753D01*
X13280820Y5624229D01*
X13280962Y5620282D01*
Y5620141D01*
Y5619718D01*
Y5619013D01*
X13280820Y5618167D01*
Y5617040D01*
X13280679Y5615630D01*
X13280537Y5614220D01*
X13280397Y5612669D01*
X13279832Y5609145D01*
X13279129Y5605480D01*
X13278001Y5601815D01*
X13276591Y5598291D01*
Y5598150D01*
X13276309Y5597868D01*
X13276167Y5597445D01*
X13275745Y5596881D01*
X13274759Y5595330D01*
X13273209Y5593357D01*
X13271375Y5591242D01*
X13269119Y5589128D01*
X13266441Y5587154D01*
X13263481Y5585321D01*
X13263341D01*
X13263058Y5585180D01*
X13262634Y5584898D01*
X13261929Y5584616D01*
X13261224Y5584335D01*
X13260239Y5584053D01*
X13257983Y5583207D01*
X13255164Y5582502D01*
X13252061Y5581797D01*
X13248679Y5581233D01*
X13245155Y5581092D01*
X13243745D01*
X13242899Y5581233D01*
X13242055D01*
X13239938Y5581515D01*
X13237402Y5581797D01*
X13234723Y5582361D01*
X13231763Y5583207D01*
X13228802Y5584194D01*
X13228661D01*
X13228378Y5584335D01*
X13228098Y5584475D01*
X13227534Y5584757D01*
X13225983Y5585462D01*
X13224290Y5586308D01*
X13222318Y5587295D01*
X13220203Y5588423D01*
X13218230Y5589691D01*
X13216537Y5591101D01*
Y5609427D01*
X13245296D01*
Y5620987D01*
X13203851D01*
Y5584757D01*
X13203992Y5584616D01*
X13204274Y5584475D01*
X13204837Y5584053D01*
X13205542Y5583489D01*
X13206387Y5582925D01*
X13207375Y5582220D01*
X13208644Y5581374D01*
X13209912Y5580528D01*
X13212872Y5578696D01*
X13216257Y5576722D01*
X13219780Y5574890D01*
X13223586Y5573339D01*
X13223727D01*
X13224010Y5573198D01*
X13224573Y5573057D01*
X13225278Y5572775D01*
X13226265Y5572493D01*
X13227393Y5572070D01*
X13228661Y5571788D01*
X13229930Y5571506D01*
X13233031Y5570801D01*
X13236555Y5570097D01*
X13240363Y5569674D01*
X13244308Y5569533D01*
X12977930D01*
Y5670467D01*
X13243604D01*
X13242758Y5670326D01*
D02*
G37*
G36*
X13322070Y5569533D02*
X13245718D01*
X13246706Y5569674D01*
X13247974D01*
X13249525Y5569815D01*
X13251218Y5570097D01*
X13253049Y5570238D01*
X13257137Y5571083D01*
X13261507Y5572070D01*
X13266019Y5573621D01*
X13268274Y5574467D01*
X13270529Y5575594D01*
X13270670Y5575735D01*
X13271094Y5575876D01*
X13271657Y5576299D01*
X13272504Y5576722D01*
X13273489Y5577427D01*
X13274477Y5578132D01*
X13277155Y5580105D01*
X13279974Y5582643D01*
X13282935Y5585744D01*
X13285754Y5589268D01*
X13288292Y5593357D01*
Y5593498D01*
X13288574Y5593920D01*
X13288857Y5594484D01*
X13289278Y5595471D01*
X13289700Y5596458D01*
X13290125Y5597868D01*
X13290688Y5599277D01*
X13291252Y5600969D01*
X13291817Y5602802D01*
X13292380Y5604916D01*
X13292802Y5607031D01*
X13293227Y5609286D01*
X13293930Y5614220D01*
X13294212Y5619436D01*
Y5620846D01*
X13294070Y5621833D01*
Y5623101D01*
X13293930Y5624652D01*
X13293649Y5626203D01*
X13293507Y5628035D01*
X13293085Y5630009D01*
X13292802Y5632123D01*
X13291675Y5636634D01*
X13290265Y5641286D01*
X13288292Y5645938D01*
X13288152Y5646079D01*
X13288010Y5646502D01*
X13287727Y5647066D01*
X13287164Y5647912D01*
X13286600Y5649040D01*
X13285895Y5650168D01*
X13283922Y5652846D01*
X13281525Y5655947D01*
X13278564Y5658908D01*
X13275182Y5661868D01*
X13273209Y5663137D01*
X13271234Y5664405D01*
X13271094Y5664546D01*
X13270670Y5664687D01*
X13270107Y5664969D01*
X13269261Y5665392D01*
X13268134Y5665815D01*
X13266864Y5666379D01*
X13265456Y5666943D01*
X13263763Y5667507D01*
X13261929Y5668071D01*
X13259956Y5668494D01*
X13257841Y5669057D01*
X13255586Y5669480D01*
X13250653Y5670185D01*
X13248116Y5670467D01*
X13322070D01*
Y5569533D01*
D02*
G37*
G36*
X12050467Y6242073D02*
Y6016151D01*
X12031331D01*
X12050467D01*
Y5976398D01*
X12050326Y5977244D01*
Y5978371D01*
X12050044Y5981050D01*
X12049622Y5984010D01*
X12048917Y5987111D01*
X12048071Y5990495D01*
X12046943Y5993737D01*
Y5993878D01*
X12046802Y5994160D01*
X12046661Y5994583D01*
X12046379Y5995147D01*
X12045533Y5996697D01*
X12044547Y5998671D01*
X12043137Y6000786D01*
X12041445Y6003041D01*
X12039613Y6005156D01*
X12037357Y6007129D01*
X12037075Y6007411D01*
X12036229Y6007975D01*
X12034961Y6008821D01*
X12033128Y6009949D01*
X12030873Y6011076D01*
X12028053Y6012345D01*
X12024952Y6013614D01*
X12021428Y6014601D01*
X12018326Y6002900D01*
X12018467D01*
X12018608Y6002759D01*
X12019031Y6002618D01*
X12019595Y6002477D01*
X12020864Y6002054D01*
X12022555Y6001490D01*
X12024529Y6000645D01*
X12026362Y5999658D01*
X12028335Y5998671D01*
X12030027Y5997402D01*
X12030168Y5997261D01*
X12030732Y5996838D01*
X12031436Y5995993D01*
X12032423Y5995006D01*
X12033551Y5993737D01*
X12034679Y5992045D01*
X12035807Y5990213D01*
X12036793Y5988098D01*
X12036934Y5987816D01*
X12037216Y5987111D01*
X12037639Y5985843D01*
X12038203Y5984151D01*
X12038626Y5982178D01*
X12039049Y5979922D01*
X12039331Y5977385D01*
X12039472Y5974706D01*
Y5973155D01*
X12039331Y5972451D01*
Y5971605D01*
X12039190Y5969490D01*
X12038767Y5967094D01*
X12038344Y5964415D01*
X12037639Y5961878D01*
X12036652Y5959340D01*
X12036511Y5959058D01*
X12036229Y5958213D01*
X12035525Y5957085D01*
X12034820Y5955675D01*
X12033692Y5953984D01*
X12032564Y5952151D01*
X12031154Y5950459D01*
X12029604Y5948909D01*
X12029463Y5948768D01*
X12028899Y5948204D01*
X12027912Y5947499D01*
X12026784Y5946653D01*
X12025375Y5945666D01*
X12023683Y5944679D01*
X12021850Y5943693D01*
X12019877Y5942706D01*
X12019736D01*
X12019454Y5942565D01*
X12019031Y5942424D01*
X12018326Y5942142D01*
X12017480Y5941860D01*
X12016494Y5941578D01*
X12015366Y5941155D01*
X12014097Y5940873D01*
X12011137Y5940168D01*
X12007753Y5939605D01*
X12004229Y5939182D01*
X12000282Y5939041D01*
X12000141D01*
X11999718D01*
X11999013D01*
X11998168Y5939182D01*
X11997040D01*
X11995630Y5939323D01*
X11994220Y5939464D01*
X11992670Y5939605D01*
X11989145Y5940168D01*
X11985480Y5940873D01*
X11981815Y5942001D01*
X11978291Y5943411D01*
X11978150D01*
X11977868Y5943693D01*
X11977445Y5943834D01*
X11976881Y5944257D01*
X11975330Y5945243D01*
X11973357Y5946794D01*
X11971242Y5948627D01*
X11969128Y5950882D01*
X11967154Y5953561D01*
X11965322Y5956521D01*
Y5956662D01*
X11965181Y5956944D01*
X11964899Y5957367D01*
X11964617Y5958072D01*
X11964335Y5958777D01*
X11964053Y5959763D01*
X11963207Y5962019D01*
X11962502Y5964838D01*
X11961797Y5967940D01*
X11961233Y5971323D01*
X11961092Y5974847D01*
Y5976257D01*
X11961233Y5977103D01*
Y5977948D01*
X11961515Y5980063D01*
X11961797Y5982600D01*
X11962361Y5985279D01*
X11963207Y5988239D01*
X11964194Y5991200D01*
Y5991341D01*
X11964335Y5991623D01*
X11964476Y5991904D01*
X11964758Y5992468D01*
X11965462Y5994019D01*
X11966308Y5995711D01*
X11967295Y5997684D01*
X11968423Y5999799D01*
X11969692Y6001772D01*
X11971101Y6003464D01*
X11989427D01*
Y5974706D01*
X12000987D01*
Y6016151D01*
X11964758D01*
X11964617Y6016010D01*
X11964476Y6015728D01*
X11964053Y6015164D01*
X11963489Y6014460D01*
X11962925Y6013614D01*
X11962220Y6012627D01*
X11961374Y6011358D01*
X11960529Y6010090D01*
X11958696Y6007129D01*
X11956722Y6003746D01*
X11954890Y6000222D01*
X11953339Y5996415D01*
Y5996275D01*
X11953198Y5995993D01*
X11953057Y5995429D01*
X11952775Y5994724D01*
X11952493Y5993737D01*
X11952070Y5992609D01*
X11951788Y5991341D01*
X11951506Y5990072D01*
X11950802Y5986970D01*
X11950097Y5983446D01*
X11949674Y5979640D01*
X11949533Y5975693D01*
Y5974283D01*
X11949674Y5973296D01*
Y5972028D01*
X11949815Y5970477D01*
X11950097Y5968785D01*
X11950238Y5966953D01*
X11951084Y5962865D01*
X11952070Y5958495D01*
X11953621Y5953984D01*
X11954467Y5951728D01*
X11955595Y5949472D01*
X11955736Y5949332D01*
X11955877Y5948909D01*
X11956299Y5948345D01*
X11956722Y5947499D01*
X11957427Y5946512D01*
X11958132Y5945525D01*
X11960106Y5942847D01*
X11962643Y5940027D01*
X11965744Y5937067D01*
X11969269Y5934248D01*
X11973357Y5931710D01*
X11973498D01*
X11973921Y5931428D01*
X11974485Y5931146D01*
X11975471Y5930723D01*
X11976458Y5930301D01*
X11977868Y5929878D01*
X11979278Y5929314D01*
X11980969Y5928750D01*
X11982802Y5928186D01*
X11984916Y5927622D01*
X11987031Y5927199D01*
X11989286Y5926776D01*
X11994220Y5926071D01*
X11999436Y5925790D01*
X12000846D01*
X12001833Y5925930D01*
X12003101D01*
X12004652Y5926071D01*
X12006203Y5926353D01*
X12008035Y5926494D01*
X12010009Y5926917D01*
X12012124Y5927199D01*
X12016635Y5928327D01*
X12021287Y5929737D01*
X12025939Y5931710D01*
X12026080Y5931851D01*
X12026502Y5931992D01*
X12027066Y5932274D01*
X12027912Y5932838D01*
X12029040Y5933402D01*
X12030168Y5934107D01*
X12032846Y5936080D01*
X12035947Y5938477D01*
X12038908Y5941437D01*
X12041868Y5944820D01*
X12043137Y5946794D01*
X12044406Y5948768D01*
X12044547Y5948909D01*
X12044688Y5949332D01*
X12044970Y5949895D01*
X12045392Y5950741D01*
X12045815Y5951869D01*
X12046379Y5953138D01*
X12046943Y5954547D01*
X12047507Y5956239D01*
X12048071Y5958072D01*
X12048494Y5960045D01*
X12049058Y5962160D01*
X12049481Y5964415D01*
X12050185Y5969349D01*
X12050467Y5971887D01*
Y5925790D01*
X12050467D01*
Y5897931D01*
X11949533D01*
Y6242073D01*
X12050467D01*
D02*
G37*
G36*
X13322070Y5829533D02*
X12977930D01*
Y5930467D01*
X13322070D01*
Y5829533D01*
D02*
G37*
G36*
X8350002Y8239532D02*
X8005861D01*
Y8340466D01*
X8350002D01*
Y8239532D01*
D02*
G37*
G36*
X7675032Y8328766D02*
X7675878D01*
X7677993Y8328484D01*
X7680530Y8328202D01*
X7683208Y8327638D01*
X7686169Y8326792D01*
X7689129Y8325806D01*
X7689270D01*
X7689552Y8325665D01*
X7689834Y8325524D01*
X7690398Y8325242D01*
X7691949Y8324537D01*
X7693640Y8323691D01*
X7695614Y8322704D01*
X7697728Y8321576D01*
X7699702Y8320308D01*
X7701394Y8318898D01*
Y8300572D01*
X7672636D01*
Y8289012D01*
X7714081D01*
Y8239532D01*
X7674327D01*
X7675173Y8239673D01*
X7676301D01*
X7678979Y8239955D01*
X7681940Y8240378D01*
X7685041Y8241083D01*
X7688424Y8241928D01*
X7691667Y8243056D01*
X7691808D01*
X7692090Y8243197D01*
X7692512Y8243338D01*
X7693076Y8243620D01*
X7694627Y8244466D01*
X7696601Y8245453D01*
X7698715Y8246862D01*
X7700971Y8248554D01*
X7703085Y8250387D01*
X7705059Y8252642D01*
X7705341Y8252924D01*
X7705905Y8253770D01*
X7706750Y8255039D01*
X7707878Y8256871D01*
X7709006Y8259127D01*
X7710275Y8261946D01*
X7711543Y8265047D01*
X7712530Y8268572D01*
X7700830Y8271673D01*
Y8271532D01*
X7700689Y8271391D01*
X7700548Y8270968D01*
X7700407Y8270404D01*
X7699984Y8269136D01*
X7699420Y8267444D01*
X7698574Y8265470D01*
X7697587Y8263638D01*
X7696601Y8261664D01*
X7695332Y8259973D01*
X7695191Y8259832D01*
X7694768Y8259268D01*
X7693922Y8258563D01*
X7692935Y8257576D01*
X7691667Y8256448D01*
X7689975Y8255321D01*
X7688142Y8254193D01*
X7686028Y8253206D01*
X7685746Y8253065D01*
X7685041Y8252783D01*
X7683772Y8252360D01*
X7682081Y8251796D01*
X7680107Y8251373D01*
X7677852Y8250950D01*
X7675314Y8250669D01*
X7672636Y8250528D01*
X7671085D01*
X7670380Y8250669D01*
X7669534D01*
X7667420Y8250810D01*
X7665023Y8251232D01*
X7662345Y8251655D01*
X7659807Y8252360D01*
X7657270Y8253347D01*
X7656988Y8253488D01*
X7656142Y8253770D01*
X7655014Y8254475D01*
X7653605Y8255180D01*
X7651913Y8256307D01*
X7650080Y8257435D01*
X7648389Y8258845D01*
X7646838Y8260395D01*
X7646697Y8260536D01*
X7646133Y8261100D01*
X7645428Y8262087D01*
X7644583Y8263215D01*
X7643596Y8264625D01*
X7642609Y8266316D01*
X7641622Y8268149D01*
X7640635Y8270122D01*
Y8270263D01*
X7640494Y8270545D01*
X7640354Y8270968D01*
X7640072Y8271673D01*
X7639790Y8272519D01*
X7639508Y8273506D01*
X7639085Y8274633D01*
X7638803Y8275902D01*
X7638098Y8278863D01*
X7637534Y8282246D01*
X7637111Y8285770D01*
X7636970Y8289717D01*
Y8289858D01*
Y8290281D01*
Y8290986D01*
X7637111Y8291832D01*
Y8292960D01*
X7637252Y8294369D01*
X7637393Y8295779D01*
X7637534Y8297330D01*
X7638098Y8300854D01*
X7638803Y8304519D01*
X7639931Y8308184D01*
X7641340Y8311709D01*
Y8311850D01*
X7641622Y8312131D01*
X7641763Y8312554D01*
X7642186Y8313118D01*
X7643173Y8314669D01*
X7644724Y8316642D01*
X7646556Y8318757D01*
X7648812Y8320872D01*
X7651490Y8322845D01*
X7654451Y8324678D01*
X7654591D01*
X7654873Y8324819D01*
X7655296Y8325101D01*
X7656001Y8325383D01*
X7656706Y8325665D01*
X7657693Y8325947D01*
X7659948Y8326792D01*
X7662768Y8327497D01*
X7665869Y8328202D01*
X7669252Y8328766D01*
X7672777Y8328907D01*
X7674186D01*
X7675032Y8328766D01*
D02*
G37*
G36*
X7714081Y8340466D02*
X7940002D01*
Y8239532D01*
X7595861D01*
Y8340466D01*
X7623719D01*
D01*
X7672213D01*
X7671226Y8340325D01*
X7669957D01*
X7668407Y8340184D01*
X7666715Y8339903D01*
X7664882Y8339762D01*
X7660794Y8338916D01*
X7656424Y8337929D01*
X7651913Y8336378D01*
X7649658Y8335532D01*
X7647402Y8334405D01*
X7647261Y8334264D01*
X7646838Y8334123D01*
X7646274Y8333700D01*
X7645428Y8333277D01*
X7644442Y8332572D01*
X7643455Y8331867D01*
X7640776Y8329894D01*
X7637957Y8327356D01*
X7634997Y8324255D01*
X7632177Y8320731D01*
X7629640Y8316642D01*
Y8316502D01*
X7629358Y8316079D01*
X7629076Y8315515D01*
X7628653Y8314528D01*
X7628230Y8313541D01*
X7627807Y8312131D01*
X7627243Y8310722D01*
X7626679Y8309030D01*
X7626116Y8307198D01*
X7625552Y8305083D01*
X7625129Y8302968D01*
X7624706Y8300713D01*
X7624001Y8295779D01*
X7623719Y8290563D01*
Y8289153D01*
X7623860Y8288167D01*
Y8286898D01*
X7624001Y8285347D01*
X7624283Y8283796D01*
X7624424Y8281964D01*
X7624847Y8279990D01*
X7625129Y8277876D01*
X7626257Y8273365D01*
X7627666Y8268713D01*
X7629640Y8264061D01*
X7629781Y8263920D01*
X7629922Y8263497D01*
X7630204Y8262933D01*
X7630768Y8262087D01*
X7631331Y8260959D01*
X7632036Y8259832D01*
X7634010Y8257153D01*
X7636406Y8254052D01*
X7639367Y8251091D01*
X7642750Y8248131D01*
X7644724Y8246862D01*
X7646697Y8245594D01*
X7646838Y8245453D01*
X7647261Y8245312D01*
X7647825Y8245030D01*
X7648671Y8244607D01*
X7649799Y8244184D01*
X7651067Y8243620D01*
X7652477Y8243056D01*
X7654169Y8242492D01*
X7656001Y8241928D01*
X7657975Y8241505D01*
X7660089Y8240942D01*
X7662345Y8240519D01*
X7667279Y8239814D01*
X7669816Y8239532D01*
X7714081D01*
Y8325242D01*
X7713940Y8325383D01*
X7713658Y8325524D01*
X7713094Y8325947D01*
X7712389Y8326510D01*
X7711543Y8327074D01*
X7710557Y8327779D01*
X7709288Y8328625D01*
X7708019Y8329471D01*
X7705059Y8331303D01*
X7701675Y8333277D01*
X7698151Y8335110D01*
X7694345Y8336660D01*
X7694204D01*
X7693922Y8336801D01*
X7693358Y8336942D01*
X7692653Y8337224D01*
X7691667Y8337506D01*
X7690539Y8337929D01*
X7689270Y8338211D01*
X7688001Y8338493D01*
X7684900Y8339198D01*
X7681376Y8339903D01*
X7677570Y8340325D01*
X7673622Y8340466D01*
X7714081D01*
D01*
D02*
G37*
G36*
X13010333Y8832088D02*
Y8908776D01*
X13061507D01*
X13010333Y8832088D01*
D02*
G37*
G36*
X13174142Y8837868D02*
Y8837727D01*
X13174001Y8837445D01*
X13173860Y8837022D01*
X13173578Y8836458D01*
X13173438Y8835612D01*
X13173155Y8834766D01*
X13172450Y8832652D01*
X13171603Y8830255D01*
X13170758Y8827577D01*
X13169067Y8821938D01*
Y8822079D01*
X13168925Y8822361D01*
X13168785Y8822784D01*
X13168645Y8823348D01*
X13168221Y8824899D01*
X13167516Y8827013D01*
X13166811Y8829410D01*
X13165965Y8832088D01*
X13164978Y8834907D01*
X13163850Y8837868D01*
X13137347Y8908776D01*
X13199516D01*
X13174142Y8837868D01*
D02*
G37*
G36*
X13304143Y8811224D02*
X13175833D01*
X13213612Y8908776D01*
X13304143D01*
Y8811224D01*
D02*
G37*
G36*
X13162440D02*
X13110423D01*
Y8908776D01*
X13124239D01*
X13162440Y8811224D01*
D02*
G37*
G36*
X13097453D02*
X13074757D01*
Y8908776D01*
X13097453D01*
Y8811224D01*
D02*
G37*
G36*
X13062352D02*
X13011320D01*
X13062352Y8887771D01*
Y8811224D01*
D02*
G37*
G36*
X12997929D02*
X12980000D01*
Y8908776D01*
X12997929D01*
Y8811224D01*
D02*
G37*
G36*
X13314142Y6989533D02*
X12970000D01*
Y7090467D01*
X13314142D01*
Y6989533D01*
D02*
G37*
G36*
X11530467Y5917929D02*
X11429533D01*
Y6262071D01*
X11530467D01*
Y5917929D01*
D02*
G37*
G36*
X13056339Y6830326D02*
X13055070Y6830185D01*
X13053520Y6830044D01*
X13051968Y6829903D01*
X13050137Y6829480D01*
X13046330Y6828635D01*
X13042101Y6827366D01*
X13039987Y6826520D01*
X13038013Y6825533D01*
X13036040Y6824264D01*
X13034065Y6822996D01*
X13033925Y6822855D01*
X13033643Y6822714D01*
X13033080Y6822291D01*
X13032375Y6821586D01*
X13031670Y6820881D01*
X13030682Y6819894D01*
X13029697Y6818767D01*
X13028568Y6817639D01*
X13027441Y6816229D01*
X13026312Y6814538D01*
X13025044Y6812846D01*
X13023917Y6811013D01*
X13022929Y6808899D01*
X13021802Y6806784D01*
X13020956Y6804529D01*
X13020110Y6801991D01*
X13032797Y6799031D01*
Y6799172D01*
X13032938Y6799454D01*
X13033220Y6800018D01*
X13033502Y6800722D01*
X13033784Y6801568D01*
X13034207Y6802696D01*
X13035335Y6804952D01*
X13036745Y6807489D01*
X13038435Y6810027D01*
X13040552Y6812423D01*
X13042805Y6814538D01*
X13043088Y6814819D01*
X13043935Y6815383D01*
X13045345Y6816088D01*
X13047176Y6817075D01*
X13049573Y6817921D01*
X13052251Y6818767D01*
X13055495Y6819331D01*
X13059018Y6819472D01*
X13060146D01*
X13060851Y6819331D01*
X13061836D01*
X13062965Y6819190D01*
X13065643Y6818767D01*
X13068604Y6818203D01*
X13071706Y6817216D01*
X13074947Y6815806D01*
X13077908Y6813974D01*
X13078049D01*
X13078191Y6813692D01*
X13079176Y6812987D01*
X13080444Y6811859D01*
X13081996Y6810167D01*
X13083829Y6808053D01*
X13085519Y6805656D01*
X13087071Y6802696D01*
X13088481Y6799454D01*
Y6799313D01*
X13088622Y6799031D01*
X13088762Y6798608D01*
X13088902Y6797903D01*
X13089185Y6797057D01*
X13089467Y6796070D01*
X13089890Y6793674D01*
X13090454Y6790855D01*
X13091019Y6787753D01*
X13091299Y6784370D01*
X13091441Y6780705D01*
Y6780564D01*
Y6780141D01*
Y6779436D01*
Y6778590D01*
X13091299Y6777603D01*
Y6776335D01*
X13091159Y6774925D01*
X13091019Y6773374D01*
X13090594Y6769991D01*
X13089890Y6766326D01*
X13089044Y6762661D01*
X13087917Y6758995D01*
Y6758854D01*
X13087776Y6758572D01*
X13087494Y6758150D01*
X13087212Y6757445D01*
X13086366Y6755753D01*
X13085097Y6753779D01*
X13083546Y6751524D01*
X13081573Y6749127D01*
X13079318Y6747013D01*
X13076639Y6745039D01*
X13076498D01*
X13076216Y6744898D01*
X13075793Y6744616D01*
X13075229Y6744334D01*
X13074525Y6744053D01*
X13073679Y6743630D01*
X13071706Y6742784D01*
X13069168Y6741938D01*
X13066348Y6741233D01*
X13063248Y6740669D01*
X13060005Y6740528D01*
X13059018D01*
X13058173Y6740669D01*
X13057185D01*
X13056198Y6740810D01*
X13053661Y6741374D01*
X13050700Y6742079D01*
X13047740Y6743207D01*
X13044640Y6744757D01*
X13043088Y6745603D01*
X13041679Y6746731D01*
X13041537Y6746872D01*
X13041397Y6747013D01*
X13040974Y6747436D01*
X13040410Y6747859D01*
X13039845Y6748564D01*
X13039140Y6749409D01*
X13038295Y6750255D01*
X13037590Y6751383D01*
X13036745Y6752652D01*
X13035757Y6754061D01*
X13034912Y6755471D01*
X13034065Y6757163D01*
X13033360Y6758995D01*
X13032655Y6760969D01*
X13031952Y6763084D01*
X13031387Y6765339D01*
X13018417Y6762097D01*
Y6761956D01*
X13018559Y6761392D01*
X13018842Y6760546D01*
X13019264Y6759418D01*
X13019687Y6758150D01*
X13020251Y6756599D01*
X13020956Y6754907D01*
X13021802Y6753075D01*
X13023775Y6749127D01*
X13026312Y6745180D01*
X13027863Y6743207D01*
X13029414Y6741233D01*
X13031107Y6739542D01*
X13033080Y6737850D01*
X13033220Y6737709D01*
X13033502Y6737427D01*
X13034207Y6737145D01*
X13034912Y6736581D01*
X13036040Y6735876D01*
X13037167Y6735171D01*
X13038718Y6734467D01*
X13040269Y6733762D01*
X13042101Y6732916D01*
X13044075Y6732211D01*
X13046190Y6731506D01*
X13048445Y6730801D01*
X13050842Y6730237D01*
X13053378Y6729956D01*
X13056058Y6729674D01*
X13058878Y6729533D01*
X12860001D01*
Y6830467D01*
X13057326D01*
X13056339Y6830326D01*
D02*
G37*
G36*
X13314142Y6729533D02*
X13060428D01*
X13061555Y6729674D01*
X13062823D01*
X13064375Y6729815D01*
X13066066Y6730097D01*
X13068040Y6730378D01*
X13072128Y6731083D01*
X13076357Y6732211D01*
X13080586Y6733762D01*
X13082561Y6734749D01*
X13084534Y6735876D01*
X13084674Y6736017D01*
X13084956Y6736158D01*
X13085519Y6736581D01*
X13086084Y6737145D01*
X13086929Y6737709D01*
X13087917Y6738555D01*
X13089044Y6739542D01*
X13090172Y6740669D01*
X13091299Y6741938D01*
X13092569Y6743207D01*
X13095107Y6746449D01*
X13097504Y6750255D01*
X13099617Y6754484D01*
Y6754625D01*
X13099899Y6755048D01*
X13100040Y6755753D01*
X13100462Y6756599D01*
X13100745Y6757727D01*
X13101167Y6759136D01*
X13101732Y6760687D01*
X13102155Y6762379D01*
X13102579Y6764211D01*
X13103140Y6766326D01*
X13103847Y6770696D01*
X13104410Y6775630D01*
X13104692Y6780705D01*
Y6782255D01*
X13104552Y6783242D01*
Y6784652D01*
X13104410Y6786062D01*
X13104269Y6787894D01*
X13103987Y6789727D01*
X13103282Y6793815D01*
X13102296Y6798326D01*
X13100887Y6802837D01*
X13098912Y6807207D01*
X13098772Y6807348D01*
X13098630Y6807771D01*
X13098347Y6808335D01*
X13097784Y6809040D01*
X13097221Y6810027D01*
X13096516Y6811154D01*
X13094682Y6813692D01*
X13092287Y6816511D01*
X13089467Y6819331D01*
X13086224Y6822150D01*
X13082419Y6824546D01*
X13082278Y6824687D01*
X13081854Y6824828D01*
X13081291Y6825110D01*
X13080586Y6825533D01*
X13079459Y6825956D01*
X13078331Y6826379D01*
X13076921Y6826943D01*
X13075369Y6827507D01*
X13073679Y6828071D01*
X13071846Y6828635D01*
X13067899Y6829480D01*
X13063388Y6830185D01*
X13058736Y6830467D01*
X13314142D01*
Y6729533D01*
D02*
G37*
G36*
X12579674Y6201954D02*
Y6200685D01*
X12579815Y6199134D01*
X12580097Y6197443D01*
X12580379Y6195469D01*
X12581084Y6191381D01*
X12582212Y6187152D01*
X12583762Y6182923D01*
X12584749Y6180949D01*
X12585877Y6178975D01*
X12586018Y6178834D01*
X12586159Y6178553D01*
X12586582Y6177989D01*
X12587146Y6177425D01*
X12587709Y6176579D01*
X12588555Y6175592D01*
X12589542Y6174464D01*
X12590670Y6173337D01*
X12591938Y6172209D01*
X12593207Y6170940D01*
X12596450Y6168403D01*
X12600256Y6166006D01*
X12604485Y6163892D01*
X12604626D01*
X12605049Y6163610D01*
X12605754Y6163469D01*
X12606599Y6163046D01*
X12607727Y6162764D01*
X12609137Y6162341D01*
X12610688Y6161777D01*
X12612379Y6161354D01*
X12614212Y6160931D01*
X12616326Y6160367D01*
X12620696Y6159663D01*
X12625630Y6159099D01*
X12630705Y6158817D01*
X12579533D01*
Y6203081D01*
X12579674Y6201954D01*
D02*
G37*
G36*
X12680468Y5885860D02*
X12579533D01*
Y6158817D01*
X12680468D01*
X12632256D01*
X12633243Y6158958D01*
X12634652D01*
X12636062Y6159099D01*
X12637895Y6159240D01*
X12639727Y6159522D01*
X12643815Y6160226D01*
X12648326Y6161213D01*
X12652838Y6162623D01*
X12657208Y6164597D01*
X12657349Y6164737D01*
X12657771Y6164878D01*
X12658335Y6165160D01*
X12659040Y6165724D01*
X12660027Y6166288D01*
X12661155Y6166993D01*
X12663692Y6168826D01*
X12666512Y6171222D01*
X12669331Y6174042D01*
X12672150Y6177284D01*
X12674547Y6181090D01*
X12674688Y6181231D01*
X12674829Y6181654D01*
X12675111Y6182218D01*
X12675534Y6182923D01*
X12675957Y6184050D01*
X12676380Y6185178D01*
X12676943Y6186588D01*
X12677507Y6188138D01*
X12678071Y6189830D01*
X12678635Y6191663D01*
X12679481Y6195610D01*
X12680186Y6200121D01*
X12680468Y6204773D01*
Y6206183D01*
X12680327Y6207169D01*
X12680186Y6208438D01*
X12680045Y6209989D01*
X12679904Y6211540D01*
X12679481Y6213372D01*
X12678635Y6217178D01*
X12677366Y6221407D01*
X12676520Y6223522D01*
X12675534Y6225496D01*
X12674265Y6227469D01*
X12672996Y6229443D01*
X12672855Y6229584D01*
X12672714Y6229866D01*
X12672291Y6230429D01*
X12671587Y6231134D01*
X12670882Y6231839D01*
X12669895Y6232826D01*
X12668767Y6233813D01*
X12667639Y6234941D01*
X12666230Y6236068D01*
X12664538Y6237196D01*
X12662846Y6238465D01*
X12661014Y6239593D01*
X12658899Y6240579D01*
X12656785Y6241707D01*
X12654529Y6242553D01*
X12651992Y6243399D01*
X12649031Y6230711D01*
X12649172D01*
X12649454Y6230570D01*
X12650018Y6230289D01*
X12650723Y6230007D01*
X12651569Y6229725D01*
X12652697Y6229302D01*
X12654952Y6228174D01*
X12657490Y6226764D01*
X12660027Y6225073D01*
X12662423Y6222958D01*
X12664538Y6220703D01*
X12664820Y6220421D01*
X12665384Y6219575D01*
X12666089Y6218165D01*
X12667076Y6216333D01*
X12667921Y6213936D01*
X12668767Y6211258D01*
X12669331Y6208015D01*
X12669472Y6204491D01*
Y6203363D01*
X12669331Y6202658D01*
Y6201672D01*
X12669190Y6200544D01*
X12668767Y6197865D01*
X12668203Y6194905D01*
X12667216Y6191804D01*
X12665807Y6188561D01*
X12663974Y6185601D01*
Y6185460D01*
X12663692Y6185319D01*
X12662987Y6184332D01*
X12661860Y6183064D01*
X12660168Y6181513D01*
X12658053Y6179680D01*
X12655657Y6177989D01*
X12652697Y6176438D01*
X12649454Y6175028D01*
X12649313D01*
X12649031Y6174887D01*
X12648608Y6174746D01*
X12647904Y6174605D01*
X12647058Y6174323D01*
X12646071Y6174042D01*
X12643674Y6173619D01*
X12640855Y6173055D01*
X12637754Y6172491D01*
X12634370Y6172209D01*
X12630705Y6172068D01*
X12630564D01*
X12630141D01*
X12629437D01*
X12628591D01*
X12627604Y6172209D01*
X12626335D01*
X12624925Y6172350D01*
X12623375Y6172491D01*
X12619992Y6172914D01*
X12616326Y6173619D01*
X12612661Y6174464D01*
X12608996Y6175592D01*
X12608855D01*
X12608573Y6175733D01*
X12608150Y6176015D01*
X12607445Y6176297D01*
X12605754Y6177143D01*
X12603780Y6178412D01*
X12601524Y6179962D01*
X12599128Y6181936D01*
X12597013Y6184191D01*
X12595040Y6186870D01*
Y6187011D01*
X12594899Y6187293D01*
X12594617Y6187716D01*
X12594335Y6188279D01*
X12594053Y6188984D01*
X12593630Y6189830D01*
X12592784Y6191804D01*
X12591938Y6194341D01*
X12591234Y6197161D01*
X12590670Y6200262D01*
X12590529Y6203504D01*
Y6204491D01*
X12590670Y6205337D01*
Y6206324D01*
X12590811Y6207310D01*
X12591375Y6209848D01*
X12592079Y6212808D01*
X12593207Y6215769D01*
X12594758Y6218870D01*
X12595604Y6220421D01*
X12596731Y6221830D01*
X12596872Y6221971D01*
X12597013Y6222112D01*
X12597436Y6222535D01*
X12597859Y6223099D01*
X12598564Y6223663D01*
X12599410Y6224368D01*
X12600256Y6225214D01*
X12601383Y6225918D01*
X12602652Y6226764D01*
X12604062Y6227751D01*
X12605472Y6228597D01*
X12607163Y6229443D01*
X12608996Y6230148D01*
X12610969Y6230852D01*
X12613084Y6231557D01*
X12615340Y6232121D01*
X12612097Y6245090D01*
X12586404D01*
X12611956D01*
X12611392Y6244949D01*
X12610547Y6244667D01*
X12609419Y6244245D01*
X12608150Y6243822D01*
X12606599Y6243258D01*
X12604908Y6242553D01*
X12603075Y6241707D01*
X12599128Y6239734D01*
X12595181Y6237196D01*
X12593207Y6235645D01*
X12591234Y6234095D01*
X12589542Y6232403D01*
X12587850Y6230429D01*
X12587709Y6230289D01*
X12587427Y6230007D01*
X12587146Y6229302D01*
X12586582Y6228597D01*
X12585877Y6227469D01*
X12585172Y6226341D01*
X12584467Y6224791D01*
X12583762Y6223240D01*
X12582916Y6221407D01*
X12582212Y6219434D01*
X12581507Y6217319D01*
X12580802Y6215064D01*
X12580238Y6212667D01*
X12579956Y6210130D01*
X12579674Y6207451D01*
X12579533Y6204632D01*
Y6245090D01*
D01*
Y6340002D01*
X12680468D01*
Y5885860D01*
D02*
G37*
G36*
X13314842Y7625000D02*
X12205158D01*
Y7775000D01*
X13314842D01*
Y7625000D01*
D02*
G37*
G36*
X13020334Y8582088D02*
Y8658776D01*
X13071506D01*
X13020334Y8582088D01*
D02*
G37*
G36*
X13184142Y8587868D02*
Y8587727D01*
X13184001Y8587445D01*
X13183859Y8587022D01*
X13183578Y8586458D01*
X13183437Y8585612D01*
X13183154Y8584766D01*
X13182449Y8582652D01*
X13181604Y8580255D01*
X13180759Y8577577D01*
X13179066Y8571938D01*
Y8572079D01*
X13178926Y8572361D01*
X13178786Y8572784D01*
X13178644Y8573348D01*
X13178221Y8574899D01*
X13177516Y8577013D01*
X13176811Y8579410D01*
X13175964Y8582088D01*
X13174979Y8584907D01*
X13173851Y8587868D01*
X13147348Y8658776D01*
X13209515D01*
X13184142Y8587868D01*
D02*
G37*
G36*
X13324142Y8561224D02*
X13185834D01*
X13223613Y8658776D01*
X13324142D01*
Y8561224D01*
D02*
G37*
G36*
X13172441D02*
X13120422D01*
Y8658776D01*
X13134238D01*
X13172441Y8561224D01*
D02*
G37*
G36*
X13107454D02*
X13084758D01*
Y8658776D01*
X13107454D01*
Y8561224D01*
D02*
G37*
G36*
X13072353D02*
X13021321D01*
X13072353Y8637771D01*
Y8561224D01*
D02*
G37*
G36*
X13007928D02*
X12980000D01*
Y8658776D01*
X13007928D01*
Y8561224D01*
D02*
G37*
G36*
X8102073Y8789533D02*
X7757931D01*
Y8890467D01*
X8102073D01*
Y8789533D01*
D02*
G37*
%LPC*%
G36*
X11798775Y6235428D02*
X11701224D01*
Y6216115D01*
X11770441Y6192996D01*
X11770581D01*
X11770863Y6192855D01*
X11771286Y6192714D01*
X11771991Y6192432D01*
X11773683Y6191868D01*
X11775797Y6191163D01*
X11778194Y6190459D01*
X11780590Y6189613D01*
X11782846Y6188908D01*
X11784819Y6188344D01*
X11784538Y6188203D01*
X11783833Y6188062D01*
X11782564Y6187639D01*
X11780872Y6187075D01*
X11778617Y6186370D01*
X11775938Y6185384D01*
X11772837Y6184397D01*
X11769172Y6183128D01*
X11701224Y6159727D01*
Y6142388D01*
X11798775D01*
Y6235428D01*
D02*
G37*
G36*
Y6121383D02*
X11701224D01*
Y6083885D01*
X11701365Y6081348D01*
X11701506Y6078528D01*
X11701788Y6075709D01*
X11702211Y6072890D01*
X11702634Y6070493D01*
Y6070352D01*
X11702775Y6070070D01*
Y6069647D01*
X11703057Y6069083D01*
X11703480Y6067533D01*
X11704185Y6065559D01*
X11705171Y6063304D01*
X11706440Y6060907D01*
X11707850Y6058511D01*
X11709682Y6056255D01*
X11709823Y6056114D01*
X11709964Y6055973D01*
X11710387Y6055550D01*
X11710810Y6054986D01*
X11712220Y6053577D01*
X11714193Y6051885D01*
X11716590Y6050052D01*
X11719409Y6048079D01*
X11722652Y6046246D01*
X11726317Y6044696D01*
X11726458D01*
X11726740Y6044555D01*
X11727304Y6044273D01*
X11728150Y6044132D01*
X11729136Y6043709D01*
X11730264Y6043427D01*
X11731533Y6043145D01*
X11733083Y6042722D01*
X11734634Y6042299D01*
X11736467Y6042017D01*
X11740414Y6041312D01*
X11744784Y6040889D01*
X11749577Y6040748D01*
X11751410D01*
X11752396Y6040889D01*
X11753524D01*
X11756203Y6041030D01*
X11759304Y6041453D01*
X11762546Y6041876D01*
X11765929Y6042581D01*
X11769313Y6043427D01*
X11769454D01*
X11769736Y6043568D01*
X11770159Y6043709D01*
X11770722Y6043850D01*
X11772273Y6044414D01*
X11774247Y6045259D01*
X11776502Y6046105D01*
X11778758Y6047233D01*
X11781154Y6048643D01*
X11783410Y6050052D01*
X11783692Y6050193D01*
X11784397Y6050757D01*
X11785383Y6051603D01*
X11786652Y6052731D01*
X11788062Y6054000D01*
X11789471Y6055550D01*
X11791022Y6057101D01*
X11792291Y6058934D01*
X11792432Y6059215D01*
X11792855Y6059779D01*
X11793419Y6060766D01*
X11794123Y6062176D01*
X11794969Y6063867D01*
X11795674Y6065841D01*
X11796520Y6068097D01*
X11797225Y6070634D01*
Y6070916D01*
X11797366Y6071339D01*
X11797507Y6071762D01*
X11797648Y6073171D01*
X11797930Y6075145D01*
X11798212Y6077401D01*
X11798494Y6080079D01*
X11798635Y6083039D01*
X11798775Y6086282D01*
Y6040748D01*
D01*
Y6121383D01*
D02*
G37*
G36*
Y5995779D02*
X11701224D01*
Y5944466D01*
X11798775Y5904571D01*
D01*
Y5995779D01*
D02*
G37*
%LPD*%
G36*
Y6194829D02*
X11715744Y6223023D01*
X11798775D01*
Y6194829D01*
D02*
G37*
G36*
Y6154793D02*
X11717154D01*
X11798775Y6183269D01*
Y6154793D01*
D02*
G37*
G36*
X11787216Y6085295D02*
X11787075Y6084308D01*
X11786934Y6082194D01*
X11786793Y6079797D01*
X11786511Y6077260D01*
X11786088Y6074722D01*
X11785524Y6072608D01*
X11785383Y6072326D01*
X11785242Y6071621D01*
X11784819Y6070634D01*
X11784256Y6069365D01*
X11783410Y6067956D01*
X11782564Y6066546D01*
X11781577Y6065136D01*
X11780449Y6063727D01*
X11780167Y6063586D01*
X11779604Y6063022D01*
X11778617Y6062176D01*
X11777207Y6061189D01*
X11775374Y6060061D01*
X11773260Y6058793D01*
X11770863Y6057665D01*
X11768185Y6056678D01*
X11768044D01*
X11767762Y6056537D01*
X11767339Y6056396D01*
X11766775Y6056255D01*
X11766070Y6056114D01*
X11765084Y6055832D01*
X11764097Y6055550D01*
X11762969Y6055268D01*
X11760150Y6054845D01*
X11756907Y6054422D01*
X11753242Y6054141D01*
X11749295Y6054000D01*
X11749154D01*
X11748590D01*
X11747885D01*
X11746758Y6054141D01*
X11745489D01*
X11744079Y6054282D01*
X11742387Y6054422D01*
X11740696Y6054563D01*
X11736890Y6055268D01*
X11732942Y6056114D01*
X11729277Y6057383D01*
X11727445Y6058229D01*
X11725894Y6059074D01*
X11725753D01*
X11725471Y6059356D01*
X11725048Y6059638D01*
X11724484Y6059920D01*
X11723075Y6061048D01*
X11721383Y6062458D01*
X11719550Y6064290D01*
X11717718Y6066405D01*
X11716167Y6068801D01*
X11714898Y6071339D01*
X11714757Y6071621D01*
X11714616Y6072326D01*
X11714193Y6073594D01*
X11713771Y6075427D01*
X11713489Y6077683D01*
X11713066Y6080502D01*
X11712925Y6082194D01*
Y6084026D01*
X11712784Y6085859D01*
Y6108414D01*
X11787216D01*
Y6085295D01*
D02*
G37*
G36*
X11701224Y5958563D02*
Y5995779D01*
X11798775D01*
X11701224Y5958563D01*
D02*
G37*
G36*
X11758599Y5934739D02*
X11731815Y5944889D01*
X11731674D01*
X11731251Y5945030D01*
X11730546Y5945312D01*
X11729700Y5945594D01*
X11728713Y5946017D01*
X11727445Y5946439D01*
X11726035Y5946862D01*
X11724625Y5947426D01*
X11721383Y5948554D01*
X11718000Y5949682D01*
X11714616Y5950810D01*
X11711374Y5951796D01*
X11711515D01*
X11711797Y5951937D01*
X11712361D01*
X11712925Y5952219D01*
X11713912Y5952360D01*
X11714898Y5952642D01*
X11717295Y5953206D01*
X11720114Y5953911D01*
X11723216Y5954898D01*
X11726599Y5955884D01*
X11730123Y5957153D01*
X11758599Y5967726D01*
Y5934739D01*
D02*
G37*
G36*
X11798775Y5919232D02*
X11769172Y5930651D01*
Y5971532D01*
X11798775Y5982105D01*
Y5919232D01*
D02*
G37*
%LPC*%
G36*
X8496742Y8888777D02*
X8480813D01*
X8456143Y8854098D01*
X8456002Y8853957D01*
X8455720Y8853534D01*
X8455438Y8852971D01*
X8454874Y8852266D01*
X8453606Y8850292D01*
X8452196Y8848178D01*
X8452055Y8848319D01*
X8451632Y8848882D01*
X8451068Y8849728D01*
X8450363Y8850856D01*
X8448813Y8853112D01*
X8448108Y8854098D01*
X8447544Y8854944D01*
X8422874Y8888777D01*
X8471305D01*
X8407367D01*
D01*
X8445006Y8838310D01*
X8411738Y8791226D01*
X8427103D01*
X8444866Y8816318D01*
Y8816459D01*
X8445147Y8816600D01*
X8445429Y8817023D01*
X8445852Y8817587D01*
X8446698Y8818997D01*
X8447967Y8820688D01*
X8449236Y8822662D01*
X8450504Y8824636D01*
X8451632Y8826468D01*
X8452619Y8828160D01*
X8452760Y8827878D01*
X8453183Y8827314D01*
X8453888Y8826186D01*
X8454874Y8824777D01*
X8456002Y8823226D01*
X8457412Y8821252D01*
X8458822Y8819279D01*
X8460513Y8817164D01*
X8479967Y8791226D01*
X8457856D01*
X8494064D01*
X8460231Y8837746D01*
X8496742Y8888777D01*
D02*
G37*
G36*
D02*
D01*
Y8791226D01*
D01*
Y8888777D01*
D02*
G37*
G36*
X8404830D02*
D01*
Y8791226D01*
X8364372D01*
X8365499Y8791367D01*
X8366768D01*
X8369728Y8791508D01*
X8372830Y8791931D01*
X8376213Y8792354D01*
X8379314Y8793058D01*
X8380865Y8793481D01*
X8382134Y8793904D01*
X8382275D01*
X8382416Y8794045D01*
X8383262Y8794468D01*
X8384530Y8795032D01*
X8386081Y8796019D01*
X8387773Y8797287D01*
X8389605Y8798979D01*
X8391297Y8800953D01*
X8392989Y8803208D01*
Y8803349D01*
X8393130Y8803490D01*
X8393693Y8804336D01*
X8394257Y8805746D01*
X8395103Y8807578D01*
X8395808Y8809693D01*
X8396513Y8812230D01*
X8396936Y8814909D01*
X8397077Y8817869D01*
Y8818010D01*
Y8818292D01*
Y8818856D01*
X8396936Y8819561D01*
Y8820548D01*
X8396795Y8821534D01*
X8396231Y8823931D01*
X8395385Y8826750D01*
X8394257Y8829711D01*
X8392566Y8832671D01*
X8391438Y8834081D01*
X8390310Y8835490D01*
X8390169Y8835631D01*
X8390028Y8835772D01*
X8389605Y8836195D01*
X8389041Y8836618D01*
X8388337Y8837182D01*
X8387491Y8837746D01*
X8386363Y8838451D01*
X8385235Y8839297D01*
X8383825Y8840001D01*
X8382275Y8840706D01*
X8380583Y8841552D01*
X8378751Y8842257D01*
X8376636Y8842821D01*
X8374521Y8843526D01*
X8372125Y8843949D01*
X8369588Y8844371D01*
X8369869Y8844512D01*
X8370433Y8844794D01*
X8371279Y8845358D01*
X8372407Y8845922D01*
X8374944Y8847473D01*
X8376213Y8848460D01*
X8377341Y8849305D01*
X8377623Y8849587D01*
X8378328Y8850292D01*
X8379455Y8851420D01*
X8380865Y8852830D01*
X8382416Y8854803D01*
X8384248Y8856918D01*
X8386081Y8859455D01*
X8388055Y8862275D01*
X8404830Y8888777D01*
X8388759D01*
X8375931Y8868477D01*
Y8868336D01*
X8375649Y8868054D01*
X8375367Y8867631D01*
X8374944Y8867068D01*
X8373958Y8865517D01*
X8372689Y8863543D01*
X8371138Y8861429D01*
X8369588Y8859173D01*
X8368037Y8857059D01*
X8366627Y8855085D01*
X8366486Y8854944D01*
X8366063Y8854380D01*
X8365358Y8853534D01*
X8364372Y8852548D01*
X8362257Y8850433D01*
X8361129Y8849446D01*
X8360002Y8848601D01*
X8359861Y8848460D01*
X8359579Y8848319D01*
X8359015Y8848037D01*
X8358169Y8847614D01*
X8357323Y8847191D01*
X8356336Y8846768D01*
X8354081Y8846063D01*
X8353940D01*
X8353658Y8845922D01*
X8353094D01*
X8352389Y8845781D01*
X8351402Y8845640D01*
X8350275D01*
X8348724Y8845499D01*
X8332090D01*
Y8888777D01*
X8319120D01*
Y8791226D01*
X8404830D01*
Y8888777D01*
D02*
G37*
%LPD*%
G36*
X8362821Y8834222D02*
X8364795Y8834081D01*
X8367050Y8833940D01*
X8369306Y8833658D01*
X8371561Y8833235D01*
X8373535Y8832671D01*
X8373817Y8832530D01*
X8374381Y8832248D01*
X8375226Y8831825D01*
X8376354Y8831261D01*
X8377623Y8830415D01*
X8378892Y8829429D01*
X8380160Y8828160D01*
X8381147Y8826750D01*
X8381288Y8826609D01*
X8381570Y8826045D01*
X8381993Y8825200D01*
X8382557Y8824072D01*
X8382980Y8822803D01*
X8383403Y8821393D01*
X8383685Y8819702D01*
X8383825Y8818010D01*
Y8817869D01*
Y8817728D01*
X8383685Y8816882D01*
X8383544Y8815614D01*
X8383262Y8813922D01*
X8382557Y8812230D01*
X8381711Y8810257D01*
X8380442Y8808424D01*
X8378751Y8806591D01*
X8378469Y8806451D01*
X8377764Y8805887D01*
X8376636Y8805182D01*
X8374803Y8804336D01*
X8372689Y8803490D01*
X8369869Y8802785D01*
X8366627Y8802221D01*
X8362821Y8802080D01*
X8332090D01*
Y8834363D01*
X8361129D01*
X8362821Y8834222D01*
D02*
G37*
%LPC*%
G36*
X12971468Y6568776D02*
X12933122D01*
X12932137Y6568635D01*
X12931007D01*
X12928471Y6568353D01*
X12925652Y6568071D01*
X12922691Y6567507D01*
X12919731Y6566802D01*
X12917052Y6565815D01*
X12916911D01*
X12916769Y6565674D01*
X12915924Y6565251D01*
X12914656Y6564546D01*
X12913246Y6563560D01*
X12911554Y6562291D01*
X12909721Y6560740D01*
X12908031Y6558767D01*
X12906479Y6556652D01*
X12906339Y6556370D01*
X12905916Y6555524D01*
X12905211Y6554397D01*
X12904506Y6552705D01*
X12903801Y6550731D01*
X12903096Y6548617D01*
X12902673Y6546220D01*
X12902531Y6543824D01*
Y6543542D01*
Y6542837D01*
X12902673Y6541568D01*
X12902956Y6540018D01*
X12903378Y6538185D01*
X12904083Y6536211D01*
X12904929Y6534238D01*
X12906056Y6532123D01*
X12906197Y6531841D01*
X12906619Y6531278D01*
X12907466Y6530150D01*
X12908594Y6529022D01*
X12910004Y6527612D01*
X12911694Y6526062D01*
X12913811Y6524652D01*
X12916206Y6523242D01*
X12916064D01*
X12915784Y6523101D01*
X12915361Y6522960D01*
X12914796Y6522678D01*
X12913104Y6522114D01*
X12911131Y6521128D01*
X12909016Y6519859D01*
X12906619Y6518308D01*
X12904506Y6516476D01*
X12902531Y6514220D01*
X12902391Y6513938D01*
X12901826Y6513092D01*
X12900983Y6511824D01*
X12900136Y6510132D01*
X12899290Y6507876D01*
X12898444Y6505480D01*
X12897881Y6502661D01*
X12897739Y6499559D01*
Y6498432D01*
X12897881Y6497022D01*
X12898161Y6495330D01*
X12898444Y6493357D01*
X12899008Y6491242D01*
X12899713Y6488987D01*
X12900700Y6486731D01*
X12900841Y6486449D01*
X12901263Y6485744D01*
X12901826Y6484757D01*
X12902673Y6483348D01*
X12903801Y6481938D01*
X12904929Y6480387D01*
X12906339Y6478837D01*
X12907889Y6477568D01*
X12908031Y6477427D01*
X12908594Y6477004D01*
X12909581Y6476440D01*
X12910849Y6475876D01*
X12912399Y6475030D01*
X12914233Y6474185D01*
X12916206Y6473480D01*
X12918604Y6472775D01*
X12918884D01*
X12919731Y6472493D01*
X12921140Y6472352D01*
X12922974Y6472070D01*
X12925227Y6471788D01*
X12927907Y6471506D01*
X12930867Y6471365D01*
X12934250Y6471224D01*
X12971468D01*
Y6568776D01*
D02*
G37*
%LPD*%
G36*
X12958498Y6527894D02*
X12934532D01*
X12932700Y6528035D01*
X12930727Y6528176D01*
X12928754Y6528317D01*
X12926779Y6528599D01*
X12925227Y6528881D01*
X12924947Y6529022D01*
X12924384Y6529163D01*
X12923537Y6529586D01*
X12922409Y6530150D01*
X12921281Y6530714D01*
X12920013Y6531559D01*
X12918744Y6532687D01*
X12917757Y6533815D01*
X12917616Y6533956D01*
X12917334Y6534379D01*
X12916911Y6535225D01*
X12916489Y6536211D01*
X12916064Y6537339D01*
X12915642Y6538749D01*
X12915361Y6540441D01*
X12915221Y6542273D01*
Y6542555D01*
Y6543119D01*
X12915361Y6543965D01*
X12915501Y6545093D01*
X12915784Y6546502D01*
X12916206Y6547912D01*
X12916769Y6549322D01*
X12917616Y6550731D01*
X12917757Y6550872D01*
X12918039Y6551295D01*
X12918604Y6552000D01*
X12919308Y6552705D01*
X12920294Y6553551D01*
X12921422Y6554397D01*
X12922832Y6555242D01*
X12924384Y6555806D01*
X12924524D01*
X12925227Y6556088D01*
X12926215Y6556229D01*
X12927766Y6556511D01*
X12929880Y6556793D01*
X12932277Y6556934D01*
X12935378Y6557216D01*
X12958498D01*
Y6527894D01*
D02*
G37*
G36*
Y6482784D02*
X12930727D01*
X12927766Y6482925D01*
X12926497Y6483066D01*
X12925369Y6483207D01*
X12925227D01*
X12924664Y6483348D01*
X12923819Y6483489D01*
X12922832Y6483771D01*
X12920435Y6484616D01*
X12918039Y6485744D01*
X12917899Y6485885D01*
X12917474Y6486167D01*
X12916911Y6486590D01*
X12916206Y6487154D01*
X12915501Y6488000D01*
X12914516Y6488846D01*
X12913811Y6489973D01*
X12912964Y6491242D01*
X12912823Y6491383D01*
X12912682Y6491806D01*
X12912399Y6492652D01*
X12911977Y6493639D01*
X12911554Y6494766D01*
X12911272Y6496176D01*
X12911131Y6497868D01*
X12910989Y6499559D01*
Y6499841D01*
Y6500405D01*
X12911131Y6501533D01*
X12911414Y6502802D01*
X12911694Y6504211D01*
X12912259Y6505762D01*
X12912964Y6507313D01*
X12913951Y6508863D01*
X12914091Y6509004D01*
X12914516Y6509568D01*
X12915079Y6510273D01*
X12915924Y6511119D01*
X12917052Y6512106D01*
X12918462Y6513092D01*
X12920013Y6513938D01*
X12921844Y6514643D01*
X12922127Y6514784D01*
X12922691Y6514925D01*
X12923959Y6515207D01*
X12925510Y6515489D01*
X12927484Y6515771D01*
X12929880Y6516053D01*
X12932841Y6516335D01*
X12958498D01*
Y6482784D01*
D02*
G37*
%LPC*%
G36*
X13205759Y6568776D02*
X13192508D01*
X13141335Y6492088D01*
Y6568776D01*
X13128931D01*
Y6471224D01*
X13142322D01*
X13193353Y6547771D01*
Y6471224D01*
X13205759D01*
Y6568776D01*
D02*
G37*
G36*
X13296402D02*
X13225777D01*
Y6557216D01*
X13283434D01*
Y6527471D01*
X13229442D01*
Y6515912D01*
X13283434D01*
Y6482784D01*
X13223521D01*
Y6471224D01*
X13296402D01*
Y6568776D01*
D02*
G37*
G36*
X13187032Y7988776D02*
X13173779D01*
X13122607Y7912088D01*
Y7988776D01*
X13110204D01*
Y7891225D01*
X13123595D01*
X13174626Y7967771D01*
Y7891225D01*
X13187032D01*
Y7988776D01*
D02*
G37*
G36*
X13088493D02*
X13050995D01*
X13048457Y7988635D01*
X13045639Y7988494D01*
X13042819Y7988212D01*
X13039999Y7987789D01*
X13037604Y7987366D01*
X13037462D01*
X13037180Y7987225D01*
X13036758D01*
X13036194Y7986943D01*
X13034644Y7986520D01*
X13032669Y7985815D01*
X13030414Y7984829D01*
X13028017Y7983560D01*
X13025621Y7982150D01*
X13023364Y7980318D01*
X13023224Y7980177D01*
X13023083Y7980036D01*
X13022661Y7979613D01*
X13022096Y7979190D01*
X13020686Y7977780D01*
X13018996Y7975807D01*
X13017163Y7973410D01*
X13015189Y7970591D01*
X13013356Y7967348D01*
X13011806Y7963683D01*
Y7963542D01*
X13011665Y7963260D01*
X13011383Y7962696D01*
X13011243Y7961850D01*
X13010818Y7960864D01*
X13010538Y7959736D01*
X13010255Y7958467D01*
X13009831Y7956917D01*
X13009409Y7955366D01*
X13009126Y7953533D01*
X13008423Y7949586D01*
X13008000Y7945216D01*
X13007858Y7940423D01*
Y7938590D01*
X13008000Y7937604D01*
Y7936476D01*
X13008141Y7933797D01*
X13008565Y7930696D01*
X13008986Y7927454D01*
X13009691Y7924071D01*
X13010538Y7920687D01*
Y7920546D01*
X13010678Y7920264D01*
X13010818Y7919841D01*
X13010960Y7919278D01*
X13011523Y7917727D01*
X13012370Y7915753D01*
X13013216Y7913498D01*
X13014343Y7911242D01*
X13015753Y7908846D01*
X13017163Y7906590D01*
X13017303Y7906308D01*
X13017868Y7905603D01*
X13018713Y7904617D01*
X13019841Y7903348D01*
X13021111Y7901938D01*
X13022661Y7900529D01*
X13024211Y7898978D01*
X13026044Y7897709D01*
X13026326Y7897568D01*
X13026891Y7897145D01*
X13027876Y7896581D01*
X13029286Y7895877D01*
X13030978Y7895031D01*
X13032951Y7894326D01*
X13035207Y7893480D01*
X13037744Y7892775D01*
X13038026D01*
X13038449Y7892634D01*
X13038872Y7892493D01*
X13040282Y7892352D01*
X13042255Y7892070D01*
X13044511Y7891788D01*
X13047189Y7891506D01*
X13050150Y7891365D01*
X13053392Y7891225D01*
X13088493D01*
Y7988776D01*
D02*
G37*
%LPD*%
G36*
X13075523Y7902784D02*
X13052405D01*
X13051418Y7902925D01*
X13049304Y7903066D01*
X13046907Y7903207D01*
X13044370Y7903489D01*
X13041832Y7903912D01*
X13039719Y7904476D01*
X13039436Y7904617D01*
X13038731Y7904758D01*
X13037744Y7905181D01*
X13036476Y7905744D01*
X13035066Y7906590D01*
X13033656Y7907436D01*
X13032246Y7908423D01*
X13030836Y7909551D01*
X13030696Y7909833D01*
X13030132Y7910396D01*
X13029286Y7911383D01*
X13028299Y7912793D01*
X13027171Y7914626D01*
X13025903Y7916740D01*
X13024776Y7919137D01*
X13023788Y7921815D01*
Y7921956D01*
X13023647Y7922238D01*
X13023506Y7922661D01*
X13023364Y7923225D01*
X13023224Y7923930D01*
X13022942Y7924916D01*
X13022661Y7925903D01*
X13022379Y7927031D01*
X13021956Y7929850D01*
X13021533Y7933093D01*
X13021251Y7936758D01*
X13021111Y7940705D01*
Y7940846D01*
Y7941410D01*
Y7942115D01*
X13021251Y7943242D01*
Y7944511D01*
X13021391Y7945921D01*
X13021533Y7947613D01*
X13021674Y7949304D01*
X13022379Y7953110D01*
X13023224Y7957057D01*
X13024493Y7960723D01*
X13025339Y7962555D01*
X13026186Y7964106D01*
Y7964247D01*
X13026466Y7964529D01*
X13026749Y7964952D01*
X13027031Y7965516D01*
X13028159Y7966925D01*
X13029568Y7968617D01*
X13031401Y7970450D01*
X13033514Y7972282D01*
X13035912Y7973833D01*
X13038449Y7975102D01*
X13038731Y7975243D01*
X13039436Y7975384D01*
X13040704Y7975807D01*
X13042537Y7976229D01*
X13044794Y7976511D01*
X13047612Y7976934D01*
X13049304Y7977075D01*
X13051135D01*
X13052969Y7977216D01*
X13075523D01*
Y7902784D01*
D02*
G37*
%LPC*%
G36*
X13200410Y6178776D02*
X13187160D01*
X13135986Y6102088D01*
Y6178776D01*
X13123582D01*
Y6081224D01*
X13136974D01*
X13188005Y6157771D01*
Y6081224D01*
X13200410D01*
Y6178776D01*
D02*
G37*
G36*
X13291054D02*
X13220428D01*
Y6167216D01*
X13278085D01*
Y6137471D01*
X13224094D01*
Y6125912D01*
X13278085D01*
Y6092784D01*
X13218173D01*
Y6081224D01*
X13291054D01*
Y6178776D01*
D02*
G37*
G36*
X13187032Y8388776D02*
X13173779D01*
X13122607Y8312088D01*
Y8388776D01*
X13110204D01*
Y8291224D01*
X13123595D01*
X13174626Y8367771D01*
Y8291224D01*
X13187032D01*
Y8388776D01*
D02*
G37*
G36*
X13088493D02*
X13050995D01*
X13048457Y8388635D01*
X13045639Y8388494D01*
X13042819Y8388212D01*
X13039999Y8387789D01*
X13037604Y8387366D01*
X13037462D01*
X13037180Y8387225D01*
X13036758D01*
X13036194Y8386943D01*
X13034644Y8386520D01*
X13032669Y8385815D01*
X13030414Y8384829D01*
X13028017Y8383560D01*
X13025621Y8382150D01*
X13023364Y8380318D01*
X13023224Y8380177D01*
X13023083Y8380036D01*
X13022661Y8379613D01*
X13022096Y8379190D01*
X13020686Y8377780D01*
X13018996Y8375806D01*
X13017163Y8373410D01*
X13015189Y8370591D01*
X13013356Y8367348D01*
X13011806Y8363683D01*
Y8363542D01*
X13011665Y8363260D01*
X13011383Y8362696D01*
X13011243Y8361850D01*
X13010818Y8360864D01*
X13010538Y8359736D01*
X13010255Y8358467D01*
X13009831Y8356916D01*
X13009409Y8355366D01*
X13009126Y8353533D01*
X13008423Y8349586D01*
X13008000Y8345216D01*
X13007858Y8340423D01*
Y8338590D01*
X13008000Y8337604D01*
Y8336476D01*
X13008141Y8333797D01*
X13008565Y8330696D01*
X13008986Y8327454D01*
X13009691Y8324070D01*
X13010538Y8320687D01*
Y8320546D01*
X13010678Y8320264D01*
X13010818Y8319841D01*
X13010960Y8319277D01*
X13011523Y8317727D01*
X13012370Y8315753D01*
X13013216Y8313498D01*
X13014343Y8311242D01*
X13015753Y8308846D01*
X13017163Y8306590D01*
X13017303Y8306308D01*
X13017868Y8305603D01*
X13018713Y8304617D01*
X13019841Y8303348D01*
X13021111Y8301938D01*
X13022661Y8300528D01*
X13024211Y8298978D01*
X13026044Y8297709D01*
X13026326Y8297568D01*
X13026891Y8297145D01*
X13027876Y8296581D01*
X13029286Y8295876D01*
X13030978Y8295031D01*
X13032951Y8294326D01*
X13035207Y8293480D01*
X13037744Y8292775D01*
X13038026D01*
X13038449Y8292634D01*
X13038872Y8292493D01*
X13040282Y8292352D01*
X13042255Y8292070D01*
X13044511Y8291788D01*
X13047189Y8291506D01*
X13050150Y8291365D01*
X13053392Y8291224D01*
X13088493D01*
Y8388776D01*
D02*
G37*
%LPD*%
G36*
X13075523Y8302784D02*
X13052405D01*
X13051418Y8302925D01*
X13049304Y8303066D01*
X13046907Y8303207D01*
X13044370Y8303489D01*
X13041832Y8303912D01*
X13039719Y8304476D01*
X13039436Y8304617D01*
X13038731Y8304758D01*
X13037744Y8305180D01*
X13036476Y8305744D01*
X13035066Y8306590D01*
X13033656Y8307436D01*
X13032246Y8308423D01*
X13030836Y8309551D01*
X13030696Y8309833D01*
X13030132Y8310396D01*
X13029286Y8311383D01*
X13028299Y8312793D01*
X13027171Y8314625D01*
X13025903Y8316740D01*
X13024776Y8319137D01*
X13023788Y8321815D01*
Y8321956D01*
X13023647Y8322238D01*
X13023506Y8322661D01*
X13023364Y8323225D01*
X13023224Y8323930D01*
X13022942Y8324916D01*
X13022661Y8325903D01*
X13022379Y8327031D01*
X13021956Y8329850D01*
X13021533Y8333093D01*
X13021251Y8336758D01*
X13021111Y8340705D01*
Y8340846D01*
Y8341410D01*
Y8342115D01*
X13021251Y8343242D01*
Y8344511D01*
X13021391Y8345921D01*
X13021533Y8347612D01*
X13021674Y8349304D01*
X13022379Y8353110D01*
X13023224Y8357057D01*
X13024493Y8360723D01*
X13025339Y8362555D01*
X13026186Y8364106D01*
Y8364247D01*
X13026466Y8364529D01*
X13026749Y8364952D01*
X13027031Y8365516D01*
X13028159Y8366925D01*
X13029568Y8368617D01*
X13031401Y8370450D01*
X13033514Y8372282D01*
X13035912Y8373833D01*
X13038449Y8375102D01*
X13038731Y8375243D01*
X13039436Y8375384D01*
X13040704Y8375806D01*
X13042537Y8376229D01*
X13044794Y8376511D01*
X13047612Y8376934D01*
X13049304Y8377075D01*
X13051135D01*
X13052969Y8377216D01*
X13075523D01*
Y8302784D01*
D02*
G37*
%LPC*%
G36*
X12321997Y7479198D02*
X12314244D01*
Y7381224D01*
X12326226D01*
Y7457489D01*
X12326367Y7457348D01*
X12327072Y7456784D01*
X12327918Y7455938D01*
X12329328Y7454952D01*
X12330878Y7453683D01*
X12332852Y7452273D01*
X12335107Y7450722D01*
X12337645Y7449172D01*
X12337786D01*
X12337927Y7449031D01*
X12338773Y7448467D01*
X12340182Y7447762D01*
X12341874Y7446916D01*
X12343848Y7445929D01*
X12345962Y7444943D01*
X12348077Y7443956D01*
X12350191Y7443110D01*
Y7454670D01*
X12350050D01*
X12349768Y7454952D01*
X12349204Y7455093D01*
X12348500Y7455515D01*
X12347654Y7455938D01*
X12346667Y7456502D01*
X12344270Y7457912D01*
X12341451Y7459463D01*
X12338632Y7461436D01*
X12335671Y7463692D01*
X12332711Y7466088D01*
X12332570Y7466229D01*
X12332429Y7466370D01*
X12332006Y7466793D01*
X12331442Y7467216D01*
X12330173Y7468626D01*
X12328482Y7470317D01*
X12326790Y7472291D01*
X12324958Y7474546D01*
X12323407Y7476802D01*
X12321997Y7479198D01*
D02*
G37*
G36*
X13225755Y7478775D02*
X13206442D01*
X13183324Y7409559D01*
Y7409418D01*
X13183183Y7409136D01*
X13183041Y7408713D01*
X13182761Y7408009D01*
X13182196Y7406317D01*
X13181491Y7404202D01*
X13180786Y7401806D01*
X13179941Y7399409D01*
X13179236Y7397154D01*
X13178671Y7395180D01*
X13178531Y7395462D01*
X13178391Y7396167D01*
X13177966Y7397436D01*
X13177403Y7399127D01*
X13176698Y7401383D01*
X13175713Y7404061D01*
X13174725Y7407163D01*
X13173456Y7410828D01*
X13150055Y7478775D01*
X13132716D01*
Y7381224D01*
X13145120D01*
Y7462846D01*
X13173598Y7381224D01*
X13185156D01*
X13213351Y7464256D01*
Y7381224D01*
X13225755D01*
Y7478775D01*
D02*
G37*
G36*
X12573911D02*
X12560941D01*
Y7422387D01*
Y7422247D01*
Y7421824D01*
Y7421119D01*
Y7420273D01*
X12560800Y7419286D01*
Y7418017D01*
X12560659Y7415339D01*
X12560377Y7412238D01*
X12559955Y7409136D01*
X12559391Y7406176D01*
X12559109Y7404907D01*
X12558686Y7403638D01*
X12558545Y7403357D01*
X12558263Y7402652D01*
X12557558Y7401665D01*
X12556712Y7400255D01*
X12555725Y7398846D01*
X12554316Y7397295D01*
X12552624Y7395744D01*
X12550651Y7394475D01*
X12550369Y7394334D01*
X12549664Y7393912D01*
X12548395Y7393489D01*
X12546703Y7392925D01*
X12544730Y7392220D01*
X12542192Y7391797D01*
X12539514Y7391374D01*
X12536554Y7391233D01*
X12535144D01*
X12534298Y7391374D01*
X12533029D01*
X12531761Y7391515D01*
X12528659Y7392079D01*
X12525276Y7392784D01*
X12522034Y7393912D01*
X12518932Y7395462D01*
X12517523Y7396449D01*
X12516254Y7397577D01*
X12516113Y7397718D01*
X12515972Y7397859D01*
X12515690Y7398282D01*
X12515267Y7398846D01*
X12514844Y7399691D01*
X12514280Y7400537D01*
X12513716Y7401806D01*
X12513153Y7403075D01*
X12512589Y7404625D01*
X12512166Y7406458D01*
X12511602Y7408572D01*
X12511179Y7410828D01*
X12510756Y7413365D01*
X12510474Y7416044D01*
X12510192Y7419145D01*
Y7422387D01*
Y7478775D01*
X12497223D01*
Y7419991D01*
X12497364Y7418722D01*
Y7417313D01*
X12497505Y7415621D01*
X12497646Y7413929D01*
X12498069Y7410123D01*
X12498633Y7406176D01*
X12499478Y7402370D01*
X12500042Y7400537D01*
X12500606Y7398846D01*
Y7398705D01*
X12500747Y7398423D01*
X12501029Y7398000D01*
X12501311Y7397436D01*
X12502157Y7395885D01*
X12503426Y7393912D01*
X12505117Y7391656D01*
X12507091Y7389401D01*
X12509628Y7387004D01*
X12512730Y7384889D01*
X12512871D01*
X12513153Y7384608D01*
X12513575Y7384467D01*
X12514280Y7384044D01*
X12515126Y7383621D01*
X12516254Y7383198D01*
X12517382Y7382775D01*
X12518791Y7382211D01*
X12520342Y7381647D01*
X12522034Y7381224D01*
X12523866Y7380801D01*
X12525981Y7380378D01*
X12528095Y7380096D01*
X12530351Y7379815D01*
X12535426Y7379533D01*
X12536695D01*
X12537681Y7379674D01*
X12538809D01*
X12540219Y7379815D01*
X12541769Y7379956D01*
X12543320Y7380096D01*
X12546844Y7380660D01*
X12550651Y7381506D01*
X12554316Y7382634D01*
X12557840Y7384185D01*
X12557981D01*
X12558263Y7384467D01*
X12558686Y7384749D01*
X12559250Y7385030D01*
X12560800Y7386158D01*
X12562633Y7387709D01*
X12564748Y7389682D01*
X12566721Y7391938D01*
X12568695Y7394757D01*
X12570245Y7397859D01*
Y7398000D01*
X12570386Y7398282D01*
X12570527Y7398846D01*
X12570809Y7399550D01*
X12571091Y7400396D01*
X12571373Y7401524D01*
X12571796Y7402793D01*
X12572078Y7404343D01*
X12572360Y7406035D01*
X12572783Y7407868D01*
X12573065Y7409841D01*
X12573347Y7411956D01*
X12573629Y7414352D01*
X12573770Y7416890D01*
X12573911Y7419568D01*
Y7478775D01*
D02*
G37*
G36*
X13013033D02*
X12935780D01*
Y7467216D01*
X12967921D01*
Y7381224D01*
X12980891D01*
Y7467216D01*
X13013033D01*
Y7478775D01*
D02*
G37*
G36*
X12816238D02*
X12770987D01*
X12769859Y7478635D01*
X12768590D01*
X12765630Y7478494D01*
X12762528Y7478071D01*
X12759145Y7477648D01*
X12756044Y7476943D01*
X12754493Y7476520D01*
X12753224Y7476097D01*
X12753083D01*
X12752942Y7475956D01*
X12752097Y7475533D01*
X12750828Y7474969D01*
X12749277Y7473983D01*
X12747586Y7472714D01*
X12745753Y7471022D01*
X12744061Y7469049D01*
X12742370Y7466793D01*
Y7466652D01*
X12742229Y7466511D01*
X12741665Y7465665D01*
X12741101Y7464256D01*
X12740255Y7462423D01*
X12739550Y7460308D01*
X12738845Y7457771D01*
X12738423Y7455093D01*
X12738282Y7452132D01*
Y7451991D01*
Y7451709D01*
Y7451145D01*
X12738423Y7450441D01*
Y7449454D01*
X12738564Y7448467D01*
X12739127Y7446070D01*
X12739973Y7443251D01*
X12741101Y7440291D01*
X12742793Y7437330D01*
X12743920Y7435921D01*
X12745048Y7434511D01*
X12745189Y7434370D01*
X12745330Y7434229D01*
X12745753Y7433806D01*
X12746317Y7433383D01*
X12747022Y7432819D01*
X12747868Y7432255D01*
X12748995Y7431551D01*
X12750123Y7430705D01*
X12751533Y7430000D01*
X12753083Y7429295D01*
X12754775Y7428449D01*
X12756608Y7427744D01*
X12758722Y7427180D01*
X12760837Y7426476D01*
X12763233Y7426053D01*
X12765771Y7425630D01*
X12765489Y7425489D01*
X12764925Y7425207D01*
X12764079Y7424643D01*
X12762951Y7424079D01*
X12760414Y7422528D01*
X12759145Y7421542D01*
X12758017Y7420696D01*
X12757735Y7420414D01*
X12757031Y7419709D01*
X12755903Y7418581D01*
X12754493Y7417172D01*
X12752942Y7415198D01*
X12751110Y7413083D01*
X12749277Y7410546D01*
X12747304Y7407727D01*
X12730528Y7381224D01*
X12746599D01*
X12759427Y7401524D01*
Y7401665D01*
X12759709Y7401947D01*
X12759991Y7402370D01*
X12760414Y7402934D01*
X12761401Y7404484D01*
X12762669Y7406458D01*
X12764220Y7408572D01*
X12765771Y7410828D01*
X12767321Y7412943D01*
X12768731Y7414916D01*
X12768872Y7415057D01*
X12769295Y7415621D01*
X12770000Y7416467D01*
X12770987Y7417454D01*
X12773101Y7419568D01*
X12774229Y7420555D01*
X12775357Y7421401D01*
X12775498Y7421542D01*
X12775780Y7421683D01*
X12776344Y7421965D01*
X12777189Y7422387D01*
X12778035Y7422810D01*
X12779022Y7423233D01*
X12781277Y7423938D01*
X12781418D01*
X12781700Y7424079D01*
X12782264D01*
X12782969Y7424220D01*
X12783956Y7424361D01*
X12785084D01*
X12786634Y7424502D01*
X12803268D01*
Y7381224D01*
X12816238D01*
Y7478775D01*
D02*
G37*
G36*
X12482985D02*
X12405733D01*
Y7467216D01*
X12437875D01*
Y7381224D01*
X12450844D01*
Y7467216D01*
X12482985D01*
Y7478775D01*
D02*
G37*
G36*
X13068997Y7480467D02*
X13067728D01*
X13066742Y7480326D01*
X13065472D01*
X13064204Y7480185D01*
X13062514Y7479903D01*
X13060822Y7479621D01*
X13057156Y7478916D01*
X13052927Y7477789D01*
X13048839Y7476097D01*
X13046724Y7475110D01*
X13044609Y7473983D01*
X13044469Y7473842D01*
X13044186Y7473701D01*
X13043623Y7473278D01*
X13042776Y7472855D01*
X13041931Y7472150D01*
X13040804Y7471304D01*
X13038406Y7469331D01*
X13035869Y7466793D01*
X13033051Y7463692D01*
X13030371Y7460026D01*
X13028116Y7455938D01*
Y7455797D01*
X13027834Y7455374D01*
X13027551Y7454811D01*
X13027271Y7453965D01*
X13026706Y7452837D01*
X13026283Y7451568D01*
X13025719Y7450018D01*
X13025156Y7448326D01*
X13024733Y7446493D01*
X13024168Y7444520D01*
X13023605Y7442264D01*
X13023183Y7440009D01*
X13022618Y7435075D01*
X13022336Y7429718D01*
Y7428308D01*
X13022478Y7427180D01*
Y7425912D01*
X13022618Y7424361D01*
X13022900Y7422669D01*
X13023041Y7420837D01*
X13023746Y7416749D01*
X13024873Y7412238D01*
X13026424Y7407727D01*
X13027271Y7405471D01*
X13028398Y7403216D01*
Y7403075D01*
X13028680Y7402652D01*
X13028963Y7402088D01*
X13029526Y7401242D01*
X13030090Y7400255D01*
X13030794Y7399268D01*
X13032768Y7396590D01*
X13035164Y7393771D01*
X13037984Y7390810D01*
X13041367Y7387991D01*
X13045314Y7385453D01*
X13045454D01*
X13045737Y7385171D01*
X13046442Y7384889D01*
X13047289Y7384467D01*
X13048276Y7384044D01*
X13049402Y7383621D01*
X13050812Y7383057D01*
X13052364Y7382493D01*
X13054054Y7381929D01*
X13055887Y7381365D01*
X13059975Y7380519D01*
X13064345Y7379815D01*
X13068997Y7379533D01*
X13070407D01*
X13071252Y7379674D01*
X13072520D01*
X13073930Y7379956D01*
X13075482Y7380096D01*
X13077315Y7380378D01*
X13081120Y7381224D01*
X13085210Y7382352D01*
X13089438Y7384044D01*
X13091553Y7385030D01*
X13093668Y7386158D01*
X13093808Y7386299D01*
X13094090Y7386440D01*
X13094653Y7386863D01*
X13095500Y7387427D01*
X13096346Y7387991D01*
X13097331Y7388837D01*
X13099728Y7390951D01*
X13102406Y7393489D01*
X13105228Y7396590D01*
X13107764Y7400114D01*
X13110159Y7404202D01*
Y7404343D01*
X13110442Y7404766D01*
X13110724Y7405330D01*
X13111006Y7406176D01*
X13111429Y7407304D01*
X13111852Y7408572D01*
X13112416Y7409982D01*
X13112839Y7411533D01*
X13113403Y7413365D01*
X13113966Y7415198D01*
X13114812Y7419427D01*
X13115376Y7423797D01*
X13115659Y7428590D01*
Y7429718D01*
X13115517Y7430987D01*
Y7432678D01*
X13115234Y7434652D01*
X13114954Y7437048D01*
X13114531Y7439727D01*
X13113966Y7442546D01*
X13113403Y7445507D01*
X13112556Y7448608D01*
X13111429Y7451709D01*
X13110159Y7454952D01*
X13108751Y7458053D01*
X13106918Y7461154D01*
X13104945Y7463974D01*
X13102689Y7466652D01*
X13102548Y7466793D01*
X13102126Y7467216D01*
X13101279Y7467921D01*
X13100293Y7468767D01*
X13099023Y7469894D01*
X13097473Y7471022D01*
X13095641Y7472291D01*
X13093526Y7473560D01*
X13091270Y7474828D01*
X13088733Y7476097D01*
X13085915Y7477225D01*
X13082953Y7478353D01*
X13079710Y7479198D01*
X13076328Y7479903D01*
X13072803Y7480326D01*
X13068997Y7480467D01*
D02*
G37*
G36*
X12879675D02*
X12878406D01*
X12877419Y7480326D01*
X12876151D01*
X12874883Y7480185D01*
X12873190Y7479903D01*
X12871498Y7479621D01*
X12867833Y7478916D01*
X12863605Y7477789D01*
X12859515Y7476097D01*
X12857401Y7475110D01*
X12855287Y7473983D01*
X12855145Y7473842D01*
X12854865Y7473701D01*
X12854300Y7473278D01*
X12853455Y7472855D01*
X12852608Y7472150D01*
X12851482Y7471304D01*
X12849084Y7469331D01*
X12846547Y7466793D01*
X12843727Y7463692D01*
X12841049Y7460026D01*
X12838792Y7455938D01*
Y7455797D01*
X12838512Y7455374D01*
X12838229Y7454811D01*
X12837947Y7453965D01*
X12837384Y7452837D01*
X12836961Y7451568D01*
X12836397Y7450018D01*
X12835834Y7448326D01*
X12835410Y7446493D01*
X12834846Y7444520D01*
X12834282Y7442264D01*
X12833859Y7440009D01*
X12833295Y7435075D01*
X12833012Y7429718D01*
Y7428308D01*
X12833154Y7427180D01*
Y7425912D01*
X12833295Y7424361D01*
X12833577Y7422669D01*
X12833717Y7420837D01*
X12834422Y7416749D01*
X12835551Y7412238D01*
X12837102Y7407727D01*
X12837947Y7405471D01*
X12839075Y7403216D01*
Y7403075D01*
X12839357Y7402652D01*
X12839639Y7402088D01*
X12840202Y7401242D01*
X12840767Y7400255D01*
X12841472Y7399268D01*
X12843445Y7396590D01*
X12845842Y7393771D01*
X12848660Y7390810D01*
X12852045Y7387991D01*
X12855992Y7385453D01*
X12856133D01*
X12856413Y7385171D01*
X12857120Y7384889D01*
X12857965Y7384467D01*
X12858952Y7384044D01*
X12860080Y7383621D01*
X12861488Y7383057D01*
X12863040Y7382493D01*
X12864732Y7381929D01*
X12866563Y7381365D01*
X12870651Y7380519D01*
X12875023Y7379815D01*
X12879675Y7379533D01*
X12881084D01*
X12881931Y7379674D01*
X12883199D01*
X12884608Y7379956D01*
X12886159Y7380096D01*
X12887991Y7380378D01*
X12891798Y7381224D01*
X12895886Y7382352D01*
X12900114Y7384044D01*
X12902229Y7385030D01*
X12904344Y7386158D01*
X12904485Y7386299D01*
X12904767Y7386440D01*
X12905331Y7386863D01*
X12906177Y7387427D01*
X12907024Y7387991D01*
X12908009Y7388837D01*
X12910406Y7390951D01*
X12913084Y7393489D01*
X12915904Y7396590D01*
X12918440Y7400114D01*
X12920837Y7404202D01*
Y7404343D01*
X12921120Y7404766D01*
X12921402Y7405330D01*
X12921684Y7406176D01*
X12922105Y7407304D01*
X12922530Y7408572D01*
X12923093Y7409982D01*
X12923515Y7411533D01*
X12924080Y7413365D01*
X12924644Y7415198D01*
X12925490Y7419427D01*
X12926054Y7423797D01*
X12926337Y7428590D01*
Y7429718D01*
X12926195Y7430987D01*
Y7432678D01*
X12925912Y7434652D01*
X12925632Y7437048D01*
X12925208Y7439727D01*
X12924644Y7442546D01*
X12924080Y7445507D01*
X12923235Y7448608D01*
X12922105Y7451709D01*
X12920837Y7454952D01*
X12919427Y7458053D01*
X12917595Y7461154D01*
X12915622Y7463974D01*
X12913367Y7466652D01*
X12913225Y7466793D01*
X12912802Y7467216D01*
X12911957Y7467921D01*
X12910970Y7468767D01*
X12909702Y7469894D01*
X12908150Y7471022D01*
X12906319Y7472291D01*
X12904202Y7473560D01*
X12901949Y7474828D01*
X12899409Y7476097D01*
X12896591Y7477225D01*
X12893631Y7478353D01*
X12890388Y7479198D01*
X12887006Y7479903D01*
X12883481Y7480326D01*
X12879675Y7480467D01*
D02*
G37*
G36*
X12637347D02*
X12636078D01*
X12635092Y7480326D01*
X12633823D01*
X12632554Y7480185D01*
X12630862Y7479903D01*
X12629171Y7479621D01*
X12625506Y7478916D01*
X12621277Y7477789D01*
X12617188Y7476097D01*
X12615074Y7475110D01*
X12612959Y7473983D01*
X12612818Y7473842D01*
X12612536Y7473701D01*
X12611972Y7473278D01*
X12611127Y7472855D01*
X12610281Y7472150D01*
X12609153Y7471304D01*
X12606757Y7469331D01*
X12604219Y7466793D01*
X12601400Y7463692D01*
X12598721Y7460026D01*
X12596466Y7455938D01*
Y7455797D01*
X12596184Y7455374D01*
X12595902Y7454811D01*
X12595620Y7453965D01*
X12595056Y7452837D01*
X12594633Y7451568D01*
X12594069Y7450018D01*
X12593505Y7448326D01*
X12593083Y7446493D01*
X12592519Y7444520D01*
X12591955Y7442264D01*
X12591532Y7440009D01*
X12590968Y7435075D01*
X12590686Y7429718D01*
Y7428308D01*
X12590827Y7427180D01*
Y7425912D01*
X12590968Y7424361D01*
X12591250Y7422669D01*
X12591391Y7420837D01*
X12592096Y7416749D01*
X12593223Y7412238D01*
X12594774Y7407727D01*
X12595620Y7405471D01*
X12596748Y7403216D01*
Y7403075D01*
X12597030Y7402652D01*
X12597312Y7402088D01*
X12597875Y7401242D01*
X12598439Y7400255D01*
X12599144Y7399268D01*
X12601118Y7396590D01*
X12603514Y7393771D01*
X12606334Y7390810D01*
X12609717Y7387991D01*
X12613664Y7385453D01*
X12613805D01*
X12614087Y7385171D01*
X12614792Y7384889D01*
X12615638Y7384467D01*
X12616624Y7384044D01*
X12617752Y7383621D01*
X12619162Y7383057D01*
X12620713Y7382493D01*
X12622404Y7381929D01*
X12624237Y7381365D01*
X12628325Y7380519D01*
X12632695Y7379815D01*
X12637347Y7379533D01*
X12638757D01*
X12639603Y7379674D01*
X12640871D01*
X12642281Y7379956D01*
X12643832Y7380096D01*
X12645664Y7380378D01*
X12649471Y7381224D01*
X12653559Y7382352D01*
X12657788Y7384044D01*
X12659902Y7385030D01*
X12662017Y7386158D01*
X12662158Y7386299D01*
X12662440Y7386440D01*
X12663004Y7386863D01*
X12663849Y7387427D01*
X12664695Y7387991D01*
X12665682Y7388837D01*
X12668079Y7390951D01*
X12670757Y7393489D01*
X12673576Y7396590D01*
X12676114Y7400114D01*
X12678510Y7404202D01*
Y7404343D01*
X12678792Y7404766D01*
X12679074Y7405330D01*
X12679356Y7406176D01*
X12679779Y7407304D01*
X12680202Y7408572D01*
X12680766Y7409982D01*
X12681189Y7411533D01*
X12681753Y7413365D01*
X12682317Y7415198D01*
X12683162Y7419427D01*
X12683726Y7423797D01*
X12684008Y7428590D01*
Y7429718D01*
X12683867Y7430987D01*
Y7432678D01*
X12683585Y7434652D01*
X12683303Y7437048D01*
X12682880Y7439727D01*
X12682317Y7442546D01*
X12681753Y7445507D01*
X12680907Y7448608D01*
X12679779Y7451709D01*
X12678510Y7454952D01*
X12677101Y7458053D01*
X12675268Y7461154D01*
X12673294Y7463974D01*
X12671039Y7466652D01*
X12670898Y7466793D01*
X12670475Y7467216D01*
X12669629Y7467921D01*
X12668642Y7468767D01*
X12667374Y7469894D01*
X12665823Y7471022D01*
X12663990Y7472291D01*
X12661876Y7473560D01*
X12659620Y7474828D01*
X12657083Y7476097D01*
X12654263Y7477225D01*
X12651303Y7478353D01*
X12648061Y7479198D01*
X12644678Y7479903D01*
X12641153Y7480326D01*
X12637347Y7480467D01*
D02*
G37*
%LPD*%
G36*
X12803268Y7435639D02*
X12774229D01*
X12772537Y7435780D01*
X12770564Y7435921D01*
X12768308Y7436062D01*
X12766053Y7436344D01*
X12763797Y7436766D01*
X12761824Y7437330D01*
X12761542Y7437471D01*
X12760978Y7437753D01*
X12760132Y7438176D01*
X12759004Y7438740D01*
X12757735Y7439586D01*
X12756467Y7440573D01*
X12755198Y7441841D01*
X12754211Y7443251D01*
X12754070Y7443392D01*
X12753788Y7443956D01*
X12753365Y7444802D01*
X12752802Y7445929D01*
X12752379Y7447198D01*
X12751956Y7448608D01*
X12751674Y7450300D01*
X12751533Y7451991D01*
Y7452132D01*
Y7452273D01*
X12751674Y7453119D01*
X12751815Y7454388D01*
X12752097Y7456079D01*
X12752802Y7457771D01*
X12753647Y7459745D01*
X12754916Y7461577D01*
X12756608Y7463410D01*
X12756890Y7463551D01*
X12757594Y7464115D01*
X12758722Y7464819D01*
X12760555Y7465665D01*
X12762669Y7466511D01*
X12765489Y7467216D01*
X12768731Y7467780D01*
X12772537Y7467921D01*
X12803268D01*
Y7435639D01*
D02*
G37*
G36*
X13071252Y7469190D02*
X13072520Y7469049D01*
X13073790Y7468767D01*
X13075340Y7468485D01*
X13077032Y7468203D01*
X13080698Y7467075D01*
X13082671Y7466229D01*
X13084645Y7465383D01*
X13086758Y7464256D01*
X13088733Y7462987D01*
X13090707Y7461577D01*
X13092538Y7459886D01*
X13092680Y7459745D01*
X13092963Y7459463D01*
X13093385Y7458899D01*
X13094090Y7458053D01*
X13094795Y7457066D01*
X13095641Y7455797D01*
X13096486Y7454247D01*
X13097473Y7452414D01*
X13098318Y7450441D01*
X13099306Y7448044D01*
X13100153Y7445507D01*
X13100856Y7442687D01*
X13101561Y7439586D01*
X13101984Y7436062D01*
X13102266Y7432396D01*
X13102406Y7428449D01*
Y7428308D01*
Y7427744D01*
Y7426758D01*
X13102266Y7425489D01*
X13102126Y7424079D01*
X13101843Y7422387D01*
X13101561Y7420414D01*
X13101279Y7418440D01*
X13100153Y7413929D01*
X13099306Y7411674D01*
X13098460Y7409277D01*
X13097331Y7407022D01*
X13096063Y7404766D01*
X13094653Y7402652D01*
X13092963Y7400678D01*
X13092821Y7400537D01*
X13092538Y7400255D01*
X13091975Y7399691D01*
X13091270Y7399127D01*
X13090285Y7398282D01*
X13089156Y7397436D01*
X13087888Y7396590D01*
X13086478Y7395603D01*
X13084785Y7394616D01*
X13082953Y7393771D01*
X13080980Y7392925D01*
X13078865Y7392079D01*
X13076610Y7391515D01*
X13074355Y7390951D01*
X13071817Y7390669D01*
X13069138Y7390528D01*
X13068433D01*
X13067728Y7390669D01*
X13066742D01*
X13065472Y7390810D01*
X13064062Y7391092D01*
X13062372Y7391374D01*
X13060680Y7391797D01*
X13058707Y7392361D01*
X13056874Y7393066D01*
X13054759Y7393771D01*
X13052786Y7394757D01*
X13050812Y7396026D01*
X13048839Y7397295D01*
X13046864Y7398846D01*
X13045032Y7400678D01*
X13044891Y7400819D01*
X13044609Y7401101D01*
X13044186Y7401806D01*
X13043481Y7402652D01*
X13042776Y7403638D01*
X13042072Y7404907D01*
X13041226Y7406458D01*
X13040239Y7408150D01*
X13039394Y7410123D01*
X13038548Y7412379D01*
X13037843Y7414775D01*
X13036996Y7417313D01*
X13036433Y7420132D01*
X13036011Y7423233D01*
X13035728Y7426476D01*
X13035587Y7429859D01*
Y7430000D01*
Y7430423D01*
Y7430987D01*
Y7431832D01*
X13035728Y7432819D01*
Y7434088D01*
X13035869Y7435357D01*
X13036151Y7436907D01*
X13036574Y7440150D01*
X13037279Y7443533D01*
X13038266Y7447198D01*
X13039674Y7450581D01*
Y7450722D01*
X13039816Y7451004D01*
X13040099Y7451427D01*
X13040379Y7451991D01*
X13041367Y7453683D01*
X13042636Y7455656D01*
X13044327Y7457912D01*
X13046442Y7460167D01*
X13048839Y7462423D01*
X13051517Y7464397D01*
X13051659D01*
X13051799Y7464678D01*
X13052222Y7464819D01*
X13052927Y7465242D01*
X13053632Y7465524D01*
X13054477Y7465947D01*
X13056592Y7466934D01*
X13059129Y7467780D01*
X13062090Y7468626D01*
X13065472Y7469190D01*
X13068997Y7469331D01*
X13070267D01*
X13071252Y7469190D01*
D02*
G37*
G36*
X12881931D02*
X12883199Y7469049D01*
X12884467Y7468767D01*
X12886018Y7468485D01*
X12887711Y7468203D01*
X12891376Y7467075D01*
X12893349Y7466229D01*
X12895322Y7465383D01*
X12897437Y7464256D01*
X12899409Y7462987D01*
X12901384Y7461577D01*
X12903217Y7459886D01*
X12903357Y7459745D01*
X12903639Y7459463D01*
X12904062Y7458899D01*
X12904767Y7458053D01*
X12905472Y7457066D01*
X12906319Y7455797D01*
X12907164Y7454247D01*
X12908150Y7452414D01*
X12908997Y7450441D01*
X12909982Y7448044D01*
X12910829Y7445507D01*
X12911534Y7442687D01*
X12912239Y7439586D01*
X12912662Y7436062D01*
X12912943Y7432396D01*
X12913084Y7428449D01*
Y7428308D01*
Y7427744D01*
Y7426758D01*
X12912943Y7425489D01*
X12912802Y7424079D01*
X12912521Y7422387D01*
X12912239Y7420414D01*
X12911957Y7418440D01*
X12910829Y7413929D01*
X12909982Y7411674D01*
X12909137Y7409277D01*
X12908009Y7407022D01*
X12906741Y7404766D01*
X12905331Y7402652D01*
X12903639Y7400678D01*
X12903497Y7400537D01*
X12903217Y7400255D01*
X12902654Y7399691D01*
X12901949Y7399127D01*
X12900961Y7398282D01*
X12899834Y7397436D01*
X12898566Y7396590D01*
X12897156Y7395603D01*
X12895464Y7394616D01*
X12893631Y7393771D01*
X12891656Y7392925D01*
X12889542Y7392079D01*
X12887286Y7391515D01*
X12885031Y7390951D01*
X12882494Y7390669D01*
X12879816Y7390528D01*
X12879111D01*
X12878406Y7390669D01*
X12877419D01*
X12876151Y7390810D01*
X12874741Y7391092D01*
X12873048Y7391374D01*
X12871358Y7391797D01*
X12869383Y7392361D01*
X12867551Y7393066D01*
X12865437Y7393771D01*
X12863463Y7394757D01*
X12861488Y7396026D01*
X12859515Y7397295D01*
X12857542Y7398846D01*
X12855710Y7400678D01*
X12855569Y7400819D01*
X12855287Y7401101D01*
X12854865Y7401806D01*
X12854160Y7402652D01*
X12853455Y7403638D01*
X12852750Y7404907D01*
X12851903Y7406458D01*
X12850917Y7408150D01*
X12850072Y7410123D01*
X12849225Y7412379D01*
X12848520Y7414775D01*
X12847675Y7417313D01*
X12847110Y7420132D01*
X12846687Y7423233D01*
X12846407Y7426476D01*
X12846265Y7429859D01*
Y7430000D01*
Y7430423D01*
Y7430987D01*
Y7431832D01*
X12846407Y7432819D01*
Y7434088D01*
X12846547Y7435357D01*
X12846829Y7436907D01*
X12847250Y7440150D01*
X12847955Y7443533D01*
X12848943Y7447198D01*
X12850352Y7450581D01*
Y7450722D01*
X12850494Y7451004D01*
X12850777Y7451427D01*
X12851057Y7451991D01*
X12852045Y7453683D01*
X12853313Y7455656D01*
X12855005Y7457912D01*
X12857120Y7460167D01*
X12859515Y7462423D01*
X12862193Y7464397D01*
X12862335D01*
X12862476Y7464678D01*
X12862898Y7464819D01*
X12863605Y7465242D01*
X12864310Y7465524D01*
X12865155Y7465947D01*
X12867268Y7466934D01*
X12869807Y7467780D01*
X12872768Y7468626D01*
X12876151Y7469190D01*
X12879675Y7469331D01*
X12880943D01*
X12881931Y7469190D01*
D02*
G37*
G36*
X12639603D02*
X12640871Y7469049D01*
X12642140Y7468767D01*
X12643691Y7468485D01*
X12645382Y7468203D01*
X12649048Y7467075D01*
X12651021Y7466229D01*
X12652995Y7465383D01*
X12655109Y7464256D01*
X12657083Y7462987D01*
X12659056Y7461577D01*
X12660889Y7459886D01*
X12661030Y7459745D01*
X12661312Y7459463D01*
X12661735Y7458899D01*
X12662440Y7458053D01*
X12663145Y7457066D01*
X12663990Y7455797D01*
X12664836Y7454247D01*
X12665823Y7452414D01*
X12666669Y7450441D01*
X12667656Y7448044D01*
X12668501Y7445507D01*
X12669206Y7442687D01*
X12669911Y7439586D01*
X12670334Y7436062D01*
X12670616Y7432396D01*
X12670757Y7428449D01*
Y7428308D01*
Y7427744D01*
Y7426758D01*
X12670616Y7425489D01*
X12670475Y7424079D01*
X12670193Y7422387D01*
X12669911Y7420414D01*
X12669629Y7418440D01*
X12668501Y7413929D01*
X12667656Y7411674D01*
X12666810Y7409277D01*
X12665682Y7407022D01*
X12664413Y7404766D01*
X12663004Y7402652D01*
X12661312Y7400678D01*
X12661171Y7400537D01*
X12660889Y7400255D01*
X12660325Y7399691D01*
X12659620Y7399127D01*
X12658634Y7398282D01*
X12657506Y7397436D01*
X12656237Y7396590D01*
X12654827Y7395603D01*
X12653136Y7394616D01*
X12651303Y7393771D01*
X12649330Y7392925D01*
X12647215Y7392079D01*
X12644959Y7391515D01*
X12642704Y7390951D01*
X12640166Y7390669D01*
X12637488Y7390528D01*
X12636783D01*
X12636078Y7390669D01*
X12635092D01*
X12633823Y7390810D01*
X12632413Y7391092D01*
X12630721Y7391374D01*
X12629030Y7391797D01*
X12627056Y7392361D01*
X12625224Y7393066D01*
X12623109Y7393771D01*
X12621136Y7394757D01*
X12619162Y7396026D01*
X12617188Y7397295D01*
X12615215Y7398846D01*
X12613382Y7400678D01*
X12613241Y7400819D01*
X12612959Y7401101D01*
X12612536Y7401806D01*
X12611832Y7402652D01*
X12611127Y7403638D01*
X12610422Y7404907D01*
X12609576Y7406458D01*
X12608589Y7408150D01*
X12607743Y7410123D01*
X12606898Y7412379D01*
X12606193Y7414775D01*
X12605347Y7417313D01*
X12604783Y7420132D01*
X12604360Y7423233D01*
X12604078Y7426476D01*
X12603937Y7429859D01*
Y7430000D01*
Y7430423D01*
Y7430987D01*
Y7431832D01*
X12604078Y7432819D01*
Y7434088D01*
X12604219Y7435357D01*
X12604501Y7436907D01*
X12604924Y7440150D01*
X12605629Y7443533D01*
X12606616Y7447198D01*
X12608025Y7450581D01*
Y7450722D01*
X12608166Y7451004D01*
X12608448Y7451427D01*
X12608730Y7451991D01*
X12609717Y7453683D01*
X12610986Y7455656D01*
X12612677Y7457912D01*
X12614792Y7460167D01*
X12617188Y7462423D01*
X12619867Y7464397D01*
X12620008D01*
X12620149Y7464678D01*
X12620572Y7464819D01*
X12621277Y7465242D01*
X12621981Y7465524D01*
X12622827Y7465947D01*
X12624942Y7466934D01*
X12627479Y7467780D01*
X12630440Y7468626D01*
X12633823Y7469190D01*
X12637347Y7469331D01*
X12638616D01*
X12639603Y7469190D01*
D02*
G37*
%LPC*%
G36*
X7463888Y8888776D02*
X7450919D01*
Y8791224D01*
X7463888D01*
Y8888776D01*
D02*
G37*
G36*
X7370848D02*
X7357878D01*
Y8791224D01*
X7432311D01*
Y8820687D01*
X7432170Y8821674D01*
X7432029Y8822661D01*
X7431888Y8823930D01*
X7431606Y8825339D01*
X7431324Y8826890D01*
X7430337Y8830132D01*
X7429773Y8831824D01*
X7428927Y8833656D01*
X7427940Y8835489D01*
X7426954Y8837181D01*
X7425685Y8838872D01*
X7424275Y8840564D01*
X7424134Y8840705D01*
X7423852Y8840987D01*
X7423429Y8841410D01*
X7422725Y8841833D01*
X7421879Y8842538D01*
X7420751Y8843242D01*
X7419341Y8844088D01*
X7417791Y8844793D01*
X7415958Y8845639D01*
X7413843Y8846485D01*
X7411588Y8847190D01*
X7408909Y8847753D01*
X7406090Y8848317D01*
X7402989Y8848740D01*
X7399464Y8849022D01*
X7395799Y8849163D01*
X7370848D01*
Y8888776D01*
D02*
G37*
%LPD*%
G36*
X7398055Y8837463D02*
X7399042D01*
X7400169Y8837322D01*
X7402848Y8837040D01*
X7405808Y8836476D01*
X7408769Y8835630D01*
X7411447Y8834502D01*
X7412716Y8833797D01*
X7413702Y8832952D01*
X7413984Y8832670D01*
X7414548Y8832106D01*
X7415394Y8830978D01*
X7416381Y8829568D01*
X7417368Y8827736D01*
X7418214Y8825480D01*
X7418777Y8822943D01*
X7419059Y8819982D01*
Y8819841D01*
Y8819700D01*
Y8818996D01*
X7418918Y8817727D01*
X7418636Y8816317D01*
X7418354Y8814766D01*
X7417791Y8812934D01*
X7416945Y8811242D01*
X7415958Y8809551D01*
X7415817Y8809410D01*
X7415394Y8808846D01*
X7414689Y8808141D01*
X7413843Y8807154D01*
X7412575Y8806167D01*
X7411165Y8805321D01*
X7409614Y8804476D01*
X7407782Y8803771D01*
X7407641D01*
X7407077Y8803630D01*
X7406231Y8803489D01*
X7405103Y8803207D01*
X7403412Y8803066D01*
X7401297Y8802925D01*
X7398760Y8802784D01*
X7370848D01*
Y8837604D01*
X7397068D01*
X7398055Y8837463D01*
D02*
G37*
G36*
X7432311Y8791224D02*
X7397914D01*
X7400028Y8791365D01*
X7402425Y8791506D01*
X7404962Y8791647D01*
X7407359Y8791929D01*
X7409473Y8792211D01*
X7409755D01*
X7410742Y8792493D01*
X7412011Y8792775D01*
X7413702Y8793198D01*
X7415535Y8793903D01*
X7417509Y8794749D01*
X7419623Y8795736D01*
X7421456Y8796863D01*
X7421738Y8797004D01*
X7422302Y8797427D01*
X7423147Y8798273D01*
X7424275Y8799260D01*
X7425544Y8800529D01*
X7426813Y8802220D01*
X7428222Y8804053D01*
X7429350Y8806167D01*
X7429491Y8806449D01*
X7429773Y8807154D01*
X7430337Y8808423D01*
X7430901Y8810114D01*
X7431324Y8812088D01*
X7431888Y8814344D01*
X7432170Y8816881D01*
X7432311Y8819559D01*
Y8791224D01*
D02*
G37*
%LPC*%
G36*
X13184961Y5668776D02*
X13171709D01*
X13120537Y5592088D01*
Y5668776D01*
X13108131D01*
Y5571224D01*
X13121524D01*
X13172556Y5647771D01*
Y5571224D01*
X13184961D01*
Y5668776D01*
D02*
G37*
G36*
X13086423D02*
X13048924D01*
X13046387Y5668635D01*
X13043568Y5668494D01*
X13040749Y5668212D01*
X13037929Y5667789D01*
X13035532Y5667366D01*
X13035393D01*
X13035110Y5667225D01*
X13034686D01*
X13034123Y5666943D01*
X13032571Y5666520D01*
X13030598Y5665815D01*
X13028343Y5664828D01*
X13025948Y5663560D01*
X13023550Y5662150D01*
X13021295Y5660317D01*
X13021153Y5660176D01*
X13021013Y5660035D01*
X13020590Y5659613D01*
X13020026Y5659190D01*
X13018616Y5657780D01*
X13016924Y5655806D01*
X13015092Y5653410D01*
X13013118Y5650590D01*
X13011285Y5647348D01*
X13009735Y5643683D01*
Y5643542D01*
X13009595Y5643260D01*
X13009312Y5642696D01*
X13009171Y5641850D01*
X13008748Y5640863D01*
X13008466Y5639736D01*
X13008183Y5638467D01*
X13007761Y5636916D01*
X13007338Y5635366D01*
X13007057Y5633533D01*
X13006352Y5629586D01*
X13005930Y5625216D01*
X13005788Y5620423D01*
Y5618590D01*
X13005930Y5617603D01*
Y5616476D01*
X13006070Y5613797D01*
X13006493Y5610696D01*
X13006915Y5607454D01*
X13007620Y5604070D01*
X13008466Y5600687D01*
Y5600546D01*
X13008607Y5600264D01*
X13008748Y5599841D01*
X13008888Y5599277D01*
X13009453Y5597727D01*
X13010300Y5595753D01*
X13011145Y5593498D01*
X13012273Y5591242D01*
X13013683Y5588846D01*
X13015092Y5586590D01*
X13015233Y5586308D01*
X13015797Y5585603D01*
X13016643Y5584616D01*
X13017770Y5583348D01*
X13019038Y5581938D01*
X13020590Y5580528D01*
X13022141Y5578978D01*
X13023973Y5577709D01*
X13024255Y5577568D01*
X13024818Y5577145D01*
X13025806Y5576581D01*
X13027216Y5575876D01*
X13028906Y5575031D01*
X13030881Y5574326D01*
X13033136Y5573480D01*
X13035674Y5572775D01*
X13035954D01*
X13036378Y5572634D01*
X13036801Y5572493D01*
X13038211Y5572352D01*
X13040184Y5572070D01*
X13042439Y5571788D01*
X13045119Y5571506D01*
X13048079Y5571365D01*
X13051321Y5571224D01*
X13086423D01*
Y5668776D01*
D02*
G37*
%LPD*%
G36*
X13073453Y5582784D02*
X13050334D01*
X13049348Y5582925D01*
X13047234Y5583066D01*
X13044836Y5583207D01*
X13042299Y5583489D01*
X13039761Y5583912D01*
X13037646Y5584475D01*
X13037366Y5584616D01*
X13036659Y5584757D01*
X13035674Y5585180D01*
X13034406Y5585744D01*
X13032996Y5586590D01*
X13031586Y5587436D01*
X13030176Y5588423D01*
X13028766Y5589550D01*
X13028625Y5589832D01*
X13028061Y5590396D01*
X13027216Y5591383D01*
X13026228Y5592793D01*
X13025101Y5594625D01*
X13023833Y5596740D01*
X13022704Y5599136D01*
X13021716Y5601815D01*
Y5601956D01*
X13021576Y5602238D01*
X13021436Y5602661D01*
X13021295Y5603225D01*
X13021153Y5603929D01*
X13020872Y5604916D01*
X13020590Y5605903D01*
X13020308Y5607031D01*
X13019885Y5609850D01*
X13019463Y5613092D01*
X13019180Y5616758D01*
X13019038Y5620705D01*
Y5620846D01*
Y5621410D01*
Y5622114D01*
X13019180Y5623242D01*
Y5624511D01*
X13019321Y5625921D01*
X13019463Y5627612D01*
X13019603Y5629304D01*
X13020308Y5633110D01*
X13021153Y5637057D01*
X13022421Y5640723D01*
X13023268Y5642555D01*
X13024113Y5644106D01*
Y5644247D01*
X13024396Y5644529D01*
X13024678Y5644952D01*
X13024960Y5645516D01*
X13026086Y5646925D01*
X13027496Y5648617D01*
X13029330Y5650449D01*
X13031444Y5652282D01*
X13033841Y5653833D01*
X13036378Y5655101D01*
X13036659Y5655242D01*
X13037366Y5655383D01*
X13038634Y5655806D01*
X13040466Y5656229D01*
X13042722Y5656511D01*
X13045541Y5656934D01*
X13047234Y5657075D01*
X13049066D01*
X13050899Y5657216D01*
X13073453D01*
Y5582784D01*
D02*
G37*
%LPC*%
G36*
X12048776Y6214214D02*
X11998590D01*
X11997604Y6214073D01*
X11996476D01*
X11993797Y6213932D01*
X11990696Y6213509D01*
X11987454Y6213086D01*
X11984071Y6212382D01*
X11980687Y6211536D01*
X11980546D01*
X11980264Y6211395D01*
X11979841Y6211254D01*
X11979278Y6211113D01*
X11977727Y6210549D01*
X11975753Y6209703D01*
X11973498Y6208857D01*
X11971242Y6207730D01*
X11968846Y6206320D01*
X11966590Y6204910D01*
X11966308Y6204769D01*
X11965603Y6204205D01*
X11964617Y6203359D01*
X11963348Y6202232D01*
X11961938Y6200963D01*
X11960529Y6199412D01*
X11958978Y6197862D01*
X11957709Y6196029D01*
X11957568Y6195747D01*
X11957145Y6195183D01*
X11956581Y6194196D01*
X11955877Y6192787D01*
X11955031Y6191095D01*
X11954326Y6189121D01*
X11953480Y6186866D01*
X11952775Y6184328D01*
Y6184047D01*
X11952634Y6183624D01*
X11952493Y6183201D01*
X11952352Y6181791D01*
X11952070Y6179817D01*
X11951788Y6177562D01*
X11951506Y6174884D01*
X11951365Y6171923D01*
X11951225Y6168681D01*
Y6214214D01*
D01*
Y6133579D01*
X12048776D01*
Y6171077D01*
X12048635Y6173615D01*
X12048494Y6176434D01*
X12048212Y6179254D01*
X12047789Y6182073D01*
X12047366Y6184469D01*
Y6184610D01*
X12047225Y6184892D01*
Y6185315D01*
X12046943Y6185879D01*
X12046520Y6187430D01*
X12045815Y6189403D01*
X12044829Y6191659D01*
X12043560Y6194055D01*
X12042150Y6196452D01*
X12040318Y6198707D01*
X12040177Y6198848D01*
X12040036Y6198989D01*
X12039613Y6199412D01*
X12039190Y6199976D01*
X12037780Y6201386D01*
X12035807Y6203078D01*
X12033410Y6204910D01*
X12030591Y6206884D01*
X12027348Y6208716D01*
X12023683Y6210267D01*
X12023542D01*
X12023260Y6210408D01*
X12022696Y6210690D01*
X12021850Y6210831D01*
X12020864Y6211254D01*
X12019736Y6211536D01*
X12018467Y6211818D01*
X12016917Y6212241D01*
X12015366Y6212663D01*
X12013533Y6212945D01*
X12009586Y6213650D01*
X12005216Y6214073D01*
X12000423Y6214214D01*
X12048776D01*
D02*
G37*
G36*
Y6111870D02*
X11951225D01*
Y6035041D01*
X12048776D01*
Y6048292D01*
X11972088Y6099465D01*
X12048776D01*
Y6111870D01*
D02*
G37*
%LPD*%
G36*
X12003242Y6200822D02*
X12004511D01*
X12005921Y6200681D01*
X12007613Y6200540D01*
X12009304Y6200399D01*
X12013110Y6199694D01*
X12017057Y6198848D01*
X12020723Y6197580D01*
X12022555Y6196734D01*
X12024106Y6195888D01*
X12024247D01*
X12024529Y6195606D01*
X12024952Y6195324D01*
X12025516Y6195042D01*
X12026925Y6193914D01*
X12028617Y6192505D01*
X12030450Y6190672D01*
X12032282Y6188558D01*
X12033833Y6186161D01*
X12035102Y6183624D01*
X12035243Y6183342D01*
X12035384Y6182637D01*
X12035807Y6181368D01*
X12036229Y6179536D01*
X12036511Y6177280D01*
X12036934Y6174461D01*
X12037075Y6172769D01*
Y6170936D01*
X12037216Y6169104D01*
Y6146549D01*
X11962784D01*
Y6169668D01*
X11962925Y6170654D01*
X11963066Y6172769D01*
X11963207Y6175165D01*
X11963489Y6177703D01*
X11963912Y6180240D01*
X11964476Y6182355D01*
X11964617Y6182637D01*
X11964758Y6183342D01*
X11965181Y6184328D01*
X11965744Y6185597D01*
X11966590Y6187007D01*
X11967436Y6188417D01*
X11968423Y6189826D01*
X11969551Y6191236D01*
X11969833Y6191377D01*
X11970396Y6191941D01*
X11971383Y6192787D01*
X11972793Y6193773D01*
X11974626Y6194901D01*
X11976740Y6196170D01*
X11979137Y6197298D01*
X11981815Y6198285D01*
X11981956D01*
X11982238Y6198425D01*
X11982661Y6198566D01*
X11983225Y6198707D01*
X11983930Y6198848D01*
X11984916Y6199130D01*
X11985903Y6199412D01*
X11987031Y6199694D01*
X11989850Y6200117D01*
X11993093Y6200540D01*
X11996758Y6200822D01*
X12000705Y6200963D01*
X12000846D01*
X12001410D01*
X12002115D01*
X12003242Y6200822D01*
D02*
G37*
G36*
X12027771Y6047447D02*
X11951225D01*
Y6098478D01*
X12027771Y6047447D01*
D02*
G37*
%LPC*%
G36*
X13198000Y5929833D02*
X13194476D01*
X13192924Y5929692D01*
X13191093Y5929410D01*
X13188837Y5928987D01*
X13186301Y5928282D01*
X13183762Y5927436D01*
X13181226Y5926309D01*
X13181084D01*
X13180943Y5926168D01*
X13180096Y5925745D01*
X13178828Y5924899D01*
X13177419Y5923912D01*
X13175726Y5922503D01*
X13174036Y5920952D01*
X13172343Y5919119D01*
X13170934Y5917005D01*
X13170793Y5916723D01*
X13170370Y5916018D01*
X13169806Y5914749D01*
X13169101Y5913198D01*
X13168398Y5911366D01*
X13167833Y5909251D01*
X13167410Y5906855D01*
X13167268Y5904458D01*
Y5904176D01*
Y5903331D01*
X13167410Y5902203D01*
X13167693Y5900652D01*
X13168115Y5898820D01*
X13168819Y5896846D01*
X13169666Y5894872D01*
X13170793Y5892899D01*
X13170934Y5892617D01*
X13171358Y5892053D01*
X13172203Y5891066D01*
X13173331Y5889938D01*
X13174741Y5888670D01*
X13176431Y5887260D01*
X13178406Y5885991D01*
X13180801Y5884723D01*
X13180661D01*
X13180379Y5884582D01*
X13179956Y5884441D01*
X13179391Y5884300D01*
X13177843Y5883736D01*
X13175868Y5882890D01*
X13173611Y5881762D01*
X13171358Y5880352D01*
X13169241Y5878520D01*
X13167268Y5876405D01*
X13167128Y5876123D01*
X13166563Y5875278D01*
X13165718Y5873868D01*
X13164873Y5872035D01*
X13164027Y5869780D01*
X13163181Y5867101D01*
X13162617Y5864000D01*
X13162476Y5860617D01*
Y5859348D01*
X13162617Y5858502D01*
X13162758Y5857374D01*
X13163040Y5856106D01*
X13163322Y5854696D01*
X13163605Y5853145D01*
X13164731Y5849762D01*
X13165578Y5847929D01*
X13166423Y5846238D01*
X13167551Y5844405D01*
X13168819Y5842573D01*
X13170229Y5840740D01*
X13171921Y5839048D01*
X13172063Y5838907D01*
X13172343Y5838625D01*
X13172908Y5838202D01*
X13173611Y5837639D01*
X13174458Y5836934D01*
X13175586Y5836229D01*
X13176855Y5835383D01*
X13178406Y5834678D01*
X13179956Y5833832D01*
X13181789Y5832987D01*
X13183621Y5832282D01*
X13185736Y5831577D01*
X13187991Y5831013D01*
X13190388Y5830590D01*
X13192784Y5830308D01*
X13195464Y5830167D01*
X13196732D01*
X13197577Y5830308D01*
X13198705Y5830449D01*
X13199974Y5830590D01*
X13201384Y5830872D01*
X13202934Y5831154D01*
X13206319Y5832000D01*
X13209842Y5833409D01*
X13211674Y5834255D01*
X13213367Y5835242D01*
X13215057Y5836511D01*
X13216750Y5837780D01*
X13216890Y5837921D01*
X13217172Y5838202D01*
X13217595Y5838625D01*
X13218018Y5839189D01*
X13218723Y5839894D01*
X13219427Y5840881D01*
X13220274Y5841868D01*
X13221120Y5843136D01*
X13221965Y5844546D01*
X13222810Y5845956D01*
X13224362Y5849339D01*
X13225630Y5853286D01*
X13226053Y5855401D01*
X13226335Y5857656D01*
X13214352Y5859207D01*
Y5859066D01*
X13214212Y5858784D01*
X13214072Y5858220D01*
X13213930Y5857515D01*
X13213789Y5856670D01*
X13213507Y5855683D01*
X13212802Y5853568D01*
X13211815Y5851031D01*
X13210547Y5848634D01*
X13209137Y5846379D01*
X13207445Y5844405D01*
X13207162Y5844264D01*
X13206599Y5843700D01*
X13205472Y5842995D01*
X13204062Y5842291D01*
X13202370Y5841445D01*
X13200256Y5840740D01*
X13197859Y5840176D01*
X13195322Y5840035D01*
X13194476D01*
X13193912Y5840176D01*
X13192361Y5840317D01*
X13190388Y5840740D01*
X13188132Y5841445D01*
X13185736Y5842432D01*
X13183339Y5843841D01*
X13181084Y5845815D01*
X13180801Y5846097D01*
X13180096Y5846943D01*
X13179251Y5848211D01*
X13178123Y5849903D01*
X13176996Y5852018D01*
X13176151Y5854414D01*
X13175446Y5857233D01*
X13175163Y5860335D01*
Y5860476D01*
Y5860758D01*
Y5861181D01*
X13175304Y5861744D01*
X13175446Y5863295D01*
X13175868Y5865128D01*
X13176431Y5867383D01*
X13177419Y5869639D01*
X13178828Y5871894D01*
X13180661Y5874009D01*
X13180943Y5874291D01*
X13181648Y5874855D01*
X13182776Y5875700D01*
X13184326Y5876687D01*
X13186301Y5877674D01*
X13188696Y5878520D01*
X13191376Y5879084D01*
X13194334Y5879366D01*
X13195604D01*
X13196591Y5879225D01*
X13197859Y5879084D01*
X13199269Y5878802D01*
X13200961Y5878520D01*
X13202792Y5878097D01*
X13201384Y5888670D01*
X13200679D01*
X13200114Y5888529D01*
X13198282D01*
X13196732Y5888811D01*
X13194899Y5889093D01*
X13192784Y5889516D01*
X13190388Y5890220D01*
X13188132Y5891207D01*
X13185736Y5892476D01*
X13185596D01*
X13185454Y5892617D01*
X13184749Y5893181D01*
X13183762Y5894168D01*
X13182635Y5895436D01*
X13181506Y5897269D01*
X13180521Y5899383D01*
X13179816Y5901780D01*
X13179533Y5903190D01*
Y5904740D01*
Y5904881D01*
Y5905022D01*
Y5905868D01*
X13179816Y5906996D01*
X13180096Y5908546D01*
X13180661Y5910238D01*
X13181366Y5912071D01*
X13182494Y5913903D01*
X13184044Y5915595D01*
X13184184Y5915736D01*
X13184891Y5916300D01*
X13185876Y5917005D01*
X13187146Y5917850D01*
X13188837Y5918555D01*
X13190811Y5919260D01*
X13193066Y5919824D01*
X13195604Y5919965D01*
X13196732D01*
X13198000Y5919683D01*
X13199692Y5919401D01*
X13201524Y5918837D01*
X13203357Y5918132D01*
X13205331Y5917005D01*
X13207162Y5915595D01*
X13207304Y5915454D01*
X13207867Y5914749D01*
X13208714Y5913762D01*
X13209702Y5912353D01*
X13210687Y5910520D01*
X13211674Y5908265D01*
X13212520Y5905586D01*
X13213084Y5902485D01*
X13225067Y5904599D01*
Y5904740D01*
X13224927Y5905163D01*
X13224785Y5905727D01*
X13224644Y5906573D01*
X13224362Y5907560D01*
X13223940Y5908687D01*
X13223093Y5911366D01*
X13221683Y5914467D01*
X13219992Y5917569D01*
X13217877Y5920529D01*
X13215199Y5923207D01*
X13215057Y5923348D01*
X13214777Y5923489D01*
X13214352Y5923771D01*
X13213789Y5924194D01*
X13213084Y5924758D01*
X13212097Y5925322D01*
X13211110Y5925886D01*
X13209842Y5926591D01*
X13207022Y5927718D01*
X13203780Y5928846D01*
X13199974Y5929551D01*
X13198000Y5929833D01*
D02*
G37*
G36*
X13031233D02*
X13027708D01*
X13026158Y5929692D01*
X13024326Y5929410D01*
X13022070Y5928987D01*
X13019531Y5928282D01*
X13016995Y5927436D01*
X13014458Y5926309D01*
X13014316D01*
X13014175Y5926168D01*
X13013330Y5925745D01*
X13012061Y5924899D01*
X13010651Y5923912D01*
X13008960Y5922503D01*
X13007268Y5920952D01*
X13005576Y5919119D01*
X13004167Y5917005D01*
X13004025Y5916723D01*
X13003603Y5916018D01*
X13003040Y5914749D01*
X13002335Y5913198D01*
X13001630Y5911366D01*
X13001065Y5909251D01*
X13000642Y5906855D01*
X13000500Y5904458D01*
Y5904176D01*
Y5903331D01*
X13000642Y5902203D01*
X13000925Y5900652D01*
X13001347Y5898820D01*
X13002052Y5896846D01*
X13002898Y5894872D01*
X13004025Y5892899D01*
X13004167Y5892617D01*
X13004588Y5892053D01*
X13005435Y5891066D01*
X13006563Y5889938D01*
X13007973Y5888670D01*
X13009663Y5887260D01*
X13011638Y5885991D01*
X13014034Y5884723D01*
X13013893D01*
X13013612Y5884582D01*
X13013190Y5884441D01*
X13012625Y5884300D01*
X13011073Y5883736D01*
X13009100Y5882890D01*
X13006845Y5881762D01*
X13004588Y5880352D01*
X13002475Y5878520D01*
X13000500Y5876405D01*
X13000360Y5876123D01*
X12999796Y5875278D01*
X12998952Y5873868D01*
X12998105Y5872035D01*
X12997260Y5869780D01*
X12996413Y5867101D01*
X12995850Y5864000D01*
X12995708Y5860617D01*
Y5859348D01*
X12995850Y5858502D01*
X12995990Y5857374D01*
X12996272Y5856106D01*
X12996555Y5854696D01*
X12996835Y5853145D01*
X12997964Y5849762D01*
X12998810Y5847929D01*
X12999655Y5846238D01*
X13000783Y5844405D01*
X13002052Y5842573D01*
X13003462Y5840740D01*
X13005153Y5839048D01*
X13005293Y5838907D01*
X13005576Y5838625D01*
X13006140Y5838202D01*
X13006845Y5837639D01*
X13007690Y5836934D01*
X13008820Y5836229D01*
X13010088Y5835383D01*
X13011638Y5834678D01*
X13013190Y5833832D01*
X13015021Y5832987D01*
X13016853Y5832282D01*
X13018968Y5831577D01*
X13021223Y5831013D01*
X13023621Y5830590D01*
X13026018Y5830308D01*
X13028696Y5830167D01*
X13029964D01*
X13030811Y5830308D01*
X13031938Y5830449D01*
X13033206Y5830590D01*
X13034616Y5830872D01*
X13036166Y5831154D01*
X13039549Y5832000D01*
X13043074Y5833409D01*
X13044907Y5834255D01*
X13046597Y5835242D01*
X13048289Y5836511D01*
X13049982Y5837780D01*
X13050124Y5837921D01*
X13050404Y5838202D01*
X13050829Y5838625D01*
X13051251Y5839189D01*
X13051955Y5839894D01*
X13052660Y5840881D01*
X13053506Y5841868D01*
X13054352Y5843136D01*
X13055199Y5844546D01*
X13056042Y5845956D01*
X13057594Y5849339D01*
X13058862Y5853286D01*
X13059286Y5855401D01*
X13059567Y5857656D01*
X13047585Y5859207D01*
Y5859066D01*
X13047444Y5858784D01*
X13047302Y5858220D01*
X13047162Y5857515D01*
X13047021Y5856670D01*
X13046739Y5855683D01*
X13046034Y5853568D01*
X13045049Y5851031D01*
X13043779Y5848634D01*
X13042369Y5846379D01*
X13040678Y5844405D01*
X13040396Y5844264D01*
X13039832Y5843700D01*
X13038704Y5842995D01*
X13037294Y5842291D01*
X13035603Y5841445D01*
X13033488Y5840740D01*
X13031091Y5840176D01*
X13028554Y5840035D01*
X13027708D01*
X13027145Y5840176D01*
X13025594Y5840317D01*
X13023621Y5840740D01*
X13021365Y5841445D01*
X13018968Y5842432D01*
X13016573Y5843841D01*
X13014316Y5845815D01*
X13014034Y5846097D01*
X13013330Y5846943D01*
X13012485Y5848211D01*
X13011356Y5849903D01*
X13010228Y5852018D01*
X13009383Y5854414D01*
X13008678Y5857233D01*
X13008395Y5860335D01*
Y5860476D01*
Y5860758D01*
Y5861181D01*
X13008537Y5861744D01*
X13008678Y5863295D01*
X13009100Y5865128D01*
X13009663Y5867383D01*
X13010651Y5869639D01*
X13012061Y5871894D01*
X13013893Y5874009D01*
X13014175Y5874291D01*
X13014880Y5874855D01*
X13016008Y5875700D01*
X13017558Y5876687D01*
X13019531Y5877674D01*
X13021928Y5878520D01*
X13024606Y5879084D01*
X13027568Y5879366D01*
X13028836D01*
X13029823Y5879225D01*
X13031091Y5879084D01*
X13032501Y5878802D01*
X13034193Y5878520D01*
X13036026Y5878097D01*
X13034616Y5888670D01*
X13033911D01*
X13033347Y5888529D01*
X13031516D01*
X13029964Y5888811D01*
X13028131Y5889093D01*
X13026018Y5889516D01*
X13023621Y5890220D01*
X13021365Y5891207D01*
X13018968Y5892476D01*
X13018826D01*
X13018686Y5892617D01*
X13017982Y5893181D01*
X13016995Y5894168D01*
X13015868Y5895436D01*
X13014738Y5897269D01*
X13013753Y5899383D01*
X13013048Y5901780D01*
X13012766Y5903190D01*
Y5904740D01*
Y5904881D01*
Y5905022D01*
Y5905868D01*
X13013048Y5906996D01*
X13013330Y5908546D01*
X13013893Y5910238D01*
X13014598Y5912071D01*
X13015726Y5913903D01*
X13017278Y5915595D01*
X13017418Y5915736D01*
X13018123Y5916300D01*
X13019109Y5917005D01*
X13020378Y5917850D01*
X13022070Y5918555D01*
X13024043Y5919260D01*
X13026299Y5919824D01*
X13028836Y5919965D01*
X13029964D01*
X13031233Y5919683D01*
X13032924Y5919401D01*
X13034756Y5918837D01*
X13036591Y5918132D01*
X13038564Y5917005D01*
X13040396Y5915595D01*
X13040536Y5915454D01*
X13041101Y5914749D01*
X13041946Y5913762D01*
X13042934Y5912353D01*
X13043919Y5910520D01*
X13044907Y5908265D01*
X13045753Y5905586D01*
X13046317Y5902485D01*
X13058299Y5904599D01*
Y5904740D01*
X13058157Y5905163D01*
X13058017Y5905727D01*
X13057877Y5906573D01*
X13057594Y5907560D01*
X13057172Y5908687D01*
X13056325Y5911366D01*
X13054916Y5914467D01*
X13053224Y5917569D01*
X13051109Y5920529D01*
X13048431Y5923207D01*
X13048289Y5923348D01*
X13048009Y5923489D01*
X13047585Y5923771D01*
X13047021Y5924194D01*
X13046317Y5924758D01*
X13045329Y5925322D01*
X13044344Y5925886D01*
X13043074Y5926591D01*
X13040256Y5927718D01*
X13037013Y5928846D01*
X13033206Y5929551D01*
X13031233Y5929833D01*
D02*
G37*
G36*
X13277789Y5912071D02*
X13266512D01*
Y5885568D01*
X13240009D01*
Y5874432D01*
X13266512D01*
Y5847647D01*
X13277789D01*
Y5874432D01*
X13304292D01*
Y5885568D01*
X13277789D01*
Y5912071D01*
D02*
G37*
G36*
X13155850Y5929410D02*
X13141753D01*
X13116379Y5858502D01*
Y5858361D01*
X13116238Y5858079D01*
X13116096Y5857656D01*
X13115816Y5857092D01*
X13115674Y5856247D01*
X13115392Y5855401D01*
X13114687Y5853286D01*
X13113841Y5850890D01*
X13112994Y5848211D01*
X13111304Y5842573D01*
Y5842713D01*
X13111163Y5842995D01*
X13111021Y5843418D01*
X13110881Y5843982D01*
X13110458Y5845533D01*
X13109753Y5847647D01*
X13109048Y5850044D01*
X13108202Y5852722D01*
X13107216Y5855542D01*
X13106088Y5858502D01*
X13079585Y5929410D01*
X13066475D01*
X13104678Y5831859D01*
X13118069D01*
X13155850Y5929410D01*
D02*
G37*
G36*
X8261668Y8338775D02*
X8184839D01*
Y8241224D01*
X8198090D01*
D01*
X8206677D01*
X8198090D01*
X8249262Y8317911D01*
Y8241224D01*
X8261668D01*
Y8338775D01*
D02*
G37*
G36*
X8167077D02*
X8094195D01*
Y8241224D01*
X8164821D01*
Y8252783D01*
X8107164D01*
Y8282528D01*
X8161156D01*
Y8294087D01*
X8107164D01*
Y8327215D01*
X8167077D01*
Y8241224D01*
D01*
Y8338775D01*
D02*
G37*
%LPD*%
G36*
X8197244Y8262228D02*
Y8338775D01*
X8248275D01*
X8197244Y8262228D01*
D02*
G37*
%LPC*%
G36*
X7809799Y8338775D02*
X7796407D01*
X7745376Y8262228D01*
Y8338775D01*
X7783829D01*
X7732971D01*
Y8241224D01*
X7809799D01*
Y8338775D01*
D02*
G37*
G36*
X7912144D02*
X7831509D01*
Y8241224D01*
X7869007D01*
X7871544Y8241365D01*
X7874364Y8241505D01*
X7877183Y8241787D01*
X7880003Y8242210D01*
X7882399Y8242633D01*
X7882540D01*
X7882822Y8242774D01*
X7883245D01*
X7883809Y8243056D01*
X7885359Y8243479D01*
X7887333Y8244184D01*
X7889588Y8245171D01*
X7891985Y8246439D01*
X7894381Y8247849D01*
X7896637Y8249682D01*
X7896778Y8249823D01*
X7896919Y8249964D01*
X7897342Y8250387D01*
X7897906Y8250810D01*
X7899315Y8252219D01*
X7901007Y8254193D01*
X7902840Y8256589D01*
X7904813Y8259409D01*
X7906646Y8262651D01*
X7908197Y8266316D01*
Y8266457D01*
X7908337Y8266739D01*
X7908619Y8267303D01*
X7908760Y8268149D01*
X7909183Y8269136D01*
X7909465Y8270263D01*
X7909747Y8271532D01*
X7910170Y8273083D01*
X7910593Y8274633D01*
X7910875Y8276466D01*
X7911580Y8280413D01*
X7912003Y8284783D01*
X7912144Y8289576D01*
Y8292396D01*
Y8291409D01*
X7912003Y8292396D01*
Y8293523D01*
X7911862Y8296202D01*
X7911439Y8299303D01*
X7911016Y8302545D01*
X7910311Y8305929D01*
X7909465Y8309312D01*
Y8309453D01*
X7909324Y8309735D01*
X7909183Y8310158D01*
X7909042Y8310722D01*
X7908478Y8312272D01*
X7907633Y8314246D01*
X7906787Y8316502D01*
X7905659Y8318757D01*
X7904249Y8321154D01*
X7902840Y8323409D01*
X7902699Y8323691D01*
X7902135Y8324396D01*
X7901289Y8325383D01*
X7900161Y8326651D01*
X7898893Y8328061D01*
X7897342Y8329471D01*
X7895791Y8331021D01*
X7893959Y8332290D01*
X7893677Y8332431D01*
X7893113Y8332854D01*
X7892126Y8333418D01*
X7890716Y8334123D01*
X7889025Y8334969D01*
X7887051Y8335673D01*
X7884796Y8336519D01*
X7882258Y8337224D01*
X7881976D01*
X7881553Y8337365D01*
X7881130Y8337506D01*
X7879721Y8337647D01*
X7877747Y8337929D01*
X7875491Y8338211D01*
X7872813Y8338493D01*
X7869853Y8338634D01*
X7866610Y8338775D01*
X7912144D01*
D02*
G37*
%LPD*%
G36*
X7797394Y8241224D02*
X7746222D01*
X7797394Y8317911D01*
Y8241224D01*
D02*
G37*
G36*
X7868584Y8327074D02*
X7870699Y8326933D01*
X7873095Y8326792D01*
X7875632Y8326510D01*
X7878170Y8326087D01*
X7880284Y8325524D01*
X7880566Y8325383D01*
X7881271Y8325242D01*
X7882258Y8324819D01*
X7883527Y8324255D01*
X7884936Y8323409D01*
X7886346Y8322563D01*
X7887756Y8321576D01*
X7889166Y8320449D01*
X7889307Y8320167D01*
X7889870Y8319603D01*
X7890716Y8318616D01*
X7891703Y8317206D01*
X7892831Y8315374D01*
X7894100Y8313259D01*
X7895227Y8310863D01*
X7896214Y8308184D01*
Y8308043D01*
X7896355Y8307761D01*
X7896496Y8307338D01*
X7896637Y8306775D01*
X7896778Y8306070D01*
X7897060Y8305083D01*
X7897342Y8304096D01*
X7897624Y8302968D01*
X7898047Y8300149D01*
X7898470Y8296907D01*
X7898752Y8293241D01*
X7898893Y8289294D01*
Y8289153D01*
Y8288589D01*
Y8287885D01*
X7898752Y8286757D01*
Y8285488D01*
X7898611Y8284078D01*
X7898470Y8282387D01*
X7898329Y8280695D01*
X7897624Y8276889D01*
X7896778Y8272942D01*
X7895509Y8269277D01*
X7894663Y8267444D01*
X7893818Y8265893D01*
Y8265752D01*
X7893536Y8265470D01*
X7893254Y8265047D01*
X7892972Y8264484D01*
X7891844Y8263074D01*
X7890434Y8261382D01*
X7888602Y8259550D01*
X7886487Y8257717D01*
X7884091Y8256166D01*
X7881553Y8254898D01*
X7881271Y8254757D01*
X7880566Y8254616D01*
X7879298Y8254193D01*
X7877465Y8253770D01*
X7875210Y8253488D01*
X7872390Y8253065D01*
X7870699Y8252924D01*
X7868866D01*
X7867033Y8252783D01*
X7844478D01*
Y8327215D01*
X7867597D01*
X7868584Y8327074D01*
D02*
G37*
%LPC*%
G36*
X13259711Y8891436D02*
X13248433D01*
Y8864934D01*
X13221930D01*
Y8853797D01*
X13248433D01*
Y8827013D01*
X13259711D01*
Y8853797D01*
X13286214D01*
Y8864934D01*
X13259711D01*
Y8891436D01*
D02*
G37*
G36*
X13171603Y7088353D02*
X13123109D01*
Y7076934D01*
X13162160D01*
X13167375Y7050573D01*
X13167233Y7050714D01*
X13166953Y7050855D01*
X13166528Y7051137D01*
X13165823Y7051559D01*
X13164978Y7051982D01*
X13163992Y7052546D01*
X13161736Y7053674D01*
X13158917Y7054802D01*
X13155815Y7055789D01*
X13152432Y7056493D01*
X13150742Y7056775D01*
X13147639D01*
X13146793Y7056634D01*
X13145667Y7056493D01*
X13144397Y7056352D01*
X13142987Y7056070D01*
X13141437Y7055648D01*
X13138052Y7054661D01*
X13136221Y7053956D01*
X13134389Y7052969D01*
X13132555Y7051982D01*
X13130724Y7050855D01*
X13129031Y7049445D01*
X13127341Y7047894D01*
X13127199Y7047753D01*
X13126917Y7047471D01*
X13126494Y7047048D01*
X13125929Y7046344D01*
X13125224Y7045357D01*
X13124519Y7044370D01*
X13123674Y7043101D01*
X13122829Y7041692D01*
X13122124Y7040141D01*
X13121278Y7038449D01*
X13120573Y7036476D01*
X13119868Y7034502D01*
X13119304Y7032388D01*
X13118881Y7029991D01*
X13118599Y7027595D01*
X13118459Y7025057D01*
Y7023788D01*
X13118599Y7022802D01*
X13118739Y7021674D01*
X13118881Y7020405D01*
X13119164Y7018854D01*
X13119444Y7017304D01*
X13120291Y7013639D01*
X13121701Y7009832D01*
X13122546Y7007859D01*
X13123674Y7006026D01*
X13124802Y7004053D01*
X13126212Y7002220D01*
X13126353Y7002079D01*
X13126636Y7001656D01*
X13127199Y7001092D01*
X13127904Y7000387D01*
X13128889Y6999542D01*
X13130019Y6998414D01*
X13131429Y6997427D01*
X13132977Y6996299D01*
X13134669Y6995171D01*
X13136644Y6994185D01*
X13138757Y6993198D01*
X13141014Y6992211D01*
X13143410Y6991506D01*
X13146089Y6990942D01*
X13148907Y6990519D01*
X13151868Y6990378D01*
X13153137D01*
X13154124Y6990519D01*
X13155252Y6990660D01*
X13156520Y6990801D01*
X13158070Y6990942D01*
X13159622Y6991365D01*
X13163145Y6992211D01*
X13166670Y6993480D01*
X13168503Y6994326D01*
X13170335Y6995312D01*
X13172028Y6996440D01*
X13173718Y6997709D01*
X13173860Y6997850D01*
X13174142Y6997991D01*
X13174423Y6998555D01*
X13174986Y6999119D01*
X13175693Y6999823D01*
X13176398Y7000669D01*
X13177243Y7001797D01*
X13177948Y7003066D01*
X13178793Y7004334D01*
X13179639Y7005885D01*
X13181190Y7009268D01*
X13182458Y7013216D01*
X13182883Y7015330D01*
X13183163Y7017586D01*
X13170618Y7018572D01*
Y7018431D01*
Y7018150D01*
X13170476Y7017727D01*
X13170335Y7017022D01*
X13169913Y7015471D01*
X13169350Y7013357D01*
X13168503Y7011242D01*
X13167375Y7008846D01*
X13165965Y7006731D01*
X13164275Y7004757D01*
X13163992Y7004616D01*
X13163428Y7004053D01*
X13162300Y7003348D01*
X13160748Y7002502D01*
X13159058Y7001656D01*
X13156943Y7000951D01*
X13154547Y7000387D01*
X13151868Y7000246D01*
X13151022D01*
X13150459Y7000387D01*
X13148767Y7000528D01*
X13146793Y7001092D01*
X13144397Y7001797D01*
X13142000Y7002925D01*
X13139462Y7004616D01*
X13138335Y7005603D01*
X13137207Y7006731D01*
X13137067Y7006872D01*
X13136925Y7007013D01*
X13136644Y7007436D01*
X13136221Y7007859D01*
X13135234Y7009409D01*
X13134106Y7011383D01*
X13133119Y7013779D01*
X13132132Y7016740D01*
X13131429Y7020264D01*
X13131146Y7022097D01*
Y7024070D01*
Y7024211D01*
Y7024493D01*
Y7025057D01*
X13131287Y7025762D01*
Y7026608D01*
X13131429Y7027595D01*
X13131851Y7029850D01*
X13132555Y7032528D01*
X13133542Y7035207D01*
X13134952Y7037744D01*
X13136925Y7040141D01*
Y7040282D01*
X13137207Y7040423D01*
X13137912Y7041128D01*
X13139182Y7042114D01*
X13140874Y7043242D01*
X13143127Y7044229D01*
X13145667Y7045216D01*
X13148627Y7045921D01*
X13150317Y7046203D01*
X13152995D01*
X13154124Y7046062D01*
X13155534Y7045921D01*
X13157225Y7045498D01*
X13158917Y7045075D01*
X13160748Y7044370D01*
X13162582Y7043524D01*
X13162723Y7043383D01*
X13163287Y7043101D01*
X13164133Y7042396D01*
X13165260Y7041692D01*
X13166388Y7040705D01*
X13167516Y7039436D01*
X13168785Y7038167D01*
X13169771Y7036617D01*
X13181049Y7038167D01*
X13171603Y7088353D01*
D02*
G37*
G36*
X13234477Y7072282D02*
X13223199D01*
Y7045780D01*
X13196696D01*
Y7034643D01*
X13223199D01*
Y7007859D01*
X13234477D01*
Y7034643D01*
X13260979D01*
Y7045780D01*
X13234477D01*
Y7072282D01*
D02*
G37*
G36*
X13112538Y7089621D02*
X13098441D01*
X13073067Y7018713D01*
Y7018572D01*
X13072925Y7018291D01*
X13072784Y7017868D01*
X13072502Y7017304D01*
X13072362Y7016458D01*
X13072079Y7015612D01*
X13071375Y7013498D01*
X13070529Y7011101D01*
X13069682Y7008423D01*
X13067992Y7002784D01*
Y7002925D01*
X13067850Y7003207D01*
X13067709Y7003630D01*
X13067567Y7004194D01*
X13067145Y7005744D01*
X13066440Y7007859D01*
X13065736Y7010255D01*
X13064890Y7012934D01*
X13063902Y7015753D01*
X13062775Y7018713D01*
X13036273Y7089621D01*
X13023163D01*
X13061366Y6992070D01*
X13074757D01*
X13112538Y7089621D01*
D02*
G37*
G36*
X11528775Y6251763D02*
X11431224D01*
Y6158723D01*
X11528775D01*
Y6171128D01*
X11447154D01*
X11528775Y6199604D01*
Y6211163D01*
X11445744Y6239357D01*
X11528775D01*
Y6251763D01*
D02*
G37*
G36*
Y6137718D02*
X11431224D01*
Y6100220D01*
X11431365Y6097682D01*
X11431506Y6094863D01*
X11431788Y6092044D01*
X11432211Y6089224D01*
X11432634Y6086828D01*
Y6086687D01*
X11432775Y6086405D01*
Y6085982D01*
X11433057Y6085418D01*
X11433480Y6083867D01*
X11434184Y6081894D01*
X11435171Y6079638D01*
X11436440Y6077242D01*
X11437850Y6074845D01*
X11439682Y6072590D01*
X11439823Y6072449D01*
X11439964Y6072308D01*
X11440387Y6071885D01*
X11440810Y6071321D01*
X11442220Y6069911D01*
X11444193Y6068220D01*
X11446590Y6066387D01*
X11449409Y6064414D01*
X11452651Y6062581D01*
X11456317Y6061030D01*
X11456458D01*
X11456740Y6060889D01*
X11457303Y6060607D01*
X11458149Y6060466D01*
X11459136Y6060044D01*
X11460264Y6059762D01*
X11461533Y6059480D01*
X11463083Y6059057D01*
X11464634Y6058634D01*
X11466467Y6058352D01*
X11470414Y6057647D01*
X11474784Y6057224D01*
X11479577Y6057083D01*
X11431224D01*
X11528775D01*
Y6137718D01*
D02*
G37*
G36*
Y6001964D02*
X11431224D01*
Y5928237D01*
D01*
Y5963620D01*
X11431365Y5962633D01*
Y5961505D01*
X11431647Y5958968D01*
X11431929Y5956149D01*
X11432493Y5953188D01*
X11433198Y5950228D01*
X11434184Y5947549D01*
Y5947408D01*
X11434325Y5947268D01*
X11434748Y5946422D01*
X11435453Y5945153D01*
X11436440Y5943743D01*
X11437709Y5942052D01*
X11439259Y5940219D01*
X11441233Y5938527D01*
X11443347Y5936977D01*
X11443629Y5936836D01*
X11444475Y5936413D01*
X11445603Y5935708D01*
X11447295Y5935003D01*
X11449268Y5934298D01*
X11451383Y5933593D01*
X11453779Y5933171D01*
X11456176Y5933030D01*
X11456458D01*
X11457163D01*
X11458431Y5933171D01*
X11459982Y5933452D01*
X11461815Y5933875D01*
X11463788Y5934580D01*
X11465762Y5935426D01*
X11467876Y5936554D01*
X11468158Y5936695D01*
X11468722Y5937118D01*
X11469850Y5937963D01*
X11470978Y5939091D01*
X11472387Y5940501D01*
X11473938Y5942193D01*
X11475348Y5944307D01*
X11476757Y5946704D01*
Y5946563D01*
X11476898Y5946281D01*
X11477039Y5945858D01*
X11477321Y5945294D01*
X11477885Y5943602D01*
X11478872Y5941629D01*
X11480141Y5939514D01*
X11481691Y5937118D01*
X11483524Y5935003D01*
X11485779Y5933030D01*
X11486061Y5932889D01*
X11486907Y5932325D01*
X11488176Y5931479D01*
X11489868Y5930633D01*
X11492123Y5929787D01*
X11494520Y5928941D01*
X11497339Y5928378D01*
X11500440Y5928237D01*
X11431224D01*
X11501568D01*
X11502978Y5928378D01*
X11504669Y5928659D01*
X11506643Y5928941D01*
X11508758Y5929505D01*
X11511013Y5930210D01*
X11513269Y5931197D01*
X11513551Y5931338D01*
X11514255Y5931761D01*
X11515242Y5932325D01*
X11516652Y5933171D01*
X11518062Y5934298D01*
X11519612Y5935426D01*
X11521163Y5936836D01*
X11522432Y5938386D01*
X11522573Y5938527D01*
X11522995Y5939091D01*
X11523559Y5940078D01*
X11524123Y5941347D01*
X11524969Y5942897D01*
X11525815Y5944730D01*
X11526520Y5946704D01*
X11527225Y5949100D01*
Y5949382D01*
X11527507Y5950228D01*
X11527648Y5951638D01*
X11527929Y5953470D01*
X11528211Y5955726D01*
X11528493Y5958404D01*
X11528634Y5961365D01*
X11528775Y5964748D01*
Y6001964D01*
D02*
G37*
%LPD*%
G36*
X11500440Y6209331D02*
X11500581D01*
X11500863Y6209190D01*
X11501286Y6209049D01*
X11501991Y6208767D01*
X11503683Y6208203D01*
X11505797Y6207498D01*
X11508194Y6206793D01*
X11510590Y6205947D01*
X11512846Y6205243D01*
X11514819Y6204679D01*
X11514537Y6204538D01*
X11513832Y6204397D01*
X11512564Y6203974D01*
X11510872Y6203410D01*
X11508617Y6202705D01*
X11505938Y6201718D01*
X11502837Y6200732D01*
X11499172Y6199463D01*
X11431224Y6176062D01*
Y6232450D01*
X11500440Y6209331D01*
D02*
G37*
G36*
X11517216Y6101630D02*
X11517075Y6100643D01*
X11516934Y6098528D01*
X11516793Y6096132D01*
X11516511Y6093594D01*
X11516088Y6091057D01*
X11515524Y6088942D01*
X11515383Y6088660D01*
X11515242Y6087956D01*
X11514819Y6086969D01*
X11514255Y6085700D01*
X11513410Y6084290D01*
X11512564Y6082881D01*
X11511577Y6081471D01*
X11510449Y6080061D01*
X11510167Y6079920D01*
X11509603Y6079356D01*
X11508617Y6078511D01*
X11507207Y6077524D01*
X11505374Y6076396D01*
X11503260Y6075127D01*
X11500863Y6074000D01*
X11498185Y6073013D01*
X11498044D01*
X11497762Y6072872D01*
X11497339Y6072731D01*
X11496775Y6072590D01*
X11496070Y6072449D01*
X11495083Y6072167D01*
X11494097Y6071885D01*
X11492969Y6071603D01*
X11490149Y6071180D01*
X11486907Y6070757D01*
X11483242Y6070475D01*
X11479295Y6070334D01*
X11479154D01*
X11478590D01*
X11477885D01*
X11476757Y6070475D01*
X11475489D01*
X11474079Y6070616D01*
X11472387Y6070757D01*
X11470696Y6070898D01*
X11466889Y6071603D01*
X11462942Y6072449D01*
X11459277Y6073718D01*
X11457444Y6074563D01*
X11455894Y6075409D01*
X11455753D01*
X11455471Y6075691D01*
X11455048Y6075973D01*
X11454484Y6076255D01*
X11453074Y6077383D01*
X11451383Y6078793D01*
X11449550Y6080625D01*
X11447718Y6082740D01*
X11446167Y6085136D01*
X11444898Y6087674D01*
X11444757Y6087956D01*
X11444616Y6088660D01*
X11444193Y6089929D01*
X11443770Y6091762D01*
X11443488Y6094017D01*
X11443066Y6096837D01*
X11442925Y6098528D01*
Y6100361D01*
X11442784Y6102194D01*
Y6124749D01*
X11517216D01*
Y6101630D01*
D02*
G37*
G36*
X11528775Y6057083D02*
X11481409D01*
X11482396Y6057224D01*
X11483524D01*
X11486202Y6057365D01*
X11489304Y6057788D01*
X11492546Y6058211D01*
X11495929Y6058916D01*
X11499313Y6059762D01*
X11499454D01*
X11499735Y6059903D01*
X11500158Y6060044D01*
X11500722Y6060184D01*
X11502273Y6060748D01*
X11504246Y6061594D01*
X11506502Y6062440D01*
X11508758Y6063568D01*
X11511154Y6064977D01*
X11513410Y6066387D01*
X11513691Y6066528D01*
X11514396Y6067092D01*
X11515383Y6067938D01*
X11516652Y6069066D01*
X11518062Y6070334D01*
X11519471Y6071885D01*
X11521022Y6073436D01*
X11522291Y6075268D01*
X11522432Y6075550D01*
X11522855Y6076114D01*
X11523418Y6077101D01*
X11524123Y6078511D01*
X11524969Y6080202D01*
X11525674Y6082176D01*
X11526520Y6084431D01*
X11527225Y6086969D01*
Y6087251D01*
X11527366Y6087674D01*
X11527507Y6088097D01*
X11527648Y6089506D01*
X11527929Y6091480D01*
X11528211Y6093735D01*
X11528493Y6096414D01*
X11528634Y6099374D01*
X11528775Y6102616D01*
Y6057083D01*
D02*
G37*
G36*
X11472105Y5965030D02*
X11471964Y5963197D01*
X11471823Y5961224D01*
X11471682Y5959250D01*
X11471400Y5957276D01*
X11471119Y5955726D01*
X11470978Y5955444D01*
X11470837Y5954880D01*
X11470414Y5954034D01*
X11469850Y5952906D01*
X11469286Y5951779D01*
X11468440Y5950510D01*
X11467312Y5949241D01*
X11466185Y5948254D01*
X11466044Y5948113D01*
X11465621Y5947831D01*
X11464775Y5947408D01*
X11463788Y5946986D01*
X11462660Y5946563D01*
X11461251Y5946140D01*
X11459559Y5945858D01*
X11457726Y5945717D01*
X11457444D01*
X11456881D01*
X11456035Y5945858D01*
X11454907Y5945999D01*
X11453497Y5946281D01*
X11452088Y5946704D01*
X11450678Y5947268D01*
X11449268Y5948113D01*
X11449127Y5948254D01*
X11448704Y5948536D01*
X11447999Y5949100D01*
X11447295Y5949805D01*
X11446449Y5950792D01*
X11445603Y5951920D01*
X11444757Y5953329D01*
X11444193Y5954880D01*
Y5955021D01*
X11443911Y5955726D01*
X11443770Y5956712D01*
X11443488Y5958263D01*
X11443206Y5960378D01*
X11443066Y5962774D01*
X11442784Y5965876D01*
Y5988995D01*
X11472105D01*
Y5965030D01*
D02*
G37*
G36*
X11517216Y5961224D02*
X11517075Y5958263D01*
X11516934Y5956994D01*
X11516793Y5955867D01*
Y5955726D01*
X11516652Y5955162D01*
X11516511Y5954316D01*
X11516229Y5953329D01*
X11515383Y5950933D01*
X11514255Y5948536D01*
X11514114Y5948395D01*
X11513832Y5947972D01*
X11513410Y5947408D01*
X11512846Y5946704D01*
X11512000Y5945999D01*
X11511154Y5945012D01*
X11510026Y5944307D01*
X11508758Y5943461D01*
X11508617Y5943320D01*
X11508194Y5943179D01*
X11507348Y5942897D01*
X11506361Y5942475D01*
X11505233Y5942052D01*
X11503824Y5941770D01*
X11502132Y5941629D01*
X11500440Y5941488D01*
X11500158D01*
X11499594D01*
X11498467Y5941629D01*
X11497198Y5941911D01*
X11495788Y5942193D01*
X11494238Y5942756D01*
X11492687Y5943461D01*
X11491136Y5944448D01*
X11490995Y5944589D01*
X11490431Y5945012D01*
X11489727Y5945576D01*
X11488881Y5946422D01*
X11487894Y5947549D01*
X11486907Y5948959D01*
X11486061Y5950510D01*
X11485357Y5952342D01*
X11485216Y5952624D01*
X11485075Y5953188D01*
X11484793Y5954457D01*
X11484511Y5956008D01*
X11484229Y5957981D01*
X11483947Y5960378D01*
X11483665Y5963338D01*
Y5988995D01*
X11517216D01*
Y5961224D01*
D02*
G37*
%LPC*%
G36*
X12938066Y6828776D02*
X12923969D01*
X12884074Y6731224D01*
X12898735D01*
X12910155Y6760828D01*
X12951035D01*
X12961607Y6731224D01*
X12975282D01*
X12938066Y6828776D01*
D02*
G37*
%LPD*%
G36*
X12931299Y6818485D02*
X12931441Y6818203D01*
Y6817639D01*
X12931721Y6817075D01*
X12931863Y6816088D01*
X12932146Y6815101D01*
X12932709Y6812705D01*
X12933414Y6809886D01*
X12934399Y6806784D01*
X12935387Y6803401D01*
X12936656Y6799877D01*
X12947229Y6771401D01*
X12914243D01*
X12924391Y6798185D01*
Y6798326D01*
X12924532Y6798749D01*
X12924814Y6799454D01*
X12925096Y6800300D01*
X12925519Y6801286D01*
X12925941Y6802555D01*
X12926366Y6803965D01*
X12926929Y6805375D01*
X12928056Y6808617D01*
X12929184Y6812000D01*
X12930312Y6815383D01*
X12931299Y6818626D01*
Y6818485D01*
D02*
G37*
%LPC*%
G36*
X13199425Y6828776D02*
X13186172D01*
X13135001Y6752088D01*
Y6828776D01*
X13122595D01*
Y6731224D01*
X13135986D01*
X13187019Y6807771D01*
Y6731224D01*
X13199425D01*
Y6828776D01*
D02*
G37*
G36*
X13290068D02*
X13219443D01*
Y6817216D01*
X13277098D01*
Y6787471D01*
X13223106D01*
Y6775912D01*
X13277098D01*
Y6742784D01*
X13217186D01*
Y6731224D01*
X13290068D01*
Y6828776D01*
D02*
G37*
G36*
X12678776Y6149231D02*
X12667216D01*
Y6117090D01*
X12581225D01*
Y6149231D01*
D01*
Y6071979D01*
Y6104120D01*
X12667216D01*
Y6071979D01*
X12581225D01*
X12678776D01*
Y6149231D01*
D02*
G37*
G36*
Y6057600D02*
X12581225D01*
Y5980772D01*
X12678776D01*
Y5994023D01*
X12602088Y6045195D01*
X12678776D01*
Y6057600D01*
D02*
G37*
%LPD*%
G36*
X12657771Y5993177D02*
X12581225D01*
Y6044208D01*
X12657771Y5993177D01*
D02*
G37*
%LPC*%
G36*
X12326024Y7749199D02*
X12324614D01*
X12323627Y7749058D01*
X12322499Y7748917D01*
X12321090Y7748776D01*
X12319539Y7748494D01*
X12317988Y7748212D01*
X12314323Y7747225D01*
X12310658Y7745815D01*
X12308825Y7744970D01*
X12306993Y7743983D01*
X12305301Y7742714D01*
X12303750Y7741304D01*
X12303609Y7741163D01*
X12303327Y7741022D01*
X12303045Y7740458D01*
X12302482Y7739895D01*
X12301777Y7739190D01*
X12301072Y7738203D01*
X12300367Y7737216D01*
X12299521Y7735947D01*
X12298112Y7733269D01*
X12296702Y7729886D01*
X12296138Y7728194D01*
X12295856Y7726221D01*
X12295574Y7724247D01*
X12295433Y7722132D01*
Y7721850D01*
Y7721146D01*
X12295574Y7720018D01*
X12295715Y7718467D01*
X12295997Y7716776D01*
X12296561Y7714802D01*
X12297125Y7712687D01*
X12297971Y7710573D01*
X12298112Y7710291D01*
X12298393Y7709586D01*
X12298957Y7708458D01*
X12299803Y7706908D01*
X12300931Y7705216D01*
X12302341Y7703101D01*
X12304032Y7700987D01*
X12306006Y7698590D01*
X12306288Y7698308D01*
X12306993Y7697463D01*
X12307698Y7696758D01*
X12308402Y7696053D01*
X12309248Y7695207D01*
X12310376Y7694079D01*
X12311504Y7692952D01*
X12312913Y7691683D01*
X12314323Y7690273D01*
X12316015Y7688722D01*
X12317847Y7687172D01*
X12319821Y7685339D01*
X12322076Y7683507D01*
X12324332Y7681533D01*
X12324473Y7681392D01*
X12324755Y7681110D01*
X12325319Y7680687D01*
X12326024Y7680123D01*
X12326869Y7679278D01*
X12327856Y7678432D01*
X12330112Y7676599D01*
X12332508Y7674485D01*
X12334764Y7672370D01*
X12336737Y7670537D01*
X12337583Y7669833D01*
X12338288Y7669128D01*
X12338429Y7668987D01*
X12338852Y7668564D01*
X12339416Y7668000D01*
X12340121Y7667154D01*
X12340825Y7666167D01*
X12341671Y7665181D01*
X12343363Y7662784D01*
X12295292D01*
Y7651224D01*
X12359997D01*
Y7652775D01*
X12359856Y7653903D01*
X12359715Y7655172D01*
X12359433Y7656581D01*
X12359152Y7657991D01*
X12358588Y7659542D01*
Y7659683D01*
X12358447Y7659824D01*
X12358165Y7660669D01*
X12357601Y7661938D01*
X12356755Y7663630D01*
X12355627Y7665603D01*
X12354218Y7667859D01*
X12352667Y7670114D01*
X12350693Y7672511D01*
Y7672652D01*
X12350411Y7672793D01*
X12349707Y7673639D01*
X12348438Y7674907D01*
X12346605Y7676740D01*
X12344491Y7678855D01*
X12341812Y7681392D01*
X12338570Y7684211D01*
X12335046Y7687172D01*
X12334905Y7687313D01*
X12334341Y7687736D01*
X12333495Y7688441D01*
X12332508Y7689286D01*
X12331239Y7690414D01*
X12329689Y7691683D01*
X12328138Y7693093D01*
X12326306Y7694643D01*
X12322781Y7698027D01*
X12319257Y7701410D01*
X12317565Y7703101D01*
X12316015Y7704793D01*
X12314605Y7706344D01*
X12313477Y7707894D01*
Y7708035D01*
X12313195Y7708176D01*
X12312913Y7708599D01*
X12312631Y7709163D01*
X12311645Y7710714D01*
X12310517Y7712546D01*
X12309530Y7714802D01*
X12308543Y7717198D01*
X12307979Y7719877D01*
X12307698Y7722414D01*
Y7722555D01*
Y7722696D01*
X12307838Y7723542D01*
X12307979Y7724952D01*
X12308402Y7726502D01*
X12308966Y7728476D01*
X12309953Y7730450D01*
X12311222Y7732423D01*
X12312913Y7734397D01*
X12313195Y7734679D01*
X12313900Y7735243D01*
X12314887Y7735947D01*
X12316438Y7736934D01*
X12318411Y7737780D01*
X12320667Y7738626D01*
X12323345Y7739190D01*
X12326306Y7739331D01*
X12327151D01*
X12327715Y7739190D01*
X12329407Y7739049D01*
X12331380Y7738626D01*
X12333495Y7738062D01*
X12335892Y7737075D01*
X12338147Y7735806D01*
X12340262Y7734115D01*
X12340544Y7733833D01*
X12341107Y7733128D01*
X12341953Y7732000D01*
X12342799Y7730309D01*
X12343786Y7728335D01*
X12344632Y7725798D01*
X12345196Y7722978D01*
X12345477Y7719736D01*
X12357742Y7721005D01*
Y7721146D01*
X12357601Y7721569D01*
Y7722273D01*
X12357460Y7723260D01*
X12357178Y7724388D01*
X12356896Y7725657D01*
X12356473Y7727207D01*
X12356050Y7728758D01*
X12354922Y7732141D01*
X12353231Y7735525D01*
X12352244Y7737216D01*
X12350975Y7738908D01*
X12349707Y7740458D01*
X12348297Y7741868D01*
X12348156Y7742009D01*
X12347874Y7742150D01*
X12347451Y7742573D01*
X12346746Y7742996D01*
X12345900Y7743560D01*
X12344914Y7744124D01*
X12343786Y7744829D01*
X12342376Y7745533D01*
X12340825Y7746238D01*
X12339134Y7746943D01*
X12337301Y7747507D01*
X12335328Y7748071D01*
X12333213Y7748494D01*
X12330958Y7748917D01*
X12328561Y7749058D01*
X12326024Y7749199D01*
D02*
G37*
G36*
X13224707Y7748776D02*
X13205394D01*
X13182275Y7679559D01*
Y7679418D01*
X13182133Y7679137D01*
X13181993Y7678714D01*
X13181712Y7678009D01*
X13181148Y7676317D01*
X13180443Y7674203D01*
X13179738Y7671806D01*
X13178893Y7669410D01*
X13178188Y7667154D01*
X13177623Y7665181D01*
X13177483Y7665462D01*
X13177341Y7666167D01*
X13176920Y7667436D01*
X13176355Y7669128D01*
X13175650Y7671383D01*
X13174663Y7674062D01*
X13173676Y7677163D01*
X13172408Y7680828D01*
X13149007Y7748776D01*
X13131667D01*
Y7651224D01*
X13144073D01*
Y7732846D01*
X13172548Y7651224D01*
X13184108D01*
X13212302Y7734256D01*
Y7651224D01*
X13224707D01*
Y7748776D01*
D02*
G37*
G36*
X12572862D02*
X12559893D01*
Y7692388D01*
Y7692247D01*
Y7691824D01*
Y7691119D01*
Y7690273D01*
X12559752Y7689286D01*
Y7688018D01*
X12559611Y7685339D01*
X12559329Y7682238D01*
X12558906Y7679137D01*
X12558342Y7676176D01*
X12558060Y7674907D01*
X12557637Y7673639D01*
X12557496Y7673357D01*
X12557214Y7672652D01*
X12556510Y7671665D01*
X12555664Y7670255D01*
X12554677Y7668846D01*
X12553267Y7667295D01*
X12551576Y7665744D01*
X12549602Y7664476D01*
X12549320Y7664335D01*
X12548615Y7663912D01*
X12547347Y7663489D01*
X12545655Y7662925D01*
X12543681Y7662220D01*
X12541144Y7661797D01*
X12538465Y7661374D01*
X12535505Y7661233D01*
X12534095D01*
X12533250Y7661374D01*
X12531981D01*
X12530712Y7661515D01*
X12527611Y7662079D01*
X12524227Y7662784D01*
X12520985Y7663912D01*
X12517884Y7665462D01*
X12516474Y7666449D01*
X12515205Y7667577D01*
X12515064Y7667718D01*
X12514923Y7667859D01*
X12514641Y7668282D01*
X12514219Y7668846D01*
X12513796Y7669692D01*
X12513232Y7670537D01*
X12512668Y7671806D01*
X12512104Y7673075D01*
X12511540Y7674625D01*
X12511117Y7676458D01*
X12510553Y7678573D01*
X12510130Y7680828D01*
X12509708Y7683366D01*
X12509426Y7686044D01*
X12509144Y7689145D01*
Y7692388D01*
Y7748776D01*
X12496174D01*
Y7689991D01*
X12496315Y7688722D01*
Y7687313D01*
X12496456Y7685621D01*
X12496597Y7683930D01*
X12497020Y7680123D01*
X12497584Y7676176D01*
X12498430Y7672370D01*
X12498994Y7670537D01*
X12499558Y7668846D01*
Y7668705D01*
X12499699Y7668423D01*
X12499981Y7668000D01*
X12500263Y7667436D01*
X12501108Y7665885D01*
X12502377Y7663912D01*
X12504069Y7661656D01*
X12506042Y7659401D01*
X12508580Y7657004D01*
X12511681Y7654890D01*
X12511822D01*
X12512104Y7654608D01*
X12512527Y7654467D01*
X12513232Y7654044D01*
X12514078Y7653621D01*
X12515205Y7653198D01*
X12516333Y7652775D01*
X12517743Y7652211D01*
X12519293Y7651647D01*
X12520985Y7651224D01*
X12522818Y7650802D01*
X12524932Y7650379D01*
X12527047Y7650097D01*
X12529302Y7649815D01*
X12534377Y7649533D01*
X12535646D01*
X12536633Y7649674D01*
X12537761D01*
X12539170Y7649815D01*
X12540721Y7649956D01*
X12542272Y7650097D01*
X12545796Y7650661D01*
X12549602Y7651506D01*
X12553267Y7652634D01*
X12556791Y7654185D01*
X12556932D01*
X12557214Y7654467D01*
X12557637Y7654749D01*
X12558201Y7655031D01*
X12559752Y7656158D01*
X12561584Y7657709D01*
X12563699Y7659683D01*
X12565673Y7661938D01*
X12567646Y7664758D01*
X12569197Y7667859D01*
Y7668000D01*
X12569338Y7668282D01*
X12569479Y7668846D01*
X12569761Y7669551D01*
X12570043Y7670396D01*
X12570325Y7671524D01*
X12570748Y7672793D01*
X12571029Y7674344D01*
X12571311Y7676035D01*
X12571734Y7677868D01*
X12572016Y7679841D01*
X12572298Y7681956D01*
X12572580Y7684352D01*
X12572721Y7686890D01*
X12572862Y7689568D01*
Y7748776D01*
D02*
G37*
G36*
X13011984D02*
X12934732D01*
Y7737216D01*
X12966873D01*
Y7651224D01*
X12979842D01*
Y7737216D01*
X13011984D01*
Y7748776D01*
D02*
G37*
G36*
X12815190D02*
X12769938D01*
X12768810Y7748635D01*
X12767542D01*
X12764581Y7748494D01*
X12761480Y7748071D01*
X12758097Y7747648D01*
X12754995Y7746943D01*
X12753445Y7746520D01*
X12752176Y7746097D01*
X12752035D01*
X12751894Y7745956D01*
X12751048Y7745533D01*
X12749779Y7744970D01*
X12748229Y7743983D01*
X12746537Y7742714D01*
X12744705Y7741022D01*
X12743013Y7739049D01*
X12741321Y7736793D01*
Y7736652D01*
X12741180Y7736511D01*
X12740616Y7735666D01*
X12740052Y7734256D01*
X12739207Y7732423D01*
X12738502Y7730309D01*
X12737797Y7727771D01*
X12737374Y7725093D01*
X12737233Y7722132D01*
Y7721991D01*
Y7721709D01*
Y7721146D01*
X12737374Y7720441D01*
Y7719454D01*
X12737515Y7718467D01*
X12738079Y7716071D01*
X12738925Y7713251D01*
X12740052Y7710291D01*
X12741744Y7707331D01*
X12742872Y7705921D01*
X12744000Y7704511D01*
X12744141Y7704370D01*
X12744282Y7704229D01*
X12744705Y7703806D01*
X12745268Y7703383D01*
X12745973Y7702819D01*
X12746819Y7702256D01*
X12747947Y7701551D01*
X12749075Y7700705D01*
X12750484Y7700000D01*
X12752035Y7699295D01*
X12753727Y7698449D01*
X12755559Y7697745D01*
X12757674Y7697181D01*
X12759788Y7696476D01*
X12762185Y7696053D01*
X12764722Y7695630D01*
X12764440Y7695489D01*
X12763876Y7695207D01*
X12763031Y7694643D01*
X12761903Y7694079D01*
X12759365Y7692529D01*
X12758097Y7691542D01*
X12756969Y7690696D01*
X12756687Y7690414D01*
X12755982Y7689709D01*
X12754854Y7688582D01*
X12753445Y7687172D01*
X12751894Y7685198D01*
X12750061Y7683084D01*
X12748229Y7680546D01*
X12746255Y7677727D01*
X12729480Y7651224D01*
X12745550D01*
X12758379Y7671524D01*
Y7671665D01*
X12758661Y7671947D01*
X12758942Y7672370D01*
X12759365Y7672934D01*
X12760352Y7674485D01*
X12761621Y7676458D01*
X12763172Y7678573D01*
X12764722Y7680828D01*
X12766273Y7682943D01*
X12767683Y7684916D01*
X12767824Y7685057D01*
X12768246Y7685621D01*
X12768951Y7686467D01*
X12769938Y7687454D01*
X12772053Y7689568D01*
X12773180Y7690555D01*
X12774308Y7691401D01*
X12774449Y7691542D01*
X12774731Y7691683D01*
X12775295Y7691965D01*
X12776141Y7692388D01*
X12776987Y7692811D01*
X12777973Y7693234D01*
X12780229Y7693938D01*
X12780370D01*
X12780652Y7694079D01*
X12781216D01*
X12781921Y7694220D01*
X12782907Y7694361D01*
X12784035D01*
X12785586Y7694502D01*
X12802220D01*
Y7651224D01*
X12815190D01*
Y7748776D01*
D02*
G37*
G36*
X12481936D02*
X12404685D01*
Y7737216D01*
X12436826D01*
Y7651224D01*
X12449795D01*
Y7737216D01*
X12481936D01*
Y7748776D01*
D02*
G37*
G36*
X13067949Y7750467D02*
X13066679D01*
X13065694Y7750326D01*
X13064424D01*
X13063156Y7750185D01*
X13061464Y7749903D01*
X13059772Y7749622D01*
X13056107Y7748917D01*
X13051878Y7747789D01*
X13047791Y7746097D01*
X13045676Y7745110D01*
X13043561Y7743983D01*
X13043420Y7743842D01*
X13043138Y7743701D01*
X13042574Y7743278D01*
X13041728Y7742855D01*
X13040881Y7742150D01*
X13039755Y7741304D01*
X13037358Y7739331D01*
X13034821Y7736793D01*
X13032001Y7733692D01*
X13029323Y7730027D01*
X13027068Y7725939D01*
Y7725798D01*
X13026785Y7725375D01*
X13026505Y7724811D01*
X13026222Y7723965D01*
X13025658Y7722837D01*
X13025235Y7721569D01*
X13024670Y7720018D01*
X13024107Y7718326D01*
X13023685Y7716494D01*
X13023120Y7714520D01*
X13022556Y7712264D01*
X13022133Y7710009D01*
X13021570Y7705075D01*
X13021288Y7699718D01*
Y7698308D01*
X13021429Y7697181D01*
Y7695912D01*
X13021570Y7694361D01*
X13021852Y7692670D01*
X13021992Y7690837D01*
X13022697Y7686749D01*
X13023825Y7682238D01*
X13025375Y7677727D01*
X13026222Y7675471D01*
X13027348Y7673216D01*
Y7673075D01*
X13027631Y7672652D01*
X13027913Y7672088D01*
X13028477Y7671242D01*
X13029041Y7670255D01*
X13029745Y7669269D01*
X13031718Y7666590D01*
X13034116Y7663771D01*
X13036935Y7660810D01*
X13040318Y7657991D01*
X13044266Y7655454D01*
X13044408D01*
X13044688Y7655172D01*
X13045393Y7654890D01*
X13046239Y7654467D01*
X13047226Y7654044D01*
X13048354Y7653621D01*
X13049763Y7653057D01*
X13051314Y7652493D01*
X13053006Y7651929D01*
X13054839Y7651365D01*
X13058926Y7650520D01*
X13063297Y7649815D01*
X13067949Y7649533D01*
X13069357D01*
X13070204Y7649674D01*
X13071474D01*
X13072884Y7649956D01*
X13074432Y7650097D01*
X13076266Y7650379D01*
X13080072Y7651224D01*
X13084160Y7652352D01*
X13088390Y7654044D01*
X13090504Y7655031D01*
X13092618Y7656158D01*
X13092760Y7656299D01*
X13093040Y7656440D01*
X13093605Y7656863D01*
X13094450Y7657427D01*
X13095297Y7657991D01*
X13096284Y7658837D01*
X13098680Y7660951D01*
X13101360Y7663489D01*
X13104178Y7666590D01*
X13106715Y7670114D01*
X13109113Y7674203D01*
Y7674344D01*
X13109393Y7674766D01*
X13109676Y7675330D01*
X13109958Y7676176D01*
X13110381Y7677304D01*
X13110805Y7678573D01*
X13111366Y7679982D01*
X13111790Y7681533D01*
X13112354Y7683366D01*
X13112918Y7685198D01*
X13113763Y7689427D01*
X13114328Y7693797D01*
X13114610Y7698590D01*
Y7699718D01*
X13114468Y7700987D01*
Y7702679D01*
X13114188Y7704652D01*
X13113905Y7707049D01*
X13113483Y7709727D01*
X13112918Y7712546D01*
X13112354Y7715507D01*
X13111508Y7718608D01*
X13110381Y7721709D01*
X13109113Y7724952D01*
X13107703Y7728053D01*
X13105870Y7731154D01*
X13103896Y7733974D01*
X13101640Y7736652D01*
X13101500Y7736793D01*
X13101077Y7737216D01*
X13100230Y7737921D01*
X13099245Y7738767D01*
X13097975Y7739895D01*
X13096425Y7741022D01*
X13094592Y7742291D01*
X13092477Y7743560D01*
X13090222Y7744829D01*
X13087685Y7746097D01*
X13084865Y7747225D01*
X13081905Y7748353D01*
X13078662Y7749199D01*
X13075279Y7749903D01*
X13071754Y7750326D01*
X13067949Y7750467D01*
D02*
G37*
G36*
X12878625D02*
X12877357D01*
X12876370Y7750326D01*
X12875102D01*
X12873833Y7750185D01*
X12872141Y7749903D01*
X12870450Y7749622D01*
X12866785Y7748917D01*
X12862555Y7747789D01*
X12858467Y7746097D01*
X12856354Y7745110D01*
X12854237Y7743983D01*
X12854097Y7743842D01*
X12853815Y7743701D01*
X12853252Y7743278D01*
X12852406Y7742855D01*
X12851559Y7742150D01*
X12850432Y7741304D01*
X12848036Y7739331D01*
X12845499Y7736793D01*
X12842679Y7733692D01*
X12839999Y7730027D01*
X12837746Y7725939D01*
Y7725798D01*
X12837463Y7725375D01*
X12837181Y7724811D01*
X12836899Y7723965D01*
X12836336Y7722837D01*
X12835912Y7721569D01*
X12835349Y7720018D01*
X12834784Y7718326D01*
X12834361Y7716494D01*
X12833798Y7714520D01*
X12833234Y7712264D01*
X12832811Y7710009D01*
X12832246Y7705075D01*
X12831966Y7699718D01*
Y7698308D01*
X12832106Y7697181D01*
Y7695912D01*
X12832246Y7694361D01*
X12832529Y7692670D01*
X12832671Y7690837D01*
X12833376Y7686749D01*
X12834502Y7682238D01*
X12836053Y7677727D01*
X12836899Y7675471D01*
X12838026Y7673216D01*
Y7673075D01*
X12838309Y7672652D01*
X12838591Y7672088D01*
X12839154Y7671242D01*
X12839719Y7670255D01*
X12840424Y7669269D01*
X12842397Y7666590D01*
X12844794Y7663771D01*
X12847614Y7660810D01*
X12850996Y7657991D01*
X12854942Y7655454D01*
X12855084D01*
X12855367Y7655172D01*
X12856071Y7654890D01*
X12856917Y7654467D01*
X12857903Y7654044D01*
X12859032Y7653621D01*
X12860442Y7653057D01*
X12861992Y7652493D01*
X12863683Y7651929D01*
X12865517Y7651365D01*
X12869604Y7650520D01*
X12873975Y7649815D01*
X12878625Y7649533D01*
X12880035D01*
X12880882Y7649674D01*
X12882150D01*
X12883560Y7649956D01*
X12885110Y7650097D01*
X12886943Y7650379D01*
X12890749Y7651224D01*
X12894838Y7652352D01*
X12899068Y7654044D01*
X12901181Y7655031D01*
X12903296Y7656158D01*
X12903436Y7656299D01*
X12903719Y7656440D01*
X12904283Y7656863D01*
X12905128Y7657427D01*
X12905974Y7657991D01*
X12906961Y7658837D01*
X12909357Y7660951D01*
X12912036Y7663489D01*
X12914854Y7666590D01*
X12917393Y7670114D01*
X12919789Y7674203D01*
Y7674344D01*
X12920071Y7674766D01*
X12920354Y7675330D01*
X12920634Y7676176D01*
X12921059Y7677304D01*
X12921481Y7678573D01*
X12922044Y7679982D01*
X12922469Y7681533D01*
X12923032Y7683366D01*
X12923595Y7685198D01*
X12924442Y7689427D01*
X12925005Y7693797D01*
X12925287Y7698590D01*
Y7699718D01*
X12925146Y7700987D01*
Y7702679D01*
X12924864Y7704652D01*
X12924582Y7707049D01*
X12924159Y7709727D01*
X12923595Y7712546D01*
X12923032Y7715507D01*
X12922186Y7718608D01*
X12921059Y7721709D01*
X12919789Y7724952D01*
X12918381Y7728053D01*
X12916547Y7731154D01*
X12914574Y7733974D01*
X12912318Y7736652D01*
X12912177Y7736793D01*
X12911754Y7737216D01*
X12910909Y7737921D01*
X12909921Y7738767D01*
X12908653Y7739895D01*
X12907101Y7741022D01*
X12905269Y7742291D01*
X12903156Y7743560D01*
X12900899Y7744829D01*
X12898363Y7746097D01*
X12895541Y7747225D01*
X12892583Y7748353D01*
X12889340Y7749199D01*
X12885956Y7749903D01*
X12882433Y7750326D01*
X12878625Y7750467D01*
D02*
G37*
G36*
X12636299D02*
X12635030D01*
X12634043Y7750326D01*
X12632774D01*
X12631506Y7750185D01*
X12629814Y7749903D01*
X12628122Y7749622D01*
X12624457Y7748917D01*
X12620228Y7747789D01*
X12616140Y7746097D01*
X12614025Y7745110D01*
X12611911Y7743983D01*
X12611770Y7743842D01*
X12611488Y7743701D01*
X12610924Y7743278D01*
X12610078Y7742855D01*
X12609232Y7742150D01*
X12608105Y7741304D01*
X12605708Y7739331D01*
X12603171Y7736793D01*
X12600351Y7733692D01*
X12597673Y7730027D01*
X12595417Y7725939D01*
Y7725798D01*
X12595135Y7725375D01*
X12594853Y7724811D01*
X12594571Y7723965D01*
X12594008Y7722837D01*
X12593585Y7721569D01*
X12593021Y7720018D01*
X12592457Y7718326D01*
X12592034Y7716494D01*
X12591470Y7714520D01*
X12590906Y7712264D01*
X12590483Y7710009D01*
X12589919Y7705075D01*
X12589638Y7699718D01*
Y7698308D01*
X12589778Y7697181D01*
Y7695912D01*
X12589919Y7694361D01*
X12590201Y7692670D01*
X12590342Y7690837D01*
X12591047Y7686749D01*
X12592175Y7682238D01*
X12593726Y7677727D01*
X12594571Y7675471D01*
X12595699Y7673216D01*
Y7673075D01*
X12595981Y7672652D01*
X12596263Y7672088D01*
X12596827Y7671242D01*
X12597391Y7670255D01*
X12598096Y7669269D01*
X12600069Y7666590D01*
X12602466Y7663771D01*
X12605285Y7660810D01*
X12608668Y7657991D01*
X12612616Y7655454D01*
X12612757D01*
X12613039Y7655172D01*
X12613743Y7654890D01*
X12614589Y7654467D01*
X12615576Y7654044D01*
X12616704Y7653621D01*
X12618113Y7653057D01*
X12619664Y7652493D01*
X12621356Y7651929D01*
X12623188Y7651365D01*
X12627276Y7650520D01*
X12631647Y7649815D01*
X12636299Y7649533D01*
X12637708D01*
X12638554Y7649674D01*
X12639823D01*
X12641233Y7649956D01*
X12642783Y7650097D01*
X12644616Y7650379D01*
X12648422Y7651224D01*
X12652510Y7652352D01*
X12656739Y7654044D01*
X12658854Y7655031D01*
X12660968Y7656158D01*
X12661109Y7656299D01*
X12661391Y7656440D01*
X12661955Y7656863D01*
X12662801Y7657427D01*
X12663647Y7657991D01*
X12664634Y7658837D01*
X12667030Y7660951D01*
X12669708Y7663489D01*
X12672528Y7666590D01*
X12675065Y7670114D01*
X12677462Y7674203D01*
Y7674344D01*
X12677744Y7674766D01*
X12678026Y7675330D01*
X12678308Y7676176D01*
X12678731Y7677304D01*
X12679153Y7678573D01*
X12679717Y7679982D01*
X12680140Y7681533D01*
X12680704Y7683366D01*
X12681268Y7685198D01*
X12682114Y7689427D01*
X12682678Y7693797D01*
X12682960Y7698590D01*
Y7699718D01*
X12682819Y7700987D01*
Y7702679D01*
X12682537Y7704652D01*
X12682255Y7707049D01*
X12681832Y7709727D01*
X12681268Y7712546D01*
X12680704Y7715507D01*
X12679858Y7718608D01*
X12678731Y7721709D01*
X12677462Y7724952D01*
X12676052Y7728053D01*
X12674220Y7731154D01*
X12672246Y7733974D01*
X12669990Y7736652D01*
X12669849Y7736793D01*
X12669427Y7737216D01*
X12668581Y7737921D01*
X12667594Y7738767D01*
X12666325Y7739895D01*
X12664775Y7741022D01*
X12662942Y7742291D01*
X12660827Y7743560D01*
X12658572Y7744829D01*
X12656034Y7746097D01*
X12653215Y7747225D01*
X12650255Y7748353D01*
X12647012Y7749199D01*
X12643629Y7749903D01*
X12640105Y7750326D01*
X12636299Y7750467D01*
D02*
G37*
%LPD*%
G36*
X12802220Y7705639D02*
X12773180D01*
X12771489Y7705780D01*
X12769515Y7705921D01*
X12767260Y7706062D01*
X12765004Y7706344D01*
X12762749Y7706767D01*
X12760775Y7707331D01*
X12760493Y7707472D01*
X12759929Y7707753D01*
X12759083Y7708176D01*
X12757956Y7708740D01*
X12756687Y7709586D01*
X12755418Y7710573D01*
X12754149Y7711842D01*
X12753163Y7713251D01*
X12753022Y7713392D01*
X12752740Y7713956D01*
X12752317Y7714802D01*
X12751753Y7715930D01*
X12751330Y7717198D01*
X12750907Y7718608D01*
X12750625Y7720300D01*
X12750484Y7721991D01*
Y7722132D01*
Y7722273D01*
X12750625Y7723119D01*
X12750766Y7724388D01*
X12751048Y7726080D01*
X12751753Y7727771D01*
X12752599Y7729745D01*
X12753868Y7731577D01*
X12755559Y7733410D01*
X12755841Y7733551D01*
X12756546Y7734115D01*
X12757674Y7734820D01*
X12759506Y7735666D01*
X12761621Y7736511D01*
X12764440Y7737216D01*
X12767683Y7737780D01*
X12771489Y7737921D01*
X12802220D01*
Y7705639D01*
D02*
G37*
G36*
X13070204Y7739190D02*
X13071474Y7739049D01*
X13072742Y7738767D01*
X13074292Y7738485D01*
X13075984Y7738203D01*
X13079649Y7737075D01*
X13081622Y7736229D01*
X13083595Y7735384D01*
X13085712Y7734256D01*
X13087685Y7732987D01*
X13089658Y7731577D01*
X13091492Y7729886D01*
X13091632Y7729745D01*
X13091914Y7729463D01*
X13092337Y7728899D01*
X13093040Y7728053D01*
X13093745Y7727066D01*
X13094592Y7725798D01*
X13095438Y7724247D01*
X13096425Y7722414D01*
X13097270Y7720441D01*
X13098257Y7718044D01*
X13099103Y7715507D01*
X13099808Y7712687D01*
X13100513Y7709586D01*
X13100935Y7706062D01*
X13101218Y7702397D01*
X13101360Y7698449D01*
Y7698308D01*
Y7697745D01*
Y7696758D01*
X13101218Y7695489D01*
X13101077Y7694079D01*
X13100795Y7692388D01*
X13100513Y7690414D01*
X13100230Y7688441D01*
X13099103Y7683930D01*
X13098257Y7681674D01*
X13097411Y7679278D01*
X13096284Y7677022D01*
X13095015Y7674766D01*
X13093605Y7672652D01*
X13091914Y7670678D01*
X13091772Y7670537D01*
X13091492Y7670255D01*
X13090927Y7669692D01*
X13090222Y7669128D01*
X13089235Y7668282D01*
X13088107Y7667436D01*
X13086839Y7666590D01*
X13085429Y7665603D01*
X13083737Y7664617D01*
X13081905Y7663771D01*
X13079932Y7662925D01*
X13077817Y7662079D01*
X13075562Y7661515D01*
X13073306Y7660951D01*
X13070769Y7660669D01*
X13068089Y7660528D01*
X13067384D01*
X13066679Y7660669D01*
X13065694D01*
X13064424Y7660810D01*
X13063016Y7661092D01*
X13061324Y7661374D01*
X13059631Y7661797D01*
X13057658Y7662361D01*
X13055824Y7663066D01*
X13053711Y7663771D01*
X13051736Y7664758D01*
X13049763Y7666026D01*
X13047791Y7667295D01*
X13045816Y7668846D01*
X13043983Y7670678D01*
X13043843Y7670819D01*
X13043561Y7671101D01*
X13043138Y7671806D01*
X13042433Y7672652D01*
X13041728Y7673639D01*
X13041023Y7674907D01*
X13040178Y7676458D01*
X13039191Y7678150D01*
X13038345Y7680123D01*
X13037498Y7682379D01*
X13036794Y7684775D01*
X13035950Y7687313D01*
X13035385Y7690132D01*
X13034962Y7693234D01*
X13034680Y7696476D01*
X13034538Y7699859D01*
Y7700000D01*
Y7700423D01*
Y7700987D01*
Y7701833D01*
X13034680Y7702819D01*
Y7704088D01*
X13034821Y7705357D01*
X13035103Y7706908D01*
X13035526Y7710150D01*
X13036230Y7713533D01*
X13037218Y7717198D01*
X13038628Y7720582D01*
Y7720723D01*
X13038768Y7721005D01*
X13039050Y7721428D01*
X13039333Y7721991D01*
X13040318Y7723683D01*
X13041586Y7725657D01*
X13043279Y7727912D01*
X13045393Y7730168D01*
X13047791Y7732423D01*
X13050468Y7734397D01*
X13050609D01*
X13050751Y7734679D01*
X13051173Y7734820D01*
X13051878Y7735243D01*
X13052583Y7735525D01*
X13053429Y7735947D01*
X13055544Y7736934D01*
X13058081Y7737780D01*
X13061041Y7738626D01*
X13064424Y7739190D01*
X13067949Y7739331D01*
X13069217D01*
X13070204Y7739190D01*
D02*
G37*
G36*
X12880882D02*
X12882150Y7739049D01*
X12883418Y7738767D01*
X12884970Y7738485D01*
X12886661Y7738203D01*
X12890327Y7737075D01*
X12892300Y7736229D01*
X12894273Y7735384D01*
X12896388Y7734256D01*
X12898363Y7732987D01*
X12900336Y7731577D01*
X12902168Y7729886D01*
X12902309Y7729745D01*
X12902591Y7729463D01*
X12903014Y7728899D01*
X12903719Y7728053D01*
X12904424Y7727066D01*
X12905269Y7725798D01*
X12906116Y7724247D01*
X12907101Y7722414D01*
X12907948Y7720441D01*
X12908936Y7718044D01*
X12909779Y7715507D01*
X12910484Y7712687D01*
X12911189Y7709586D01*
X12911613Y7706062D01*
X12911896Y7702397D01*
X12912036Y7698449D01*
Y7698308D01*
Y7697745D01*
Y7696758D01*
X12911896Y7695489D01*
X12911754Y7694079D01*
X12911472Y7692388D01*
X12911189Y7690414D01*
X12910909Y7688441D01*
X12909779Y7683930D01*
X12908936Y7681674D01*
X12908089Y7679278D01*
X12906961Y7677022D01*
X12905692Y7674766D01*
X12904283Y7672652D01*
X12902591Y7670678D01*
X12902451Y7670537D01*
X12902168Y7670255D01*
X12901604Y7669692D01*
X12900899Y7669128D01*
X12899911Y7668282D01*
X12898785Y7667436D01*
X12897516Y7666590D01*
X12896106Y7665603D01*
X12894415Y7664617D01*
X12892583Y7663771D01*
X12890608Y7662925D01*
X12888493Y7662079D01*
X12886238Y7661515D01*
X12883983Y7660951D01*
X12881445Y7660669D01*
X12878767Y7660528D01*
X12878062D01*
X12877357Y7660669D01*
X12876370D01*
X12875102Y7660810D01*
X12873692Y7661092D01*
X12872000Y7661374D01*
X12870309Y7661797D01*
X12868335Y7662361D01*
X12866502Y7663066D01*
X12864388Y7663771D01*
X12862415Y7664758D01*
X12860442Y7666026D01*
X12858467Y7667295D01*
X12856494Y7668846D01*
X12854662Y7670678D01*
X12854520Y7670819D01*
X12854237Y7671101D01*
X12853815Y7671806D01*
X12853110Y7672652D01*
X12852406Y7673639D01*
X12851701Y7674907D01*
X12850854Y7676458D01*
X12849867Y7678150D01*
X12849022Y7680123D01*
X12848177Y7682379D01*
X12847472Y7684775D01*
X12846626Y7687313D01*
X12846062Y7690132D01*
X12845639Y7693234D01*
X12845357Y7696476D01*
X12845216Y7699859D01*
Y7700000D01*
Y7700423D01*
Y7700987D01*
Y7701833D01*
X12845357Y7702819D01*
Y7704088D01*
X12845499Y7705357D01*
X12845779Y7706908D01*
X12846204Y7710150D01*
X12846909Y7713533D01*
X12847894Y7717198D01*
X12849304Y7720582D01*
Y7720723D01*
X12849445Y7721005D01*
X12849727Y7721428D01*
X12850009Y7721991D01*
X12850996Y7723683D01*
X12852264Y7725657D01*
X12853957Y7727912D01*
X12856071Y7730168D01*
X12858467Y7732423D01*
X12861147Y7734397D01*
X12861287D01*
X12861427Y7734679D01*
X12861852Y7734820D01*
X12862555Y7735243D01*
X12863260Y7735525D01*
X12864107Y7735947D01*
X12866222Y7736934D01*
X12868758Y7737780D01*
X12871718Y7738626D01*
X12875102Y7739190D01*
X12878625Y7739331D01*
X12879895D01*
X12880882Y7739190D01*
D02*
G37*
G36*
X12638554D02*
X12639823Y7739049D01*
X12641092Y7738767D01*
X12642642Y7738485D01*
X12644334Y7738203D01*
X12647999Y7737075D01*
X12649973Y7736229D01*
X12651946Y7735384D01*
X12654061Y7734256D01*
X12656034Y7732987D01*
X12658008Y7731577D01*
X12659841Y7729886D01*
X12659982Y7729745D01*
X12660263Y7729463D01*
X12660686Y7728899D01*
X12661391Y7728053D01*
X12662096Y7727066D01*
X12662942Y7725798D01*
X12663788Y7724247D01*
X12664775Y7722414D01*
X12665620Y7720441D01*
X12666607Y7718044D01*
X12667453Y7715507D01*
X12668158Y7712687D01*
X12668863Y7709586D01*
X12669286Y7706062D01*
X12669567Y7702397D01*
X12669708Y7698449D01*
Y7698308D01*
Y7697745D01*
Y7696758D01*
X12669567Y7695489D01*
X12669427Y7694079D01*
X12669145Y7692388D01*
X12668863Y7690414D01*
X12668581Y7688441D01*
X12667453Y7683930D01*
X12666607Y7681674D01*
X12665761Y7679278D01*
X12664634Y7677022D01*
X12663365Y7674766D01*
X12661955Y7672652D01*
X12660263Y7670678D01*
X12660123Y7670537D01*
X12659841Y7670255D01*
X12659277Y7669692D01*
X12658572Y7669128D01*
X12657585Y7668282D01*
X12656457Y7667436D01*
X12655189Y7666590D01*
X12653779Y7665603D01*
X12652087Y7664617D01*
X12650255Y7663771D01*
X12648281Y7662925D01*
X12646166Y7662079D01*
X12643911Y7661515D01*
X12641655Y7660951D01*
X12639118Y7660669D01*
X12636440Y7660528D01*
X12635735D01*
X12635030Y7660669D01*
X12634043D01*
X12632774Y7660810D01*
X12631365Y7661092D01*
X12629673Y7661374D01*
X12627981Y7661797D01*
X12626008Y7662361D01*
X12624175Y7663066D01*
X12622061Y7663771D01*
X12620087Y7664758D01*
X12618113Y7666026D01*
X12616140Y7667295D01*
X12614166Y7668846D01*
X12612334Y7670678D01*
X12612193Y7670819D01*
X12611911Y7671101D01*
X12611488Y7671806D01*
X12610783Y7672652D01*
X12610078Y7673639D01*
X12609373Y7674907D01*
X12608527Y7676458D01*
X12607541Y7678150D01*
X12606695Y7680123D01*
X12605849Y7682379D01*
X12605144Y7684775D01*
X12604298Y7687313D01*
X12603735Y7690132D01*
X12603312Y7693234D01*
X12603030Y7696476D01*
X12602889Y7699859D01*
Y7700000D01*
Y7700423D01*
Y7700987D01*
Y7701833D01*
X12603030Y7702819D01*
Y7704088D01*
X12603171Y7705357D01*
X12603453Y7706908D01*
X12603875Y7710150D01*
X12604580Y7713533D01*
X12605567Y7717198D01*
X12606977Y7720582D01*
Y7720723D01*
X12607118Y7721005D01*
X12607400Y7721428D01*
X12607682Y7721991D01*
X12608668Y7723683D01*
X12609937Y7725657D01*
X12611629Y7727912D01*
X12613743Y7730168D01*
X12616140Y7732423D01*
X12618818Y7734397D01*
X12618959D01*
X12619100Y7734679D01*
X12619523Y7734820D01*
X12620228Y7735243D01*
X12620933Y7735525D01*
X12621779Y7735947D01*
X12623893Y7736934D01*
X12626431Y7737780D01*
X12629391Y7738626D01*
X12632774Y7739190D01*
X12636299Y7739331D01*
X12637567D01*
X12638554Y7739190D01*
D02*
G37*
%LPC*%
G36*
X13269710Y8641436D02*
X13258434D01*
Y8614934D01*
X13231931D01*
Y8603797D01*
X13258434D01*
Y8577013D01*
X13269710D01*
Y8603797D01*
X13296213D01*
Y8614934D01*
X13269710D01*
Y8641436D01*
D02*
G37*
G36*
X8015007Y8888776D02*
X7925632D01*
X7963271Y8838308D01*
X7930002Y8791224D01*
X7945368D01*
X7963130Y8816317D01*
Y8816458D01*
X7963412Y8816599D01*
X7963694Y8817022D01*
X7964117Y8817586D01*
X7964962Y8818996D01*
X7966231Y8820687D01*
X7967500Y8822661D01*
X7968769Y8824634D01*
X7969896Y8826467D01*
X7970883Y8828159D01*
X7971024Y8827877D01*
X7971447Y8827313D01*
X7972152Y8826185D01*
X7973139Y8824775D01*
X7974267Y8823225D01*
X7975676Y8821251D01*
X7977086Y8819278D01*
X7978778Y8817163D01*
X7998231Y8791224D01*
X8012328D01*
X7978496Y8837745D01*
X8015007Y8888776D01*
D01*
D02*
G37*
G36*
X7922249D02*
X7844997D01*
X7877138D01*
Y8802784D01*
X7844997D01*
Y8791224D01*
X7922249D01*
Y8817022D01*
Y8802784D01*
X7890107D01*
Y8888776D01*
X7922249D01*
D01*
D02*
G37*
%LPD*%
G36*
X7974407Y8854097D02*
X7974267Y8853956D01*
X7973985Y8853533D01*
X7973703Y8852969D01*
X7973139Y8852264D01*
X7971870Y8850291D01*
X7970460Y8848176D01*
X7970319Y8848317D01*
X7969896Y8848881D01*
X7969333Y8849727D01*
X7968628Y8850855D01*
X7967077Y8853110D01*
X7966372Y8854097D01*
X7965808Y8854943D01*
X7941139Y8888776D01*
X7999077D01*
X7974407Y8854097D01*
D02*
G37*
%TF.MD5,440fe6736f94dcbb8600f47f4da376d8*%
M02*
