%TF.GenerationSoftware,Altium Limited,Altium Designer,25.4.2 (15)*%
G04 Layer_Color=16711935*
%FSLAX45Y45*%
%MOMM*%
%TF.SameCoordinates,9A986A7D-484F-4AC0-AE4B-942BB78B8B2C*%
%TF.FilePolarity,Positive*%
%TF.FileFunction,Other,Mechanical_13*%
%TF.Part,Single*%
G01*
G75*
%TA.AperFunction,NonConductor*%
%ADD48C,0.30000*%
%ADD49C,0.35000*%
%ADD51C,0.25400*%
%ADD52C,0.20000*%
%ADD85C,0.17500*%
%ADD86C,0.10000*%
%ADD87C,0.15000*%
D48*
X9734971Y6019988D02*
G03*
X9734971Y6019988I-10000J0D01*
G01*
X10669571Y6734700D02*
G03*
X10669571Y6734700I-11971J0D01*
G01*
X13799699Y7258500D02*
Y8108500D01*
X13124699D02*
X13799699D01*
X13124699Y7258500D02*
Y8108500D01*
Y7258500D02*
X13799699D01*
X12218000Y5396300D02*
Y6071300D01*
X13067999D01*
Y5396300D02*
Y6071300D01*
X12218000Y5396300D02*
X13067999D01*
X13124699Y6356800D02*
X13799699D01*
X13124699D02*
Y7206800D01*
X13799699D01*
Y6356800D02*
Y7206800D01*
X13124699Y5455100D02*
X13799699D01*
X13124699D02*
Y6305100D01*
X13799699D01*
Y5455100D02*
Y6305100D01*
X13124699Y8172500D02*
X13799699D01*
X13124699D02*
Y9022500D01*
X13799699D01*
Y8172500D02*
Y9022500D01*
X9815900Y6325300D02*
X10115900D01*
X9765900Y6375299D02*
X9815900Y6325300D01*
X9765900Y6375299D02*
Y6550300D01*
X10115900Y6325300D02*
Y6775300D01*
X9765900D02*
X10115900D01*
X9765900Y6550300D02*
Y6775300D01*
X11316700Y5407000D02*
Y6082001D01*
X12166700D01*
Y5407000D02*
Y6082001D01*
X11316700Y5407000D02*
X12166700D01*
X6321503Y6393153D02*
X6188213D01*
X6121567Y6459798D01*
X6188213Y6526444D01*
X6321503D01*
X6221535D01*
Y6393153D01*
X6321503Y6593089D02*
X6121567D01*
X6321503Y6726379D01*
X6121567D01*
Y6793025D02*
Y6926315D01*
Y6859670D01*
X6321503D01*
X6121567Y7126250D02*
Y6992960D01*
X6321503D01*
Y7126250D01*
X6221535Y6992960D02*
Y7059605D01*
X6321503Y7192896D02*
X6121567D01*
X6321503Y7326186D01*
X6121567D01*
X6321503Y7392831D02*
X6121567D01*
X6321503Y7526122D01*
X6121567D01*
X6321503Y7592767D02*
X6188213D01*
X6121567Y7659412D01*
X6188213Y7726057D01*
X6321503D01*
X6221535D01*
Y7592767D01*
X6433490Y6293186D02*
X6633426D01*
X6566781D01*
X6433490Y6426476D01*
X6533458Y6326508D01*
X6633426Y6426476D01*
X6433490Y6626411D02*
Y6493121D01*
X6633426D01*
Y6626411D01*
X6533458Y6493121D02*
Y6559766D01*
X6433490Y6826347D02*
Y6693057D01*
X6633426D01*
Y6826347D01*
X6533458Y6693057D02*
Y6759702D01*
X6633426Y6892992D02*
X6433490D01*
Y6992960D01*
X6466813Y7026283D01*
X6533458D01*
X6566781Y6992960D01*
Y6892992D01*
X6533458Y7092928D02*
Y7226218D01*
X6433490Y7392831D02*
Y7326186D01*
X6466813Y7292863D01*
X6600103D01*
X6633426Y7326186D01*
Y7392831D01*
X6600103Y7426154D01*
X6466813D01*
X6433490Y7392831D01*
Y7492799D02*
X6600103D01*
X6633426Y7526122D01*
Y7592767D01*
X6600103Y7626089D01*
X6433490D01*
Y7692735D02*
Y7826025D01*
Y7759380D01*
X6633426D01*
D49*
X6828151Y6180029D02*
G03*
X6828151Y6180029I-15000J0D01*
G01*
D51*
X8359341Y8364610D02*
Y8754610D01*
X7589341D02*
X8359341D01*
X7589341Y8364610D02*
Y8754610D01*
Y8364610D02*
X8359341D01*
D52*
X9474971Y5319988D02*
X10424971D01*
Y6094988D01*
X9474971D02*
X10424971D01*
X9474971Y5319988D02*
Y6094988D01*
X8702500Y6109600D02*
Y8034600D01*
X6027500D02*
X8702500D01*
X6027500Y6084600D02*
Y8034600D01*
Y6084600D02*
X8702500D01*
Y6109600D01*
X6727500Y6084600D02*
Y8034600D01*
X10557600Y6264700D02*
Y6824700D01*
X11297600D01*
X10557600Y6264700D02*
X11297600D01*
Y6824700D01*
X8986800Y7001000D02*
X9336800D01*
X8986800D02*
Y7301000D01*
X9336800D01*
Y7001000D02*
Y7301000D01*
X13399716Y7583532D02*
Y7550210D01*
Y7566871D01*
X13483023D01*
X13499684Y7550210D01*
Y7533549D01*
X13483023Y7516887D01*
X13399716Y7616855D02*
Y7683500D01*
X13416377D01*
X13483023Y7616855D01*
X13499684D01*
X13416377Y7716823D02*
X13399716Y7733484D01*
Y7766807D01*
X13416377Y7783468D01*
X13483023D01*
X13499684Y7766807D01*
Y7733484D01*
X13483023Y7716823D01*
X13416377D01*
X13499684Y7816791D02*
Y7850113D01*
Y7833452D01*
X13399716D01*
X13416377Y7816791D01*
X9370066Y7101016D02*
Y7200984D01*
X9320082D01*
X9303421Y7184322D01*
Y7117677D01*
X9320082Y7101016D01*
X9370066D01*
X9270099Y7200984D02*
X9236776D01*
X9253437D01*
Y7101016D01*
X9270099Y7117677D01*
X9136808Y7200984D02*
Y7101016D01*
X9186792Y7151000D01*
X9120147D01*
X9086824Y7117677D02*
X9070163Y7101016D01*
X9036840D01*
X9020179Y7117677D01*
Y7184322D01*
X9036840Y7200984D01*
X9070163D01*
X9086824Y7184322D01*
Y7117677D01*
X8986857Y7200984D02*
X8953534D01*
X8970195D01*
Y7101016D01*
X8986857Y7117677D01*
X9420123Y6951000D02*
X9353478D01*
X9386800Y6917677D02*
Y6984322D01*
X12543032Y5796284D02*
X12509710D01*
X12526371D01*
Y5712977D01*
X12509710Y5696316D01*
X12493049D01*
X12476387Y5712977D01*
X12576355D02*
X12593016Y5696316D01*
X12626339D01*
X12643000Y5712977D01*
Y5779622D01*
X12626339Y5796284D01*
X12593016D01*
X12576355Y5779622D01*
Y5762961D01*
X12593016Y5746300D01*
X12643000D01*
X12676323Y5779622D02*
X12692984Y5796284D01*
X12726307D01*
X12742968Y5779622D01*
Y5712977D01*
X12726307Y5696316D01*
X12692984D01*
X12676323Y5712977D01*
Y5779622D01*
X12776291Y5696316D02*
X12809613D01*
X12792952D01*
Y5796284D01*
X12776291Y5779622D01*
X13399716Y6640179D02*
Y6606856D01*
Y6623518D01*
X13483022D01*
X13499684Y6606856D01*
Y6590195D01*
X13483022Y6573534D01*
X13499684Y6673502D02*
Y6706824D01*
Y6690163D01*
X13399716D01*
X13416377Y6673502D01*
Y6756808D02*
X13399716Y6773469D01*
Y6806792D01*
X13416377Y6823453D01*
X13483022D01*
X13499684Y6806792D01*
Y6773469D01*
X13483022Y6756808D01*
X13416377D01*
Y6856776D02*
X13399716Y6873437D01*
Y6906760D01*
X13416377Y6923421D01*
X13483022D01*
X13499684Y6906760D01*
Y6873437D01*
X13483022Y6856776D01*
X13416377D01*
X13499684Y6956744D02*
Y6990066D01*
Y6973405D01*
X13399716D01*
X13416377Y6956744D01*
X13399716Y5721818D02*
Y5688495D01*
Y5705157D01*
X13483022D01*
X13499684Y5688495D01*
Y5671834D01*
X13483022Y5655173D01*
X13499684Y5755141D02*
Y5788463D01*
Y5771802D01*
X13399716D01*
X13416377Y5755141D01*
Y5838447D02*
X13399716Y5855108D01*
Y5888431D01*
X13416377Y5905092D01*
X13483022D01*
X13499684Y5888431D01*
Y5855108D01*
X13483022Y5838447D01*
X13416377D01*
Y5938415D02*
X13399716Y5955076D01*
Y5988399D01*
X13416377Y6005060D01*
X13483022D01*
X13499684Y5988399D01*
Y5955076D01*
X13483022Y5938415D01*
X13416377D01*
X13499684Y6105028D02*
Y6038383D01*
X13433038Y6105028D01*
X13416377D01*
X13399716Y6088367D01*
Y6055044D01*
X13416377Y6038383D01*
X13399716Y8497532D02*
Y8464209D01*
Y8480871D01*
X13483022D01*
X13499684Y8464209D01*
Y8447548D01*
X13483022Y8430887D01*
X13416377Y8530855D02*
X13399716Y8547516D01*
Y8580839D01*
X13416377Y8597500D01*
X13433038D01*
X13449699Y8580839D01*
Y8564177D01*
Y8580839D01*
X13466360Y8597500D01*
X13483022D01*
X13499684Y8580839D01*
Y8547516D01*
X13483022Y8530855D01*
X13416377Y8630822D02*
X13399716Y8647484D01*
Y8680806D01*
X13416377Y8697467D01*
X13483022D01*
X13499684Y8680806D01*
Y8647484D01*
X13483022Y8630822D01*
X13416377D01*
X13499684Y8730790D02*
Y8764113D01*
Y8747452D01*
X13399716D01*
X13416377Y8730790D01*
X11608410Y5806984D02*
X11575087D01*
X11591748D01*
Y5723678D01*
X11575087Y5707017D01*
X11558426D01*
X11541765Y5723678D01*
X11641732Y5707017D02*
X11675055D01*
X11658394D01*
Y5806984D01*
X11641732Y5790323D01*
X11725039Y5707017D02*
X11758361D01*
X11741700D01*
Y5806984D01*
X11725039Y5790323D01*
X11808345D02*
X11825007Y5806984D01*
X11858329D01*
X11874990Y5790323D01*
Y5723678D01*
X11858329Y5707017D01*
X11825007D01*
X11808345Y5723678D01*
Y5790323D01*
X11908313Y5707017D02*
X11941636D01*
X11924974D01*
Y5806984D01*
X11908313Y5790323D01*
D85*
X11899972Y7964989D02*
X12039972D01*
X11899972D02*
Y8194989D01*
X12039972D01*
Y7964989D02*
Y8194989D01*
X12366620Y6101779D02*
Y6331779D01*
Y6101779D02*
X12506620D01*
Y6331779D01*
X12366620D02*
X12506620D01*
X9194380Y8376900D02*
X9359380D01*
Y8076900D02*
Y8376900D01*
X9194380Y8076900D02*
X9359380D01*
X9194380D02*
Y8376900D01*
X10301580Y7549500D02*
Y7981300D01*
Y7549500D02*
X10530180D01*
Y7981300D01*
X10301580D02*
X10530180D01*
X10513180Y7549500D02*
Y7981300D01*
Y7549500D02*
X10741780D01*
Y7981300D01*
X10513180D02*
X10741780D01*
X9784106Y8589261D02*
X10215906D01*
X9784106Y8360661D02*
Y8589261D01*
Y8360661D02*
X10215906D01*
Y8589261D01*
X9784106Y8364262D02*
X10215906D01*
X9784106Y8135662D02*
Y8364262D01*
Y8135662D02*
X10215906D01*
Y8364262D01*
X10414264Y8384094D02*
Y8815894D01*
X10185664D02*
X10414264D01*
X10185664Y8384094D02*
Y8815894D01*
Y8384094D02*
X10414264D01*
X12219200Y8383400D02*
X12651000D01*
Y8612000D01*
X12219200D02*
X12651000D01*
X12219200Y8383400D02*
Y8612000D01*
X12296900Y8099700D02*
X12596900D01*
Y8264699D01*
X12296900D02*
X12596900D01*
X12296900Y8099700D02*
Y8264699D01*
X12296900Y8236300D02*
X12596900D01*
Y8401300D01*
X12296900D02*
X12596900D01*
X12296900Y8236300D02*
Y8401300D01*
X9343499Y7239500D02*
X9483500D01*
Y7009500D02*
Y7239500D01*
X9343499Y7009500D02*
X9483500D01*
X9343499D02*
Y7239500D01*
X9456100Y6961800D02*
Y7261800D01*
Y6961800D02*
X9621100D01*
Y7261800D01*
X9456100D02*
X9621100D01*
X8688200Y7181900D02*
Y7321900D01*
X8918200D01*
Y7181900D02*
Y7321900D01*
X8688200Y7181900D02*
X8918200D01*
X8695500Y7045500D02*
Y7185500D01*
X8925500D01*
Y7045500D02*
Y7185500D01*
X8695500Y7045500D02*
X8925500D01*
X8695500Y6924100D02*
Y7064100D01*
X8925500D01*
Y6924100D02*
Y7064100D01*
X8695500Y6924100D02*
X8925500D01*
X8923500Y8484200D02*
X9088500D01*
X8923500D02*
Y8784200D01*
X9088500D01*
Y8484200D02*
Y8784200D01*
X8647300Y8485800D02*
Y8785800D01*
Y8485800D02*
X8812300D01*
Y8785800D01*
X8647300D02*
X8812300D01*
X8783900Y8783500D02*
X8948900D01*
Y8483500D02*
Y8783500D01*
X8783900Y8483500D02*
X8948900D01*
X8783900D02*
Y8783500D01*
X11983299Y6836400D02*
X12148299D01*
X11983299D02*
Y7136400D01*
X12148299D01*
Y6836400D02*
Y7136400D01*
X12000900Y6561400D02*
Y6861400D01*
X11835900D02*
X12000900D01*
X11835900Y6561400D02*
Y6861400D01*
Y6561400D02*
X12000900D01*
X11974300Y6573700D02*
X12139300D01*
X11974300D02*
Y6873700D01*
X12139300D01*
Y6573700D02*
Y6873700D01*
X11998700Y6247300D02*
X12298700D01*
Y6412300D01*
X11998700D02*
X12298700D01*
X11998700Y6247300D02*
Y6412300D01*
X11998700Y6108900D02*
Y6273900D01*
X12298700D01*
Y6108900D02*
Y6273900D01*
X11998700Y6108900D02*
X12298700D01*
X12362300Y6659700D02*
X12502300D01*
Y6429700D02*
Y6659700D01*
X12362300Y6429700D02*
X12502300D01*
X12362300D02*
Y6659700D01*
X12355900Y6924700D02*
X12495900D01*
Y6694700D02*
Y6924700D01*
X12355900Y6694700D02*
X12495900D01*
X12355900D02*
Y6924700D01*
X12653000Y6672000D02*
Y6812000D01*
X12883000D01*
Y6672000D02*
Y6812000D01*
X12653000Y6672000D02*
X12883000D01*
X12665300Y6385600D02*
Y6525600D01*
X12895300D01*
Y6385600D02*
Y6525600D01*
X12665300Y6385600D02*
X12895300D01*
X12680300Y6099200D02*
Y6239201D01*
X12910300D01*
Y6099200D02*
Y6239201D01*
X12680300Y6099200D02*
X12910300D01*
X12904700Y6222200D02*
Y6362200D01*
X12674700Y6222200D02*
X12904700D01*
X12674700D02*
Y6362200D01*
X12904700D01*
X12899727Y6506157D02*
Y6646158D01*
X12669727Y6506157D02*
X12899727D01*
X12669727D02*
Y6646158D01*
X12899727D01*
X12889700Y6790000D02*
Y6930001D01*
X12659700Y6790000D02*
X12889700D01*
X12659700D02*
Y6930001D01*
X12889700D01*
X12903600Y6129700D02*
Y6359700D01*
Y6129700D02*
X13043600D01*
Y6359700D01*
X12903600D02*
X13043600D01*
X12892201Y6404700D02*
Y6634700D01*
Y6404700D02*
X13032201D01*
Y6634700D01*
X12892201D02*
X13032201D01*
X12880800Y6679700D02*
Y6909700D01*
Y6679700D02*
X13020799D01*
Y6909700D01*
X12880800D02*
X13020799D01*
X11368900Y7546800D02*
Y7978600D01*
X11140300D02*
X11368900D01*
X11140300Y7546800D02*
Y7978600D01*
Y7546800D02*
X11368900D01*
X11157300Y7546799D02*
Y7978599D01*
X10928700D02*
X11157300D01*
X10928700Y7546799D02*
Y7978599D01*
Y7546799D02*
X11157300D01*
X10946500Y7546800D02*
Y7978600D01*
X10717900D02*
X10946500D01*
X10717900Y7546800D02*
Y7978600D01*
Y7546800D02*
X10946500D01*
X11584901Y7121800D02*
Y7553600D01*
X11356301D02*
X11584901D01*
X11356301Y7121800D02*
Y7553600D01*
Y7121800D02*
X11584901D01*
X10863100Y6983900D02*
X11163100D01*
Y7148900D01*
X10863100D02*
X11163100D01*
X10863100Y6983900D02*
Y7148900D01*
X9401400Y7881220D02*
X9833200D01*
X9401400Y7652620D02*
Y7881220D01*
Y7652620D02*
X9833200D01*
Y7881220D01*
X10142800Y8584420D02*
Y8813020D01*
X9787200Y8584420D02*
X10142800D01*
X9787200D02*
Y8813020D01*
X10142800D01*
X9364200Y7944220D02*
Y8109220D01*
X9064200Y7944220D02*
X9364200D01*
X9064200D02*
Y8109220D01*
X9364200D01*
X9356800Y8220180D02*
X9788600D01*
Y8448780D01*
X9356800D02*
X9788600D01*
X9356800Y8220180D02*
Y8448780D01*
X9226900Y8087020D02*
Y8252020D01*
X8926900Y8087020D02*
X9226900D01*
X8926900D02*
Y8252020D01*
X9226900D01*
X9068100Y7802780D02*
Y7967780D01*
X9368100D01*
Y7802780D02*
Y7967780D01*
X9068100Y7802780D02*
X9368100D01*
X12327700Y7135400D02*
X12627700D01*
X12327700Y6970400D02*
Y7135400D01*
Y6970400D02*
X12627700D01*
Y7135400D01*
X12592700Y7096300D02*
Y7236300D01*
X12362700Y7096300D02*
X12592700D01*
X12362700D02*
Y7236300D01*
X12592700D01*
X12034400Y8086600D02*
X12334400D01*
Y8251600D01*
X12034400D02*
X12334400D01*
X12034400Y8086600D02*
Y8251600D01*
X12342900Y6987400D02*
Y7127401D01*
X12112900Y6987400D02*
X12342900D01*
X12112900D02*
Y7127401D01*
X12342900D01*
X11903079Y7735079D02*
X12043080D01*
X11903079D02*
Y7965079D01*
X12043080D01*
Y7735079D02*
Y7965079D01*
X12597500Y6960440D02*
X12737500D01*
X12597500D02*
Y7190441D01*
X12737500D01*
Y6960440D02*
Y7190441D01*
X6768400Y5965800D02*
Y6105801D01*
X6998400D01*
Y5965800D02*
Y6105801D01*
X6768400Y5965800D02*
X6998400D01*
X6721100Y5826400D02*
X7021100D01*
Y5991400D01*
X6721100D02*
X7021100D01*
X6721100Y5826400D02*
Y5991400D01*
X7006100Y5959100D02*
Y6099101D01*
X7236100D01*
Y5959100D02*
Y6099101D01*
X7006100Y5959100D02*
X7236100D01*
X9431786Y6153048D02*
Y6293048D01*
X9661786D01*
Y6153048D02*
Y6293048D01*
X9431786Y6153048D02*
X9661786D01*
X9372640Y6271268D02*
X9672640D01*
Y6436268D01*
X9372640D02*
X9672640D01*
X9372640Y6271268D02*
Y6436268D01*
X11318700Y6819800D02*
Y6959800D01*
X11088700Y6819800D02*
X11318700D01*
X11088700D02*
Y6959800D01*
X11318700D01*
X11153300Y7097600D02*
X11453300D01*
X11153300Y6932600D02*
Y7097600D01*
Y6932600D02*
X11453300D01*
Y7097600D01*
X11305800Y6468700D02*
X11445800D01*
Y6238700D02*
Y6468700D01*
X11305800Y6238700D02*
X11445800D01*
X11305800D02*
Y6468700D01*
X10706700Y6828200D02*
Y6968200D01*
X10936700D01*
Y6828200D02*
Y6968200D01*
X10706700Y6828200D02*
X10936700D01*
X11307100Y6668700D02*
X11447100D01*
Y6438700D02*
Y6668700D01*
X11307100Y6438700D02*
X11447100D01*
X11307100D02*
Y6668700D01*
X11295300Y6868700D02*
X11435300D01*
Y6638700D02*
Y6868700D01*
X11295300Y6638700D02*
X11435300D01*
X11295300D02*
Y6868700D01*
X10943700Y6101500D02*
Y6241500D01*
X10713700Y6101500D02*
X10943700D01*
X10713700D02*
Y6241500D01*
X10943700D01*
X11406300Y6121700D02*
X11636300D01*
Y6261700D01*
X11406300D02*
X11636300D01*
X11406300Y6121700D02*
Y6261700D01*
X11688300Y6265900D02*
X11918300D01*
X11688300Y6125900D02*
Y6265900D01*
Y6125900D02*
X11918300D01*
Y6265900D01*
X12953185Y8120774D02*
X12853217D01*
Y8070790D01*
X12869878Y8054129D01*
X12936523D01*
X12953185Y8070790D01*
Y8120774D01*
Y8020806D02*
Y7954161D01*
X12936523D01*
X12869878Y8020806D01*
X12853217D01*
X12936523Y7920839D02*
X12953185Y7904177D01*
Y7870855D01*
X12936523Y7854194D01*
X12869878D01*
X12853217Y7870855D01*
Y7904177D01*
X12869878Y7920839D01*
X12936523D01*
X12853217Y7754226D02*
Y7820871D01*
X12919861Y7754226D01*
X12936523D01*
X12953185Y7770887D01*
Y7804209D01*
X12936523Y7820871D01*
X9732634Y6600283D02*
Y6500316D01*
X9782618D01*
X9799279Y6516977D01*
Y6583622D01*
X9782618Y6600283D01*
X9732634D01*
X9832602Y6500316D02*
X9865924D01*
X9849263D01*
Y6600283D01*
X9832602Y6583622D01*
X9982553Y6500316D02*
X9915908D01*
X9982553Y6566961D01*
Y6583622D01*
X9965892Y6600283D01*
X9932569D01*
X9915908Y6583622D01*
X10015876D02*
X10032537Y6600283D01*
X10065860D01*
X10082521Y6583622D01*
Y6516977D01*
X10065860Y6500316D01*
X10032537D01*
X10015876Y6516977D01*
Y6583622D01*
X10115844Y6500316D02*
X10149166D01*
X10132505D01*
Y6600283D01*
X10115844Y6583622D01*
X12847116Y8401887D02*
X12947084D01*
Y8451871D01*
X12930421Y8468532D01*
X12863777D01*
X12847116Y8451871D01*
Y8401887D01*
X12863777Y8501855D02*
X12847116Y8518516D01*
Y8551839D01*
X12863777Y8568500D01*
X12880440D01*
X12897099Y8551839D01*
Y8535177D01*
Y8551839D01*
X12913760Y8568500D01*
X12930421D01*
X12947084Y8551839D01*
Y8518516D01*
X12930421Y8501855D01*
X12863777Y8601823D02*
X12847116Y8618484D01*
Y8651807D01*
X12863777Y8668468D01*
X12930421D01*
X12947084Y8651807D01*
Y8618484D01*
X12930421Y8601823D01*
X12863777D01*
X12947084Y8701791D02*
Y8735113D01*
Y8718452D01*
X12847116D01*
X12863777Y8701791D01*
X12853217Y7085087D02*
X12953185D01*
Y7135071D01*
X12936523Y7151732D01*
X12869878D01*
X12853217Y7135071D01*
Y7085087D01*
Y7185055D02*
Y7251700D01*
X12869878D01*
X12936523Y7185055D01*
X12953185D01*
X12869878Y7285023D02*
X12853217Y7301684D01*
Y7335007D01*
X12869878Y7351668D01*
X12936523D01*
X12953185Y7335007D01*
Y7301684D01*
X12936523Y7285023D01*
X12869878D01*
X12953185Y7384991D02*
Y7418313D01*
Y7401652D01*
X12853217D01*
X12869878Y7384991D01*
D86*
X10686000Y8802300D02*
X11041000D01*
X10588500Y8704800D02*
X10686000Y8802300D01*
X10588500Y8302300D02*
Y8704800D01*
Y8302300D02*
X11138500D01*
Y8704800D01*
X11041000Y8802300D02*
X11138500Y8704800D01*
X11813800Y6640100D02*
Y6760100D01*
X11733800Y6640100D02*
X11813800D01*
X11733800D02*
Y6760100D01*
X11813800D01*
X11786300D02*
X11813800Y6732600D01*
X12090100Y6438800D02*
X12210100D01*
X12090100D02*
Y6518800D01*
X12210100D01*
Y6438800D02*
Y6518800D01*
X12182600Y6438800D02*
X12210100Y6466300D01*
X12597200Y6165400D02*
Y6285400D01*
X12517200Y6165400D02*
X12597200D01*
X12517200D02*
Y6285400D01*
X12597200D01*
X12569700D02*
X12597200Y6257900D01*
X12600800Y6470400D02*
Y6590400D01*
X12520800Y6470400D02*
X12600800D01*
X12520800D02*
Y6590400D01*
X12600800D01*
X12573300D02*
X12600800Y6562900D01*
X12594400Y6735400D02*
Y6855400D01*
X12514400Y6735400D02*
X12594400D01*
X12514400D02*
Y6855400D01*
X12594400D01*
X12566900D02*
X12594400Y6827900D01*
X11320400Y7264900D02*
Y7374900D01*
X11270399Y7424900D02*
X11320400Y7374900D01*
X11030400Y7424900D02*
X11270399D01*
X11030400Y7264900D02*
X11320400D01*
X11030400D02*
Y7424900D01*
X11846600Y8782300D02*
X11944100Y8684800D01*
Y8282300D02*
Y8684800D01*
X11394100Y8282300D02*
X11944100D01*
X11394100D02*
Y8684800D01*
X11491600Y8782300D01*
X11846600D01*
X9407580Y8209600D02*
X9767580D01*
X9407580Y7869600D02*
X9767580D01*
X9407580D02*
Y8209600D01*
X9767580Y7869600D02*
Y8209600D01*
X9822300Y8021980D02*
X10272300D01*
X9822300Y7571980D02*
X10272300D01*
Y8021980D01*
X9822300Y7571980D02*
Y8021980D01*
X12129300Y7467700D02*
X12194300Y7402700D01*
X12129300D02*
X12629300D01*
Y7842700D01*
X12129300D02*
X12629300D01*
X12129300Y7402700D02*
Y7842700D01*
D87*
X10896822Y8652268D02*
X10913483Y8668929D01*
Y8702251D01*
X10896822Y8718913D01*
X10830177D01*
X10813516Y8702251D01*
Y8668929D01*
X10830177Y8652268D01*
X10896822Y8618945D02*
X10913483Y8602284D01*
Y8568961D01*
X10896822Y8552300D01*
X10880161D01*
X10863499Y8568961D01*
Y8585622D01*
Y8568961D01*
X10846838Y8552300D01*
X10830177D01*
X10813516Y8568961D01*
Y8602284D01*
X10830177Y8618945D01*
X10896822Y8518977D02*
X10913483Y8502316D01*
Y8468993D01*
X10896822Y8452332D01*
X10830177D01*
X10813516Y8468993D01*
Y8502316D01*
X10830177Y8518977D01*
X10896822D01*
X10813516Y8419009D02*
Y8385687D01*
Y8402348D01*
X10913483D01*
X10896822Y8419009D01*
X10727665Y6594684D02*
Y6511378D01*
X10744326Y6494716D01*
X10777649D01*
X10794310Y6511378D01*
Y6594684D01*
X10827633Y6494716D02*
X10860955D01*
X10844294D01*
Y6594684D01*
X10827633Y6578023D01*
X10910939Y6494716D02*
X10944262D01*
X10927600D01*
Y6594684D01*
X10910939Y6578023D01*
X10994245D02*
X11010907Y6594684D01*
X11044229D01*
X11060891Y6578023D01*
Y6511378D01*
X11044229Y6494716D01*
X11010907D01*
X10994245Y6511378D01*
Y6578023D01*
X11094213Y6494716D02*
X11127536D01*
X11110875D01*
Y6594684D01*
X11094213Y6578023D01*
X11702423Y8648929D02*
X11719084Y8665590D01*
Y8698912D01*
X11702423Y8715574D01*
X11635778D01*
X11619116Y8698912D01*
Y8665590D01*
X11635778Y8648929D01*
X11702423Y8615606D02*
X11719084Y8598945D01*
Y8565622D01*
X11702423Y8548961D01*
X11685761D01*
X11669100Y8565622D01*
Y8582284D01*
Y8565622D01*
X11652439Y8548961D01*
X11635778D01*
X11619116Y8565622D01*
Y8598945D01*
X11635778Y8615606D01*
X11702423Y8515638D02*
X11719084Y8498977D01*
Y8465654D01*
X11702423Y8448993D01*
X11635778D01*
X11619116Y8465654D01*
Y8498977D01*
X11635778Y8515638D01*
X11702423D01*
X11619116Y8349025D02*
Y8415670D01*
X11685761Y8349025D01*
X11702423D01*
X11719084Y8365687D01*
Y8399009D01*
X11702423Y8415670D01*
X7652516Y6892987D02*
X7735823D01*
X7752484Y6909649D01*
Y6942971D01*
X7735823Y6959633D01*
X7652516D01*
Y7059600D02*
X7669178Y7026278D01*
X7702500Y6992955D01*
X7735823D01*
X7752484Y7009617D01*
Y7042939D01*
X7735823Y7059600D01*
X7719162D01*
X7702500Y7042939D01*
Y6992955D01*
X7669178Y7092923D02*
X7652516Y7109584D01*
Y7142907D01*
X7669178Y7159568D01*
X7735823D01*
X7752484Y7142907D01*
Y7109584D01*
X7735823Y7092923D01*
X7669178D01*
X7752484Y7192891D02*
Y7226213D01*
Y7209552D01*
X7652516D01*
X7669178Y7192891D01*
X9808350Y5819972D02*
X9775028D01*
X9791689D01*
Y5736666D01*
X9775028Y5720004D01*
X9758367D01*
X9741705Y5736666D01*
X9841673Y5720004D02*
X9874995D01*
X9858334D01*
Y5819972D01*
X9841673Y5803311D01*
X9991624Y5720004D02*
X9924979D01*
X9991624Y5786649D01*
Y5803311D01*
X9974963Y5819972D01*
X9941641D01*
X9924979Y5803311D01*
X10024947D02*
X10041609Y5819972D01*
X10074931D01*
X10091592Y5803311D01*
Y5736666D01*
X10074931Y5720004D01*
X10041609D01*
X10024947Y5736666D01*
Y5803311D01*
X10124915Y5720004D02*
X10158237D01*
X10141576D01*
Y5819972D01*
X10124915Y5803311D01*
X12019955Y7896715D02*
X11919988D01*
Y7946699D01*
X11936649Y7963360D01*
X11969971D01*
X11986633Y7946699D01*
Y7896715D01*
Y7930037D02*
X12019955Y7963360D01*
X11919988Y7996683D02*
Y8063328D01*
X11936649D01*
X12003294Y7996683D01*
X12019955D01*
X11936649Y8096650D02*
X11919988Y8113312D01*
Y8146634D01*
X11936649Y8163295D01*
X12003294D01*
X12019955Y8146634D01*
Y8113312D01*
X12003294Y8096650D01*
X11936649D01*
X12019955Y8246602D02*
X11919988D01*
X11969971Y8196618D01*
Y8263263D01*
X12386637Y6441706D02*
X12486604D01*
Y6391723D01*
X12469943Y6375061D01*
X12436621D01*
X12419959Y6391723D01*
Y6441706D01*
Y6408384D02*
X12386637Y6375061D01*
Y6341739D02*
Y6308416D01*
Y6325077D01*
X12486604D01*
X12469943Y6341739D01*
Y6258432D02*
X12486604Y6241771D01*
Y6208448D01*
X12469943Y6191787D01*
X12403298D01*
X12386637Y6208448D01*
Y6241771D01*
X12403298Y6258432D01*
X12469943D01*
Y6158464D02*
X12486604Y6141803D01*
Y6108481D01*
X12469943Y6091819D01*
X12403298D01*
X12386637Y6108481D01*
Y6141803D01*
X12403298Y6158464D01*
X12469943D01*
X12486604Y5991852D02*
X12469943Y6025174D01*
X12436621Y6058497D01*
X12403298D01*
X12386637Y6041835D01*
Y6008513D01*
X12403298Y5991852D01*
X12419959D01*
X12436621Y6008513D01*
Y6058497D01*
X9226896Y8410174D02*
X9326863D01*
Y8360190D01*
X9310202Y8343529D01*
X9276880D01*
X9260218Y8360190D01*
Y8410174D01*
Y8376852D02*
X9226896Y8343529D01*
Y8260222D02*
X9326863D01*
X9276880Y8310206D01*
Y8243561D01*
X9310202Y8210239D02*
X9326863Y8193577D01*
Y8160255D01*
X9310202Y8143594D01*
X9243557D01*
X9226896Y8160255D01*
Y8193577D01*
X9243557Y8210239D01*
X9310202D01*
X9226896Y8060287D02*
X9326863D01*
X9276880Y8110271D01*
Y8043626D01*
X10449203Y7882029D02*
X10465864Y7898690D01*
Y7932012D01*
X10449203Y7948674D01*
X10382558D01*
X10365896Y7932012D01*
Y7898690D01*
X10382558Y7882029D01*
X10365896Y7798722D02*
X10465864D01*
X10415880Y7848706D01*
Y7782061D01*
X10449203Y7748738D02*
X10465864Y7732077D01*
Y7698754D01*
X10449203Y7682093D01*
X10382558D01*
X10365896Y7698754D01*
Y7732077D01*
X10382558Y7748738D01*
X10449203D01*
X10465864Y7648770D02*
Y7582125D01*
X10449203D01*
X10382558Y7648770D01*
X10365896D01*
X10660803Y7882029D02*
X10677464Y7898690D01*
Y7932013D01*
X10660803Y7948674D01*
X10594158D01*
X10577496Y7932013D01*
Y7898690D01*
X10594158Y7882029D01*
X10577496Y7798722D02*
X10677464D01*
X10627480Y7848706D01*
Y7782061D01*
X10660803Y7748738D02*
X10677464Y7732077D01*
Y7698754D01*
X10660803Y7682093D01*
X10594158D01*
X10577496Y7698754D01*
Y7732077D01*
X10594158Y7748738D01*
X10660803D01*
X10677464Y7582126D02*
X10660803Y7615448D01*
X10627480Y7648771D01*
X10594158D01*
X10577496Y7632109D01*
Y7598787D01*
X10594158Y7582126D01*
X10610819D01*
X10627480Y7598787D01*
Y7648771D01*
X10116635Y8441638D02*
X10133296Y8424977D01*
X10166618D01*
X10183280Y8441638D01*
Y8508283D01*
X10166618Y8524945D01*
X10133296D01*
X10116635Y8508283D01*
X10033328Y8524945D02*
Y8424977D01*
X10083312Y8474961D01*
X10016667D01*
X9983344Y8441638D02*
X9966683Y8424977D01*
X9933360D01*
X9916699Y8441638D01*
Y8508283D01*
X9933360Y8524945D01*
X9966683D01*
X9983344Y8508283D01*
Y8441638D01*
X9883376D02*
X9866715Y8424977D01*
X9833393D01*
X9816731Y8441638D01*
Y8458300D01*
X9833393Y8474961D01*
X9850054D01*
X9833393D01*
X9816731Y8491622D01*
Y8508283D01*
X9833393Y8524945D01*
X9866715D01*
X9883376Y8508283D01*
X10116635Y8216640D02*
X10133296Y8199979D01*
X10166619D01*
X10183280Y8216640D01*
Y8283285D01*
X10166619Y8299946D01*
X10133296D01*
X10116635Y8283285D01*
X10033328Y8299946D02*
Y8199979D01*
X10083312Y8249962D01*
X10016667D01*
X9983345Y8216640D02*
X9966683Y8199979D01*
X9933361D01*
X9916699Y8216640D01*
Y8283285D01*
X9933361Y8299946D01*
X9966683D01*
X9983345Y8283285D01*
Y8216640D01*
X9816732Y8299946D02*
X9883377D01*
X9816732Y8233301D01*
Y8216640D01*
X9833393Y8199979D01*
X9866715D01*
X9883377Y8216640D01*
X10266641Y8500026D02*
X10249979Y8483365D01*
Y8450043D01*
X10266641Y8433381D01*
X10333286D01*
X10349947Y8450043D01*
Y8483365D01*
X10333286Y8500026D01*
X10349947Y8583333D02*
X10249979D01*
X10299963Y8533349D01*
Y8599994D01*
X10266641Y8633317D02*
X10249979Y8649978D01*
Y8683301D01*
X10266641Y8699962D01*
X10333286D01*
X10349947Y8683301D01*
Y8649978D01*
X10333286Y8633317D01*
X10266641D01*
X10349947Y8733285D02*
Y8766607D01*
Y8749946D01*
X10249979D01*
X10266641Y8733285D01*
X12335132Y8531022D02*
X12318471Y8547684D01*
X12285149D01*
X12268487Y8531022D01*
Y8464377D01*
X12285149Y8447716D01*
X12318471D01*
X12335132Y8464377D01*
X12368455Y8547684D02*
X12435100D01*
Y8531022D01*
X12368455Y8464377D01*
Y8447716D01*
X12468423Y8531022D02*
X12485084Y8547684D01*
X12518407D01*
X12535068Y8531022D01*
Y8464377D01*
X12518407Y8447716D01*
X12485084D01*
X12468423Y8464377D01*
Y8531022D01*
X12568391Y8447716D02*
X12601713D01*
X12585052D01*
Y8547684D01*
X12568391Y8531022D01*
X12330271Y8215522D02*
X12313610Y8232183D01*
X12280288D01*
X12263626Y8215522D01*
Y8148877D01*
X12280288Y8132216D01*
X12313610D01*
X12330271Y8148877D01*
X12363594Y8232183D02*
X12430239D01*
Y8215522D01*
X12363594Y8148877D01*
Y8132216D01*
X12463562Y8215522D02*
X12480223Y8232183D01*
X12513546D01*
X12530207Y8215522D01*
Y8148877D01*
X12513546Y8132216D01*
X12480223D01*
X12463562Y8148877D01*
Y8215522D01*
X12563530D02*
X12580191Y8232183D01*
X12613514D01*
X12630175Y8215522D01*
Y8198861D01*
X12613514Y8182200D01*
X12596852D01*
X12613514D01*
X12630175Y8165538D01*
Y8148877D01*
X12613514Y8132216D01*
X12580191D01*
X12563530Y8148877D01*
X12330270Y8352122D02*
X12313609Y8368784D01*
X12280287D01*
X12263625Y8352122D01*
Y8285477D01*
X12280287Y8268816D01*
X12313609D01*
X12330270Y8285477D01*
X12363593Y8368784D02*
X12430238D01*
Y8352122D01*
X12363593Y8285477D01*
Y8268816D01*
X12463561Y8352122D02*
X12480222Y8368784D01*
X12513545D01*
X12530206Y8352122D01*
Y8285477D01*
X12513545Y8268816D01*
X12480222D01*
X12463561Y8285477D01*
Y8352122D01*
X12630174Y8268816D02*
X12563529D01*
X12630174Y8335461D01*
Y8352122D01*
X12613513Y8368784D01*
X12580190D01*
X12563529Y8352122D01*
X9459522Y7282782D02*
X9476183Y7299443D01*
Y7332766D01*
X9459522Y7349427D01*
X9392877D01*
X9376216Y7332766D01*
Y7299443D01*
X9392877Y7282782D01*
X9376216Y7249459D02*
Y7216137D01*
Y7232798D01*
X9476183D01*
X9459522Y7249459D01*
X9376216Y7116169D02*
X9476183D01*
X9426200Y7166153D01*
Y7099508D01*
X9459522Y7066185D02*
X9476183Y7049524D01*
Y7016201D01*
X9459522Y6999540D01*
X9392877D01*
X9376216Y7016201D01*
Y7049524D01*
X9392877Y7066185D01*
X9459522D01*
X9376216Y6899572D02*
Y6966217D01*
X9442861Y6899572D01*
X9459522D01*
X9476183Y6916234D01*
Y6949556D01*
X9459522Y6966217D01*
X9571923Y7253421D02*
X9588584Y7270082D01*
Y7303405D01*
X9571923Y7320066D01*
X9505278D01*
X9488616Y7303405D01*
Y7270082D01*
X9505278Y7253421D01*
X9488616Y7220098D02*
Y7186776D01*
Y7203437D01*
X9588584D01*
X9571923Y7220098D01*
X9488616Y7086808D02*
X9588584D01*
X9538600Y7136792D01*
Y7070147D01*
X9571923Y7036824D02*
X9588584Y7020163D01*
Y6986840D01*
X9571923Y6970179D01*
X9505278D01*
X9488616Y6986840D01*
Y7020163D01*
X9505278Y7036824D01*
X9571923D01*
X9488616Y6936856D02*
Y6903534D01*
Y6920195D01*
X9588584D01*
X9571923Y6936856D01*
X8594934Y7201916D02*
Y7301884D01*
X8644917D01*
X8661579Y7285222D01*
Y7251900D01*
X8644917Y7235239D01*
X8594934D01*
X8628256D02*
X8661579Y7201916D01*
X8694901D02*
X8728224D01*
X8711563D01*
Y7301884D01*
X8694901Y7285222D01*
X8828192Y7201916D02*
Y7301884D01*
X8778208Y7251900D01*
X8844853D01*
X8878176Y7285222D02*
X8894837Y7301884D01*
X8928159D01*
X8944821Y7285222D01*
Y7218577D01*
X8928159Y7201916D01*
X8894837D01*
X8878176Y7218577D01*
Y7285222D01*
X8978143Y7201916D02*
X9011466D01*
X8994805D01*
Y7301884D01*
X8978143Y7285222D01*
X8585572Y7065516D02*
Y7165484D01*
X8635556D01*
X8652217Y7148822D01*
Y7115500D01*
X8635556Y7098838D01*
X8585572D01*
X8618895D02*
X8652217Y7065516D01*
X8685540D02*
X8718863D01*
X8702202D01*
Y7165484D01*
X8685540Y7148822D01*
X8818830Y7065516D02*
Y7165484D01*
X8768847Y7115500D01*
X8835492D01*
X8868814Y7148822D02*
X8885476Y7165484D01*
X8918798D01*
X8935459Y7148822D01*
Y7082177D01*
X8918798Y7065516D01*
X8885476D01*
X8868814Y7082177D01*
Y7148822D01*
X9035427Y7065516D02*
X8968782D01*
X9035427Y7132161D01*
Y7148822D01*
X9018766Y7165484D01*
X8985444D01*
X8968782Y7148822D01*
X8585573Y6944116D02*
Y7044084D01*
X8635557D01*
X8652218Y7027423D01*
Y6994100D01*
X8635557Y6977439D01*
X8585573D01*
X8618895D02*
X8652218Y6944116D01*
X8685541D02*
X8718863D01*
X8702202D01*
Y7044084D01*
X8685541Y7027423D01*
X8818831Y6944116D02*
Y7044084D01*
X8768847Y6994100D01*
X8835492D01*
X8868815Y7027423D02*
X8885476Y7044084D01*
X8918799D01*
X8935460Y7027423D01*
Y6960778D01*
X8918799Y6944116D01*
X8885476D01*
X8868815Y6960778D01*
Y7027423D01*
X8968783D02*
X8985444Y7044084D01*
X9018767D01*
X9035428Y7027423D01*
Y7010761D01*
X9018767Y6994100D01*
X9002105D01*
X9018767D01*
X9035428Y6977439D01*
Y6960778D01*
X9018767Y6944116D01*
X8985444D01*
X8968783Y6960778D01*
X9055983Y8467587D02*
X8956016D01*
Y8517571D01*
X8972677Y8534232D01*
X9006000D01*
X9022661Y8517571D01*
Y8467587D01*
Y8500909D02*
X9055983Y8534232D01*
X8972677Y8567555D02*
X8956016Y8584216D01*
Y8617539D01*
X8972677Y8634200D01*
X8989338D01*
X9006000Y8617539D01*
X9022661Y8634200D01*
X9039322D01*
X9055983Y8617539D01*
Y8584216D01*
X9039322Y8567555D01*
X9022661D01*
X9006000Y8584216D01*
X8989338Y8567555D01*
X8972677D01*
X9006000Y8584216D02*
Y8617539D01*
X8972677Y8667522D02*
X8956016Y8684184D01*
Y8717506D01*
X8972677Y8734167D01*
X9039322D01*
X9055983Y8717506D01*
Y8684184D01*
X9039322Y8667522D01*
X8972677D01*
X9055983Y8767490D02*
Y8800813D01*
Y8784152D01*
X8956016D01*
X8972677Y8767490D01*
X8763123Y8735768D02*
X8779784Y8752429D01*
Y8785751D01*
X8763123Y8802413D01*
X8696478D01*
X8679817Y8785751D01*
Y8752429D01*
X8696478Y8735768D01*
X8763123Y8702445D02*
X8779784Y8685783D01*
Y8652461D01*
X8763123Y8635800D01*
X8746462D01*
X8729800Y8652461D01*
X8713139Y8635800D01*
X8696478D01*
X8679817Y8652461D01*
Y8685783D01*
X8696478Y8702445D01*
X8713139D01*
X8729800Y8685783D01*
X8746462Y8702445D01*
X8763123D01*
X8729800Y8685783D02*
Y8652461D01*
X8763123Y8602477D02*
X8779784Y8585816D01*
Y8552493D01*
X8763123Y8535832D01*
X8696478D01*
X8679817Y8552493D01*
Y8585816D01*
X8696478Y8602477D01*
X8763123D01*
X8679817Y8502509D02*
Y8469187D01*
Y8485848D01*
X8779784D01*
X8763123Y8502509D01*
X8816416Y8816774D02*
X8916384D01*
Y8766790D01*
X8899723Y8750129D01*
X8866400D01*
X8849739Y8766790D01*
Y8816774D01*
Y8783452D02*
X8816416Y8750129D01*
X8899723Y8716807D02*
X8916384Y8700145D01*
Y8666823D01*
X8899723Y8650162D01*
X8883061D01*
X8866400Y8666823D01*
X8849739Y8650162D01*
X8833078D01*
X8816416Y8666823D01*
Y8700145D01*
X8833078Y8716807D01*
X8849739D01*
X8866400Y8700145D01*
X8883061Y8716807D01*
X8899723D01*
X8866400Y8700145D02*
Y8666823D01*
X8899723Y8616839D02*
X8916384Y8600177D01*
Y8566855D01*
X8899723Y8550194D01*
X8833078D01*
X8816416Y8566855D01*
Y8600177D01*
X8833078Y8616839D01*
X8899723D01*
X8816416Y8450226D02*
Y8516871D01*
X8883061Y8450226D01*
X8899723D01*
X8916384Y8466887D01*
Y8500210D01*
X8899723Y8516871D01*
X12115783Y6819787D02*
X12015815D01*
Y6869771D01*
X12032477Y6886432D01*
X12065799D01*
X12082460Y6869771D01*
Y6819787D01*
Y6853110D02*
X12115783Y6886432D01*
X12099122Y6919755D02*
X12115783Y6936416D01*
Y6969739D01*
X12099122Y6986400D01*
X12032477D01*
X12015815Y6969739D01*
Y6936416D01*
X12032477Y6919755D01*
X12049138D01*
X12065799Y6936416D01*
Y6986400D01*
X12032477Y7019723D02*
X12015815Y7036384D01*
Y7069707D01*
X12032477Y7086368D01*
X12099122D01*
X12115783Y7069707D01*
Y7036384D01*
X12099122Y7019723D01*
X12032477D01*
X12115783Y7119691D02*
Y7153013D01*
Y7136352D01*
X12015815D01*
X12032477Y7119691D01*
X11885077Y6611433D02*
X11868416Y6594771D01*
Y6561449D01*
X11885077Y6544788D01*
X11951722D01*
X11968384Y6561449D01*
Y6594771D01*
X11951722Y6611433D01*
Y6644755D02*
X11968384Y6661417D01*
Y6694739D01*
X11951722Y6711400D01*
X11885077D01*
X11868416Y6694739D01*
Y6661417D01*
X11885077Y6644755D01*
X11901739D01*
X11918400Y6661417D01*
Y6711400D01*
X11885077Y6744723D02*
X11868416Y6761384D01*
Y6794707D01*
X11885077Y6811368D01*
X11951722D01*
X11968384Y6794707D01*
Y6761384D01*
X11951722Y6744723D01*
X11885077D01*
X11968384Y6844691D02*
Y6878013D01*
Y6861352D01*
X11868416D01*
X11885077Y6844691D01*
X12106783Y6540426D02*
X12006815D01*
Y6590410D01*
X12023477Y6607071D01*
X12056799D01*
X12073461Y6590410D01*
Y6540426D01*
Y6573749D02*
X12106783Y6607071D01*
X12090122Y6640394D02*
X12106783Y6657055D01*
Y6690378D01*
X12090122Y6707039D01*
X12023477D01*
X12006815Y6690378D01*
Y6657055D01*
X12023477Y6640394D01*
X12040138D01*
X12056799Y6657055D01*
Y6707039D01*
X12023477Y6740362D02*
X12006815Y6757023D01*
Y6790346D01*
X12023477Y6807007D01*
X12090122D01*
X12106783Y6790346D01*
Y6757023D01*
X12090122Y6740362D01*
X12023477D01*
X12106783Y6906975D02*
Y6840329D01*
X12040138Y6906975D01*
X12023477D01*
X12006815Y6890313D01*
Y6856991D01*
X12023477Y6840329D01*
X12032071Y6363123D02*
X12015410Y6379784D01*
X11982088D01*
X11965426Y6363123D01*
Y6296478D01*
X11982088Y6279816D01*
X12015410D01*
X12032071Y6296478D01*
X12065394D02*
X12082055Y6279816D01*
X12115378D01*
X12132039Y6296478D01*
Y6363123D01*
X12115378Y6379784D01*
X12082055D01*
X12065394Y6363123D01*
Y6346461D01*
X12082055Y6329800D01*
X12132039D01*
X12165362Y6363123D02*
X12182023Y6379784D01*
X12215346D01*
X12232007Y6363123D01*
Y6296478D01*
X12215346Y6279816D01*
X12182023D01*
X12165362Y6296478D01*
Y6363123D01*
X12331975Y6279816D02*
X12265330D01*
X12331975Y6346461D01*
Y6363123D01*
X12315313Y6379784D01*
X12281991D01*
X12265330Y6363123D01*
X11965426Y6141416D02*
Y6241384D01*
X12015410D01*
X12032071Y6224723D01*
Y6191400D01*
X12015410Y6174739D01*
X11965426D01*
X11998748D02*
X12032071Y6141416D01*
X12065394Y6158078D02*
X12082055Y6141416D01*
X12115378D01*
X12132039Y6158078D01*
Y6224723D01*
X12115378Y6241384D01*
X12082055D01*
X12065394Y6224723D01*
Y6208061D01*
X12082055Y6191400D01*
X12132039D01*
X12165361Y6224723D02*
X12182023Y6241384D01*
X12215345D01*
X12232007Y6224723D01*
Y6158078D01*
X12215345Y6141416D01*
X12182023D01*
X12165361Y6158078D01*
Y6224723D01*
X12265329D02*
X12281991Y6241384D01*
X12315313D01*
X12331974Y6224723D01*
Y6208061D01*
X12315313Y6191400D01*
X12298652D01*
X12315313D01*
X12331974Y6174739D01*
Y6158078D01*
X12315313Y6141416D01*
X12281991D01*
X12265329Y6158078D01*
X12382316Y6769627D02*
X12482284D01*
Y6719643D01*
X12465623Y6702982D01*
X12432300D01*
X12415639Y6719643D01*
Y6769627D01*
Y6736305D02*
X12382316Y6702982D01*
Y6669659D02*
Y6636337D01*
Y6652998D01*
X12482284D01*
X12465623Y6669659D01*
Y6586353D02*
X12482284Y6569691D01*
Y6536369D01*
X12465623Y6519708D01*
X12398978D01*
X12382316Y6536369D01*
Y6569691D01*
X12398978Y6586353D01*
X12465623D01*
Y6486385D02*
X12482284Y6469724D01*
Y6436401D01*
X12465623Y6419740D01*
X12398978D01*
X12382316Y6436401D01*
Y6469724D01*
X12398978Y6486385D01*
X12465623D01*
X12482284Y6319772D02*
Y6386417D01*
X12432300D01*
X12448961Y6353095D01*
Y6336433D01*
X12432300Y6319772D01*
X12398978D01*
X12382316Y6336433D01*
Y6369756D01*
X12398978Y6386417D01*
X12375916Y7034628D02*
X12475884D01*
Y6984644D01*
X12459223Y6967983D01*
X12425900D01*
X12409239Y6984644D01*
Y7034628D01*
Y7001305D02*
X12375916Y6967983D01*
Y6934660D02*
Y6901337D01*
Y6917998D01*
X12475884D01*
X12459223Y6934660D01*
Y6851353D02*
X12475884Y6834692D01*
Y6801369D01*
X12459223Y6784708D01*
X12392578D01*
X12375916Y6801369D01*
Y6834692D01*
X12392578Y6851353D01*
X12459223D01*
Y6751386D02*
X12475884Y6734724D01*
Y6701402D01*
X12459223Y6684741D01*
X12392578D01*
X12375916Y6701402D01*
Y6734724D01*
X12392578Y6751386D01*
X12459223D01*
X12375916Y6601434D02*
X12475884D01*
X12425900Y6651418D01*
Y6584773D01*
X12559734Y6692016D02*
Y6791984D01*
X12609718D01*
X12626379Y6775323D01*
Y6742000D01*
X12609718Y6725339D01*
X12559734D01*
X12593057D02*
X12626379Y6692016D01*
X12659702D02*
X12693024D01*
X12676363D01*
Y6791984D01*
X12659702Y6775323D01*
X12743008D02*
X12759670Y6791984D01*
X12792992D01*
X12809653Y6775323D01*
Y6708678D01*
X12792992Y6692016D01*
X12759670D01*
X12743008Y6708678D01*
Y6775323D01*
X12842976D02*
X12859637Y6791984D01*
X12892960D01*
X12909621Y6775323D01*
Y6708678D01*
X12892960Y6692016D01*
X12859637D01*
X12842976Y6708678D01*
Y6775323D01*
X12942944Y6692016D02*
X12976266D01*
X12959605D01*
Y6791984D01*
X12942944Y6775323D01*
X12555373Y6405616D02*
Y6505584D01*
X12605357D01*
X12622018Y6488923D01*
Y6455600D01*
X12605357Y6438939D01*
X12555373D01*
X12588695D02*
X12622018Y6405616D01*
X12655340D02*
X12688663D01*
X12672002D01*
Y6505584D01*
X12655340Y6488923D01*
X12738647D02*
X12755308Y6505584D01*
X12788631D01*
X12805292Y6488923D01*
Y6422278D01*
X12788631Y6405616D01*
X12755308D01*
X12738647Y6422278D01*
Y6488923D01*
X12838615D02*
X12855276Y6505584D01*
X12888599D01*
X12905260Y6488923D01*
Y6422278D01*
X12888599Y6405616D01*
X12855276D01*
X12838615Y6422278D01*
Y6488923D01*
X13005228Y6405616D02*
X12938582D01*
X13005228Y6472261D01*
Y6488923D01*
X12988567Y6505584D01*
X12955244D01*
X12938582Y6488923D01*
X12570373Y6119217D02*
Y6219184D01*
X12620357D01*
X12637018Y6202523D01*
Y6169201D01*
X12620357Y6152539D01*
X12570373D01*
X12603695D02*
X12637018Y6119217D01*
X12670340D02*
X12703663D01*
X12687002D01*
Y6219184D01*
X12670340Y6202523D01*
X12753647D02*
X12770308Y6219184D01*
X12803632D01*
X12820293Y6202523D01*
Y6135878D01*
X12803632Y6119217D01*
X12770308D01*
X12753647Y6135878D01*
Y6202523D01*
X12853615D02*
X12870276Y6219184D01*
X12903600D01*
X12920261Y6202523D01*
Y6135878D01*
X12903600Y6119217D01*
X12870276D01*
X12853615Y6135878D01*
Y6202523D01*
X12953581D02*
X12970244Y6219184D01*
X13003566D01*
X13020227Y6202523D01*
Y6185862D01*
X13003566Y6169201D01*
X12986905D01*
X13003566D01*
X13020227Y6152539D01*
Y6135878D01*
X13003566Y6119217D01*
X12970244D01*
X12953581Y6135878D01*
X12947983Y6246178D02*
X12964644Y6229516D01*
X12997966D01*
X13014629Y6246178D01*
Y6312823D01*
X12997966Y6329484D01*
X12964644D01*
X12947983Y6312823D01*
X12914661Y6329484D02*
X12881337D01*
X12898000D01*
Y6229516D01*
X12914661Y6246178D01*
X12831354D02*
X12814693Y6229516D01*
X12781370D01*
X12764709Y6246178D01*
Y6312823D01*
X12781370Y6329484D01*
X12814693D01*
X12831354Y6312823D01*
Y6246178D01*
X12731386D02*
X12714724Y6229516D01*
X12681402D01*
X12664741Y6246178D01*
Y6312823D01*
X12681402Y6329484D01*
X12714724D01*
X12731386Y6312823D01*
Y6246178D01*
X12564773Y6229516D02*
X12631418D01*
Y6279500D01*
X12598095Y6262839D01*
X12581434D01*
X12564773Y6279500D01*
Y6312823D01*
X12581434Y6329484D01*
X12614757D01*
X12631418Y6312823D01*
X12943008Y6530135D02*
X12959671Y6513473D01*
X12992993D01*
X13009654Y6530135D01*
Y6596780D01*
X12992993Y6613441D01*
X12959671D01*
X12943008Y6596780D01*
X12909686Y6613441D02*
X12876364D01*
X12893025D01*
Y6513473D01*
X12909686Y6530135D01*
X12826379D02*
X12809718Y6513473D01*
X12776396D01*
X12759735Y6530135D01*
Y6596780D01*
X12776396Y6613441D01*
X12809718D01*
X12826379Y6596780D01*
Y6530135D01*
X12726412D02*
X12709751Y6513473D01*
X12676429D01*
X12659767Y6530135D01*
Y6596780D01*
X12676429Y6613441D01*
X12709751D01*
X12726412Y6596780D01*
Y6530135D01*
X12576461Y6613441D02*
Y6513473D01*
X12626445Y6563457D01*
X12559800D01*
X12932982Y6813977D02*
X12949643Y6797316D01*
X12982965D01*
X12999628Y6813977D01*
Y6880623D01*
X12982965Y6897284D01*
X12949643D01*
X12932982Y6880623D01*
X12899660Y6897284D02*
X12866336D01*
X12882999D01*
Y6797316D01*
X12899660Y6813977D01*
X12816353D02*
X12799691Y6797316D01*
X12766369D01*
X12749708Y6813977D01*
Y6880623D01*
X12766369Y6897284D01*
X12799691D01*
X12816353Y6880623D01*
Y6813977D01*
X12716385D02*
X12699723Y6797316D01*
X12666401D01*
X12649740Y6813977D01*
Y6880623D01*
X12666401Y6897284D01*
X12699723D01*
X12716385Y6880623D01*
Y6813977D01*
X12616417D02*
X12599756Y6797316D01*
X12566433D01*
X12549772Y6813977D01*
Y6830639D01*
X12566433Y6847300D01*
X12583094D01*
X12566433D01*
X12549772Y6863961D01*
Y6880623D01*
X12566433Y6897284D01*
X12599756D01*
X12616417Y6880623D01*
X13023584Y6469627D02*
X12923616D01*
Y6419643D01*
X12940277Y6402982D01*
X13006921D01*
X13023584Y6419643D01*
Y6469627D01*
X12923616Y6369660D02*
Y6336337D01*
Y6352998D01*
X13023584D01*
X13006921Y6369660D01*
Y6286353D02*
X13023584Y6269692D01*
Y6236369D01*
X13006921Y6219708D01*
X12940277D01*
X12923616Y6236369D01*
Y6269692D01*
X12940277Y6286353D01*
X13006921D01*
Y6186385D02*
X13023584Y6169724D01*
Y6136401D01*
X13006921Y6119740D01*
X12940277D01*
X12923616Y6136401D01*
Y6169724D01*
X12940277Y6186385D01*
X13006921D01*
X12923616Y6036434D02*
X13023584D01*
X12973599Y6086418D01*
Y6019773D01*
X13012186Y6744627D02*
X12912218D01*
Y6694643D01*
X12928877Y6677982D01*
X12995523D01*
X13012186Y6694643D01*
Y6744627D01*
X12912218Y6644659D02*
Y6611337D01*
Y6627998D01*
X13012186D01*
X12995523Y6644659D01*
Y6561353D02*
X13012186Y6544691D01*
Y6511369D01*
X12995523Y6494708D01*
X12928877D01*
X12912218Y6511369D01*
Y6544691D01*
X12928877Y6561353D01*
X12995523D01*
Y6461385D02*
X13012186Y6444723D01*
Y6411401D01*
X12995523Y6394740D01*
X12928877D01*
X12912218Y6411401D01*
Y6444723D01*
X12928877Y6461385D01*
X12995523D01*
Y6361417D02*
X13012186Y6344756D01*
Y6311433D01*
X12995523Y6294772D01*
X12978862D01*
X12962201Y6311433D01*
Y6328095D01*
Y6311433D01*
X12945538Y6294772D01*
X12928877D01*
X12912218Y6311433D01*
Y6344756D01*
X12928877Y6361417D01*
X13000784Y7019628D02*
X12900816D01*
Y6969644D01*
X12917477Y6952983D01*
X12984123D01*
X13000784Y6969644D01*
Y7019628D01*
X12900816Y6919660D02*
Y6886337D01*
Y6902998D01*
X13000784D01*
X12984123Y6919660D01*
Y6836353D02*
X13000784Y6819692D01*
Y6786369D01*
X12984123Y6769708D01*
X12917477D01*
X12900816Y6786369D01*
Y6819692D01*
X12917477Y6836353D01*
X12984123D01*
Y6736386D02*
X13000784Y6719724D01*
Y6686402D01*
X12984123Y6669741D01*
X12917477D01*
X12900816Y6686402D01*
Y6719724D01*
X12917477Y6736386D01*
X12984123D01*
X12900816Y6569773D02*
Y6636418D01*
X12967461Y6569773D01*
X12984123D01*
X13000784Y6586434D01*
Y6619756D01*
X12984123Y6636418D01*
X11221278Y7646070D02*
X11204616Y7629409D01*
Y7596087D01*
X11221278Y7579425D01*
X11287923D01*
X11304584Y7596087D01*
Y7629409D01*
X11287923Y7646070D01*
X11204616Y7746038D02*
Y7679393D01*
X11254600D01*
X11237939Y7712716D01*
Y7729377D01*
X11254600Y7746038D01*
X11287923D01*
X11304584Y7729377D01*
Y7696054D01*
X11287923Y7679393D01*
X11221278Y7779361D02*
X11204616Y7796022D01*
Y7829345D01*
X11221278Y7846006D01*
X11287923D01*
X11304584Y7829345D01*
Y7796022D01*
X11287923Y7779361D01*
X11221278D01*
Y7879329D02*
X11204616Y7895990D01*
Y7929313D01*
X11221278Y7945974D01*
X11237939D01*
X11254600Y7929313D01*
Y7912651D01*
Y7929313D01*
X11271261Y7945974D01*
X11287923D01*
X11304584Y7929313D01*
Y7895990D01*
X11287923Y7879329D01*
X11009677Y7646071D02*
X10993016Y7629409D01*
Y7596087D01*
X11009677Y7579426D01*
X11076323D01*
X11092984Y7596087D01*
Y7629409D01*
X11076323Y7646071D01*
X10993016Y7746038D02*
Y7679393D01*
X11043000D01*
X11026339Y7712716D01*
Y7729377D01*
X11043000Y7746038D01*
X11076323D01*
X11092984Y7729377D01*
Y7696055D01*
X11076323Y7679393D01*
X11009677Y7779361D02*
X10993016Y7796023D01*
Y7829345D01*
X11009677Y7846006D01*
X11076323D01*
X11092984Y7829345D01*
Y7796023D01*
X11076323Y7779361D01*
X11009677D01*
X11092984Y7945974D02*
Y7879329D01*
X11026339Y7945974D01*
X11009677D01*
X10993016Y7929313D01*
Y7895990D01*
X11009677Y7879329D01*
X10798878Y7662732D02*
X10782216Y7646071D01*
Y7612748D01*
X10798878Y7596087D01*
X10865523D01*
X10882184Y7612748D01*
Y7646071D01*
X10865523Y7662732D01*
X10782216Y7762700D02*
Y7696055D01*
X10832200D01*
X10815539Y7729377D01*
Y7746039D01*
X10832200Y7762700D01*
X10865523D01*
X10882184Y7746039D01*
Y7712716D01*
X10865523Y7696055D01*
X10798878Y7796023D02*
X10782216Y7812684D01*
Y7846006D01*
X10798878Y7862668D01*
X10865523D01*
X10882184Y7846006D01*
Y7812684D01*
X10865523Y7796023D01*
X10798878D01*
X10882184Y7895990D02*
Y7929313D01*
Y7912652D01*
X10782216D01*
X10798878Y7895990D01*
X11437278Y7221071D02*
X11420617Y7204410D01*
Y7171087D01*
X11437278Y7154426D01*
X11503923D01*
X11520585Y7171087D01*
Y7204410D01*
X11503923Y7221071D01*
X11420617Y7321038D02*
Y7254393D01*
X11470601D01*
X11453939Y7287716D01*
Y7304377D01*
X11470601Y7321038D01*
X11503923D01*
X11520585Y7304377D01*
Y7271055D01*
X11503923Y7254393D01*
X11437278Y7354361D02*
X11420617Y7371023D01*
Y7404345D01*
X11437278Y7421006D01*
X11503923D01*
X11520585Y7404345D01*
Y7371023D01*
X11503923Y7354361D01*
X11437278D01*
X11420617Y7520974D02*
Y7454329D01*
X11470601D01*
X11453939Y7487652D01*
Y7504313D01*
X11470601Y7520974D01*
X11503923D01*
X11520585Y7504313D01*
Y7470990D01*
X11503923Y7454329D01*
X10896471Y7099722D02*
X10879810Y7116384D01*
X10846487D01*
X10829826Y7099722D01*
Y7033077D01*
X10846487Y7016416D01*
X10879810D01*
X10896471Y7033077D01*
X10996439Y7116384D02*
X10929793D01*
Y7066400D01*
X10963116Y7083061D01*
X10979777D01*
X10996439Y7066400D01*
Y7033077D01*
X10979777Y7016416D01*
X10946455D01*
X10929793Y7033077D01*
X11029761Y7099722D02*
X11046423Y7116384D01*
X11079745D01*
X11096406Y7099722D01*
Y7033077D01*
X11079745Y7016416D01*
X11046423D01*
X11029761Y7033077D01*
Y7099722D01*
X11179713Y7016416D02*
Y7116384D01*
X11129729Y7066400D01*
X11196374D01*
X9754193Y7989615D02*
Y8072922D01*
X9737531Y8089583D01*
X9704209D01*
X9687548Y8072922D01*
Y7989615D01*
X9604241Y8089583D02*
Y7989615D01*
X9654225Y8039599D01*
X9587580D01*
X9554257Y8006277D02*
X9537596Y7989615D01*
X9504273D01*
X9487612Y8006277D01*
Y8072922D01*
X9504273Y8089583D01*
X9537596D01*
X9554257Y8072922D01*
Y8006277D01*
X9454289Y8089583D02*
X9420967D01*
X9437628D01*
Y7989615D01*
X9454289Y8006277D01*
X9733929Y7733597D02*
X9750590Y7716936D01*
X9783913D01*
X9800574Y7733597D01*
Y7800242D01*
X9783913Y7816904D01*
X9750590D01*
X9733929Y7800242D01*
X9650623Y7816904D02*
Y7716936D01*
X9700606Y7766920D01*
X9633961D01*
X9600639Y7733597D02*
X9583977Y7716936D01*
X9550655D01*
X9533994Y7733597D01*
Y7800242D01*
X9550655Y7816904D01*
X9583977D01*
X9600639Y7800242D01*
Y7733597D01*
X9434026Y7716936D02*
X9500671D01*
Y7766920D01*
X9467348Y7750259D01*
X9450687D01*
X9434026Y7766920D01*
Y7800242D01*
X9450687Y7816904D01*
X9484009D01*
X9500671Y7800242D01*
X10114952Y8648736D02*
X10181597D01*
Y8698720D01*
X10148274D01*
X10181597D01*
Y8748704D01*
X10081629Y8648736D02*
Y8748704D01*
X10031645D01*
X10014984Y8732042D01*
Y8715381D01*
X10031645Y8698720D01*
X10081629D01*
X10031645D01*
X10014984Y8682059D01*
Y8665397D01*
X10031645Y8648736D01*
X10081629D01*
X9931677Y8748704D02*
Y8648736D01*
X9981661Y8698720D01*
X9915016D01*
X9881693Y8665397D02*
X9865032Y8648736D01*
X9831710D01*
X9815048Y8665397D01*
Y8732042D01*
X9831710Y8748704D01*
X9865032D01*
X9881693Y8732042D01*
Y8665397D01*
X9781726Y8748704D02*
X9748403D01*
X9765064D01*
Y8648736D01*
X9781726Y8665397D01*
X10097284Y7963592D02*
X9997316D01*
Y7896947D01*
Y7813641D02*
X10097284D01*
X10047300Y7863625D01*
Y7796980D01*
X10080623Y7763657D02*
X10097284Y7746995D01*
Y7713673D01*
X10080623Y7697012D01*
X10013978D01*
X9997316Y7713673D01*
Y7746995D01*
X10013978Y7763657D01*
X10080623D01*
X9997316Y7663689D02*
Y7630367D01*
Y7647028D01*
X10097284D01*
X10080623Y7663689D01*
X9380813Y8076703D02*
Y7976736D01*
X9330829D01*
X9314168Y7993397D01*
Y8026720D01*
X9330829Y8043381D01*
X9380813D01*
X9347491D02*
X9314168Y8076703D01*
X9230861D02*
Y7976736D01*
X9280845Y8026720D01*
X9214200D01*
X9180877Y7993397D02*
X9164216Y7976736D01*
X9130894D01*
X9114232Y7993397D01*
Y8060042D01*
X9130894Y8076703D01*
X9164216D01*
X9180877Y8060042D01*
Y7993397D01*
X9080910Y8076703D02*
X9047587D01*
X9064248D01*
Y7976736D01*
X9080910Y7993397D01*
X9456071Y8367803D02*
X9439410Y8384464D01*
X9406087D01*
X9389426Y8367803D01*
Y8301158D01*
X9406087Y8284496D01*
X9439410D01*
X9456071Y8301158D01*
X9539378Y8284496D02*
Y8384464D01*
X9489394Y8334480D01*
X9556039D01*
X9589362Y8367803D02*
X9606023Y8384464D01*
X9639345D01*
X9656007Y8367803D01*
Y8301158D01*
X9639345Y8284496D01*
X9606023D01*
X9589362Y8301158D01*
Y8367803D01*
X9739313Y8284496D02*
Y8384464D01*
X9689329Y8334480D01*
X9755974D01*
X9260174Y8219503D02*
Y8119535D01*
X9210190D01*
X9193529Y8136197D01*
Y8169519D01*
X9210190Y8186181D01*
X9260174D01*
X9226851D02*
X9193529Y8219503D01*
X9110222D02*
Y8119535D01*
X9160206Y8169519D01*
X9093561D01*
X9060238Y8136197D02*
X9043577Y8119535D01*
X9010255D01*
X8993593Y8136197D01*
Y8202842D01*
X9010255Y8219503D01*
X9043577D01*
X9060238Y8202842D01*
Y8136197D01*
X8960271D02*
X8943609Y8119535D01*
X8910287D01*
X8893626Y8136197D01*
Y8152858D01*
X8910287Y8169519D01*
X8926948D01*
X8910287D01*
X8893626Y8186181D01*
Y8202842D01*
X8910287Y8219503D01*
X8943609D01*
X8960271Y8202842D01*
X9034826Y7835296D02*
Y7935264D01*
X9084810D01*
X9101471Y7918602D01*
Y7885280D01*
X9084810Y7868619D01*
X9034826D01*
X9068149D02*
X9101471Y7835296D01*
X9184778D02*
Y7935264D01*
X9134794Y7885280D01*
X9201439D01*
X9234762Y7918602D02*
X9251423Y7935264D01*
X9284746D01*
X9301407Y7918602D01*
Y7851957D01*
X9284746Y7835296D01*
X9251423D01*
X9234762Y7851957D01*
Y7918602D01*
X9401375Y7835296D02*
X9334730D01*
X9401375Y7901941D01*
Y7918602D01*
X9384714Y7935264D01*
X9351391D01*
X9334730Y7918602D01*
X12594329Y7019577D02*
X12610990Y7002916D01*
X12644312D01*
X12660974Y7019577D01*
Y7086222D01*
X12644312Y7102884D01*
X12610990D01*
X12594329Y7086222D01*
X12561006Y7002916D02*
X12494361D01*
Y7019577D01*
X12561006Y7086222D01*
Y7102884D01*
X12461038Y7019577D02*
X12444377Y7002916D01*
X12411054D01*
X12394393Y7019577D01*
Y7086222D01*
X12411054Y7102884D01*
X12444377D01*
X12461038Y7086222D01*
Y7019577D01*
X12311086Y7102884D02*
Y7002916D01*
X12361070Y7052900D01*
X12294425D01*
X12594329Y7120277D02*
X12610991Y7103616D01*
X12644313D01*
X12660974Y7120277D01*
Y7186922D01*
X12644313Y7203584D01*
X12610991D01*
X12594329Y7186922D01*
X12561007Y7103616D02*
X12494362D01*
Y7120277D01*
X12561007Y7186922D01*
Y7203584D01*
X12461039Y7120277D02*
X12444377Y7103616D01*
X12411055D01*
X12394394Y7120277D01*
Y7186922D01*
X12411055Y7203584D01*
X12444377D01*
X12461039Y7186922D01*
Y7120277D01*
X12294426Y7103616D02*
X12361071D01*
Y7153600D01*
X12327749Y7136939D01*
X12311087D01*
X12294426Y7153600D01*
Y7186922D01*
X12311087Y7203584D01*
X12344410D01*
X12361071Y7186922D01*
X12067771Y8202422D02*
X12051110Y8219084D01*
X12017787D01*
X12001126Y8202422D01*
Y8135777D01*
X12017787Y8119116D01*
X12051110D01*
X12067771Y8135777D01*
X12101093Y8219084D02*
X12167738D01*
Y8202422D01*
X12101093Y8135777D01*
Y8119116D01*
X12201061Y8202422D02*
X12217723Y8219084D01*
X12251045D01*
X12267706Y8202422D01*
Y8135777D01*
X12251045Y8119116D01*
X12217723D01*
X12201061Y8135777D01*
Y8202422D01*
X12367674Y8219084D02*
X12334352Y8202422D01*
X12301029Y8169100D01*
Y8135777D01*
X12317690Y8119116D01*
X12351013D01*
X12367674Y8135777D01*
Y8152438D01*
X12351013Y8169100D01*
X12301029D01*
X12394513Y7107384D02*
Y7007417D01*
X12344529D01*
X12327868Y7024078D01*
Y7057400D01*
X12344529Y7074062D01*
X12394513D01*
X12361190D02*
X12327868Y7107384D01*
X12294545Y7007417D02*
X12227900D01*
Y7024078D01*
X12294545Y7090723D01*
Y7107384D01*
X12194577Y7024078D02*
X12177916Y7007417D01*
X12144593D01*
X12127932Y7024078D01*
Y7090723D01*
X12144593Y7107384D01*
X12177916D01*
X12194577Y7090723D01*
Y7024078D01*
X12094610Y7107384D02*
X12061287D01*
X12077948D01*
Y7007417D01*
X12094610Y7024078D01*
X12023063Y7666804D02*
X11923095D01*
Y7716788D01*
X11939756Y7733449D01*
X11973079D01*
X11989740Y7716788D01*
Y7666804D01*
Y7700127D02*
X12023063Y7733449D01*
X11923095Y7766772D02*
Y7833417D01*
X11939756D01*
X12006401Y7766772D01*
X12023063D01*
X11939756Y7866740D02*
X11923095Y7883401D01*
Y7916724D01*
X11939756Y7933385D01*
X12006401D01*
X12023063Y7916724D01*
Y7883401D01*
X12006401Y7866740D01*
X11939756D01*
Y7966708D02*
X11923095Y7983369D01*
Y8016692D01*
X11939756Y8033353D01*
X11956418D01*
X11973079Y8016692D01*
Y8000030D01*
Y8016692D01*
X11989740Y8033353D01*
X12006401D01*
X12023063Y8016692D01*
Y7983369D01*
X12006401Y7966708D01*
X12717484Y6892167D02*
X12617516D01*
Y6942150D01*
X12634177Y6958812D01*
X12667500D01*
X12684161Y6942150D01*
Y6892167D01*
Y6925489D02*
X12717484Y6958812D01*
X12617516Y6992134D02*
Y7058779D01*
X12634177D01*
X12700822Y6992134D01*
X12717484D01*
X12634177Y7092102D02*
X12617516Y7108764D01*
Y7142086D01*
X12634177Y7158747D01*
X12700822D01*
X12717484Y7142086D01*
Y7108764D01*
X12700822Y7092102D01*
X12634177D01*
X12717484Y7258715D02*
Y7192070D01*
X12650839Y7258715D01*
X12634177D01*
X12617516Y7242054D01*
Y7208731D01*
X12634177Y7192070D01*
X6766771Y6081823D02*
X6750110Y6098484D01*
X6716787D01*
X6700126Y6081823D01*
Y6015178D01*
X6716787Y5998517D01*
X6750110D01*
X6766771Y6015178D01*
X6866739Y6098484D02*
X6833416Y6081823D01*
X6800094Y6048500D01*
Y6015178D01*
X6816755Y5998517D01*
X6850078D01*
X6866739Y6015178D01*
Y6031839D01*
X6850078Y6048500D01*
X6800094D01*
X6900062Y6081823D02*
X6916723Y6098484D01*
X6950046D01*
X6966707Y6081823D01*
Y6015178D01*
X6950046Y5998517D01*
X6916723D01*
X6900062Y6015178D01*
Y6081823D01*
X7000029D02*
X7016691Y6098484D01*
X7050013D01*
X7066674Y6081823D01*
Y6065162D01*
X7050013Y6048500D01*
X7033352D01*
X7050013D01*
X7066674Y6031839D01*
Y6015178D01*
X7050013Y5998517D01*
X7016691D01*
X7000029Y6015178D01*
X6771132Y5942223D02*
X6754471Y5958884D01*
X6721149D01*
X6704487Y5942223D01*
Y5875578D01*
X6721149Y5858916D01*
X6754471D01*
X6771132Y5875578D01*
X6871100Y5958884D02*
X6837778Y5942223D01*
X6804455Y5908900D01*
Y5875578D01*
X6821116Y5858916D01*
X6854439D01*
X6871100Y5875578D01*
Y5892239D01*
X6854439Y5908900D01*
X6804455D01*
X6904423Y5942223D02*
X6921084Y5958884D01*
X6954407D01*
X6971068Y5942223D01*
Y5875578D01*
X6954407Y5858916D01*
X6921084D01*
X6904423Y5875578D01*
Y5942223D01*
X7004391Y5858916D02*
X7037713D01*
X7021052D01*
Y5958884D01*
X7004391Y5942223D01*
X6954487Y5979117D02*
Y6079084D01*
X7004471D01*
X7021132Y6062423D01*
Y6029100D01*
X7004471Y6012439D01*
X6954487D01*
X6987810D02*
X7021132Y5979117D01*
X7121100Y6079084D02*
X7087778Y6062423D01*
X7054455Y6029100D01*
Y5995778D01*
X7071116Y5979117D01*
X7104439D01*
X7121100Y5995778D01*
Y6012439D01*
X7104439Y6029100D01*
X7054455D01*
X7154423Y6062423D02*
X7171084Y6079084D01*
X7204407D01*
X7221068Y6062423D01*
Y5995778D01*
X7204407Y5979117D01*
X7171084D01*
X7154423Y5995778D01*
Y6062423D01*
X7254391Y5979117D02*
X7287713D01*
X7271052D01*
Y6079084D01*
X7254391Y6062423D01*
X9388503Y6269071D02*
X9371842Y6285732D01*
X9338520D01*
X9321858Y6269071D01*
Y6202426D01*
X9338520Y6185764D01*
X9371842D01*
X9388503Y6202426D01*
X9421826Y6185764D02*
X9455148D01*
X9438487D01*
Y6285732D01*
X9421826Y6269071D01*
X9571777Y6185764D02*
X9505132D01*
X9571777Y6252409D01*
Y6269071D01*
X9555116Y6285732D01*
X9521794D01*
X9505132Y6269071D01*
X9605100D02*
X9621762Y6285732D01*
X9655084D01*
X9671745Y6269071D01*
Y6202426D01*
X9655084Y6185764D01*
X9621762D01*
X9605100Y6202426D01*
Y6269071D01*
X9771713Y6185764D02*
X9705068D01*
X9771713Y6252409D01*
Y6269071D01*
X9755052Y6285732D01*
X9721729D01*
X9705068Y6269071D01*
X9381019Y6387091D02*
X9364358Y6403752D01*
X9331035D01*
X9314374Y6387091D01*
Y6320446D01*
X9331035Y6303784D01*
X9364358D01*
X9381019Y6320446D01*
X9414342Y6303784D02*
X9447664D01*
X9431003D01*
Y6403752D01*
X9414342Y6387091D01*
X9564293Y6303784D02*
X9497648D01*
X9564293Y6370429D01*
Y6387091D01*
X9547632Y6403752D01*
X9514309D01*
X9497648Y6387091D01*
X9597616D02*
X9614277Y6403752D01*
X9647600D01*
X9664261Y6387091D01*
Y6320446D01*
X9647600Y6303784D01*
X9614277D01*
X9597616Y6320446D01*
Y6387091D01*
X9697584Y6303784D02*
X9730906D01*
X9714245D01*
Y6403752D01*
X9697584Y6387091D01*
X11353652Y6843777D02*
X11370313Y6827115D01*
X11403635D01*
X11420297Y6843777D01*
Y6910422D01*
X11403635Y6927083D01*
X11370313D01*
X11353652Y6910422D01*
X11320329Y6927083D02*
X11287006D01*
X11303668D01*
Y6827115D01*
X11320329Y6843777D01*
X11237022Y6927083D02*
X11203700D01*
X11220361D01*
Y6827115D01*
X11237022Y6843777D01*
X11153716D02*
X11137055Y6827115D01*
X11103732D01*
X11087071Y6843777D01*
Y6910422D01*
X11103732Y6927083D01*
X11137055D01*
X11153716Y6910422D01*
Y6843777D01*
X10987103Y6927083D02*
X11053748D01*
X10987103Y6860438D01*
Y6843777D01*
X11003764Y6827115D01*
X11037087D01*
X11053748Y6843777D01*
X11436590Y6981777D02*
X11453251Y6965116D01*
X11486574D01*
X11503235Y6981777D01*
Y7048422D01*
X11486574Y7065083D01*
X11453251D01*
X11436590Y7048422D01*
X11403268Y7065083D02*
X11369945D01*
X11386606D01*
Y6965116D01*
X11403268Y6981777D01*
X11319961Y7065083D02*
X11286639D01*
X11303300D01*
Y6965116D01*
X11319961Y6981777D01*
X11236655D02*
X11219993Y6965116D01*
X11186671D01*
X11170010Y6981777D01*
Y7048422D01*
X11186671Y7065083D01*
X11219993D01*
X11236655Y7048422D01*
Y6981777D01*
X11136687Y7065083D02*
X11103364D01*
X11120026D01*
Y6965116D01*
X11136687Y6981777D01*
X11325816Y6570297D02*
X11425784D01*
Y6520313D01*
X11409123Y6503652D01*
X11375800D01*
X11359139Y6520313D01*
Y6570297D01*
Y6536974D02*
X11325816Y6503652D01*
Y6470329D02*
Y6437006D01*
Y6453668D01*
X11425784D01*
X11409123Y6470329D01*
X11325816Y6387023D02*
Y6353700D01*
Y6370361D01*
X11425784D01*
X11409123Y6387023D01*
Y6303716D02*
X11425784Y6287055D01*
Y6253732D01*
X11409123Y6237071D01*
X11342478D01*
X11325816Y6253732D01*
Y6287055D01*
X11342478Y6303716D01*
X11409123D01*
X11325816Y6153764D02*
X11425784D01*
X11375800Y6203748D01*
Y6137103D01*
X10621764Y6848216D02*
Y6948184D01*
X10671748D01*
X10688409Y6931523D01*
Y6898200D01*
X10671748Y6881539D01*
X10621764D01*
X10655087D02*
X10688409Y6848216D01*
X10721732D02*
X10755055D01*
X10738394D01*
Y6948184D01*
X10721732Y6931523D01*
X10805039Y6848216D02*
X10838361D01*
X10821700D01*
Y6948184D01*
X10805039Y6931523D01*
X10888345D02*
X10905006Y6948184D01*
X10938329D01*
X10954990Y6931523D01*
Y6864878D01*
X10938329Y6848216D01*
X10905006D01*
X10888345Y6864878D01*
Y6931523D01*
X10988313Y6848216D02*
X11021635D01*
X11004974D01*
Y6948184D01*
X10988313Y6931523D01*
X11327116Y6770297D02*
X11427084D01*
Y6720313D01*
X11410422Y6703652D01*
X11377100D01*
X11360439Y6720313D01*
Y6770297D01*
Y6736974D02*
X11327116Y6703652D01*
Y6670329D02*
Y6637006D01*
Y6653667D01*
X11427084D01*
X11410422Y6670329D01*
X11327116Y6587022D02*
Y6553700D01*
Y6570361D01*
X11427084D01*
X11410422Y6587022D01*
Y6503716D02*
X11427084Y6487055D01*
Y6453732D01*
X11410422Y6437071D01*
X11343777D01*
X11327116Y6453732D01*
Y6487055D01*
X11343777Y6503716D01*
X11410422D01*
Y6403748D02*
X11427084Y6387087D01*
Y6353764D01*
X11410422Y6337103D01*
X11393761D01*
X11377100Y6353764D01*
Y6370426D01*
Y6353764D01*
X11360439Y6337103D01*
X11343777D01*
X11327116Y6353764D01*
Y6387087D01*
X11343777Y6403748D01*
X11315316Y6970297D02*
X11415284D01*
Y6920313D01*
X11398623Y6903652D01*
X11365300D01*
X11348639Y6920313D01*
Y6970297D01*
Y6936974D02*
X11315316Y6903652D01*
Y6870329D02*
Y6837006D01*
Y6853668D01*
X11415284D01*
X11398623Y6870329D01*
X11315316Y6787022D02*
Y6753700D01*
Y6770361D01*
X11415284D01*
X11398623Y6787022D01*
Y6703716D02*
X11415284Y6687055D01*
Y6653732D01*
X11398623Y6637071D01*
X11331978D01*
X11315316Y6653732D01*
Y6687055D01*
X11331978Y6703716D01*
X11398623D01*
X11415284Y6537103D02*
Y6603748D01*
X11365300D01*
X11381961Y6570426D01*
Y6553764D01*
X11365300Y6537103D01*
X11331978D01*
X11315316Y6553764D01*
Y6587087D01*
X11331978Y6603748D01*
X11045297Y6221484D02*
Y6121516D01*
X10995313D01*
X10978652Y6138178D01*
Y6171500D01*
X10995313Y6188162D01*
X11045297D01*
X11011975D02*
X10978652Y6221484D01*
X10945329D02*
X10912007D01*
X10928668D01*
Y6121516D01*
X10945329Y6138178D01*
X10862023Y6221484D02*
X10828700D01*
X10845362D01*
Y6121516D01*
X10862023Y6138178D01*
X10778717D02*
X10762055Y6121516D01*
X10728733D01*
X10712072Y6138178D01*
Y6204823D01*
X10728733Y6221484D01*
X10762055D01*
X10778717Y6204823D01*
Y6138178D01*
X10612104Y6221484D02*
X10678749D01*
X10612104Y6154839D01*
Y6138178D01*
X10628765Y6121516D01*
X10662087D01*
X10678749Y6138178D01*
X11304703Y6241684D02*
Y6141716D01*
X11354687D01*
X11371348Y6158378D01*
Y6225023D01*
X11354687Y6241684D01*
X11304703D01*
X11404671Y6141716D02*
X11437994D01*
X11421333D01*
Y6241684D01*
X11404671Y6225023D01*
X11487978Y6141716D02*
X11521300D01*
X11504639D01*
Y6241684D01*
X11487978Y6225023D01*
X11571284D02*
X11587945Y6241684D01*
X11621268D01*
X11637929Y6225023D01*
Y6158378D01*
X11621268Y6141716D01*
X11587945D01*
X11571284Y6158378D01*
Y6225023D01*
X11737897Y6141716D02*
X11671252D01*
X11737897Y6208361D01*
Y6225023D01*
X11721236Y6241684D01*
X11687913D01*
X11671252Y6225023D01*
X12003235Y6145916D02*
Y6245884D01*
X11953251D01*
X11936590Y6229222D01*
Y6162577D01*
X11953251Y6145916D01*
X12003235D01*
X11903268Y6245884D02*
X11869945D01*
X11886606D01*
Y6145916D01*
X11903268Y6162577D01*
X11819961Y6245884D02*
X11786639D01*
X11803300D01*
Y6145916D01*
X11819961Y6162577D01*
X11736655D02*
X11719993Y6145916D01*
X11686671D01*
X11670010Y6162577D01*
Y6229222D01*
X11686671Y6245884D01*
X11719993D01*
X11736655Y6229222D01*
Y6162577D01*
X11636687Y6245884D02*
X11603364D01*
X11620026D01*
Y6145916D01*
X11636687Y6162577D01*
%TF.MD5,ddcf704a87fe40342155e4df35fc1283*%
M02*
